M48
;GenerationSoftware,Autodesk,EAGLE,9.6.1*%
;CreationDate,2022-12-20T14:08:58Z*%
FMAT,2
ICI,OFF
METRIC,TZ,000.000
T3C0.350
T2C0.800
T1C1.016
%
G90
M71
T1
X2540Y5874
X2540Y28257
X0Y28257
X-2540Y28257
T2
X7720Y24924
X-10260Y9684
X-7720Y9684
X-5180Y9684
X-2640Y9684
X-100Y9684
X2440Y9684
X4980Y9684
X7520Y9684
X10060Y9684
X10260Y24924
X5180Y24924
X2640Y24924
X100Y24924
X-2640Y24924
X-5180Y24924
X-7720Y24924
X-10260Y24924
T3
X-10795Y13494
X-5452Y18995
X2064Y20320
X-794Y11112
X-4390Y18922
X-2481Y26211
X-5239Y7144
X3362Y7126
X-2795Y10971
X-10636Y17780
X2505Y22542
X4604Y22554
X-3959Y3486
X13562Y14300
X-5228Y27771
X-12700Y13652
X2857Y3245
X8872Y27200
X-8011Y16151
X-11821Y11706
X-9281Y12659
X-8646Y22025
X-6900Y22343
X13652Y11747
X11271Y14287
X-10636Y19844
X13176Y21273
X10732Y18574
X1270Y28880
X1357Y24360
X-12526Y20796
X4054Y16900
X-4455Y6388
X-13970Y22340
X6484Y12780
X995Y20424
X3265Y20140
X-3346Y19050
X-1746Y20796
X161Y11271
M30