G04 EAGLE Gerber RS-274X export*
G75*
%MOMM*%
%FSLAX34Y34*%
%LPD*%
%INTop Copper*%
%IPPOS*%
%AMOC8*
5,1,8,0,0,1.08239X$1,22.5*%
G01*
%ADD10R,0.800000X0.800000*%
%ADD11P,1.649562X8X22.500000*%
%ADD12R,0.700000X0.900000*%
%ADD13R,1.000000X1.100000*%
%ADD14C,1.524000*%
%ADD15C,1.000000*%
%ADD16C,1.422400*%
%ADD17R,1.000000X1.400000*%
%ADD18R,0.900000X0.700000*%
%ADD19C,0.304800*%
%ADD20C,0.756400*%
%ADD21C,0.609600*%
%ADD22C,0.406400*%
%ADD23C,0.292100*%
%ADD24C,0.254000*%

G36*
X18Y-656D02*
X18Y-656D01*
X96Y-657D01*
X119Y-648D01*
X139Y-646D01*
X178Y-626D01*
X252Y-599D01*
X16706Y8901D01*
X16728Y8920D01*
X16753Y8932D01*
X16788Y8970D01*
X16791Y8972D01*
X16794Y8977D01*
X16801Y8985D01*
X16855Y9033D01*
X16867Y9059D01*
X16886Y9080D01*
X16910Y9148D01*
X16941Y9212D01*
X16942Y9241D01*
X16952Y9268D01*
X16947Y9339D01*
X16950Y9411D01*
X16940Y9438D01*
X16938Y9466D01*
X16895Y9558D01*
X16881Y9597D01*
X16873Y9605D01*
X16868Y9617D01*
X16461Y10208D01*
X45138Y26764D01*
X45248Y26848D01*
X45362Y26929D01*
X45375Y26944D01*
X45391Y26957D01*
X45478Y27066D01*
X45567Y27172D01*
X45576Y27190D01*
X45589Y27206D01*
X45645Y27333D01*
X45706Y27458D01*
X45710Y27478D01*
X45718Y27496D01*
X45741Y27634D01*
X45769Y27770D01*
X45768Y27790D01*
X45771Y27810D01*
X45760Y27948D01*
X45753Y28087D01*
X45747Y28107D01*
X45745Y28127D01*
X45699Y28258D01*
X45658Y28391D01*
X45647Y28408D01*
X45640Y28427D01*
X45564Y28543D01*
X45490Y28661D01*
X45476Y28675D01*
X45465Y28692D01*
X45361Y28785D01*
X45261Y28882D01*
X45243Y28892D01*
X45228Y28905D01*
X45106Y28969D01*
X44984Y29038D01*
X44957Y29047D01*
X44947Y29053D01*
X44927Y29057D01*
X44832Y29090D01*
X44569Y29160D01*
X44484Y29171D01*
X44401Y29193D01*
X44265Y29202D01*
X44254Y29203D01*
X44250Y29203D01*
X44241Y29203D01*
X34000Y29203D01*
X33902Y29191D01*
X33803Y29188D01*
X33745Y29171D01*
X33685Y29163D01*
X33593Y29127D01*
X33498Y29099D01*
X33445Y29068D01*
X33389Y29046D01*
X33309Y28988D01*
X33224Y28938D01*
X33148Y28871D01*
X33132Y28859D01*
X33124Y28850D01*
X33103Y28831D01*
X31840Y27569D01*
X29722Y26691D01*
X27428Y26691D01*
X25310Y27569D01*
X23689Y29190D01*
X22811Y31308D01*
X22811Y33602D01*
X23689Y35720D01*
X25310Y37341D01*
X27428Y38219D01*
X29722Y38219D01*
X31840Y37341D01*
X33103Y36079D01*
X33181Y36018D01*
X33253Y35950D01*
X33306Y35921D01*
X33354Y35884D01*
X33445Y35844D01*
X33532Y35797D01*
X33590Y35781D01*
X33646Y35757D01*
X33744Y35742D01*
X33840Y35717D01*
X33940Y35711D01*
X33960Y35708D01*
X33972Y35709D01*
X34000Y35707D01*
X43624Y35707D01*
X43716Y35718D01*
X43808Y35720D01*
X43873Y35738D01*
X43940Y35747D01*
X44026Y35781D01*
X44115Y35805D01*
X44220Y35858D01*
X44236Y35864D01*
X44243Y35869D01*
X44259Y35877D01*
X45311Y36484D01*
X45403Y36554D01*
X45500Y36618D01*
X45529Y36650D01*
X45564Y36676D01*
X45636Y36767D01*
X45714Y36853D01*
X45748Y36909D01*
X45761Y36926D01*
X45769Y36943D01*
X45798Y36990D01*
X45906Y37194D01*
X45907Y37198D01*
X45910Y37201D01*
X45964Y37347D01*
X46018Y37492D01*
X46018Y37496D01*
X46020Y37500D01*
X46036Y37655D01*
X46053Y37808D01*
X46052Y37812D01*
X46053Y37816D01*
X46039Y37976D01*
X45805Y39525D01*
X45804Y39529D01*
X45804Y39534D01*
X45761Y39683D01*
X45719Y39832D01*
X45717Y39835D01*
X45716Y39839D01*
X45637Y39972D01*
X45594Y40047D01*
X45594Y40835D01*
X45592Y40849D01*
X45593Y40864D01*
X45579Y41024D01*
X45462Y41804D01*
X45501Y41874D01*
X45502Y41878D01*
X45504Y41882D01*
X45542Y42031D01*
X45582Y42182D01*
X45582Y42186D01*
X45583Y42190D01*
X45594Y42350D01*
X45594Y43917D01*
X45593Y43921D01*
X45594Y43925D01*
X45573Y44078D01*
X45554Y44233D01*
X45552Y44236D01*
X45552Y44240D01*
X45494Y44384D01*
X45462Y44464D01*
X45579Y45243D01*
X45580Y45258D01*
X45583Y45272D01*
X45594Y45433D01*
X45594Y46222D01*
X45643Y46285D01*
X45644Y46289D01*
X45647Y46292D01*
X45708Y46436D01*
X45769Y46577D01*
X45770Y46581D01*
X45771Y46585D01*
X45805Y46742D01*
X46039Y48291D01*
X46039Y48295D01*
X46040Y48299D01*
X46043Y48457D01*
X46046Y48609D01*
X46045Y48613D01*
X46046Y48617D01*
X46009Y48769D01*
X45990Y48852D01*
X46222Y49605D01*
X46225Y49619D01*
X46231Y49632D01*
X46265Y49790D01*
X46382Y50570D01*
X46440Y50625D01*
X46442Y50629D01*
X46445Y50631D01*
X46524Y50759D01*
X46609Y50895D01*
X46610Y50899D01*
X46612Y50902D01*
X46669Y51053D01*
X47131Y52550D01*
X47132Y52554D01*
X47133Y52558D01*
X47159Y52711D01*
X47186Y52863D01*
X47186Y52867D01*
X47186Y52871D01*
X47173Y53024D01*
X47167Y53112D01*
X47508Y53822D01*
X47513Y53835D01*
X47521Y53848D01*
X47567Y53970D01*
X47572Y53981D01*
X47573Y53987D01*
X47578Y53998D01*
X47810Y54752D01*
X47876Y54798D01*
X47878Y54801D01*
X47882Y54804D01*
X47983Y54923D01*
X48082Y55040D01*
X48084Y55043D01*
X48087Y55047D01*
X48166Y55187D01*
X48846Y56598D01*
X48847Y56602D01*
X48849Y56606D01*
X48897Y56752D01*
X48947Y56900D01*
X48947Y56904D01*
X48948Y56908D01*
X48958Y57061D01*
X48965Y57149D01*
X49408Y57799D01*
X49415Y57812D01*
X49424Y57823D01*
X49503Y57964D01*
X49846Y58675D01*
X49917Y58710D01*
X49920Y58713D01*
X49924Y58715D01*
X50038Y58815D01*
X50158Y58919D01*
X50160Y58922D01*
X50163Y58925D01*
X50262Y59052D01*
X51145Y60346D01*
X51146Y60350D01*
X51149Y60353D01*
X51218Y60490D01*
X51289Y60629D01*
X51290Y60633D01*
X51292Y60637D01*
X51325Y60789D01*
X51344Y60873D01*
X51880Y61450D01*
X51888Y61462D01*
X51899Y61471D01*
X51998Y61598D01*
X52443Y62250D01*
X52519Y62275D01*
X52522Y62277D01*
X52526Y62278D01*
X52657Y62362D01*
X52788Y62445D01*
X52790Y62448D01*
X52794Y62450D01*
X52911Y62561D01*
X53976Y63709D01*
X53979Y63713D01*
X53982Y63715D01*
X54072Y63843D01*
X54076Y63848D01*
X54077Y63850D01*
X54162Y63968D01*
X54163Y63972D01*
X54166Y63975D01*
X54222Y64122D01*
X54252Y64200D01*
X54868Y64691D01*
X54878Y64702D01*
X54890Y64709D01*
X55007Y64820D01*
X55544Y65399D01*
X55623Y65412D01*
X55627Y65413D01*
X55631Y65414D01*
X55773Y65478D01*
X55914Y65540D01*
X55917Y65542D01*
X55921Y65544D01*
X56053Y65636D01*
X57278Y66613D01*
X57281Y66616D01*
X57284Y66618D01*
X57392Y66730D01*
X57500Y66841D01*
X57502Y66844D01*
X57505Y66847D01*
X57581Y66982D01*
X57624Y67057D01*
X58306Y67451D01*
X58317Y67460D01*
X58331Y67466D01*
X58463Y67558D01*
X59080Y68050D01*
X59160Y68051D01*
X59164Y68052D01*
X59168Y68052D01*
X59317Y68094D01*
X59467Y68134D01*
X59470Y68136D01*
X59474Y68137D01*
X59618Y68209D01*
X60975Y68992D01*
X60978Y68995D01*
X60982Y68996D01*
X61105Y69091D01*
X61229Y69184D01*
X61231Y69188D01*
X61234Y69190D01*
X61330Y69312D01*
X61383Y69380D01*
X62117Y69667D01*
X62129Y69674D01*
X62143Y69678D01*
X62288Y69750D01*
X62971Y70144D01*
X63050Y70133D01*
X63054Y70134D01*
X63058Y70133D01*
X63212Y70152D01*
X63366Y70170D01*
X63370Y70171D01*
X63374Y70172D01*
X63527Y70221D01*
X64986Y70794D01*
X64990Y70796D01*
X64993Y70797D01*
X65128Y70871D01*
X65265Y70946D01*
X65268Y70949D01*
X65272Y70951D01*
X65384Y71057D01*
X65447Y71116D01*
X66215Y71291D01*
X66229Y71296D01*
X66243Y71298D01*
X66396Y71347D01*
X67131Y71635D01*
X67208Y71613D01*
X67212Y71613D01*
X67216Y71612D01*
X67370Y71607D01*
X67526Y71602D01*
X67530Y71603D01*
X67534Y71603D01*
X67693Y71628D01*
X69220Y71977D01*
X69224Y71979D01*
X69228Y71979D01*
X69372Y72032D01*
X69519Y72086D01*
X69522Y72088D01*
X69526Y72090D01*
X69654Y72179D01*
X69725Y72227D01*
X70510Y72286D01*
X70524Y72289D01*
X70539Y72289D01*
X70698Y72314D01*
X71467Y72490D01*
X71539Y72456D01*
X71543Y72455D01*
X71547Y72454D01*
X71703Y72426D01*
X71852Y72398D01*
X71856Y72398D01*
X71860Y72397D01*
X72021Y72399D01*
X73584Y72516D01*
X73588Y72517D01*
X73592Y72517D01*
X73745Y72549D01*
X73895Y72580D01*
X73899Y72582D01*
X73903Y72582D01*
X74042Y72651D01*
X74120Y72689D01*
X74905Y72630D01*
X74920Y72630D01*
X74934Y72628D01*
X75095Y72630D01*
X75882Y72689D01*
X75948Y72644D01*
X75952Y72643D01*
X75956Y72641D01*
X76102Y72591D01*
X76249Y72540D01*
X76253Y72540D01*
X76257Y72539D01*
X76416Y72516D01*
X77979Y72399D01*
X77983Y72400D01*
X77987Y72399D01*
X78142Y72408D01*
X78296Y72415D01*
X78300Y72417D01*
X78304Y72417D01*
X78451Y72464D01*
X78534Y72490D01*
X79302Y72314D01*
X79317Y72313D01*
X79330Y72308D01*
X79490Y72286D01*
X80277Y72227D01*
X80336Y72174D01*
X80340Y72172D01*
X80343Y72169D01*
X80479Y72098D01*
X80618Y72026D01*
X80622Y72025D01*
X80625Y72023D01*
X80780Y71977D01*
X82307Y71628D01*
X82311Y71628D01*
X82315Y71627D01*
X82470Y71612D01*
X82624Y71597D01*
X82628Y71598D01*
X82632Y71597D01*
X82786Y71622D01*
X82870Y71635D01*
X83603Y71347D01*
X83617Y71344D01*
X83630Y71337D01*
X83785Y71291D01*
X84554Y71116D01*
X84605Y71054D01*
X84608Y71051D01*
X84611Y71048D01*
X84735Y70958D01*
X84861Y70866D01*
X84865Y70864D01*
X84868Y70862D01*
X85014Y70794D01*
X86473Y70221D01*
X86477Y70220D01*
X86480Y70218D01*
X86629Y70182D01*
X86781Y70143D01*
X86785Y70143D01*
X86789Y70142D01*
X86944Y70143D01*
X87030Y70144D01*
X87712Y69750D01*
X87726Y69744D01*
X87737Y69736D01*
X87883Y69667D01*
X88618Y69379D01*
X88659Y69311D01*
X88662Y69308D01*
X88664Y69304D01*
X88775Y69195D01*
X88884Y69086D01*
X88888Y69084D01*
X88891Y69081D01*
X89025Y68992D01*
X90382Y68209D01*
X90385Y68207D01*
X90389Y68205D01*
X90532Y68145D01*
X90675Y68085D01*
X90679Y68085D01*
X90683Y68083D01*
X90837Y68061D01*
X90921Y68049D01*
X91537Y67558D01*
X91550Y67550D01*
X91560Y67540D01*
X91694Y67451D01*
X92377Y67056D01*
X92408Y66982D01*
X92410Y66979D01*
X92412Y66975D01*
X92506Y66850D01*
X92597Y66727D01*
X92600Y66724D01*
X92603Y66721D01*
X92722Y66613D01*
X93947Y65636D01*
X93951Y65634D01*
X93953Y65631D01*
X94085Y65552D01*
X94219Y65471D01*
X94222Y65469D01*
X94226Y65467D01*
X94377Y65422D01*
X94457Y65398D01*
X94993Y64820D01*
X95004Y64811D01*
X95013Y64799D01*
X95132Y64691D01*
X95749Y64199D01*
X95768Y64122D01*
X95770Y64118D01*
X95771Y64114D01*
X95846Y63975D01*
X95917Y63841D01*
X95920Y63838D01*
X95922Y63834D01*
X96024Y63709D01*
X97089Y62561D01*
X97092Y62558D01*
X97095Y62555D01*
X97213Y62457D01*
X97333Y62357D01*
X97337Y62355D01*
X97340Y62352D01*
X97479Y62287D01*
X97558Y62249D01*
X98002Y61598D01*
X98011Y61587D01*
X98018Y61575D01*
X98120Y61450D01*
X98657Y60872D01*
X98664Y60792D01*
X98665Y60788D01*
X98666Y60784D01*
X98719Y60636D01*
X98770Y60492D01*
X98772Y60489D01*
X98773Y60485D01*
X98855Y60346D01*
X99448Y59477D01*
X99496Y59423D01*
X99536Y59363D01*
X99601Y59304D01*
X99659Y59238D01*
X99718Y59198D01*
X99772Y59150D01*
X99849Y59109D01*
X99922Y59060D01*
X99990Y59036D01*
X100053Y59002D01*
X100139Y58982D01*
X100222Y58953D01*
X100293Y58946D01*
X100363Y58929D01*
X100451Y58931D01*
X100538Y58923D01*
X100609Y58934D01*
X100681Y58936D01*
X100766Y58959D01*
X100852Y58973D01*
X100918Y59002D01*
X100987Y59021D01*
X101132Y59092D01*
X132784Y77367D01*
X133093Y76719D01*
X133110Y76697D01*
X133119Y76670D01*
X133169Y76618D01*
X133212Y76560D01*
X133237Y76546D01*
X133256Y76525D01*
X133322Y76497D01*
X133384Y76461D01*
X133412Y76457D01*
X133438Y76446D01*
X133510Y76445D01*
X133581Y76436D01*
X133609Y76444D01*
X133637Y76443D01*
X133733Y76479D01*
X133773Y76490D01*
X133781Y76497D01*
X133793Y76501D01*
X150247Y86001D01*
X150306Y86053D01*
X150368Y86099D01*
X150380Y86118D01*
X150396Y86133D01*
X150430Y86203D01*
X150470Y86270D01*
X150474Y86295D01*
X150482Y86312D01*
X150484Y86357D01*
X150497Y86434D01*
X150474Y105474D01*
X150469Y105502D01*
X150471Y105530D01*
X150449Y105598D01*
X150434Y105669D01*
X150418Y105692D01*
X150409Y105719D01*
X150362Y105773D01*
X150322Y105832D01*
X150298Y105848D01*
X150279Y105869D01*
X150215Y105901D01*
X150154Y105939D01*
X150126Y105944D01*
X150100Y105956D01*
X150000Y105965D01*
X149958Y105972D01*
X149947Y105970D01*
X149934Y105971D01*
X149243Y105914D01*
X149242Y142411D01*
X149233Y142482D01*
X149234Y142554D01*
X149213Y142639D01*
X149203Y142726D01*
X149176Y142793D01*
X149159Y142863D01*
X149118Y142940D01*
X149085Y143022D01*
X149043Y143080D01*
X149009Y143144D01*
X148950Y143208D01*
X148899Y143279D01*
X148843Y143325D01*
X148795Y143378D01*
X148721Y143426D01*
X148654Y143482D01*
X148589Y143513D01*
X148528Y143552D01*
X148445Y143580D01*
X148366Y143618D01*
X148295Y143631D01*
X148227Y143654D01*
X148068Y143676D01*
X147025Y143754D01*
X147021Y143754D01*
X147017Y143755D01*
X146861Y143746D01*
X146707Y143738D01*
X146704Y143737D01*
X146699Y143736D01*
X146552Y143689D01*
X146469Y143664D01*
X145702Y143839D01*
X145687Y143840D01*
X145673Y143845D01*
X145514Y143867D01*
X144727Y143926D01*
X144668Y143979D01*
X144664Y143981D01*
X144661Y143984D01*
X144526Y144054D01*
X144386Y144127D01*
X144382Y144128D01*
X144378Y144130D01*
X144224Y144175D01*
X142936Y144469D01*
X142882Y144474D01*
X142858Y144481D01*
X142810Y144484D01*
X142734Y144498D01*
X142677Y144495D01*
X142619Y144500D01*
X142519Y144485D01*
X142417Y144478D01*
X142362Y144461D01*
X142305Y144452D01*
X142211Y144412D01*
X142114Y144380D01*
X142066Y144350D01*
X142013Y144327D01*
X141932Y144265D01*
X141846Y144210D01*
X141806Y144168D01*
X141760Y144133D01*
X141698Y144053D01*
X141628Y143979D01*
X141600Y143928D01*
X141564Y143883D01*
X141524Y143789D01*
X141474Y143700D01*
X141460Y143644D01*
X141437Y143591D01*
X141420Y143491D01*
X141395Y143392D01*
X141390Y143317D01*
X141387Y143302D01*
X141388Y143292D01*
X141385Y143278D01*
X141387Y143264D01*
X141385Y143231D01*
X141385Y141851D01*
X140507Y139732D01*
X138886Y138111D01*
X136767Y137233D01*
X134474Y137233D01*
X132356Y138111D01*
X130734Y139732D01*
X129857Y141851D01*
X129857Y144144D01*
X130734Y146262D01*
X131997Y147525D01*
X132058Y147603D01*
X132126Y147676D01*
X132155Y147729D01*
X132192Y147776D01*
X132231Y147867D01*
X132279Y147954D01*
X132294Y148013D01*
X132318Y148068D01*
X132334Y148166D01*
X132359Y148262D01*
X132365Y148362D01*
X132368Y148382D01*
X132367Y148395D01*
X132369Y148423D01*
X132369Y148851D01*
X132367Y148862D01*
X132369Y148873D01*
X132348Y149018D01*
X132329Y149166D01*
X132325Y149177D01*
X132323Y149188D01*
X132266Y149324D01*
X132212Y149462D01*
X132205Y149471D01*
X132201Y149481D01*
X132112Y149600D01*
X132025Y149719D01*
X132017Y149727D01*
X132010Y149735D01*
X131891Y149844D01*
X131047Y150516D01*
X131043Y150518D01*
X131040Y150521D01*
X130908Y150600D01*
X130775Y150682D01*
X130771Y150683D01*
X130768Y150685D01*
X130617Y150730D01*
X130537Y150754D01*
X130001Y151332D01*
X129990Y151341D01*
X129981Y151353D01*
X129861Y151461D01*
X129244Y151952D01*
X129226Y152030D01*
X129224Y152034D01*
X129223Y152038D01*
X129148Y152175D01*
X129076Y152311D01*
X129073Y152314D01*
X129071Y152317D01*
X128970Y152442D01*
X127902Y153592D01*
X127899Y153595D01*
X127896Y153598D01*
X127778Y153696D01*
X127658Y153796D01*
X127654Y153798D01*
X127651Y153800D01*
X127512Y153866D01*
X127433Y153904D01*
X126989Y154554D01*
X126980Y154565D01*
X126973Y154578D01*
X126871Y154703D01*
X126334Y155281D01*
X126327Y155361D01*
X126325Y155364D01*
X126325Y155368D01*
X126273Y155513D01*
X126221Y155660D01*
X126219Y155664D01*
X126217Y155668D01*
X126135Y155806D01*
X125251Y157102D01*
X125248Y157105D01*
X125246Y157109D01*
X125142Y157225D01*
X125040Y157340D01*
X125037Y157343D01*
X125034Y157346D01*
X124905Y157432D01*
X124834Y157480D01*
X124492Y158190D01*
X124484Y158202D01*
X124479Y158216D01*
X124397Y158354D01*
X123952Y159006D01*
X123957Y159086D01*
X123956Y159090D01*
X123956Y159094D01*
X123926Y159245D01*
X123897Y159398D01*
X123895Y159402D01*
X123894Y159406D01*
X123834Y159555D01*
X123152Y160968D01*
X123150Y160972D01*
X123149Y160976D01*
X123064Y161105D01*
X122980Y161235D01*
X122977Y161238D01*
X122974Y161241D01*
X122861Y161345D01*
X122796Y161404D01*
X122564Y162157D01*
X122558Y162170D01*
X122555Y162184D01*
X122494Y162334D01*
X122152Y163044D01*
X122169Y163123D01*
X122168Y163127D01*
X122169Y163131D01*
X122162Y163287D01*
X122156Y163440D01*
X122155Y163444D01*
X122154Y163448D01*
X122117Y163605D01*
X121654Y165104D01*
X121652Y165108D01*
X121651Y165112D01*
X121586Y165253D01*
X121523Y165394D01*
X121520Y165397D01*
X121518Y165401D01*
X121419Y165523D01*
X121366Y165588D01*
X121249Y166367D01*
X121245Y166381D01*
X121244Y166395D01*
X121207Y166552D01*
X120974Y167306D01*
X121002Y167381D01*
X121002Y167385D01*
X121004Y167389D01*
X121020Y167543D01*
X121037Y167697D01*
X121036Y167701D01*
X121036Y167705D01*
X121022Y167866D01*
X120788Y169417D01*
X120787Y169421D01*
X120787Y169425D01*
X120744Y169573D01*
X120702Y169723D01*
X120700Y169727D01*
X120698Y169730D01*
X120620Y169864D01*
X120576Y169938D01*
X120576Y170726D01*
X120574Y170741D01*
X120576Y170755D01*
X120562Y170915D01*
X120444Y171696D01*
X120483Y171765D01*
X120484Y171769D01*
X120486Y171773D01*
X120524Y171922D01*
X120564Y172073D01*
X120564Y172077D01*
X120565Y172081D01*
X120576Y172242D01*
X120575Y173811D01*
X120575Y173815D01*
X120575Y173819D01*
X120555Y173971D01*
X120535Y174126D01*
X120534Y174130D01*
X120533Y174134D01*
X120477Y174272D01*
X120443Y174358D01*
X120560Y175137D01*
X120561Y175151D01*
X120564Y175165D01*
X120575Y175326D01*
X120574Y176115D01*
X120623Y176178D01*
X120625Y176182D01*
X120627Y176185D01*
X120688Y176328D01*
X120750Y176470D01*
X120750Y176474D01*
X120752Y176478D01*
X120786Y176636D01*
X121019Y178187D01*
X121019Y178191D01*
X121020Y178195D01*
X121023Y178353D01*
X121027Y178505D01*
X121026Y178509D01*
X121026Y178513D01*
X120990Y178665D01*
X120970Y178748D01*
X121202Y179501D01*
X121205Y179515D01*
X121211Y179528D01*
X121245Y179686D01*
X121362Y180466D01*
X121420Y180521D01*
X121422Y180525D01*
X121425Y180528D01*
X121506Y180659D01*
X121588Y180791D01*
X121589Y180795D01*
X121592Y180798D01*
X121649Y180949D01*
X122111Y182448D01*
X122111Y182452D01*
X122113Y182456D01*
X122139Y182608D01*
X122165Y182762D01*
X122165Y182766D01*
X122166Y182770D01*
X122153Y182927D01*
X122146Y183010D01*
X122488Y183720D01*
X122492Y183734D01*
X122500Y183746D01*
X122557Y183897D01*
X122789Y184651D01*
X122855Y184697D01*
X122857Y184700D01*
X122861Y184702D01*
X122961Y184821D01*
X123061Y184938D01*
X123063Y184942D01*
X123066Y184945D01*
X123145Y185086D01*
X123825Y186499D01*
X123826Y186503D01*
X123829Y186507D01*
X123877Y186654D01*
X123926Y186801D01*
X123926Y186805D01*
X123927Y186809D01*
X123938Y186965D01*
X123944Y187050D01*
X124387Y187701D01*
X124394Y187714D01*
X124403Y187725D01*
X124482Y187865D01*
X124824Y188576D01*
X124896Y188612D01*
X124899Y188614D01*
X124903Y188616D01*
X125020Y188719D01*
X125136Y188820D01*
X125139Y188823D01*
X125142Y188826D01*
X125241Y188953D01*
X126124Y190250D01*
X126126Y190253D01*
X126129Y190257D01*
X126198Y190395D01*
X126269Y190533D01*
X126270Y190537D01*
X126272Y190541D01*
X126305Y190695D01*
X126323Y190776D01*
X126859Y191354D01*
X126867Y191365D01*
X126878Y191375D01*
X126977Y191502D01*
X127422Y192154D01*
X127498Y192179D01*
X127501Y192181D01*
X127505Y192182D01*
X127634Y192265D01*
X127766Y192349D01*
X127769Y192352D01*
X127773Y192354D01*
X127890Y192465D01*
X128956Y193615D01*
X128959Y193619D01*
X128962Y193621D01*
X129051Y193748D01*
X129142Y193874D01*
X129143Y193878D01*
X129145Y193881D01*
X129201Y194026D01*
X129232Y194106D01*
X129848Y194598D01*
X129858Y194608D01*
X129870Y194616D01*
X129987Y194727D01*
X130523Y195305D01*
X130602Y195318D01*
X130606Y195320D01*
X130610Y195321D01*
X130751Y195384D01*
X130893Y195446D01*
X130897Y195449D01*
X130900Y195451D01*
X131032Y195543D01*
X132259Y196522D01*
X132262Y196525D01*
X132265Y196527D01*
X132372Y196638D01*
X132480Y196749D01*
X132482Y196753D01*
X132485Y196756D01*
X132562Y196892D01*
X132604Y196966D01*
X133286Y197360D01*
X133298Y197369D01*
X133311Y197375D01*
X133443Y197467D01*
X134060Y197959D01*
X134140Y197960D01*
X134144Y197961D01*
X134148Y197961D01*
X134295Y198002D01*
X134447Y198043D01*
X134450Y198045D01*
X134454Y198046D01*
X134599Y198118D01*
X135957Y198903D01*
X135960Y198905D01*
X135964Y198907D01*
X136087Y199001D01*
X136210Y199095D01*
X136213Y199099D01*
X136216Y199101D01*
X136311Y199223D01*
X136365Y199291D01*
X137098Y199579D01*
X137111Y199586D01*
X137125Y199590D01*
X137269Y199661D01*
X137953Y200056D01*
X138032Y200045D01*
X138036Y200045D01*
X138040Y200045D01*
X138194Y200064D01*
X138348Y200082D01*
X138352Y200083D01*
X138356Y200084D01*
X138509Y200133D01*
X139969Y200707D01*
X139973Y200708D01*
X139977Y200710D01*
X140113Y200785D01*
X140248Y200859D01*
X140251Y200862D01*
X140255Y200864D01*
X140368Y200970D01*
X140431Y201029D01*
X141198Y201205D01*
X141212Y201210D01*
X141226Y201211D01*
X141380Y201261D01*
X142114Y201549D01*
X142191Y201527D01*
X142195Y201526D01*
X142199Y201525D01*
X142354Y201521D01*
X142509Y201516D01*
X142513Y201517D01*
X142517Y201517D01*
X142676Y201542D01*
X144205Y201892D01*
X144209Y201893D01*
X144213Y201894D01*
X144357Y201947D01*
X144504Y202001D01*
X144508Y202003D01*
X144511Y202005D01*
X144637Y202092D01*
X144710Y202142D01*
X145495Y202201D01*
X145509Y202204D01*
X145524Y202204D01*
X145683Y202230D01*
X146452Y202406D01*
X146524Y202372D01*
X146528Y202371D01*
X146532Y202369D01*
X146684Y202342D01*
X146837Y202314D01*
X146841Y202314D01*
X146845Y202313D01*
X147006Y202315D01*
X148068Y202395D01*
X148138Y202409D01*
X148209Y202414D01*
X148293Y202441D01*
X148379Y202458D01*
X148444Y202490D01*
X148512Y202512D01*
X148586Y202559D01*
X148665Y202597D01*
X148720Y202644D01*
X148780Y202682D01*
X148841Y202746D01*
X148908Y202803D01*
X148949Y202861D01*
X148998Y202913D01*
X149041Y202991D01*
X149092Y203062D01*
X149117Y203129D01*
X149152Y203192D01*
X149174Y203277D01*
X149205Y203359D01*
X149213Y203431D01*
X149231Y203500D01*
X149242Y203661D01*
X149241Y240160D01*
X149978Y240100D01*
X150007Y240104D01*
X150035Y240099D01*
X150105Y240116D01*
X150176Y240124D01*
X150201Y240139D01*
X150229Y240145D01*
X150286Y240188D01*
X150348Y240223D01*
X150366Y240246D01*
X150389Y240263D01*
X150425Y240325D01*
X150468Y240382D01*
X150475Y240410D01*
X150490Y240435D01*
X150507Y240533D01*
X150517Y240574D01*
X150515Y240585D01*
X150518Y240599D01*
X150495Y259638D01*
X150479Y259714D01*
X150471Y259790D01*
X150460Y259810D01*
X150455Y259833D01*
X150411Y259896D01*
X150374Y259963D01*
X150354Y259980D01*
X150342Y259997D01*
X150305Y260021D01*
X150246Y260070D01*
X133769Y269609D01*
X133741Y269618D01*
X133717Y269635D01*
X133648Y269650D01*
X133580Y269672D01*
X133551Y269670D01*
X133523Y269676D01*
X133453Y269663D01*
X133382Y269657D01*
X133356Y269644D01*
X133328Y269638D01*
X133268Y269598D01*
X133205Y269566D01*
X133187Y269543D01*
X133163Y269527D01*
X133105Y269445D01*
X133078Y269413D01*
X133075Y269402D01*
X133067Y269391D01*
X132750Y268723D01*
X101141Y286973D01*
X101075Y287001D01*
X101014Y287037D01*
X100929Y287062D01*
X100848Y287096D01*
X100777Y287107D01*
X100708Y287127D01*
X100621Y287130D01*
X100533Y287143D01*
X100462Y287135D01*
X100391Y287138D01*
X100305Y287119D01*
X100217Y287110D01*
X100150Y287085D01*
X100080Y287069D01*
X100002Y287029D01*
X99919Y286999D01*
X99860Y286958D01*
X99796Y286926D01*
X99730Y286868D01*
X99658Y286817D01*
X99611Y286763D01*
X99557Y286716D01*
X99458Y286589D01*
X98858Y285710D01*
X98857Y285706D01*
X98854Y285703D01*
X98783Y285563D01*
X98713Y285427D01*
X98713Y285423D01*
X98711Y285419D01*
X98678Y285268D01*
X98659Y285184D01*
X98123Y284606D01*
X98114Y284595D01*
X98103Y284585D01*
X98004Y284458D01*
X97560Y283806D01*
X97483Y283782D01*
X97480Y283780D01*
X97476Y283778D01*
X97345Y283694D01*
X97215Y283612D01*
X97212Y283609D01*
X97208Y283607D01*
X97091Y283496D01*
X96024Y282346D01*
X96021Y282343D01*
X96018Y282340D01*
X95929Y282214D01*
X95838Y282088D01*
X95837Y282084D01*
X95835Y282080D01*
X95779Y281936D01*
X95748Y281855D01*
X95132Y281364D01*
X95122Y281354D01*
X95110Y281346D01*
X94993Y281235D01*
X94456Y280657D01*
X94377Y280644D01*
X94373Y280643D01*
X94369Y280642D01*
X94228Y280579D01*
X94086Y280516D01*
X94082Y280514D01*
X94079Y280512D01*
X93947Y280420D01*
X92720Y279442D01*
X92717Y279439D01*
X92713Y279437D01*
X92606Y279325D01*
X92498Y279214D01*
X92496Y279211D01*
X92493Y279208D01*
X92417Y279074D01*
X92374Y278998D01*
X92218Y278908D01*
X92118Y278832D01*
X92014Y278761D01*
X91992Y278736D01*
X91965Y278716D01*
X91887Y278617D01*
X91803Y278523D01*
X91788Y278493D01*
X91767Y278467D01*
X91716Y278352D01*
X91659Y278240D01*
X91651Y278207D01*
X91638Y278177D01*
X91617Y278052D01*
X91589Y277930D01*
X91590Y277896D01*
X91584Y277863D01*
X91595Y277738D01*
X91599Y277612D01*
X91608Y277579D01*
X91611Y277546D01*
X91652Y277427D01*
X91687Y277306D01*
X91704Y277277D01*
X91715Y277246D01*
X91785Y277141D01*
X91849Y277032D01*
X91881Y276996D01*
X91891Y276981D01*
X91907Y276966D01*
X91955Y276911D01*
X93602Y275264D01*
X94480Y273146D01*
X94480Y270853D01*
X93602Y268734D01*
X91981Y267113D01*
X89862Y266235D01*
X87569Y266235D01*
X85451Y267113D01*
X83829Y268734D01*
X82952Y270853D01*
X82952Y272638D01*
X82940Y272737D01*
X82937Y272836D01*
X82920Y272894D01*
X82912Y272954D01*
X82876Y273046D01*
X82848Y273141D01*
X82817Y273193D01*
X82795Y273250D01*
X82737Y273330D01*
X82687Y273415D01*
X82620Y273490D01*
X82608Y273507D01*
X82599Y273515D01*
X82580Y273536D01*
X82297Y273819D01*
X82233Y273869D01*
X82175Y273927D01*
X82108Y273966D01*
X82046Y274014D01*
X81971Y274046D01*
X81900Y274088D01*
X81826Y274109D01*
X81754Y274140D01*
X81674Y274153D01*
X81595Y274175D01*
X81517Y274178D01*
X81440Y274190D01*
X81359Y274182D01*
X81277Y274184D01*
X81129Y274161D01*
X81124Y274160D01*
X81122Y274159D01*
X81118Y274159D01*
X80770Y274079D01*
X80766Y274078D01*
X80762Y274077D01*
X80613Y274022D01*
X80471Y273970D01*
X80467Y273968D01*
X80464Y273967D01*
X80333Y273876D01*
X80265Y273829D01*
X79479Y273771D01*
X79465Y273768D01*
X79451Y273768D01*
X79292Y273742D01*
X78523Y273567D01*
X78450Y273601D01*
X78446Y273602D01*
X78442Y273603D01*
X78288Y273631D01*
X78137Y273659D01*
X78133Y273659D01*
X78129Y273660D01*
X77968Y273658D01*
X76404Y273541D01*
X76400Y273540D01*
X76395Y273541D01*
X76243Y273509D01*
X76092Y273478D01*
X76088Y273476D01*
X76084Y273475D01*
X75945Y273407D01*
X75868Y273369D01*
X75082Y273428D01*
X75068Y273428D01*
X75053Y273430D01*
X74892Y273428D01*
X74105Y273370D01*
X74039Y273414D01*
X74035Y273415D01*
X74031Y273418D01*
X73883Y273468D01*
X73738Y273518D01*
X73734Y273519D01*
X73730Y273520D01*
X73571Y273542D01*
X72006Y273660D01*
X72002Y273660D01*
X71998Y273660D01*
X71844Y273652D01*
X71689Y273644D01*
X71685Y273643D01*
X71681Y273642D01*
X71535Y273596D01*
X71451Y273570D01*
X70683Y273745D01*
X70668Y273747D01*
X70655Y273751D01*
X70495Y273774D01*
X69708Y273833D01*
X69649Y273886D01*
X69645Y273888D01*
X69642Y273891D01*
X69504Y273962D01*
X69367Y274034D01*
X69363Y274035D01*
X69360Y274037D01*
X69205Y274083D01*
X67676Y274433D01*
X67672Y274433D01*
X67668Y274434D01*
X67516Y274449D01*
X67359Y274464D01*
X67355Y274463D01*
X67351Y274464D01*
X67199Y274439D01*
X67113Y274426D01*
X66380Y274714D01*
X66366Y274718D01*
X66353Y274725D01*
X66198Y274770D01*
X65429Y274946D01*
X65379Y275008D01*
X65375Y275010D01*
X65373Y275014D01*
X65248Y275104D01*
X65122Y275196D01*
X65118Y275198D01*
X65115Y275200D01*
X64969Y275268D01*
X63509Y275842D01*
X63505Y275843D01*
X63501Y275845D01*
X63352Y275882D01*
X63201Y275920D01*
X63197Y275920D01*
X63193Y275921D01*
X63038Y275920D01*
X62951Y275920D01*
X62269Y276314D01*
X62256Y276319D01*
X62244Y276328D01*
X62098Y276396D01*
X61364Y276685D01*
X61323Y276753D01*
X61320Y276756D01*
X61318Y276760D01*
X61207Y276869D01*
X61098Y276978D01*
X61094Y276980D01*
X61091Y276983D01*
X60957Y277072D01*
X59599Y277857D01*
X59595Y277859D01*
X59592Y277861D01*
X59449Y277920D01*
X59305Y277980D01*
X59301Y277981D01*
X59298Y277982D01*
X59147Y278004D01*
X59059Y278017D01*
X58443Y278508D01*
X58431Y278516D01*
X58420Y278526D01*
X58286Y278615D01*
X57603Y279010D01*
X57573Y279084D01*
X57571Y279087D01*
X57569Y279091D01*
X57476Y279214D01*
X57383Y279339D01*
X57380Y279342D01*
X57378Y279345D01*
X57259Y279453D01*
X56032Y280432D01*
X56029Y280434D01*
X56026Y280437D01*
X55894Y280516D01*
X55761Y280598D01*
X55757Y280599D01*
X55753Y280601D01*
X55605Y280645D01*
X55522Y280671D01*
X54987Y281248D01*
X54976Y281257D01*
X54967Y281269D01*
X54848Y281377D01*
X54231Y281869D01*
X54212Y281947D01*
X54210Y281951D01*
X54209Y281955D01*
X54136Y282091D01*
X54063Y282228D01*
X54060Y282231D01*
X54058Y282235D01*
X53956Y282359D01*
X52890Y283510D01*
X52886Y283513D01*
X52884Y283516D01*
X52764Y283615D01*
X52646Y283714D01*
X52642Y283716D01*
X52639Y283719D01*
X52497Y283786D01*
X52421Y283822D01*
X51977Y284473D01*
X51968Y284484D01*
X51961Y284496D01*
X51859Y284621D01*
X51323Y285200D01*
X51316Y285279D01*
X51314Y285283D01*
X51314Y285287D01*
X51260Y285436D01*
X51210Y285579D01*
X51207Y285583D01*
X51206Y285587D01*
X51124Y285725D01*
X50241Y287022D01*
X50238Y287025D01*
X50236Y287029D01*
X50134Y287143D01*
X50030Y287260D01*
X50027Y287262D01*
X50024Y287266D01*
X49895Y287352D01*
X49824Y287400D01*
X49482Y288110D01*
X49474Y288122D01*
X49469Y288136D01*
X49387Y288274D01*
X48943Y288926D01*
X48948Y289006D01*
X48947Y289010D01*
X48947Y289014D01*
X48917Y289167D01*
X48888Y289319D01*
X48886Y289322D01*
X48885Y289326D01*
X48825Y289476D01*
X48145Y290889D01*
X48142Y290893D01*
X48141Y290897D01*
X48055Y291028D01*
X47972Y291156D01*
X47969Y291159D01*
X47967Y291163D01*
X47853Y291267D01*
X47789Y291326D01*
X47557Y292078D01*
X47551Y292091D01*
X47548Y292106D01*
X47488Y292255D01*
X47145Y292966D01*
X47162Y293044D01*
X47162Y293048D01*
X47163Y293052D01*
X47156Y293205D01*
X47150Y293362D01*
X47148Y293366D01*
X47148Y293370D01*
X47111Y293527D01*
X46649Y295026D01*
X46647Y295030D01*
X46646Y295034D01*
X46580Y295177D01*
X46518Y295316D01*
X46515Y295319D01*
X46513Y295323D01*
X46415Y295443D01*
X46362Y295510D01*
X46245Y296289D01*
X46241Y296303D01*
X46240Y296318D01*
X46202Y296474D01*
X45970Y297228D01*
X45998Y297303D01*
X45999Y297307D01*
X46000Y297311D01*
X46016Y297466D01*
X46033Y297619D01*
X46033Y297623D01*
X46033Y297628D01*
X46019Y297788D01*
X45786Y299339D01*
X45785Y299343D01*
X45785Y299348D01*
X45742Y299496D01*
X45700Y299645D01*
X45697Y299649D01*
X45696Y299653D01*
X45617Y299787D01*
X45574Y299861D01*
X45575Y300649D01*
X45573Y300663D01*
X45574Y300678D01*
X45560Y300838D01*
X45443Y301618D01*
X45482Y301688D01*
X45483Y301692D01*
X45485Y301696D01*
X45525Y301850D01*
X45564Y301996D01*
X45564Y302000D01*
X45565Y302004D01*
X45575Y302164D01*
X45576Y303733D01*
X45575Y303737D01*
X45576Y303742D01*
X45555Y303895D01*
X45536Y304049D01*
X45534Y304053D01*
X45534Y304057D01*
X45475Y304203D01*
X45444Y304281D01*
X45562Y305060D01*
X45562Y305074D01*
X45566Y305088D01*
X45576Y305249D01*
X45576Y306038D01*
X45625Y306101D01*
X45627Y306105D01*
X45629Y306108D01*
X45688Y306246D01*
X45752Y306393D01*
X45752Y306397D01*
X45754Y306401D01*
X45788Y306558D01*
X46022Y308109D01*
X46023Y308113D01*
X46024Y308117D01*
X46026Y308272D01*
X46030Y308427D01*
X46029Y308431D01*
X46029Y308435D01*
X45994Y308583D01*
X45974Y308670D01*
X46207Y309423D01*
X46209Y309437D01*
X46215Y309451D01*
X46249Y309608D01*
X46367Y310388D01*
X46425Y310443D01*
X46427Y310447D01*
X46430Y310450D01*
X46509Y310579D01*
X46593Y310713D01*
X46594Y310717D01*
X46597Y310720D01*
X46654Y310871D01*
X47117Y312370D01*
X47117Y312374D01*
X47119Y312378D01*
X47144Y312528D01*
X47172Y312683D01*
X47171Y312687D01*
X47172Y312691D01*
X47159Y312844D01*
X47152Y312932D01*
X47494Y313641D01*
X47499Y313655D01*
X47507Y313667D01*
X47564Y313818D01*
X47797Y314572D01*
X47862Y314618D01*
X47865Y314621D01*
X47868Y314623D01*
X47967Y314741D01*
X48069Y314859D01*
X48071Y314863D01*
X48073Y314866D01*
X48152Y315007D01*
X48606Y315948D01*
X48629Y316017D01*
X48661Y316081D01*
X48680Y316167D01*
X48707Y316250D01*
X48713Y316322D01*
X48728Y316392D01*
X48724Y316480D01*
X48730Y316567D01*
X48718Y316638D01*
X48715Y316710D01*
X48689Y316794D01*
X48674Y316880D01*
X48644Y316945D01*
X48623Y317014D01*
X48578Y317089D01*
X48541Y317169D01*
X48496Y317225D01*
X48459Y317287D01*
X48396Y317348D01*
X48341Y317416D01*
X48283Y317459D01*
X48232Y317509D01*
X48098Y317599D01*
X16491Y335847D01*
X16886Y336418D01*
X16897Y336444D01*
X16915Y336466D01*
X16936Y336535D01*
X16964Y336601D01*
X16964Y336629D01*
X16972Y336657D01*
X16964Y336728D01*
X16965Y336799D01*
X16954Y336826D01*
X16950Y336854D01*
X16916Y336917D01*
X16888Y336983D01*
X16867Y337003D01*
X16853Y337028D01*
X16776Y337092D01*
X16745Y337122D01*
X16735Y337126D01*
X16725Y337134D01*
X248Y346673D01*
X174Y346698D01*
X103Y346729D01*
X81Y346730D01*
X59Y346737D01*
X-18Y346731D01*
X-96Y346732D01*
X-119Y346723D01*
X-139Y346721D01*
X-178Y346701D01*
X-252Y346674D01*
X-16706Y337174D01*
X-16728Y337155D01*
X-16753Y337143D01*
X-16801Y337090D01*
X-16855Y337042D01*
X-16867Y337016D01*
X-16886Y336995D01*
X-16910Y336927D01*
X-16941Y336863D01*
X-16942Y336834D01*
X-16952Y336807D01*
X-16947Y336736D01*
X-16950Y336664D01*
X-16940Y336637D01*
X-16938Y336609D01*
X-16895Y336517D01*
X-16881Y336478D01*
X-16873Y336470D01*
X-16868Y336458D01*
X-16461Y335867D01*
X-48114Y317593D01*
X-48171Y317549D01*
X-48233Y317514D01*
X-48297Y317453D01*
X-48367Y317400D01*
X-48411Y317344D01*
X-48463Y317295D01*
X-48510Y317220D01*
X-48564Y317151D01*
X-48594Y317086D01*
X-48632Y317025D01*
X-48658Y316941D01*
X-48694Y316861D01*
X-48706Y316790D01*
X-48728Y316721D01*
X-48732Y316634D01*
X-48747Y316547D01*
X-48741Y316476D01*
X-48745Y316404D01*
X-48728Y316318D01*
X-48721Y316230D01*
X-48697Y316162D01*
X-48683Y316092D01*
X-48623Y315943D01*
X-48166Y314994D01*
X-48164Y314991D01*
X-48162Y314987D01*
X-48077Y314857D01*
X-47993Y314728D01*
X-47990Y314725D01*
X-47988Y314721D01*
X-47872Y314616D01*
X-47810Y314558D01*
X-47578Y313806D01*
X-47572Y313792D01*
X-47569Y313778D01*
X-47508Y313629D01*
X-47166Y312918D01*
X-47183Y312840D01*
X-47183Y312836D01*
X-47183Y312832D01*
X-47176Y312678D01*
X-47170Y312522D01*
X-47169Y312518D01*
X-47169Y312514D01*
X-47131Y312358D01*
X-46669Y310860D01*
X-46667Y310857D01*
X-46667Y310853D01*
X-46602Y310713D01*
X-46538Y310571D01*
X-46535Y310567D01*
X-46534Y310564D01*
X-46437Y310445D01*
X-46382Y310376D01*
X-46265Y309597D01*
X-46261Y309583D01*
X-46260Y309569D01*
X-46222Y309412D01*
X-45990Y308658D01*
X-46018Y308583D01*
X-46018Y308579D01*
X-46020Y308575D01*
X-46036Y308420D01*
X-46053Y308267D01*
X-46052Y308263D01*
X-46053Y308259D01*
X-46039Y308099D01*
X-45805Y306549D01*
X-45804Y306546D01*
X-45804Y306541D01*
X-45761Y306392D01*
X-45719Y306243D01*
X-45717Y306240D01*
X-45716Y306236D01*
X-45637Y306103D01*
X-45594Y306028D01*
X-45594Y305240D01*
X-45592Y305226D01*
X-45593Y305211D01*
X-45579Y305051D01*
X-45462Y304271D01*
X-45501Y304201D01*
X-45502Y304197D01*
X-45504Y304193D01*
X-45543Y304042D01*
X-45582Y303893D01*
X-45582Y303889D01*
X-45583Y303885D01*
X-45594Y303725D01*
X-45594Y302158D01*
X-45593Y302154D01*
X-45594Y302150D01*
X-45573Y301997D01*
X-45554Y301842D01*
X-45552Y301839D01*
X-45552Y301834D01*
X-45493Y301688D01*
X-45462Y301611D01*
X-45579Y300832D01*
X-45580Y300817D01*
X-45583Y300803D01*
X-45590Y300692D01*
X-45591Y300689D01*
X-45591Y300686D01*
X-45594Y300642D01*
X-45594Y299853D01*
X-45643Y299790D01*
X-45644Y299786D01*
X-45647Y299783D01*
X-45708Y299639D01*
X-45769Y299498D01*
X-45770Y299494D01*
X-45771Y299490D01*
X-45805Y299333D01*
X-46039Y297784D01*
X-46039Y297780D01*
X-46040Y297776D01*
X-46043Y297618D01*
X-46046Y297466D01*
X-46045Y297462D01*
X-46046Y297458D01*
X-46009Y297303D01*
X-45990Y297223D01*
X-46222Y296470D01*
X-46225Y296456D01*
X-46231Y296443D01*
X-46265Y296285D01*
X-46382Y295505D01*
X-46440Y295450D01*
X-46442Y295446D01*
X-46445Y295443D01*
X-46525Y295313D01*
X-46609Y295180D01*
X-46610Y295176D01*
X-46612Y295173D01*
X-46669Y295022D01*
X-47131Y293525D01*
X-47132Y293521D01*
X-47133Y293517D01*
X-47159Y293362D01*
X-47186Y293212D01*
X-47186Y293208D01*
X-47186Y293204D01*
X-47173Y293048D01*
X-47166Y292963D01*
X-47508Y292253D01*
X-47513Y292240D01*
X-47521Y292227D01*
X-47578Y292077D01*
X-47810Y291323D01*
X-47876Y291277D01*
X-47878Y291274D01*
X-47882Y291271D01*
X-47981Y291153D01*
X-48082Y291035D01*
X-48084Y291032D01*
X-48087Y291028D01*
X-48166Y290888D01*
X-48846Y289476D01*
X-48847Y289473D01*
X-48849Y289469D01*
X-48898Y289321D01*
X-48947Y289175D01*
X-48947Y289171D01*
X-48948Y289167D01*
X-48958Y289013D01*
X-48965Y288926D01*
X-49408Y288275D01*
X-49415Y288263D01*
X-49424Y288252D01*
X-49503Y288111D01*
X-49846Y287400D01*
X-49917Y287365D01*
X-49920Y287362D01*
X-49924Y287360D01*
X-50040Y287258D01*
X-50158Y287156D01*
X-50160Y287153D01*
X-50163Y287150D01*
X-50262Y287023D01*
X-51145Y285729D01*
X-51146Y285725D01*
X-51149Y285722D01*
X-51219Y285583D01*
X-51289Y285446D01*
X-51290Y285442D01*
X-51292Y285438D01*
X-51325Y285287D01*
X-51359Y285138D01*
X-51390Y285094D01*
X-51399Y285070D01*
X-51414Y285049D01*
X-51457Y284923D01*
X-51505Y284798D01*
X-51508Y284772D01*
X-51517Y284748D01*
X-51527Y284615D01*
X-51543Y284482D01*
X-51540Y284457D01*
X-51542Y284431D01*
X-51519Y284300D01*
X-51502Y284167D01*
X-51492Y284143D01*
X-51488Y284117D01*
X-51433Y283996D01*
X-51383Y283872D01*
X-51368Y283851D01*
X-51357Y283827D01*
X-51274Y283723D01*
X-51195Y283616D01*
X-51175Y283599D01*
X-51159Y283579D01*
X-51052Y283499D01*
X-50949Y283414D01*
X-50925Y283403D01*
X-50904Y283388D01*
X-50760Y283317D01*
X-49020Y282596D01*
X-47398Y280975D01*
X-46521Y278856D01*
X-46521Y276563D01*
X-47398Y274445D01*
X-49020Y272823D01*
X-51138Y271946D01*
X-53431Y271946D01*
X-55550Y272823D01*
X-57171Y274445D01*
X-58049Y276563D01*
X-58049Y276574D01*
X-58065Y276705D01*
X-58076Y276837D01*
X-58085Y276863D01*
X-58088Y276890D01*
X-58137Y277013D01*
X-58181Y277138D01*
X-58195Y277160D01*
X-58205Y277185D01*
X-58283Y277293D01*
X-58356Y277403D01*
X-58376Y277421D01*
X-58392Y277443D01*
X-58494Y277527D01*
X-58593Y277616D01*
X-58616Y277628D01*
X-58637Y277646D01*
X-58757Y277702D01*
X-58874Y277763D01*
X-58901Y277770D01*
X-58925Y277781D01*
X-59055Y277806D01*
X-59184Y277836D01*
X-59211Y277836D01*
X-59237Y277841D01*
X-59369Y277833D01*
X-59502Y277830D01*
X-59528Y277823D01*
X-59555Y277821D01*
X-59681Y277780D01*
X-59808Y277745D01*
X-59842Y277728D01*
X-59857Y277723D01*
X-59876Y277711D01*
X-59952Y277673D01*
X-60975Y277083D01*
X-60978Y277080D01*
X-60982Y277079D01*
X-61105Y276984D01*
X-61229Y276891D01*
X-61231Y276887D01*
X-61234Y276885D01*
X-61330Y276763D01*
X-61383Y276695D01*
X-62117Y276407D01*
X-62129Y276401D01*
X-62143Y276397D01*
X-62256Y276341D01*
X-62268Y276336D01*
X-62274Y276332D01*
X-62288Y276325D01*
X-62971Y275931D01*
X-63050Y275941D01*
X-63054Y275941D01*
X-63058Y275942D01*
X-63212Y275923D01*
X-63366Y275905D01*
X-63370Y275904D01*
X-63374Y275903D01*
X-63527Y275854D01*
X-64986Y275281D01*
X-64990Y275279D01*
X-64993Y275278D01*
X-65128Y275204D01*
X-65265Y275129D01*
X-65268Y275126D01*
X-65272Y275124D01*
X-65385Y275017D01*
X-65447Y274959D01*
X-66215Y274784D01*
X-66229Y274779D01*
X-66243Y274777D01*
X-66396Y274728D01*
X-67131Y274440D01*
X-67208Y274462D01*
X-67212Y274462D01*
X-67216Y274463D01*
X-67370Y274468D01*
X-67526Y274473D01*
X-67530Y274472D01*
X-67534Y274472D01*
X-67693Y274447D01*
X-69220Y274098D01*
X-69224Y274096D01*
X-69228Y274096D01*
X-69372Y274043D01*
X-69519Y273989D01*
X-69522Y273986D01*
X-69526Y273985D01*
X-69654Y273896D01*
X-69725Y273848D01*
X-70510Y273789D01*
X-70524Y273786D01*
X-70539Y273786D01*
X-70698Y273761D01*
X-71467Y273585D01*
X-71539Y273619D01*
X-71543Y273620D01*
X-71547Y273621D01*
X-71703Y273649D01*
X-71852Y273677D01*
X-71856Y273677D01*
X-71860Y273677D01*
X-72021Y273676D01*
X-73584Y273559D01*
X-73588Y273558D01*
X-73592Y273558D01*
X-73745Y273526D01*
X-73895Y273495D01*
X-73899Y273493D01*
X-73903Y273493D01*
X-74042Y273424D01*
X-74120Y273386D01*
X-74905Y273445D01*
X-74920Y273445D01*
X-74934Y273447D01*
X-75095Y273445D01*
X-75882Y273386D01*
X-75948Y273431D01*
X-75952Y273432D01*
X-75956Y273434D01*
X-76101Y273484D01*
X-76249Y273535D01*
X-76253Y273535D01*
X-76257Y273536D01*
X-76416Y273559D01*
X-77979Y273676D01*
X-77983Y273675D01*
X-77987Y273676D01*
X-78140Y273667D01*
X-78296Y273660D01*
X-78300Y273658D01*
X-78304Y273658D01*
X-78451Y273611D01*
X-78534Y273585D01*
X-79302Y273761D01*
X-79317Y273762D01*
X-79330Y273767D01*
X-79490Y273789D01*
X-80277Y273848D01*
X-80336Y273901D01*
X-80340Y273903D01*
X-80343Y273906D01*
X-80481Y273978D01*
X-80618Y274049D01*
X-80622Y274050D01*
X-80625Y274052D01*
X-80780Y274098D01*
X-82307Y274446D01*
X-82311Y274447D01*
X-82315Y274448D01*
X-82471Y274463D01*
X-82624Y274478D01*
X-82628Y274477D01*
X-82632Y274478D01*
X-82786Y274453D01*
X-82870Y274440D01*
X-83603Y274728D01*
X-83617Y274731D01*
X-83630Y274738D01*
X-83785Y274784D01*
X-84554Y274959D01*
X-84605Y275021D01*
X-84608Y275024D01*
X-84611Y275027D01*
X-84735Y275117D01*
X-84861Y275209D01*
X-84865Y275211D01*
X-84868Y275213D01*
X-85014Y275281D01*
X-86473Y275854D01*
X-86477Y275855D01*
X-86480Y275857D01*
X-86628Y275893D01*
X-86781Y275932D01*
X-86785Y275932D01*
X-86789Y275933D01*
X-86944Y275932D01*
X-87030Y275931D01*
X-87712Y276325D01*
X-87726Y276331D01*
X-87737Y276339D01*
X-87883Y276408D01*
X-88618Y276696D01*
X-88659Y276764D01*
X-88662Y276767D01*
X-88664Y276771D01*
X-88775Y276880D01*
X-88884Y276989D01*
X-88888Y276991D01*
X-88891Y276994D01*
X-89025Y277083D01*
X-90382Y277866D01*
X-90385Y277868D01*
X-90389Y277870D01*
X-90532Y277930D01*
X-90675Y277990D01*
X-90679Y277990D01*
X-90683Y277992D01*
X-90837Y278013D01*
X-90921Y278026D01*
X-91537Y278517D01*
X-91550Y278525D01*
X-91560Y278535D01*
X-91694Y278624D01*
X-92377Y279019D01*
X-92408Y279093D01*
X-92410Y279096D01*
X-92412Y279100D01*
X-92506Y279225D01*
X-92597Y279348D01*
X-92600Y279351D01*
X-92603Y279354D01*
X-92722Y279462D01*
X-93947Y280439D01*
X-93951Y280441D01*
X-93953Y280444D01*
X-94085Y280523D01*
X-94219Y280604D01*
X-94222Y280606D01*
X-94226Y280608D01*
X-94377Y280653D01*
X-94457Y280677D01*
X-94993Y281255D01*
X-95004Y281264D01*
X-95013Y281276D01*
X-95132Y281384D01*
X-95749Y281876D01*
X-95768Y281953D01*
X-95770Y281957D01*
X-95771Y281961D01*
X-95845Y282098D01*
X-95917Y282234D01*
X-95920Y282237D01*
X-95922Y282241D01*
X-96024Y282366D01*
X-97089Y283514D01*
X-97092Y283517D01*
X-97095Y283520D01*
X-97213Y283618D01*
X-97333Y283718D01*
X-97337Y283720D01*
X-97340Y283723D01*
X-97479Y283788D01*
X-97558Y283826D01*
X-98002Y284477D01*
X-98011Y284487D01*
X-98018Y284500D01*
X-98120Y284625D01*
X-98657Y285203D01*
X-98664Y285283D01*
X-98665Y285287D01*
X-98665Y285291D01*
X-98718Y285437D01*
X-98770Y285583D01*
X-98772Y285586D01*
X-98773Y285590D01*
X-98855Y285729D01*
X-99448Y286598D01*
X-99496Y286652D01*
X-99536Y286712D01*
X-99601Y286771D01*
X-99659Y286837D01*
X-99718Y286877D01*
X-99772Y286925D01*
X-99850Y286966D01*
X-99922Y287015D01*
X-99990Y287039D01*
X-100053Y287073D01*
X-100139Y287093D01*
X-100222Y287122D01*
X-100293Y287129D01*
X-100363Y287146D01*
X-100451Y287144D01*
X-100538Y287152D01*
X-100609Y287141D01*
X-100681Y287139D01*
X-100766Y287116D01*
X-100852Y287102D01*
X-100918Y287073D01*
X-100987Y287054D01*
X-101132Y286983D01*
X-132784Y268708D01*
X-133093Y269356D01*
X-133110Y269378D01*
X-133119Y269405D01*
X-133169Y269457D01*
X-133212Y269515D01*
X-133237Y269529D01*
X-133256Y269550D01*
X-133322Y269578D01*
X-133384Y269614D01*
X-133412Y269618D01*
X-133438Y269629D01*
X-133510Y269630D01*
X-133581Y269639D01*
X-133609Y269631D01*
X-133637Y269632D01*
X-133733Y269596D01*
X-133773Y269585D01*
X-133781Y269578D01*
X-133793Y269574D01*
X-150247Y260074D01*
X-150306Y260022D01*
X-150368Y259976D01*
X-150380Y259957D01*
X-150396Y259942D01*
X-150430Y259872D01*
X-150470Y259805D01*
X-150474Y259780D01*
X-150482Y259763D01*
X-150484Y259718D01*
X-150497Y259641D01*
X-150474Y240601D01*
X-150469Y240573D01*
X-150471Y240545D01*
X-150449Y240477D01*
X-150434Y240406D01*
X-150418Y240383D01*
X-150409Y240356D01*
X-150362Y240302D01*
X-150322Y240243D01*
X-150298Y240227D01*
X-150279Y240206D01*
X-150215Y240174D01*
X-150154Y240136D01*
X-150126Y240131D01*
X-150100Y240119D01*
X-150000Y240110D01*
X-149958Y240103D01*
X-149947Y240105D01*
X-149934Y240104D01*
X-148907Y240188D01*
X-148907Y203639D01*
X-148898Y203568D01*
X-148899Y203496D01*
X-148878Y203411D01*
X-148867Y203324D01*
X-148840Y203257D01*
X-148823Y203187D01*
X-148782Y203110D01*
X-148750Y203028D01*
X-148708Y202970D01*
X-148674Y202906D01*
X-148615Y202842D01*
X-148563Y202771D01*
X-148507Y202725D01*
X-148459Y202672D01*
X-148386Y202624D01*
X-148318Y202568D01*
X-148253Y202537D01*
X-148193Y202498D01*
X-148109Y202470D01*
X-148030Y202432D01*
X-147960Y202419D01*
X-147891Y202396D01*
X-147732Y202374D01*
X-147046Y202322D01*
X-147039Y202323D01*
X-147032Y202321D01*
X-146879Y202331D01*
X-146728Y202339D01*
X-146721Y202341D01*
X-146714Y202341D01*
X-146570Y202388D01*
X-146424Y202433D01*
X-146418Y202437D01*
X-146412Y202439D01*
X-146283Y202521D01*
X-146154Y202600D01*
X-146149Y202606D01*
X-146143Y202609D01*
X-146039Y202720D01*
X-145933Y202830D01*
X-145930Y202836D01*
X-145925Y202841D01*
X-145852Y202974D01*
X-145777Y203106D01*
X-145775Y203113D01*
X-145772Y203119D01*
X-145734Y203266D01*
X-145694Y203414D01*
X-145694Y203421D01*
X-145692Y203427D01*
X-145682Y203588D01*
X-145682Y213221D01*
X-144521Y214382D01*
X-134879Y214382D01*
X-133718Y213221D01*
X-133718Y213112D01*
X-133703Y212993D01*
X-133696Y212875D01*
X-133683Y212836D01*
X-133678Y212796D01*
X-133634Y212685D01*
X-133598Y212572D01*
X-133576Y212538D01*
X-133561Y212500D01*
X-133491Y212404D01*
X-133428Y212304D01*
X-133398Y212276D01*
X-133374Y212243D01*
X-133283Y212167D01*
X-133196Y212086D01*
X-133161Y212066D01*
X-133129Y212040D01*
X-133022Y211990D01*
X-132917Y211932D01*
X-132878Y211922D01*
X-132842Y211905D01*
X-132725Y211882D01*
X-132610Y211853D01*
X-132549Y211849D01*
X-132529Y211845D01*
X-132509Y211846D01*
X-132449Y211842D01*
X-130059Y211842D01*
X-129961Y211855D01*
X-129862Y211858D01*
X-129804Y211875D01*
X-129744Y211882D01*
X-129651Y211919D01*
X-129556Y211946D01*
X-129504Y211977D01*
X-129448Y211999D01*
X-129368Y212057D01*
X-129282Y212108D01*
X-129207Y212174D01*
X-129191Y212186D01*
X-129183Y212196D01*
X-129162Y212214D01*
X-128527Y212849D01*
X-126408Y213726D01*
X-124115Y213726D01*
X-121997Y212849D01*
X-120375Y211227D01*
X-119498Y209109D01*
X-119498Y206816D01*
X-120375Y204698D01*
X-121997Y203076D01*
X-124115Y202199D01*
X-126408Y202199D01*
X-128527Y203076D01*
X-130037Y204586D01*
X-130115Y204647D01*
X-130187Y204714D01*
X-130240Y204744D01*
X-130288Y204781D01*
X-130379Y204820D01*
X-130465Y204868D01*
X-130524Y204883D01*
X-130580Y204907D01*
X-130678Y204923D01*
X-130773Y204947D01*
X-130873Y204954D01*
X-130894Y204957D01*
X-130906Y204956D01*
X-130934Y204958D01*
X-132449Y204958D01*
X-132567Y204943D01*
X-132686Y204935D01*
X-132724Y204923D01*
X-132764Y204918D01*
X-132875Y204874D01*
X-132988Y204837D01*
X-133022Y204816D01*
X-133060Y204801D01*
X-133156Y204731D01*
X-133257Y204667D01*
X-133285Y204638D01*
X-133317Y204614D01*
X-133393Y204522D01*
X-133475Y204435D01*
X-133494Y204400D01*
X-133520Y204369D01*
X-133571Y204261D01*
X-133628Y204157D01*
X-133639Y204118D01*
X-133656Y204081D01*
X-133678Y203964D01*
X-133708Y203849D01*
X-133712Y203789D01*
X-133716Y203769D01*
X-133714Y203749D01*
X-133718Y203688D01*
X-133718Y203579D01*
X-134879Y202418D01*
X-137304Y202418D01*
X-137449Y202400D01*
X-137594Y202385D01*
X-137607Y202380D01*
X-137620Y202378D01*
X-137755Y202325D01*
X-137892Y202274D01*
X-137903Y202266D01*
X-137916Y202261D01*
X-138034Y202175D01*
X-138154Y202092D01*
X-138162Y202082D01*
X-138173Y202074D01*
X-138266Y201962D01*
X-138361Y201852D01*
X-138367Y201840D01*
X-138376Y201829D01*
X-138438Y201698D01*
X-138503Y201567D01*
X-138506Y201554D01*
X-138511Y201542D01*
X-138539Y201399D01*
X-138569Y201256D01*
X-138569Y201242D01*
X-138571Y201229D01*
X-138562Y201084D01*
X-138556Y200938D01*
X-138552Y200925D01*
X-138551Y200912D01*
X-138506Y200773D01*
X-138464Y200633D01*
X-138457Y200622D01*
X-138453Y200609D01*
X-138375Y200486D01*
X-138300Y200361D01*
X-138290Y200352D01*
X-138283Y200341D01*
X-138177Y200241D01*
X-138073Y200139D01*
X-138058Y200129D01*
X-138052Y200123D01*
X-138037Y200115D01*
X-137939Y200049D01*
X-137286Y199673D01*
X-137273Y199667D01*
X-137261Y199659D01*
X-137115Y199591D01*
X-136381Y199303D01*
X-136340Y199234D01*
X-136337Y199231D01*
X-136335Y199228D01*
X-136225Y199119D01*
X-136114Y199010D01*
X-136111Y199008D01*
X-136108Y199005D01*
X-135974Y198916D01*
X-134615Y198132D01*
X-134611Y198130D01*
X-134608Y198128D01*
X-134463Y198068D01*
X-134321Y198009D01*
X-134317Y198008D01*
X-134314Y198006D01*
X-134158Y197984D01*
X-134075Y197972D01*
X-133459Y197481D01*
X-133446Y197474D01*
X-133436Y197464D01*
X-133302Y197374D01*
X-132619Y196980D01*
X-132588Y196906D01*
X-132586Y196903D01*
X-132584Y196899D01*
X-132490Y196773D01*
X-132399Y196651D01*
X-132395Y196648D01*
X-132393Y196645D01*
X-132274Y196537D01*
X-131047Y195559D01*
X-131043Y195557D01*
X-131040Y195554D01*
X-130908Y195474D01*
X-130775Y195393D01*
X-130771Y195392D01*
X-130768Y195390D01*
X-130618Y195346D01*
X-130537Y195321D01*
X-130001Y194743D01*
X-129990Y194734D01*
X-129981Y194722D01*
X-129861Y194614D01*
X-129244Y194123D01*
X-129226Y194045D01*
X-129224Y194041D01*
X-129223Y194037D01*
X-129148Y193899D01*
X-129076Y193764D01*
X-129073Y193761D01*
X-129071Y193758D01*
X-128970Y193633D01*
X-127902Y192483D01*
X-127899Y192480D01*
X-127896Y192477D01*
X-127778Y192379D01*
X-127658Y192279D01*
X-127654Y192277D01*
X-127651Y192274D01*
X-127512Y192209D01*
X-127433Y192171D01*
X-126989Y191521D01*
X-126980Y191510D01*
X-126973Y191497D01*
X-126871Y191372D01*
X-126334Y190794D01*
X-126327Y190714D01*
X-126325Y190711D01*
X-126325Y190707D01*
X-126273Y190562D01*
X-126221Y190415D01*
X-126219Y190411D01*
X-126217Y190407D01*
X-126135Y190269D01*
X-125251Y188973D01*
X-125248Y188970D01*
X-125246Y188966D01*
X-125143Y188851D01*
X-125040Y188735D01*
X-125037Y188732D01*
X-125034Y188729D01*
X-124904Y188643D01*
X-124834Y188595D01*
X-124492Y187885D01*
X-124484Y187873D01*
X-124479Y187859D01*
X-124397Y187721D01*
X-123952Y187069D01*
X-123957Y186989D01*
X-123956Y186985D01*
X-123956Y186981D01*
X-123926Y186828D01*
X-123897Y186677D01*
X-123895Y186673D01*
X-123894Y186669D01*
X-123834Y186520D01*
X-123152Y185107D01*
X-123150Y185103D01*
X-123149Y185099D01*
X-123064Y184970D01*
X-122980Y184840D01*
X-122977Y184837D01*
X-122974Y184833D01*
X-122861Y184730D01*
X-122796Y184671D01*
X-122564Y183918D01*
X-122558Y183905D01*
X-122555Y183891D01*
X-122494Y183741D01*
X-122152Y183031D01*
X-122169Y182952D01*
X-122168Y182948D01*
X-122169Y182944D01*
X-122162Y182788D01*
X-122156Y182635D01*
X-122155Y182631D01*
X-122154Y182627D01*
X-122117Y182470D01*
X-121654Y180971D01*
X-121652Y180967D01*
X-121651Y180963D01*
X-121586Y180822D01*
X-121523Y180681D01*
X-121520Y180678D01*
X-121518Y180674D01*
X-121419Y180552D01*
X-121366Y180487D01*
X-121249Y179708D01*
X-121245Y179694D01*
X-121244Y179680D01*
X-121207Y179523D01*
X-120974Y178769D01*
X-121002Y178694D01*
X-121002Y178690D01*
X-121004Y178686D01*
X-121020Y178531D01*
X-121037Y178378D01*
X-121036Y178374D01*
X-121036Y178370D01*
X-121022Y178209D01*
X-120788Y176658D01*
X-120787Y176654D01*
X-120787Y176650D01*
X-120744Y176502D01*
X-120702Y176352D01*
X-120700Y176348D01*
X-120698Y176344D01*
X-120620Y176211D01*
X-120576Y176136D01*
X-120576Y175349D01*
X-120574Y175334D01*
X-120576Y175320D01*
X-120562Y175160D01*
X-120444Y174379D01*
X-120483Y174310D01*
X-120484Y174306D01*
X-120486Y174302D01*
X-120524Y174153D01*
X-120564Y174002D01*
X-120564Y173998D01*
X-120565Y173994D01*
X-120576Y173833D01*
X-120575Y172264D01*
X-120575Y172260D01*
X-120575Y172256D01*
X-120555Y172104D01*
X-120535Y171949D01*
X-120534Y171945D01*
X-120533Y171941D01*
X-120475Y171797D01*
X-120443Y171717D01*
X-120560Y170938D01*
X-120561Y170924D01*
X-120564Y170910D01*
X-120575Y170749D01*
X-120574Y169960D01*
X-120623Y169897D01*
X-120625Y169893D01*
X-120627Y169889D01*
X-120688Y169747D01*
X-120750Y169605D01*
X-120750Y169601D01*
X-120752Y169597D01*
X-120786Y169439D01*
X-121019Y167888D01*
X-121019Y167884D01*
X-121020Y167880D01*
X-121023Y167722D01*
X-121027Y167570D01*
X-121026Y167566D01*
X-121026Y167562D01*
X-120989Y167408D01*
X-120970Y167327D01*
X-121202Y166574D01*
X-121205Y166560D01*
X-121211Y166547D01*
X-121245Y166389D01*
X-121362Y165609D01*
X-121420Y165554D01*
X-121422Y165550D01*
X-121425Y165547D01*
X-121506Y165416D01*
X-121588Y165284D01*
X-121589Y165280D01*
X-121592Y165277D01*
X-121649Y165126D01*
X-122111Y163627D01*
X-122111Y163623D01*
X-122113Y163619D01*
X-122139Y163464D01*
X-122165Y163313D01*
X-122165Y163309D01*
X-122166Y163305D01*
X-122153Y163148D01*
X-122146Y163065D01*
X-122488Y162355D01*
X-122492Y162341D01*
X-122500Y162329D01*
X-122557Y162178D01*
X-122789Y161424D01*
X-122855Y161378D01*
X-122857Y161375D01*
X-122861Y161373D01*
X-122962Y161253D01*
X-123061Y161137D01*
X-123063Y161133D01*
X-123066Y161130D01*
X-123145Y160989D01*
X-123825Y159576D01*
X-123826Y159572D01*
X-123829Y159568D01*
X-123877Y159421D01*
X-123926Y159274D01*
X-123926Y159270D01*
X-123927Y159266D01*
X-123938Y159110D01*
X-123944Y159025D01*
X-124387Y158374D01*
X-124394Y158361D01*
X-124403Y158350D01*
X-124482Y158210D01*
X-124824Y157499D01*
X-124896Y157463D01*
X-124899Y157460D01*
X-124903Y157459D01*
X-125018Y157358D01*
X-125136Y157255D01*
X-125139Y157252D01*
X-125142Y157249D01*
X-125241Y157122D01*
X-126124Y155825D01*
X-126126Y155822D01*
X-126129Y155818D01*
X-126200Y155677D01*
X-126269Y155542D01*
X-126270Y155538D01*
X-126272Y155534D01*
X-126305Y155381D01*
X-126323Y155299D01*
X-126859Y154721D01*
X-126867Y154709D01*
X-126878Y154700D01*
X-126977Y154573D01*
X-127422Y153921D01*
X-127498Y153896D01*
X-127501Y153894D01*
X-127505Y153893D01*
X-127634Y153810D01*
X-127766Y153726D01*
X-127769Y153723D01*
X-127773Y153721D01*
X-127890Y153610D01*
X-128956Y152459D01*
X-128959Y152456D01*
X-128962Y152453D01*
X-129051Y152327D01*
X-129142Y152201D01*
X-129143Y152197D01*
X-129145Y152194D01*
X-129201Y152049D01*
X-129232Y151969D01*
X-129848Y151477D01*
X-129858Y151467D01*
X-129870Y151459D01*
X-129987Y151348D01*
X-130523Y150770D01*
X-130602Y150757D01*
X-130606Y150755D01*
X-130610Y150754D01*
X-130751Y150691D01*
X-130893Y150629D01*
X-130897Y150626D01*
X-130900Y150624D01*
X-131032Y150532D01*
X-132259Y149553D01*
X-132262Y149550D01*
X-132265Y149548D01*
X-132372Y149437D01*
X-132480Y149326D01*
X-132482Y149322D01*
X-132485Y149319D01*
X-132562Y149183D01*
X-132604Y149109D01*
X-132682Y149065D01*
X-132782Y148989D01*
X-132885Y148918D01*
X-132908Y148893D01*
X-132935Y148872D01*
X-133013Y148774D01*
X-133096Y148680D01*
X-133111Y148650D01*
X-133132Y148623D01*
X-133183Y148508D01*
X-133240Y148396D01*
X-133248Y148363D01*
X-133262Y148332D01*
X-133283Y148209D01*
X-133310Y148086D01*
X-133309Y148052D01*
X-133315Y148019D01*
X-133304Y147894D01*
X-133300Y147768D01*
X-133291Y147736D01*
X-133288Y147702D01*
X-133247Y147583D01*
X-133212Y147463D01*
X-133195Y147434D01*
X-133184Y147402D01*
X-133114Y147297D01*
X-133051Y147189D01*
X-133018Y147152D01*
X-133008Y147137D01*
X-132992Y147122D01*
X-132944Y147068D01*
X-128537Y142661D01*
X-128458Y142600D01*
X-128386Y142532D01*
X-128333Y142503D01*
X-128285Y142466D01*
X-128195Y142426D01*
X-128108Y142379D01*
X-128049Y142363D01*
X-127994Y142339D01*
X-127896Y142324D01*
X-127800Y142299D01*
X-127700Y142293D01*
X-127680Y142290D01*
X-127667Y142291D01*
X-127639Y142289D01*
X-125853Y142289D01*
X-123735Y141411D01*
X-122114Y139790D01*
X-121236Y137672D01*
X-121236Y135378D01*
X-122114Y133260D01*
X-123735Y131639D01*
X-125853Y130761D01*
X-128147Y130761D01*
X-130265Y131639D01*
X-131886Y133260D01*
X-132764Y135378D01*
X-132764Y137164D01*
X-132776Y137262D01*
X-132779Y137361D01*
X-132796Y137420D01*
X-132804Y137480D01*
X-132840Y137572D01*
X-132868Y137667D01*
X-132899Y137719D01*
X-132921Y137775D01*
X-132979Y137856D01*
X-133029Y137941D01*
X-133096Y138016D01*
X-133108Y138033D01*
X-133117Y138041D01*
X-133136Y138062D01*
X-139681Y144607D01*
X-139746Y144658D01*
X-139805Y144716D01*
X-139871Y144755D01*
X-139933Y144802D01*
X-140008Y144835D01*
X-140079Y144877D01*
X-140153Y144898D01*
X-140224Y144929D01*
X-140306Y144942D01*
X-140385Y144964D01*
X-140462Y144966D01*
X-140539Y144979D01*
X-140621Y144971D01*
X-140703Y144973D01*
X-140849Y144949D01*
X-140855Y144949D01*
X-140857Y144948D01*
X-140862Y144947D01*
X-141198Y144870D01*
X-141212Y144865D01*
X-141226Y144864D01*
X-141380Y144814D01*
X-142114Y144526D01*
X-142191Y144548D01*
X-142195Y144548D01*
X-142199Y144550D01*
X-142354Y144554D01*
X-142509Y144559D01*
X-142513Y144558D01*
X-142517Y144558D01*
X-142676Y144533D01*
X-144205Y144183D01*
X-144209Y144182D01*
X-144213Y144181D01*
X-144357Y144128D01*
X-144504Y144074D01*
X-144508Y144071D01*
X-144511Y144070D01*
X-144638Y143982D01*
X-144710Y143933D01*
X-145495Y143874D01*
X-145509Y143871D01*
X-145524Y143871D01*
X-145683Y143845D01*
X-146452Y143669D01*
X-146524Y143703D01*
X-146529Y143704D01*
X-146532Y143706D01*
X-146684Y143733D01*
X-146837Y143761D01*
X-146841Y143761D01*
X-146845Y143762D01*
X-147006Y143760D01*
X-147733Y143705D01*
X-147803Y143691D01*
X-147874Y143686D01*
X-147958Y143659D01*
X-148044Y143642D01*
X-148109Y143611D01*
X-148177Y143588D01*
X-148251Y143541D01*
X-148330Y143503D01*
X-148385Y143457D01*
X-148446Y143418D01*
X-148506Y143354D01*
X-148573Y143297D01*
X-148614Y143239D01*
X-148664Y143187D01*
X-148706Y143110D01*
X-148757Y143038D01*
X-148782Y142971D01*
X-148817Y142908D01*
X-148839Y142823D01*
X-148871Y142741D01*
X-148879Y142670D01*
X-148897Y142600D01*
X-148907Y142440D01*
X-148907Y105888D01*
X-149978Y105975D01*
X-150007Y105971D01*
X-150035Y105976D01*
X-150105Y105959D01*
X-150176Y105951D01*
X-150201Y105936D01*
X-150229Y105930D01*
X-150286Y105887D01*
X-150348Y105852D01*
X-150366Y105829D01*
X-150389Y105812D01*
X-150425Y105750D01*
X-150468Y105693D01*
X-150475Y105665D01*
X-150490Y105640D01*
X-150507Y105542D01*
X-150517Y105501D01*
X-150515Y105490D01*
X-150518Y105476D01*
X-150495Y86437D01*
X-150479Y86361D01*
X-150471Y86285D01*
X-150460Y86265D01*
X-150455Y86242D01*
X-150411Y86179D01*
X-150374Y86112D01*
X-150354Y86095D01*
X-150342Y86078D01*
X-150305Y86054D01*
X-150246Y86005D01*
X-133769Y76466D01*
X-133741Y76457D01*
X-133717Y76440D01*
X-133648Y76425D01*
X-133580Y76403D01*
X-133551Y76405D01*
X-133523Y76399D01*
X-133453Y76412D01*
X-133382Y76418D01*
X-133356Y76431D01*
X-133328Y76437D01*
X-133268Y76477D01*
X-133205Y76509D01*
X-133187Y76532D01*
X-133163Y76548D01*
X-133105Y76630D01*
X-133078Y76662D01*
X-133075Y76673D01*
X-133067Y76684D01*
X-132750Y77352D01*
X-113572Y66279D01*
X-113571Y66279D01*
X-113569Y66278D01*
X-101121Y59127D01*
X-101056Y59099D01*
X-100996Y59064D01*
X-100910Y59038D01*
X-100828Y59004D01*
X-100758Y58994D01*
X-100691Y58974D01*
X-100602Y58971D01*
X-100513Y58958D01*
X-100443Y58966D01*
X-100373Y58963D01*
X-100286Y58982D01*
X-100197Y58992D01*
X-100131Y59017D01*
X-100062Y59032D01*
X-99983Y59072D01*
X-99899Y59103D01*
X-99841Y59144D01*
X-99779Y59175D01*
X-99711Y59234D01*
X-99638Y59285D01*
X-99592Y59339D01*
X-99539Y59385D01*
X-99440Y59512D01*
X-98858Y60365D01*
X-98856Y60369D01*
X-98854Y60372D01*
X-98785Y60508D01*
X-98713Y60648D01*
X-98712Y60652D01*
X-98711Y60656D01*
X-98679Y60801D01*
X-98659Y60891D01*
X-98123Y61469D01*
X-98114Y61480D01*
X-98103Y61490D01*
X-98004Y61617D01*
X-97560Y62269D01*
X-97483Y62293D01*
X-97480Y62296D01*
X-97476Y62297D01*
X-97346Y62380D01*
X-97215Y62463D01*
X-97212Y62466D01*
X-97208Y62468D01*
X-97091Y62579D01*
X-96024Y63729D01*
X-96022Y63732D01*
X-96018Y63735D01*
X-95928Y63862D01*
X-95838Y63987D01*
X-95837Y63991D01*
X-95835Y63994D01*
X-95779Y64141D01*
X-95748Y64220D01*
X-95132Y64711D01*
X-95122Y64721D01*
X-95110Y64729D01*
X-94993Y64840D01*
X-94456Y65418D01*
X-94377Y65431D01*
X-94373Y65432D01*
X-94369Y65433D01*
X-94228Y65496D01*
X-94086Y65559D01*
X-94082Y65561D01*
X-94079Y65563D01*
X-93947Y65655D01*
X-92720Y66633D01*
X-92717Y66636D01*
X-92713Y66638D01*
X-92609Y66747D01*
X-92498Y66861D01*
X-92496Y66864D01*
X-92493Y66867D01*
X-92417Y67002D01*
X-92374Y67077D01*
X-91691Y67471D01*
X-91680Y67479D01*
X-91667Y67485D01*
X-91535Y67577D01*
X-90917Y68069D01*
X-90838Y68070D01*
X-90834Y68071D01*
X-90829Y68071D01*
X-90681Y68113D01*
X-90531Y68153D01*
X-90527Y68155D01*
X-90523Y68156D01*
X-90379Y68228D01*
X-89020Y69012D01*
X-89016Y69015D01*
X-89013Y69016D01*
X-88891Y69110D01*
X-88766Y69204D01*
X-88764Y69207D01*
X-88760Y69210D01*
X-88667Y69329D01*
X-88611Y69399D01*
X-87878Y69687D01*
X-87865Y69694D01*
X-87851Y69698D01*
X-87728Y69759D01*
X-87720Y69762D01*
X-87717Y69764D01*
X-87707Y69769D01*
X-87024Y70164D01*
X-86944Y70153D01*
X-86940Y70153D01*
X-86936Y70153D01*
X-86783Y70171D01*
X-86628Y70189D01*
X-86624Y70191D01*
X-86620Y70191D01*
X-86467Y70240D01*
X-85006Y70813D01*
X-85003Y70815D01*
X-84999Y70816D01*
X-84864Y70891D01*
X-84727Y70965D01*
X-84724Y70968D01*
X-84721Y70970D01*
X-84610Y71075D01*
X-84545Y71135D01*
X-83777Y71310D01*
X-83763Y71315D01*
X-83749Y71317D01*
X-83596Y71366D01*
X-82861Y71654D01*
X-82784Y71632D01*
X-82780Y71631D01*
X-82776Y71630D01*
X-82622Y71626D01*
X-82466Y71621D01*
X-82462Y71621D01*
X-82458Y71621D01*
X-82299Y71647D01*
X-80770Y71996D01*
X-80766Y71997D01*
X-80762Y71998D01*
X-80616Y72052D01*
X-80471Y72105D01*
X-80467Y72107D01*
X-80464Y72108D01*
X-80336Y72197D01*
X-80265Y72246D01*
X-79479Y72304D01*
X-79465Y72307D01*
X-79451Y72307D01*
X-79292Y72332D01*
X-78523Y72508D01*
X-78450Y72474D01*
X-78446Y72473D01*
X-78442Y72472D01*
X-78288Y72444D01*
X-78137Y72416D01*
X-78133Y72416D01*
X-78129Y72415D01*
X-77968Y72417D01*
X-76404Y72534D01*
X-76400Y72535D01*
X-76395Y72534D01*
X-76243Y72566D01*
X-76092Y72597D01*
X-76088Y72599D01*
X-76084Y72600D01*
X-75945Y72668D01*
X-75868Y72706D01*
X-75082Y72647D01*
X-75068Y72647D01*
X-75053Y72645D01*
X-74892Y72647D01*
X-74105Y72705D01*
X-74039Y72661D01*
X-74035Y72660D01*
X-74031Y72657D01*
X-73883Y72607D01*
X-73738Y72557D01*
X-73734Y72556D01*
X-73730Y72555D01*
X-73571Y72533D01*
X-72006Y72415D01*
X-72002Y72415D01*
X-71998Y72415D01*
X-71844Y72423D01*
X-71689Y72431D01*
X-71685Y72432D01*
X-71681Y72433D01*
X-71535Y72479D01*
X-71451Y72505D01*
X-70683Y72330D01*
X-70668Y72328D01*
X-70655Y72324D01*
X-70495Y72301D01*
X-69708Y72242D01*
X-69649Y72188D01*
X-69645Y72187D01*
X-69642Y72184D01*
X-69504Y72112D01*
X-69367Y72041D01*
X-69363Y72040D01*
X-69360Y72038D01*
X-69205Y71992D01*
X-67676Y71642D01*
X-67672Y71642D01*
X-67668Y71641D01*
X-67516Y71626D01*
X-67359Y71611D01*
X-67355Y71612D01*
X-67351Y71611D01*
X-67199Y71635D01*
X-67113Y71649D01*
X-66380Y71361D01*
X-66366Y71357D01*
X-66353Y71350D01*
X-66198Y71305D01*
X-65429Y71129D01*
X-65379Y71067D01*
X-65375Y71065D01*
X-65373Y71061D01*
X-65248Y70971D01*
X-65122Y70879D01*
X-65118Y70877D01*
X-65115Y70875D01*
X-64969Y70807D01*
X-63509Y70233D01*
X-63505Y70232D01*
X-63501Y70230D01*
X-63352Y70193D01*
X-63201Y70155D01*
X-63197Y70155D01*
X-63193Y70154D01*
X-63038Y70155D01*
X-62951Y70155D01*
X-62269Y69761D01*
X-62256Y69756D01*
X-62244Y69747D01*
X-62098Y69679D01*
X-61364Y69390D01*
X-61323Y69321D01*
X-61320Y69319D01*
X-61318Y69315D01*
X-61208Y69207D01*
X-61098Y69097D01*
X-61094Y69095D01*
X-61091Y69092D01*
X-60957Y69003D01*
X-59807Y68338D01*
X-59748Y68314D01*
X-59694Y68281D01*
X-59602Y68252D01*
X-59513Y68215D01*
X-59451Y68206D01*
X-59390Y68187D01*
X-59294Y68182D01*
X-59199Y68168D01*
X-59136Y68175D01*
X-59073Y68172D01*
X-58978Y68191D01*
X-58883Y68201D01*
X-58823Y68223D01*
X-58761Y68236D01*
X-58675Y68278D01*
X-58584Y68312D01*
X-58532Y68348D01*
X-58475Y68376D01*
X-58402Y68438D01*
X-58323Y68493D01*
X-58282Y68541D01*
X-58233Y68582D01*
X-58178Y68661D01*
X-58115Y68734D01*
X-58087Y68790D01*
X-58050Y68842D01*
X-58016Y68932D01*
X-57973Y69018D01*
X-57960Y69080D01*
X-57938Y69140D01*
X-57927Y69235D01*
X-57907Y69329D01*
X-57909Y69393D01*
X-57902Y69456D01*
X-57916Y69551D01*
X-57920Y69647D01*
X-57938Y69708D01*
X-57947Y69771D01*
X-57999Y69923D01*
X-58151Y70291D01*
X-58151Y72584D01*
X-57274Y74703D01*
X-56687Y75290D01*
X-56602Y75399D01*
X-56513Y75507D01*
X-56504Y75525D01*
X-56492Y75541D01*
X-56436Y75669D01*
X-56377Y75794D01*
X-56373Y75814D01*
X-56365Y75833D01*
X-56343Y75971D01*
X-56317Y76107D01*
X-56319Y76127D01*
X-56315Y76147D01*
X-56329Y76286D01*
X-56337Y76424D01*
X-56343Y76443D01*
X-56345Y76464D01*
X-56392Y76595D01*
X-56435Y76727D01*
X-56446Y76744D01*
X-56453Y76763D01*
X-56531Y76878D01*
X-56605Y76995D01*
X-56620Y77009D01*
X-56631Y77026D01*
X-56735Y77118D01*
X-56837Y77213D01*
X-56855Y77223D01*
X-56870Y77237D01*
X-56994Y77300D01*
X-57115Y77367D01*
X-57135Y77372D01*
X-57153Y77381D01*
X-57289Y77412D01*
X-57423Y77446D01*
X-57451Y77448D01*
X-57463Y77451D01*
X-57484Y77450D01*
X-57584Y77457D01*
X-118102Y77457D01*
X-122835Y82190D01*
X-122835Y103688D01*
X-104540Y121983D01*
X-104480Y122061D01*
X-104412Y122133D01*
X-104383Y122186D01*
X-104346Y122234D01*
X-104306Y122325D01*
X-104258Y122411D01*
X-104243Y122470D01*
X-104219Y122526D01*
X-104204Y122624D01*
X-104179Y122719D01*
X-104173Y122819D01*
X-104169Y122840D01*
X-104171Y122852D01*
X-104169Y122880D01*
X-104169Y128365D01*
X-104175Y128415D01*
X-104173Y128464D01*
X-104195Y128572D01*
X-104209Y128681D01*
X-104227Y128727D01*
X-104237Y128776D01*
X-104285Y128875D01*
X-104326Y128977D01*
X-104355Y129017D01*
X-104377Y129061D01*
X-104448Y129145D01*
X-104512Y129234D01*
X-104551Y129266D01*
X-104583Y129303D01*
X-104673Y129367D01*
X-104757Y129437D01*
X-104802Y129458D01*
X-104843Y129487D01*
X-104946Y129526D01*
X-105045Y129572D01*
X-105094Y129582D01*
X-105140Y129599D01*
X-105250Y129611D01*
X-105357Y129632D01*
X-105407Y129629D01*
X-105456Y129634D01*
X-105565Y129619D01*
X-105675Y129612D01*
X-105722Y129597D01*
X-105771Y129590D01*
X-105924Y129538D01*
X-106803Y129174D01*
X-109097Y129174D01*
X-111215Y130051D01*
X-112836Y131673D01*
X-113714Y133791D01*
X-113714Y136084D01*
X-112836Y138202D01*
X-111764Y139275D01*
X-111703Y139353D01*
X-111636Y139425D01*
X-111606Y139478D01*
X-111569Y139526D01*
X-111530Y139617D01*
X-111482Y139704D01*
X-111467Y139762D01*
X-111443Y139818D01*
X-111427Y139916D01*
X-111403Y140012D01*
X-111396Y140112D01*
X-111393Y140132D01*
X-111394Y140144D01*
X-111392Y140172D01*
X-111392Y155263D01*
X-99064Y167592D01*
X-99003Y167670D01*
X-98936Y167742D01*
X-98906Y167795D01*
X-98869Y167843D01*
X-98830Y167934D01*
X-98782Y168021D01*
X-98767Y168079D01*
X-98743Y168135D01*
X-98727Y168233D01*
X-98703Y168328D01*
X-98696Y168428D01*
X-98693Y168449D01*
X-98694Y168461D01*
X-98692Y168489D01*
X-98692Y174874D01*
X-98701Y174944D01*
X-98700Y175014D01*
X-98721Y175101D01*
X-98732Y175190D01*
X-98758Y175255D01*
X-98774Y175323D01*
X-98816Y175402D01*
X-98849Y175486D01*
X-98890Y175542D01*
X-98923Y175604D01*
X-98983Y175670D01*
X-99036Y175743D01*
X-99090Y175788D01*
X-99137Y175839D01*
X-99212Y175889D01*
X-99281Y175946D01*
X-99344Y175976D01*
X-99403Y176014D01*
X-99488Y176043D01*
X-99569Y176081D01*
X-99637Y176094D01*
X-99703Y176117D01*
X-99793Y176124D01*
X-99881Y176141D01*
X-99951Y176137D01*
X-100020Y176142D01*
X-100109Y176127D01*
X-100199Y176121D01*
X-100265Y176100D01*
X-100334Y176088D01*
X-100416Y176051D01*
X-100501Y176023D01*
X-100560Y175986D01*
X-100624Y175957D01*
X-100694Y175901D01*
X-100770Y175853D01*
X-100818Y175802D01*
X-100872Y175759D01*
X-100926Y175687D01*
X-100988Y175622D01*
X-101021Y175560D01*
X-101063Y175505D01*
X-101134Y175360D01*
X-101476Y174535D01*
X-103098Y172914D01*
X-105216Y172036D01*
X-107509Y172036D01*
X-109627Y172914D01*
X-111249Y174535D01*
X-112126Y176653D01*
X-112126Y178947D01*
X-111489Y180485D01*
X-111487Y180494D01*
X-111482Y180502D01*
X-111445Y180648D01*
X-111405Y180792D01*
X-111405Y180801D01*
X-111403Y180810D01*
X-111392Y180971D01*
X-111392Y195266D01*
X-111394Y195276D01*
X-111393Y195285D01*
X-111409Y195398D01*
X-111415Y195498D01*
X-111426Y195533D01*
X-111432Y195582D01*
X-111436Y195591D01*
X-111437Y195600D01*
X-111489Y195752D01*
X-112126Y197291D01*
X-112126Y199584D01*
X-111209Y201798D01*
X-111201Y201827D01*
X-111188Y201853D01*
X-111159Y201980D01*
X-111125Y202105D01*
X-111125Y202135D01*
X-111118Y202163D01*
X-111122Y202293D01*
X-111120Y202423D01*
X-111127Y202452D01*
X-111128Y202481D01*
X-111164Y202606D01*
X-111194Y202732D01*
X-111208Y202758D01*
X-111216Y202787D01*
X-111282Y202899D01*
X-111343Y203013D01*
X-111363Y203035D01*
X-111378Y203061D01*
X-111484Y203182D01*
X-111732Y203429D01*
X-111732Y219071D01*
X-110571Y220232D01*
X-98929Y220232D01*
X-97768Y219071D01*
X-97768Y210470D01*
X-97756Y210372D01*
X-97753Y210273D01*
X-97736Y210215D01*
X-97728Y210155D01*
X-97692Y210063D01*
X-97664Y209968D01*
X-97633Y209915D01*
X-97611Y209859D01*
X-97553Y209779D01*
X-97503Y209694D01*
X-97436Y209618D01*
X-97424Y209602D01*
X-97415Y209594D01*
X-97396Y209573D01*
X-91236Y203413D01*
X-91236Y202164D01*
X-91221Y202045D01*
X-91214Y201927D01*
X-91201Y201888D01*
X-91196Y201848D01*
X-91152Y201737D01*
X-91116Y201624D01*
X-91094Y201590D01*
X-91079Y201552D01*
X-91009Y201456D01*
X-90946Y201356D01*
X-90916Y201328D01*
X-90892Y201295D01*
X-90801Y201219D01*
X-90714Y201138D01*
X-90679Y201118D01*
X-90647Y201092D01*
X-90540Y201042D01*
X-90435Y200984D01*
X-90396Y200974D01*
X-90360Y200957D01*
X-90243Y200934D01*
X-90128Y200905D01*
X-90067Y200901D01*
X-90047Y200897D01*
X-90027Y200898D01*
X-89967Y200894D01*
X-89929Y200894D01*
X-88768Y199733D01*
X-88768Y191092D01*
X-90050Y189810D01*
X-90123Y189716D01*
X-90201Y189627D01*
X-90211Y189607D01*
X-90221Y189595D01*
X-90229Y189579D01*
X-90245Y189559D01*
X-90292Y189449D01*
X-90346Y189343D01*
X-90351Y189319D01*
X-90357Y189308D01*
X-90360Y189293D01*
X-90371Y189267D01*
X-90390Y189149D01*
X-90416Y189033D01*
X-90415Y189005D01*
X-90417Y188995D01*
X-90416Y188983D01*
X-90421Y188953D01*
X-90410Y188834D01*
X-90406Y188715D01*
X-90397Y188685D01*
X-90397Y188678D01*
X-90394Y188669D01*
X-90391Y188636D01*
X-90351Y188524D01*
X-90318Y188410D01*
X-90301Y188381D01*
X-90299Y188375D01*
X-90295Y188369D01*
X-90283Y188337D01*
X-90216Y188238D01*
X-90156Y188136D01*
X-90116Y188091D01*
X-90105Y188074D01*
X-90089Y188060D01*
X-90050Y188015D01*
X-88768Y186733D01*
X-88768Y178092D01*
X-89929Y176931D01*
X-90538Y176931D01*
X-90657Y176916D01*
X-90775Y176908D01*
X-90814Y176896D01*
X-90854Y176891D01*
X-90965Y176847D01*
X-91078Y176810D01*
X-91112Y176789D01*
X-91150Y176774D01*
X-91246Y176704D01*
X-91346Y176640D01*
X-91374Y176611D01*
X-91407Y176587D01*
X-91483Y176495D01*
X-91564Y176408D01*
X-91584Y176373D01*
X-91610Y176342D01*
X-91660Y176234D01*
X-91718Y176130D01*
X-91728Y176091D01*
X-91745Y176054D01*
X-91768Y175937D01*
X-91797Y175822D01*
X-91801Y175762D01*
X-91805Y175742D01*
X-91804Y175722D01*
X-91808Y175661D01*
X-91808Y169034D01*
X-91790Y168897D01*
X-91777Y168758D01*
X-91770Y168739D01*
X-91768Y168719D01*
X-91717Y168590D01*
X-91670Y168459D01*
X-91658Y168442D01*
X-91651Y168423D01*
X-91569Y168311D01*
X-91491Y168196D01*
X-91476Y168182D01*
X-91464Y168166D01*
X-91357Y168077D01*
X-91253Y167985D01*
X-91235Y167976D01*
X-91219Y167963D01*
X-91093Y167904D01*
X-90969Y167840D01*
X-90949Y167836D01*
X-90931Y167827D01*
X-90795Y167801D01*
X-90659Y167771D01*
X-90639Y167771D01*
X-90619Y167768D01*
X-90480Y167776D01*
X-90341Y167780D01*
X-90322Y167786D01*
X-90301Y167787D01*
X-90169Y167830D01*
X-90036Y167869D01*
X-90018Y167879D01*
X-89999Y167885D01*
X-89881Y167960D01*
X-89762Y168030D01*
X-89741Y168049D01*
X-89730Y168056D01*
X-89716Y168071D01*
X-89641Y168137D01*
X-81078Y176700D01*
X-81017Y176778D01*
X-80949Y176850D01*
X-80920Y176903D01*
X-80883Y176951D01*
X-80843Y177042D01*
X-80796Y177129D01*
X-80780Y177187D01*
X-80756Y177243D01*
X-80741Y177341D01*
X-80716Y177437D01*
X-80710Y177537D01*
X-80707Y177557D01*
X-80708Y177570D01*
X-80706Y177598D01*
X-80706Y239998D01*
X-80710Y240028D01*
X-80707Y240057D01*
X-80730Y240185D01*
X-80746Y240314D01*
X-80757Y240341D01*
X-80762Y240370D01*
X-80815Y240489D01*
X-80863Y240610D01*
X-80880Y240634D01*
X-80892Y240660D01*
X-80973Y240762D01*
X-81050Y240867D01*
X-81072Y240886D01*
X-81091Y240909D01*
X-81195Y240987D01*
X-81295Y241070D01*
X-81321Y241082D01*
X-81345Y241100D01*
X-81489Y241171D01*
X-82351Y241528D01*
X-84909Y244086D01*
X-86294Y247429D01*
X-86294Y251046D01*
X-84909Y254389D01*
X-83769Y255530D01*
X-83684Y255639D01*
X-83595Y255747D01*
X-83586Y255765D01*
X-83574Y255781D01*
X-83518Y255908D01*
X-83459Y256034D01*
X-83455Y256054D01*
X-83447Y256073D01*
X-83425Y256211D01*
X-83399Y256347D01*
X-83401Y256367D01*
X-83398Y256387D01*
X-83411Y256526D01*
X-83419Y256664D01*
X-83425Y256683D01*
X-83427Y256703D01*
X-83475Y256835D01*
X-83517Y256967D01*
X-83528Y256984D01*
X-83535Y257003D01*
X-83613Y257118D01*
X-83687Y257235D01*
X-83702Y257249D01*
X-83714Y257266D01*
X-83818Y257358D01*
X-83919Y257453D01*
X-83937Y257463D01*
X-83952Y257476D01*
X-84076Y257540D01*
X-84198Y257607D01*
X-84217Y257612D01*
X-84235Y257621D01*
X-84371Y257651D01*
X-84505Y257686D01*
X-84534Y257688D01*
X-84545Y257691D01*
X-84566Y257690D01*
X-84666Y257696D01*
X-88657Y257696D01*
X-88755Y257684D01*
X-88855Y257681D01*
X-88913Y257664D01*
X-88973Y257656D01*
X-89065Y257620D01*
X-89160Y257593D01*
X-89212Y257562D01*
X-89269Y257539D01*
X-89349Y257481D01*
X-89434Y257431D01*
X-89509Y257365D01*
X-89526Y257353D01*
X-89534Y257343D01*
X-89555Y257325D01*
X-93588Y253291D01*
X-93606Y253268D01*
X-93628Y253249D01*
X-93703Y253143D01*
X-93783Y253040D01*
X-93795Y253013D01*
X-93812Y252989D01*
X-93858Y252868D01*
X-93909Y252748D01*
X-93914Y252719D01*
X-93924Y252692D01*
X-93939Y252563D01*
X-93959Y252434D01*
X-93956Y252405D01*
X-93960Y252375D01*
X-93941Y252247D01*
X-93929Y252118D01*
X-93919Y252090D01*
X-93915Y252061D01*
X-93863Y251908D01*
X-93506Y251046D01*
X-93506Y247429D01*
X-94932Y243987D01*
X-94945Y243939D01*
X-94966Y243894D01*
X-94987Y243786D01*
X-95016Y243680D01*
X-95016Y243630D01*
X-95026Y243582D01*
X-95019Y243472D01*
X-95021Y243362D01*
X-95009Y243314D01*
X-95006Y243264D01*
X-94972Y243160D01*
X-94947Y243053D01*
X-94923Y243009D01*
X-94908Y242962D01*
X-94849Y242869D01*
X-94798Y242772D01*
X-94764Y242735D01*
X-94738Y242693D01*
X-94658Y242618D01*
X-94584Y242536D01*
X-94542Y242509D01*
X-94506Y242475D01*
X-94410Y242422D01*
X-94318Y242362D01*
X-94271Y242346D01*
X-94228Y242322D01*
X-94121Y242294D01*
X-94017Y242258D01*
X-93968Y242255D01*
X-93920Y242242D01*
X-93759Y242232D01*
X-89429Y242232D01*
X-88268Y241071D01*
X-88268Y225429D01*
X-89429Y224268D01*
X-101071Y224268D01*
X-102232Y225429D01*
X-102232Y228475D01*
X-102247Y228593D01*
X-102254Y228712D01*
X-102267Y228750D01*
X-102272Y228790D01*
X-102316Y228901D01*
X-102352Y229014D01*
X-102374Y229048D01*
X-102389Y229086D01*
X-102459Y229182D01*
X-102522Y229283D01*
X-102552Y229311D01*
X-102576Y229343D01*
X-102667Y229419D01*
X-102754Y229501D01*
X-102789Y229520D01*
X-102821Y229546D01*
X-102928Y229597D01*
X-103033Y229654D01*
X-103072Y229665D01*
X-103108Y229682D01*
X-103225Y229704D01*
X-103340Y229734D01*
X-103401Y229738D01*
X-103421Y229742D01*
X-103441Y229740D01*
X-103501Y229744D01*
X-111027Y229744D01*
X-111817Y230534D01*
X-111895Y230595D01*
X-111967Y230662D01*
X-112020Y230692D01*
X-112068Y230729D01*
X-112159Y230768D01*
X-112246Y230816D01*
X-112304Y230831D01*
X-112360Y230855D01*
X-112458Y230871D01*
X-112554Y230895D01*
X-112654Y230902D01*
X-112674Y230905D01*
X-112686Y230904D01*
X-112714Y230906D01*
X-118033Y230906D01*
X-119194Y232067D01*
X-119194Y240708D01*
X-117913Y241990D01*
X-117840Y242084D01*
X-117761Y242173D01*
X-117743Y242209D01*
X-117718Y242241D01*
X-117671Y242351D01*
X-117617Y242457D01*
X-117608Y242496D01*
X-117592Y242533D01*
X-117573Y242651D01*
X-117547Y242767D01*
X-117548Y242807D01*
X-117542Y242847D01*
X-117553Y242966D01*
X-117557Y243085D01*
X-117568Y243124D01*
X-117572Y243164D01*
X-117612Y243276D01*
X-117645Y243390D01*
X-117665Y243425D01*
X-117679Y243463D01*
X-117746Y243562D01*
X-117806Y243664D01*
X-117846Y243709D01*
X-117858Y243726D01*
X-117873Y243740D01*
X-117913Y243785D01*
X-119194Y245067D01*
X-119194Y253708D01*
X-118033Y254869D01*
X-110355Y254869D01*
X-110256Y254882D01*
X-110157Y254885D01*
X-110099Y254902D01*
X-110039Y254909D01*
X-109947Y254946D01*
X-109852Y254973D01*
X-109800Y255004D01*
X-109743Y255026D01*
X-109663Y255084D01*
X-109578Y255135D01*
X-109503Y255201D01*
X-109486Y255213D01*
X-109478Y255223D01*
X-109457Y255241D01*
X-107751Y256947D01*
X-104409Y258331D01*
X-100791Y258331D01*
X-99929Y257974D01*
X-99901Y257967D01*
X-99875Y257953D01*
X-99748Y257925D01*
X-99623Y257891D01*
X-99593Y257890D01*
X-99564Y257884D01*
X-99434Y257888D01*
X-99305Y257885D01*
X-99276Y257892D01*
X-99246Y257893D01*
X-99122Y257929D01*
X-98995Y257960D01*
X-98969Y257973D01*
X-98941Y257982D01*
X-98829Y258048D01*
X-98714Y258108D01*
X-98692Y258128D01*
X-98667Y258143D01*
X-98546Y258250D01*
X-92087Y264708D01*
X-50445Y264708D01*
X-50347Y264721D01*
X-50248Y264724D01*
X-50189Y264740D01*
X-50129Y264748D01*
X-50037Y264784D01*
X-49942Y264812D01*
X-49890Y264843D01*
X-49834Y264865D01*
X-49754Y264923D01*
X-49668Y264974D01*
X-49593Y265040D01*
X-49576Y265052D01*
X-49569Y265061D01*
X-49547Y265080D01*
X-42790Y271837D01*
X-42730Y271915D01*
X-42662Y271987D01*
X-42633Y272040D01*
X-42596Y272088D01*
X-42556Y272179D01*
X-42508Y272266D01*
X-42493Y272324D01*
X-42469Y272380D01*
X-42454Y272478D01*
X-42429Y272574D01*
X-42423Y272674D01*
X-42419Y272694D01*
X-42421Y272706D01*
X-42419Y272734D01*
X-42419Y286248D01*
X-28298Y300368D01*
X28298Y300368D01*
X45781Y282886D01*
X45781Y260740D01*
X45793Y260642D01*
X45796Y260543D01*
X45813Y260485D01*
X45821Y260425D01*
X45857Y260333D01*
X45885Y260238D01*
X45916Y260186D01*
X45938Y260129D01*
X45996Y260049D01*
X46046Y259964D01*
X46113Y259888D01*
X46125Y259872D01*
X46134Y259864D01*
X46153Y259843D01*
X47746Y258250D01*
X47769Y258231D01*
X47789Y258209D01*
X47895Y258134D01*
X47997Y258055D01*
X48024Y258043D01*
X48049Y258026D01*
X48170Y257980D01*
X48289Y257928D01*
X48318Y257924D01*
X48346Y257913D01*
X48475Y257899D01*
X48603Y257878D01*
X48633Y257881D01*
X48662Y257878D01*
X48790Y257896D01*
X48920Y257908D01*
X48948Y257918D01*
X48977Y257922D01*
X49129Y257974D01*
X49991Y258331D01*
X53609Y258331D01*
X56951Y256947D01*
X59509Y254389D01*
X60894Y251046D01*
X60894Y247429D01*
X59509Y244086D01*
X56951Y241528D01*
X53609Y240144D01*
X49991Y240144D01*
X46649Y241528D01*
X44091Y244086D01*
X42706Y247429D01*
X42706Y251046D01*
X43063Y251908D01*
X43071Y251937D01*
X43084Y251963D01*
X43088Y251979D01*
X43090Y251984D01*
X43098Y252025D01*
X43113Y252090D01*
X43147Y252215D01*
X43147Y252244D01*
X43154Y252273D01*
X43150Y252403D01*
X43152Y252533D01*
X43145Y252562D01*
X43144Y252591D01*
X43108Y252716D01*
X43078Y252842D01*
X43064Y252868D01*
X43056Y252897D01*
X42990Y253008D01*
X42929Y253123D01*
X42909Y253145D01*
X42894Y253171D01*
X42788Y253291D01*
X38769Y257310D01*
X38769Y279455D01*
X38757Y279554D01*
X38754Y279653D01*
X38737Y279711D01*
X38729Y279771D01*
X38693Y279863D01*
X38665Y279958D01*
X38634Y280010D01*
X38612Y280067D01*
X38554Y280147D01*
X38504Y280232D01*
X38437Y280307D01*
X38425Y280324D01*
X38416Y280332D01*
X38397Y280353D01*
X37169Y281582D01*
X37059Y281666D01*
X36952Y281756D01*
X36933Y281764D01*
X36917Y281777D01*
X36790Y281832D01*
X36664Y281891D01*
X36644Y281895D01*
X36626Y281903D01*
X36488Y281925D01*
X36352Y281951D01*
X36332Y281950D01*
X36311Y281953D01*
X36172Y281940D01*
X36034Y281931D01*
X36015Y281925D01*
X35995Y281923D01*
X35864Y281876D01*
X35732Y281833D01*
X35715Y281822D01*
X35696Y281815D01*
X35580Y281737D01*
X35463Y281663D01*
X35449Y281648D01*
X35432Y281637D01*
X35341Y281533D01*
X35245Y281431D01*
X35235Y281414D01*
X35222Y281398D01*
X35159Y281275D01*
X35092Y281153D01*
X35087Y281133D01*
X35077Y281115D01*
X35047Y280979D01*
X35012Y280845D01*
X35010Y280817D01*
X35008Y280805D01*
X35008Y280784D01*
X35002Y280684D01*
X35002Y280665D01*
X33540Y277136D01*
X30839Y274435D01*
X27310Y272973D01*
X23490Y272973D01*
X19961Y274435D01*
X19754Y274642D01*
X19644Y274727D01*
X19537Y274816D01*
X19518Y274825D01*
X19502Y274837D01*
X19375Y274892D01*
X19249Y274952D01*
X19229Y274956D01*
X19210Y274964D01*
X19073Y274985D01*
X18937Y275011D01*
X18916Y275010D01*
X18896Y275013D01*
X18758Y275000D01*
X18619Y274992D01*
X18600Y274986D01*
X18580Y274984D01*
X18448Y274936D01*
X18317Y274894D01*
X18300Y274883D01*
X18280Y274876D01*
X18165Y274798D01*
X18048Y274724D01*
X18034Y274709D01*
X18017Y274697D01*
X17925Y274593D01*
X17830Y274492D01*
X17820Y274474D01*
X17807Y274459D01*
X17743Y274335D01*
X17677Y274213D01*
X17671Y274194D01*
X17662Y274176D01*
X17632Y274040D01*
X17597Y273905D01*
X17595Y273877D01*
X17593Y273865D01*
X17593Y273845D01*
X17587Y273745D01*
X17587Y256349D01*
X17604Y256211D01*
X17617Y256073D01*
X17624Y256054D01*
X17627Y256034D01*
X17678Y255904D01*
X17725Y255774D01*
X17736Y255757D01*
X17744Y255738D01*
X17825Y255626D01*
X17903Y255511D01*
X17919Y255497D01*
X17931Y255481D01*
X18038Y255392D01*
X18142Y255300D01*
X18160Y255291D01*
X18176Y255278D01*
X18301Y255219D01*
X18425Y255155D01*
X18445Y255151D01*
X18463Y255142D01*
X18600Y255116D01*
X18735Y255086D01*
X18756Y255086D01*
X18776Y255083D01*
X18914Y255091D01*
X19053Y255095D01*
X19073Y255101D01*
X19093Y255102D01*
X19225Y255145D01*
X19359Y255184D01*
X19376Y255194D01*
X19396Y255200D01*
X19513Y255275D01*
X19633Y255345D01*
X19654Y255364D01*
X19664Y255371D01*
X19678Y255386D01*
X19754Y255452D01*
X21249Y256947D01*
X24591Y258331D01*
X28209Y258331D01*
X31551Y256947D01*
X34109Y254389D01*
X35494Y251046D01*
X35494Y247429D01*
X34093Y244048D01*
X34026Y243972D01*
X34008Y243936D01*
X33983Y243904D01*
X33936Y243794D01*
X33882Y243688D01*
X33873Y243649D01*
X33857Y243612D01*
X33838Y243494D01*
X33812Y243378D01*
X33813Y243338D01*
X33807Y243298D01*
X33818Y243179D01*
X33822Y243060D01*
X33833Y243021D01*
X33837Y242981D01*
X33877Y242869D01*
X33910Y242755D01*
X33931Y242720D01*
X33944Y242682D01*
X34011Y242584D01*
X34072Y242481D01*
X34112Y242435D01*
X34123Y242419D01*
X34138Y242405D01*
X34178Y242360D01*
X44860Y231678D01*
X44938Y231617D01*
X45010Y231549D01*
X45063Y231520D01*
X45111Y231483D01*
X45202Y231444D01*
X45289Y231396D01*
X45347Y231381D01*
X45403Y231357D01*
X45501Y231341D01*
X45597Y231316D01*
X45697Y231310D01*
X45717Y231307D01*
X45729Y231308D01*
X45757Y231306D01*
X47184Y231306D01*
X49302Y230429D01*
X50660Y229071D01*
X50755Y228998D01*
X50844Y228919D01*
X50880Y228901D01*
X50912Y228876D01*
X51021Y228828D01*
X51127Y228774D01*
X51166Y228766D01*
X51204Y228750D01*
X51321Y228731D01*
X51437Y228705D01*
X51478Y228706D01*
X51518Y228700D01*
X51636Y228711D01*
X51755Y228714D01*
X51794Y228726D01*
X51834Y228729D01*
X51946Y228770D01*
X52061Y228803D01*
X52096Y228823D01*
X52134Y228837D01*
X52232Y228904D01*
X52335Y228964D01*
X52380Y229004D01*
X52397Y229016D01*
X52410Y229031D01*
X52455Y229071D01*
X52917Y229532D01*
X64558Y229532D01*
X65733Y228358D01*
X65734Y228344D01*
X65742Y228226D01*
X65754Y228187D01*
X65759Y228147D01*
X65803Y228036D01*
X65840Y227923D01*
X65861Y227889D01*
X65876Y227851D01*
X65946Y227755D01*
X66010Y227655D01*
X66039Y227627D01*
X66063Y227594D01*
X66155Y227518D01*
X66242Y227437D01*
X66277Y227417D01*
X66308Y227391D01*
X66416Y227341D01*
X66520Y227283D01*
X66559Y227273D01*
X66596Y227256D01*
X66713Y227233D01*
X66828Y227204D01*
X66888Y227200D01*
X66908Y227196D01*
X66928Y227197D01*
X66989Y227193D01*
X68449Y227193D01*
X68567Y227208D01*
X68686Y227216D01*
X68724Y227228D01*
X68764Y227233D01*
X68875Y227277D01*
X68988Y227314D01*
X69022Y227335D01*
X69060Y227350D01*
X69156Y227420D01*
X69257Y227484D01*
X69285Y227513D01*
X69317Y227537D01*
X69393Y227629D01*
X69475Y227716D01*
X69494Y227751D01*
X69520Y227782D01*
X69546Y227836D01*
X71000Y229290D01*
X71073Y229384D01*
X71151Y229473D01*
X71170Y229509D01*
X71195Y229541D01*
X71242Y229651D01*
X71296Y229757D01*
X71305Y229796D01*
X71321Y229833D01*
X71340Y229951D01*
X71366Y230067D01*
X71364Y230107D01*
X71371Y230147D01*
X71360Y230266D01*
X71356Y230385D01*
X71345Y230424D01*
X71341Y230464D01*
X71301Y230576D01*
X71268Y230690D01*
X71247Y230725D01*
X71233Y230763D01*
X71166Y230862D01*
X71106Y230964D01*
X71066Y231009D01*
X71055Y231026D01*
X71039Y231040D01*
X71000Y231085D01*
X69718Y232367D01*
X69718Y241008D01*
X70246Y241536D01*
X70319Y241630D01*
X70397Y241719D01*
X70416Y241755D01*
X70441Y241787D01*
X70488Y241897D01*
X70542Y242003D01*
X70551Y242042D01*
X70567Y242079D01*
X70586Y242197D01*
X70612Y242313D01*
X70610Y242353D01*
X70617Y242393D01*
X70606Y242512D01*
X70602Y242631D01*
X70591Y242670D01*
X70587Y242710D01*
X70547Y242822D01*
X70514Y242936D01*
X70493Y242971D01*
X70479Y243009D01*
X70413Y243108D01*
X70352Y243210D01*
X70312Y243255D01*
X70301Y243272D01*
X70285Y243286D01*
X70246Y243331D01*
X69491Y244086D01*
X68106Y247429D01*
X68106Y251046D01*
X69491Y254389D01*
X72049Y256947D01*
X75391Y258331D01*
X79009Y258331D01*
X82351Y256947D01*
X84909Y254389D01*
X86294Y251046D01*
X86294Y247429D01*
X84909Y244086D01*
X83054Y242230D01*
X82993Y242152D01*
X82925Y242080D01*
X82896Y242027D01*
X82859Y241979D01*
X82819Y241888D01*
X82772Y241802D01*
X82756Y241743D01*
X82732Y241687D01*
X82717Y241589D01*
X82692Y241494D01*
X82686Y241394D01*
X82683Y241373D01*
X82684Y241361D01*
X82682Y241333D01*
X82682Y232367D01*
X81400Y231085D01*
X81327Y230991D01*
X81249Y230902D01*
X81230Y230866D01*
X81205Y230834D01*
X81158Y230724D01*
X81104Y230618D01*
X81095Y230579D01*
X81079Y230542D01*
X81060Y230424D01*
X81034Y230308D01*
X81036Y230268D01*
X81029Y230228D01*
X81040Y230109D01*
X81044Y229990D01*
X81055Y229951D01*
X81059Y229911D01*
X81099Y229799D01*
X81132Y229685D01*
X81153Y229650D01*
X81167Y229612D01*
X81234Y229513D01*
X81294Y229411D01*
X81334Y229366D01*
X81345Y229349D01*
X81361Y229335D01*
X81400Y229290D01*
X82015Y228675D01*
X82109Y228602D01*
X82198Y228524D01*
X82234Y228505D01*
X82266Y228480D01*
X82376Y228433D01*
X82482Y228379D01*
X82521Y228370D01*
X82558Y228354D01*
X82676Y228335D01*
X82792Y228309D01*
X82832Y228311D01*
X82872Y228304D01*
X82991Y228315D01*
X83110Y228319D01*
X83149Y228330D01*
X83189Y228334D01*
X83301Y228374D01*
X83415Y228407D01*
X83450Y228428D01*
X83488Y228442D01*
X83586Y228508D01*
X83689Y228569D01*
X83734Y228609D01*
X83751Y228620D01*
X83765Y228635D01*
X83810Y228675D01*
X84667Y229532D01*
X96476Y229532D01*
X96614Y229549D01*
X96752Y229562D01*
X96771Y229569D01*
X96792Y229572D01*
X96921Y229623D01*
X97052Y229670D01*
X97068Y229681D01*
X97087Y229689D01*
X97199Y229770D01*
X97315Y229849D01*
X97328Y229864D01*
X97345Y229876D01*
X97433Y229983D01*
X97525Y230087D01*
X97534Y230105D01*
X97547Y230121D01*
X97607Y230246D01*
X97670Y230370D01*
X97674Y230390D01*
X97683Y230408D01*
X97709Y230545D01*
X97739Y230681D01*
X97739Y230701D01*
X97743Y230721D01*
X97734Y230859D01*
X97730Y230998D01*
X97724Y231018D01*
X97723Y231038D01*
X97680Y231170D01*
X97641Y231304D01*
X97631Y231321D01*
X97625Y231341D01*
X97551Y231458D01*
X97480Y231578D01*
X97461Y231599D01*
X97455Y231609D01*
X97440Y231623D01*
X97373Y231699D01*
X96706Y232367D01*
X96706Y241150D01*
X96736Y241209D01*
X96745Y241248D01*
X96761Y241285D01*
X96779Y241403D01*
X96805Y241519D01*
X96804Y241560D01*
X96811Y241600D01*
X96799Y241718D01*
X96796Y241837D01*
X96785Y241876D01*
X96781Y241916D01*
X96740Y242028D01*
X96707Y242143D01*
X96687Y242177D01*
X96673Y242215D01*
X96606Y242314D01*
X96546Y242416D01*
X96506Y242462D01*
X96495Y242479D01*
X96479Y242492D01*
X96439Y242537D01*
X94891Y244086D01*
X93506Y247429D01*
X93506Y251046D01*
X94891Y254389D01*
X97449Y256947D01*
X100791Y258331D01*
X104409Y258331D01*
X107751Y256947D01*
X110309Y254389D01*
X111694Y251046D01*
X111694Y247429D01*
X110309Y244086D01*
X109348Y243125D01*
X109275Y243031D01*
X109196Y242942D01*
X109178Y242905D01*
X109153Y242874D01*
X109106Y242764D01*
X109052Y242658D01*
X109043Y242619D01*
X109027Y242582D01*
X109008Y242464D01*
X108982Y242348D01*
X108983Y242308D01*
X108977Y242268D01*
X108988Y242149D01*
X108992Y242030D01*
X109002Y241993D01*
X109003Y241986D01*
X109004Y241983D01*
X109007Y241951D01*
X109047Y241839D01*
X109080Y241725D01*
X109097Y241697D01*
X109101Y241684D01*
X109105Y241676D01*
X109114Y241652D01*
X109181Y241553D01*
X109242Y241451D01*
X109266Y241423D01*
X109271Y241415D01*
X109282Y241405D01*
X109293Y241389D01*
X109308Y241375D01*
X109348Y241330D01*
X109669Y241008D01*
X109669Y232367D01*
X108388Y231085D01*
X108315Y230991D01*
X108236Y230902D01*
X108218Y230866D01*
X108193Y230834D01*
X108146Y230724D01*
X108092Y230618D01*
X108083Y230579D01*
X108067Y230542D01*
X108048Y230424D01*
X108022Y230308D01*
X108023Y230268D01*
X108017Y230228D01*
X108028Y230109D01*
X108032Y229990D01*
X108043Y229951D01*
X108047Y229911D01*
X108087Y229799D01*
X108120Y229685D01*
X108140Y229650D01*
X108154Y229612D01*
X108221Y229513D01*
X108281Y229411D01*
X108321Y229366D01*
X108333Y229349D01*
X108348Y229335D01*
X108388Y229290D01*
X109669Y228008D01*
X109669Y219367D01*
X108508Y218206D01*
X98739Y218206D01*
X98620Y218191D01*
X98502Y218183D01*
X98463Y218171D01*
X98423Y218166D01*
X98312Y218122D01*
X98199Y218085D01*
X98165Y218064D01*
X98127Y218049D01*
X98031Y217979D01*
X97931Y217915D01*
X97903Y217886D01*
X97870Y217862D01*
X97794Y217770D01*
X97713Y217683D01*
X97693Y217648D01*
X97667Y217617D01*
X97617Y217509D01*
X97559Y217405D01*
X97549Y217366D01*
X97532Y217329D01*
X97509Y217212D01*
X97480Y217097D01*
X97476Y217037D01*
X97472Y217017D01*
X97473Y216997D01*
X97469Y216936D01*
X97469Y212729D01*
X96308Y211568D01*
X84667Y211568D01*
X83506Y212729D01*
X83506Y217126D01*
X83488Y217264D01*
X83475Y217402D01*
X83468Y217421D01*
X83466Y217442D01*
X83415Y217571D01*
X83367Y217702D01*
X83356Y217718D01*
X83349Y217737D01*
X83267Y217850D01*
X83189Y217965D01*
X83174Y217978D01*
X83162Y217995D01*
X83055Y218083D01*
X82950Y218175D01*
X82932Y218184D01*
X82917Y218197D01*
X82791Y218257D01*
X82667Y218320D01*
X82647Y218324D01*
X82629Y218333D01*
X82493Y218359D01*
X82357Y218389D01*
X82337Y218389D01*
X82317Y218393D01*
X82178Y218384D01*
X82039Y218380D01*
X82020Y218374D01*
X81999Y218373D01*
X81867Y218330D01*
X81734Y218291D01*
X81716Y218281D01*
X81697Y218275D01*
X81587Y218206D01*
X70879Y218206D01*
X69561Y219523D01*
X69561Y219524D01*
X69491Y219620D01*
X69428Y219720D01*
X69398Y219748D01*
X69374Y219781D01*
X69283Y219857D01*
X69196Y219938D01*
X69161Y219958D01*
X69129Y219984D01*
X69022Y220034D01*
X68917Y220092D01*
X68878Y220102D01*
X68842Y220119D01*
X68725Y220142D01*
X68610Y220171D01*
X68549Y220175D01*
X68529Y220179D01*
X68509Y220178D01*
X68449Y220182D01*
X66989Y220182D01*
X66870Y220167D01*
X66752Y220159D01*
X66713Y220147D01*
X66673Y220142D01*
X66562Y220098D01*
X66449Y220061D01*
X66415Y220040D01*
X66377Y220025D01*
X66281Y219955D01*
X66181Y219891D01*
X66153Y219862D01*
X66120Y219838D01*
X66044Y219746D01*
X65963Y219659D01*
X65943Y219624D01*
X65917Y219593D01*
X65867Y219485D01*
X65809Y219381D01*
X65799Y219342D01*
X65782Y219305D01*
X65759Y219188D01*
X65730Y219073D01*
X65726Y219013D01*
X65722Y218993D01*
X65723Y218973D01*
X65719Y218912D01*
X65719Y212729D01*
X64558Y211568D01*
X52917Y211568D01*
X51756Y212729D01*
X51756Y220045D01*
X51738Y220183D01*
X51725Y220321D01*
X51718Y220340D01*
X51716Y220360D01*
X51665Y220489D01*
X51618Y220620D01*
X51606Y220637D01*
X51599Y220656D01*
X51517Y220768D01*
X51439Y220884D01*
X51424Y220897D01*
X51412Y220913D01*
X51305Y221002D01*
X51200Y221094D01*
X51182Y221103D01*
X51167Y221116D01*
X51041Y221175D01*
X50917Y221239D01*
X50897Y221243D01*
X50879Y221252D01*
X50743Y221278D01*
X50607Y221308D01*
X50587Y221308D01*
X50567Y221311D01*
X50428Y221303D01*
X50289Y221299D01*
X50270Y221293D01*
X50249Y221292D01*
X50117Y221249D01*
X49984Y221210D01*
X49966Y221200D01*
X49947Y221194D01*
X49830Y221119D01*
X49710Y221049D01*
X49689Y221030D01*
X49678Y221023D01*
X49664Y221009D01*
X49589Y220942D01*
X49302Y220656D01*
X47184Y219778D01*
X44891Y219778D01*
X42773Y220656D01*
X41151Y222277D01*
X40274Y224396D01*
X40274Y225822D01*
X40261Y225921D01*
X40258Y226020D01*
X40241Y226078D01*
X40234Y226138D01*
X40197Y226230D01*
X40170Y226325D01*
X40139Y226377D01*
X40117Y226434D01*
X40059Y226514D01*
X40008Y226599D01*
X39942Y226674D01*
X39930Y226691D01*
X39920Y226699D01*
X39902Y226720D01*
X31373Y235249D01*
X31295Y235309D01*
X31223Y235377D01*
X31170Y235406D01*
X31122Y235444D01*
X31031Y235483D01*
X30944Y235531D01*
X30886Y235546D01*
X30830Y235570D01*
X30732Y235585D01*
X30636Y235610D01*
X30536Y235617D01*
X30516Y235620D01*
X30504Y235619D01*
X30476Y235620D01*
X30387Y235620D01*
X30289Y235608D01*
X30190Y235605D01*
X30132Y235588D01*
X30072Y235581D01*
X29980Y235544D01*
X29885Y235517D01*
X29832Y235486D01*
X29776Y235463D01*
X29696Y235405D01*
X29611Y235355D01*
X29535Y235289D01*
X29519Y235277D01*
X29511Y235267D01*
X29490Y235249D01*
X29354Y235112D01*
X26028Y235112D01*
X22386Y238755D01*
X22386Y240209D01*
X22382Y240238D01*
X22385Y240268D01*
X22363Y240395D01*
X22346Y240524D01*
X22335Y240552D01*
X22330Y240581D01*
X22277Y240699D01*
X22229Y240820D01*
X22212Y240844D01*
X22200Y240871D01*
X22119Y240972D01*
X22042Y241077D01*
X22020Y241096D01*
X22001Y241119D01*
X21897Y241198D01*
X21797Y241280D01*
X21771Y241293D01*
X21747Y241311D01*
X21603Y241382D01*
X21249Y241528D01*
X20968Y241808D01*
X20929Y241839D01*
X20896Y241876D01*
X20804Y241936D01*
X20717Y242003D01*
X20671Y242023D01*
X20630Y242050D01*
X20526Y242086D01*
X20425Y242130D01*
X20376Y242138D01*
X20329Y242154D01*
X20220Y242162D01*
X20111Y242180D01*
X20061Y242175D01*
X20012Y242179D01*
X19904Y242160D01*
X19794Y242150D01*
X19748Y242133D01*
X19699Y242124D01*
X19598Y242079D01*
X19495Y242042D01*
X19454Y242014D01*
X19409Y241994D01*
X19323Y241925D01*
X19232Y241864D01*
X19199Y241826D01*
X19160Y241795D01*
X19094Y241707D01*
X19022Y241625D01*
X18999Y241581D01*
X18969Y241541D01*
X18898Y241397D01*
X18459Y240337D01*
X16838Y238716D01*
X14719Y237838D01*
X12426Y237838D01*
X10308Y238716D01*
X8686Y240337D01*
X8322Y241217D01*
X8297Y241260D01*
X8281Y241307D01*
X8219Y241398D01*
X8165Y241493D01*
X8130Y241529D01*
X8102Y241570D01*
X8020Y241643D01*
X7943Y241722D01*
X7901Y241748D01*
X7864Y241780D01*
X7766Y241830D01*
X7672Y241888D01*
X7625Y241902D01*
X7580Y241925D01*
X7473Y241949D01*
X7368Y241981D01*
X7318Y241984D01*
X7270Y241995D01*
X7160Y241991D01*
X7051Y241997D01*
X7002Y241987D01*
X6952Y241985D01*
X6847Y241955D01*
X6739Y241932D01*
X6694Y241910D01*
X6647Y241897D01*
X6552Y241841D01*
X6453Y241793D01*
X6416Y241760D01*
X6373Y241735D01*
X6252Y241629D01*
X6151Y241528D01*
X5289Y241171D01*
X5264Y241156D01*
X5236Y241147D01*
X5126Y241078D01*
X5013Y241014D01*
X4992Y240993D01*
X4967Y240977D01*
X4878Y240883D01*
X4785Y240792D01*
X4769Y240767D01*
X4749Y240746D01*
X4686Y240632D01*
X4619Y240521D01*
X4610Y240493D01*
X4596Y240467D01*
X4563Y240341D01*
X4525Y240217D01*
X4524Y240188D01*
X4516Y240159D01*
X4506Y239998D01*
X4506Y237166D01*
X4518Y237068D01*
X4521Y236969D01*
X4538Y236910D01*
X4546Y236850D01*
X4582Y236758D01*
X4610Y236663D01*
X4641Y236611D01*
X4663Y236555D01*
X4721Y236475D01*
X4771Y236389D01*
X4816Y236339D01*
X4816Y236338D01*
X4817Y236337D01*
X4838Y236314D01*
X4850Y236297D01*
X4859Y236289D01*
X4878Y236268D01*
X11843Y229303D01*
X11922Y229242D01*
X11994Y229174D01*
X12047Y229145D01*
X12095Y229108D01*
X12186Y229068D01*
X12272Y229021D01*
X12331Y229005D01*
X12386Y228981D01*
X12484Y228966D01*
X12580Y228941D01*
X12680Y228935D01*
X12701Y228932D01*
X12713Y228933D01*
X12741Y228931D01*
X19879Y228931D01*
X19977Y228943D01*
X20076Y228946D01*
X20135Y228963D01*
X20195Y228971D01*
X20287Y229007D01*
X20382Y229035D01*
X20434Y229066D01*
X20490Y229088D01*
X20570Y229146D01*
X20656Y229196D01*
X20731Y229263D01*
X20748Y229275D01*
X20755Y229284D01*
X20777Y229303D01*
X21785Y230311D01*
X23904Y231189D01*
X26197Y231189D01*
X28315Y230311D01*
X29937Y228690D01*
X30814Y226572D01*
X30814Y224278D01*
X30098Y222549D01*
X30085Y222501D01*
X30064Y222457D01*
X30043Y222349D01*
X30014Y222243D01*
X30013Y222193D01*
X30004Y222144D01*
X30011Y222035D01*
X30009Y221925D01*
X30021Y221876D01*
X30024Y221827D01*
X30058Y221722D01*
X30083Y221615D01*
X30106Y221571D01*
X30122Y221524D01*
X30181Y221431D01*
X30232Y221334D01*
X30265Y221298D01*
X30292Y221256D01*
X30372Y221180D01*
X30446Y221099D01*
X30487Y221072D01*
X30524Y221038D01*
X30620Y220985D01*
X30712Y220924D01*
X30759Y220908D01*
X30802Y220884D01*
X30908Y220857D01*
X31012Y220821D01*
X31062Y220817D01*
X31110Y220805D01*
X31271Y220794D01*
X37808Y220794D01*
X38969Y219633D01*
X38969Y214302D01*
X38982Y214204D01*
X38985Y214105D01*
X38993Y214076D01*
X38994Y214063D01*
X39003Y214034D01*
X39009Y213986D01*
X39046Y213894D01*
X39073Y213799D01*
X39087Y213776D01*
X39092Y213760D01*
X39110Y213732D01*
X39126Y213691D01*
X39184Y213611D01*
X39235Y213525D01*
X39256Y213501D01*
X39262Y213492D01*
X39275Y213479D01*
X39301Y213450D01*
X39313Y213433D01*
X39323Y213426D01*
X39341Y213404D01*
X44842Y207904D01*
X44920Y207843D01*
X44992Y207775D01*
X45045Y207746D01*
X45093Y207709D01*
X45184Y207669D01*
X45271Y207622D01*
X45329Y207606D01*
X45385Y207582D01*
X45483Y207567D01*
X45579Y207542D01*
X45679Y207536D01*
X45699Y207533D01*
X45711Y207534D01*
X45739Y207532D01*
X55058Y207532D01*
X56219Y206371D01*
X56219Y190729D01*
X55058Y189568D01*
X49285Y189568D01*
X49147Y189551D01*
X49008Y189538D01*
X48989Y189531D01*
X48969Y189528D01*
X48840Y189477D01*
X48709Y189430D01*
X48692Y189419D01*
X48673Y189411D01*
X48561Y189330D01*
X48446Y189251D01*
X48433Y189236D01*
X48416Y189224D01*
X48327Y189117D01*
X48235Y189013D01*
X48226Y188995D01*
X48213Y188979D01*
X48154Y188854D01*
X48091Y188730D01*
X48086Y188710D01*
X48078Y188692D01*
X48052Y188555D01*
X48021Y188419D01*
X48022Y188399D01*
X48018Y188379D01*
X48027Y188241D01*
X48031Y188102D01*
X48037Y188082D01*
X48038Y188062D01*
X48081Y187930D01*
X48119Y187796D01*
X48130Y187779D01*
X48136Y187759D01*
X48210Y187642D01*
X48281Y187522D01*
X48299Y187501D01*
X48306Y187491D01*
X48321Y187477D01*
X48387Y187401D01*
X49412Y186377D01*
X49490Y186316D01*
X49562Y186248D01*
X49615Y186219D01*
X49663Y186182D01*
X49754Y186142D01*
X49841Y186095D01*
X49899Y186079D01*
X49955Y186055D01*
X50053Y186040D01*
X50149Y186015D01*
X50249Y186009D01*
X50269Y186006D01*
X50281Y186007D01*
X50309Y186005D01*
X58186Y186005D01*
X58305Y186020D01*
X58423Y186027D01*
X58462Y186040D01*
X58502Y186045D01*
X58613Y186089D01*
X58726Y186125D01*
X58760Y186147D01*
X58798Y186162D01*
X58894Y186232D01*
X58994Y186295D01*
X59022Y186325D01*
X59055Y186349D01*
X59131Y186440D01*
X59212Y186527D01*
X59232Y186562D01*
X59258Y186594D01*
X59308Y186701D01*
X59366Y186806D01*
X59376Y186845D01*
X59393Y186881D01*
X59416Y186998D01*
X59445Y187113D01*
X59449Y187174D01*
X59453Y187194D01*
X59452Y187214D01*
X59456Y187274D01*
X59456Y187883D01*
X60617Y189044D01*
X69258Y189044D01*
X70540Y187763D01*
X70634Y187690D01*
X70723Y187611D01*
X70759Y187593D01*
X70791Y187568D01*
X70901Y187521D01*
X71007Y187467D01*
X71046Y187458D01*
X71083Y187442D01*
X71201Y187423D01*
X71317Y187397D01*
X71357Y187398D01*
X71397Y187392D01*
X71516Y187403D01*
X71635Y187407D01*
X71674Y187418D01*
X71714Y187422D01*
X71826Y187462D01*
X71940Y187495D01*
X71975Y187515D01*
X72013Y187529D01*
X72112Y187596D01*
X72214Y187656D01*
X72259Y187696D01*
X72276Y187708D01*
X72290Y187723D01*
X72335Y187763D01*
X73756Y189184D01*
X73829Y189278D01*
X73908Y189367D01*
X73926Y189403D01*
X73951Y189435D01*
X73998Y189544D01*
X74052Y189650D01*
X74061Y189690D01*
X74077Y189727D01*
X74096Y189845D01*
X74122Y189961D01*
X74121Y190001D01*
X74127Y190041D01*
X74116Y190160D01*
X74112Y190278D01*
X74101Y190317D01*
X74097Y190358D01*
X74057Y190470D01*
X74024Y190584D01*
X74006Y190615D01*
X74006Y206371D01*
X75167Y207532D01*
X86808Y207532D01*
X87969Y206371D01*
X87969Y190729D01*
X86808Y189568D01*
X85763Y189568D01*
X85644Y189553D01*
X85526Y189546D01*
X85487Y189533D01*
X85447Y189528D01*
X85336Y189484D01*
X85223Y189448D01*
X85189Y189426D01*
X85151Y189411D01*
X85055Y189341D01*
X84955Y189278D01*
X84927Y189248D01*
X84894Y189224D01*
X84818Y189133D01*
X84737Y189046D01*
X84717Y189011D01*
X84691Y188979D01*
X84641Y188872D01*
X84583Y188767D01*
X84573Y188728D01*
X84556Y188692D01*
X84533Y188575D01*
X84504Y188460D01*
X84500Y188399D01*
X84496Y188379D01*
X84497Y188359D01*
X84493Y188299D01*
X84493Y184160D01*
X83791Y183458D01*
X83730Y183380D01*
X83663Y183308D01*
X83640Y183267D01*
X83625Y183249D01*
X83619Y183236D01*
X83596Y183207D01*
X83557Y183116D01*
X83509Y183029D01*
X83494Y182971D01*
X83494Y182969D01*
X83490Y182961D01*
X83489Y182960D01*
X83470Y182915D01*
X83454Y182817D01*
X83430Y182721D01*
X83423Y182621D01*
X83420Y182601D01*
X83421Y182589D01*
X83419Y182561D01*
X83419Y177242D01*
X82258Y176081D01*
X73617Y176081D01*
X72335Y177362D01*
X72241Y177435D01*
X72152Y177514D01*
X72116Y177532D01*
X72084Y177557D01*
X71974Y177604D01*
X71868Y177658D01*
X71829Y177667D01*
X71792Y177683D01*
X71674Y177702D01*
X71558Y177728D01*
X71518Y177727D01*
X71478Y177733D01*
X71359Y177722D01*
X71240Y177718D01*
X71201Y177707D01*
X71161Y177703D01*
X71049Y177663D01*
X70935Y177630D01*
X70900Y177610D01*
X70862Y177596D01*
X70763Y177529D01*
X70661Y177469D01*
X70616Y177429D01*
X70599Y177417D01*
X70585Y177402D01*
X70540Y177362D01*
X69258Y176081D01*
X60617Y176081D01*
X59456Y177242D01*
X59456Y177851D01*
X59441Y177969D01*
X59433Y178088D01*
X59421Y178126D01*
X59416Y178166D01*
X59372Y178277D01*
X59335Y178390D01*
X59314Y178424D01*
X59299Y178462D01*
X59229Y178558D01*
X59165Y178659D01*
X59136Y178687D01*
X59112Y178719D01*
X59020Y178795D01*
X58933Y178877D01*
X58898Y178896D01*
X58867Y178922D01*
X58759Y178973D01*
X58655Y179030D01*
X58616Y179041D01*
X58579Y179058D01*
X58462Y179080D01*
X58347Y179110D01*
X58287Y179114D01*
X58267Y179118D01*
X58247Y179116D01*
X58186Y179120D01*
X46932Y179120D01*
X44544Y181508D01*
X31592Y194460D01*
X31591Y194460D01*
X31530Y194522D01*
X31420Y194607D01*
X31313Y194696D01*
X31295Y194704D01*
X31279Y194717D01*
X31151Y194772D01*
X31025Y194831D01*
X31006Y194835D01*
X30987Y194843D01*
X30849Y194865D01*
X30713Y194891D01*
X30693Y194890D01*
X30673Y194893D01*
X30534Y194880D01*
X30396Y194871D01*
X30377Y194865D01*
X30356Y194863D01*
X30225Y194816D01*
X30093Y194773D01*
X30076Y194763D01*
X30057Y194756D01*
X29942Y194678D01*
X29824Y194603D01*
X29811Y194589D01*
X29794Y194577D01*
X29702Y194473D01*
X29606Y194372D01*
X29597Y194354D01*
X29583Y194339D01*
X29520Y194215D01*
X29453Y194093D01*
X29448Y194074D01*
X29439Y194056D01*
X29408Y193920D01*
X29373Y193785D01*
X29372Y193757D01*
X29369Y193745D01*
X29370Y193725D01*
X29363Y193624D01*
X29363Y181789D01*
X29378Y181670D01*
X29386Y181552D01*
X29398Y181513D01*
X29403Y181473D01*
X29447Y181362D01*
X29484Y181249D01*
X29505Y181215D01*
X29520Y181177D01*
X29590Y181081D01*
X29654Y180981D01*
X29683Y180953D01*
X29707Y180920D01*
X29799Y180844D01*
X29885Y180763D01*
X29921Y180743D01*
X29952Y180717D01*
X30060Y180667D01*
X30164Y180609D01*
X30203Y180599D01*
X30240Y180582D01*
X30356Y180559D01*
X30472Y180530D01*
X30532Y180526D01*
X30552Y180522D01*
X30572Y180523D01*
X30632Y180519D01*
X40183Y180519D01*
X41344Y179358D01*
X41344Y175755D01*
X41348Y175726D01*
X41346Y175697D01*
X41368Y175569D01*
X41384Y175440D01*
X41395Y175412D01*
X41400Y175383D01*
X41454Y175265D01*
X41501Y175144D01*
X41519Y175120D01*
X41531Y175093D01*
X41612Y174992D01*
X41688Y174887D01*
X41711Y174868D01*
X41729Y174845D01*
X41833Y174767D01*
X41933Y174684D01*
X41960Y174671D01*
X41983Y174654D01*
X42128Y174583D01*
X43802Y173889D01*
X45423Y172268D01*
X46301Y170149D01*
X46301Y167856D01*
X45423Y165738D01*
X45242Y165557D01*
X45157Y165447D01*
X45068Y165340D01*
X45060Y165322D01*
X45047Y165306D01*
X44992Y165178D01*
X44933Y165052D01*
X44929Y165033D01*
X44921Y165014D01*
X44899Y164877D01*
X44873Y164740D01*
X44874Y164720D01*
X44871Y164700D01*
X44884Y164561D01*
X44893Y164423D01*
X44899Y164403D01*
X44901Y164383D01*
X44948Y164252D01*
X44991Y164120D01*
X45002Y164103D01*
X45009Y164084D01*
X45087Y163969D01*
X45161Y163851D01*
X45176Y163838D01*
X45187Y163821D01*
X45291Y163729D01*
X45393Y163633D01*
X45410Y163624D01*
X45426Y163610D01*
X45550Y163547D01*
X45671Y163480D01*
X45691Y163475D01*
X45709Y163466D01*
X45845Y163435D01*
X45979Y163401D01*
X46007Y163399D01*
X46019Y163396D01*
X46040Y163397D01*
X46140Y163390D01*
X60812Y163390D01*
X62071Y162131D01*
X62165Y162058D01*
X62254Y161980D01*
X62290Y161961D01*
X62322Y161937D01*
X62432Y161889D01*
X62538Y161835D01*
X62577Y161826D01*
X62614Y161810D01*
X62732Y161791D01*
X62848Y161765D01*
X62888Y161767D01*
X62928Y161760D01*
X63047Y161771D01*
X63166Y161775D01*
X63205Y161786D01*
X63245Y161790D01*
X63357Y161830D01*
X63471Y161864D01*
X63506Y161884D01*
X63544Y161898D01*
X63643Y161965D01*
X63745Y162025D01*
X63790Y162065D01*
X63807Y162076D01*
X63821Y162092D01*
X63866Y162131D01*
X65379Y163644D01*
X74021Y163644D01*
X75302Y162363D01*
X75397Y162290D01*
X75486Y162211D01*
X75522Y162193D01*
X75554Y162168D01*
X75663Y162121D01*
X75769Y162067D01*
X75808Y162058D01*
X75846Y162042D01*
X75963Y162023D01*
X76079Y161997D01*
X76120Y161998D01*
X76160Y161992D01*
X76278Y162003D01*
X76397Y162007D01*
X76436Y162018D01*
X76476Y162022D01*
X76589Y162062D01*
X76703Y162095D01*
X76737Y162115D01*
X76776Y162129D01*
X76874Y162196D01*
X76977Y162256D01*
X77022Y162296D01*
X77039Y162308D01*
X77052Y162323D01*
X77097Y162363D01*
X78379Y163644D01*
X87021Y163644D01*
X88182Y162483D01*
X88182Y153014D01*
X88197Y152895D01*
X88204Y152777D01*
X88217Y152738D01*
X88222Y152698D01*
X88266Y152587D01*
X88302Y152474D01*
X88324Y152440D01*
X88339Y152402D01*
X88409Y152306D01*
X88472Y152206D01*
X88502Y152178D01*
X88526Y152145D01*
X88617Y152069D01*
X88704Y151988D01*
X88739Y151968D01*
X88771Y151942D01*
X88878Y151892D01*
X88983Y151834D01*
X89022Y151824D01*
X89058Y151807D01*
X89175Y151784D01*
X89290Y151755D01*
X89351Y151751D01*
X89371Y151747D01*
X89391Y151748D01*
X89451Y151744D01*
X91521Y151744D01*
X92682Y150583D01*
X92682Y134942D01*
X91521Y133781D01*
X79879Y133781D01*
X78718Y134942D01*
X78718Y149816D01*
X78706Y149914D01*
X78703Y150013D01*
X78686Y150071D01*
X78678Y150131D01*
X78642Y150223D01*
X78614Y150319D01*
X78583Y150371D01*
X78561Y150427D01*
X78503Y150507D01*
X78453Y150592D01*
X78386Y150668D01*
X78374Y150684D01*
X78365Y150692D01*
X78346Y150713D01*
X77097Y151962D01*
X77003Y152035D01*
X76914Y152114D01*
X76878Y152132D01*
X76846Y152157D01*
X76737Y152204D01*
X76631Y152258D01*
X76592Y152267D01*
X76554Y152283D01*
X76437Y152302D01*
X76321Y152328D01*
X76280Y152327D01*
X76240Y152333D01*
X76122Y152322D01*
X76003Y152318D01*
X75964Y152307D01*
X75924Y152303D01*
X75812Y152263D01*
X75697Y152230D01*
X75662Y152210D01*
X75624Y152196D01*
X75526Y152129D01*
X75423Y152069D01*
X75378Y152029D01*
X75361Y152017D01*
X75348Y152002D01*
X75302Y151962D01*
X74021Y150681D01*
X65379Y150681D01*
X64218Y151842D01*
X64218Y152387D01*
X64203Y152506D01*
X64196Y152624D01*
X64183Y152663D01*
X64178Y152703D01*
X64134Y152814D01*
X64098Y152927D01*
X64076Y152961D01*
X64061Y152999D01*
X63991Y153095D01*
X63928Y153195D01*
X63898Y153223D01*
X63874Y153256D01*
X63783Y153332D01*
X63696Y153413D01*
X63661Y153433D01*
X63629Y153459D01*
X63522Y153509D01*
X63417Y153567D01*
X63378Y153577D01*
X63342Y153594D01*
X63225Y153617D01*
X63110Y153646D01*
X63049Y153650D01*
X63029Y153654D01*
X63009Y153653D01*
X62949Y153657D01*
X60630Y153657D01*
X58280Y156007D01*
X58201Y156067D01*
X58129Y156135D01*
X58076Y156164D01*
X58028Y156202D01*
X57937Y156241D01*
X57851Y156289D01*
X57792Y156304D01*
X57736Y156328D01*
X57639Y156344D01*
X57543Y156368D01*
X57443Y156375D01*
X57422Y156378D01*
X57410Y156377D01*
X57382Y156378D01*
X38376Y156378D01*
X38238Y156361D01*
X38100Y156348D01*
X38081Y156341D01*
X38060Y156339D01*
X37931Y156287D01*
X37800Y156240D01*
X37784Y156229D01*
X37765Y156222D01*
X37652Y156140D01*
X37537Y156062D01*
X37524Y156047D01*
X37507Y156035D01*
X37418Y155927D01*
X37327Y155823D01*
X37318Y155805D01*
X37305Y155790D01*
X37245Y155664D01*
X37182Y155540D01*
X37178Y155520D01*
X37169Y155502D01*
X37143Y155366D01*
X37112Y155230D01*
X37113Y155210D01*
X37109Y155190D01*
X37118Y155051D01*
X37122Y154912D01*
X37128Y154893D01*
X37129Y154872D01*
X37172Y154740D01*
X37211Y154606D01*
X37221Y154589D01*
X37227Y154570D01*
X37301Y154452D01*
X37372Y154333D01*
X37391Y154311D01*
X37397Y154301D01*
X37412Y154287D01*
X37478Y154212D01*
X37987Y153704D01*
X38065Y153643D01*
X38137Y153575D01*
X38190Y153546D01*
X38238Y153509D01*
X38329Y153469D01*
X38415Y153422D01*
X38474Y153406D01*
X38530Y153382D01*
X38628Y153367D01*
X38723Y153342D01*
X38823Y153336D01*
X38844Y153333D01*
X38856Y153334D01*
X38884Y153332D01*
X48658Y153332D01*
X49819Y152171D01*
X49819Y136529D01*
X48658Y135368D01*
X37017Y135368D01*
X35856Y136529D01*
X35856Y145393D01*
X35843Y145491D01*
X35840Y145590D01*
X35823Y145648D01*
X35816Y145708D01*
X35779Y145800D01*
X35752Y145895D01*
X35721Y145948D01*
X35699Y146004D01*
X35641Y146084D01*
X35590Y146169D01*
X35524Y146245D01*
X35512Y146261D01*
X35502Y146269D01*
X35484Y146290D01*
X30796Y150978D01*
X30718Y151038D01*
X30646Y151106D01*
X30593Y151135D01*
X30545Y151172D01*
X30454Y151212D01*
X30368Y151260D01*
X30309Y151275D01*
X30253Y151299D01*
X30155Y151314D01*
X30060Y151339D01*
X29960Y151345D01*
X29939Y151349D01*
X29927Y151347D01*
X29899Y151349D01*
X15689Y151349D01*
X15570Y151334D01*
X15452Y151327D01*
X15413Y151314D01*
X15373Y151309D01*
X15262Y151266D01*
X15149Y151229D01*
X15115Y151207D01*
X15077Y151192D01*
X14981Y151123D01*
X14881Y151059D01*
X14853Y151029D01*
X14820Y151006D01*
X14744Y150914D01*
X14663Y150827D01*
X14643Y150792D01*
X14617Y150761D01*
X14567Y150653D01*
X14509Y150549D01*
X14499Y150509D01*
X14482Y150473D01*
X14459Y150356D01*
X14430Y150241D01*
X14426Y150181D01*
X14422Y150161D01*
X14423Y150140D01*
X14419Y150080D01*
X14419Y145054D01*
X13138Y143772D01*
X13065Y143678D01*
X12986Y143589D01*
X12968Y143553D01*
X12943Y143521D01*
X12896Y143412D01*
X12842Y143306D01*
X12833Y143267D01*
X12817Y143229D01*
X12798Y143112D01*
X12772Y142996D01*
X12773Y142955D01*
X12767Y142915D01*
X12778Y142797D01*
X12782Y142678D01*
X12793Y142639D01*
X12797Y142599D01*
X12837Y142487D01*
X12870Y142372D01*
X12890Y142337D01*
X12904Y142299D01*
X12971Y142201D01*
X13031Y142098D01*
X13071Y142053D01*
X13083Y142036D01*
X13098Y142023D01*
X13138Y141977D01*
X14419Y140696D01*
X14419Y132054D01*
X13258Y130893D01*
X7939Y130893D01*
X7841Y130881D01*
X7742Y130878D01*
X7684Y130861D01*
X7624Y130853D01*
X7532Y130817D01*
X7437Y130789D01*
X7385Y130758D01*
X7328Y130736D01*
X7248Y130678D01*
X7163Y130628D01*
X7087Y130561D01*
X7071Y130549D01*
X7063Y130540D01*
X7042Y130521D01*
X5485Y128965D01*
X5425Y128886D01*
X5357Y128814D01*
X5328Y128761D01*
X5290Y128713D01*
X5251Y128622D01*
X5203Y128536D01*
X5188Y128477D01*
X5164Y128422D01*
X5149Y128324D01*
X5124Y128228D01*
X5117Y128128D01*
X5114Y128108D01*
X5115Y128095D01*
X5114Y128067D01*
X5114Y127081D01*
X5131Y126943D01*
X5144Y126804D01*
X5151Y126785D01*
X5153Y126765D01*
X5205Y126636D01*
X5252Y126505D01*
X5263Y126488D01*
X5270Y126469D01*
X5352Y126357D01*
X5430Y126242D01*
X5445Y126228D01*
X5457Y126212D01*
X5564Y126124D01*
X5669Y126031D01*
X5687Y126022D01*
X5702Y126009D01*
X5828Y125950D01*
X5952Y125887D01*
X5972Y125882D01*
X5990Y125874D01*
X6126Y125848D01*
X6262Y125817D01*
X6282Y125818D01*
X6302Y125814D01*
X6441Y125823D01*
X6580Y125827D01*
X6600Y125833D01*
X6620Y125834D01*
X6752Y125877D01*
X6886Y125915D01*
X6903Y125926D01*
X6922Y125932D01*
X7040Y126006D01*
X7160Y126077D01*
X7181Y126095D01*
X7191Y126102D01*
X7205Y126117D01*
X7280Y126183D01*
X7379Y126282D01*
X18021Y126282D01*
X19339Y124964D01*
X19409Y124868D01*
X19472Y124767D01*
X19502Y124739D01*
X19526Y124707D01*
X19617Y124631D01*
X19704Y124549D01*
X19739Y124530D01*
X19771Y124504D01*
X19878Y124453D01*
X19983Y124396D01*
X20022Y124385D01*
X20058Y124368D01*
X20175Y124346D01*
X20290Y124316D01*
X20351Y124312D01*
X20371Y124308D01*
X20391Y124310D01*
X20451Y124306D01*
X25086Y124306D01*
X25205Y124321D01*
X25323Y124328D01*
X25362Y124341D01*
X25402Y124346D01*
X25513Y124390D01*
X25626Y124426D01*
X25660Y124448D01*
X25698Y124463D01*
X25794Y124533D01*
X25894Y124596D01*
X25922Y124626D01*
X25955Y124650D01*
X26031Y124741D01*
X26112Y124828D01*
X26132Y124863D01*
X26158Y124895D01*
X26208Y125002D01*
X26266Y125107D01*
X26276Y125146D01*
X26293Y125182D01*
X26316Y125299D01*
X26345Y125414D01*
X26349Y125475D01*
X26353Y125495D01*
X26352Y125515D01*
X26356Y125575D01*
X26356Y130171D01*
X27517Y131332D01*
X39158Y131332D01*
X40319Y130171D01*
X40319Y114529D01*
X39158Y113368D01*
X27517Y113368D01*
X26356Y114529D01*
X26356Y116025D01*
X26341Y116143D01*
X26333Y116262D01*
X26321Y116300D01*
X26316Y116340D01*
X26272Y116451D01*
X26235Y116564D01*
X26214Y116598D01*
X26199Y116636D01*
X26129Y116732D01*
X26065Y116833D01*
X26036Y116861D01*
X26012Y116893D01*
X25920Y116969D01*
X25833Y117051D01*
X25798Y117070D01*
X25767Y117096D01*
X25659Y117147D01*
X25555Y117204D01*
X25516Y117215D01*
X25479Y117232D01*
X25362Y117254D01*
X25247Y117284D01*
X25187Y117288D01*
X25167Y117292D01*
X25147Y117290D01*
X25086Y117294D01*
X20451Y117294D01*
X20333Y117279D01*
X20214Y117272D01*
X20176Y117259D01*
X20136Y117254D01*
X20025Y117210D01*
X19912Y117174D01*
X19878Y117152D01*
X19840Y117137D01*
X19744Y117067D01*
X19643Y117004D01*
X19615Y116974D01*
X19583Y116950D01*
X19507Y116859D01*
X19425Y116772D01*
X19406Y116737D01*
X19380Y116705D01*
X19354Y116652D01*
X17900Y115197D01*
X17827Y115103D01*
X17749Y115014D01*
X17730Y114978D01*
X17705Y114946D01*
X17658Y114837D01*
X17604Y114731D01*
X17595Y114692D01*
X17579Y114654D01*
X17560Y114537D01*
X17534Y114421D01*
X17536Y114380D01*
X17529Y114340D01*
X17540Y114222D01*
X17544Y114103D01*
X17555Y114064D01*
X17559Y114024D01*
X17599Y113912D01*
X17632Y113797D01*
X17653Y113762D01*
X17667Y113724D01*
X17734Y113626D01*
X17794Y113523D01*
X17834Y113478D01*
X17845Y113461D01*
X17861Y113448D01*
X17900Y113402D01*
X19182Y112121D01*
X19182Y106419D01*
X19188Y106369D01*
X19186Y106320D01*
X19208Y106213D01*
X19222Y106103D01*
X19240Y106057D01*
X19250Y106008D01*
X19298Y105910D01*
X19339Y105808D01*
X19368Y105768D01*
X19390Y105723D01*
X19461Y105639D01*
X19526Y105550D01*
X19564Y105519D01*
X19596Y105481D01*
X19686Y105418D01*
X19771Y105347D01*
X19816Y105326D01*
X19856Y105298D01*
X19959Y105259D01*
X20058Y105212D01*
X20107Y105203D01*
X20154Y105185D01*
X20263Y105173D01*
X20371Y105152D01*
X20420Y105155D01*
X20470Y105150D01*
X20579Y105165D01*
X20688Y105172D01*
X20735Y105187D01*
X20785Y105194D01*
X20937Y105246D01*
X22591Y105931D01*
X26209Y105931D01*
X29551Y104547D01*
X32109Y101989D01*
X33494Y98646D01*
X33494Y95029D01*
X32109Y91686D01*
X29551Y89128D01*
X26209Y87744D01*
X23785Y87744D01*
X23686Y87731D01*
X23587Y87728D01*
X23529Y87711D01*
X23469Y87704D01*
X23377Y87667D01*
X23282Y87640D01*
X23230Y87609D01*
X23173Y87587D01*
X23093Y87529D01*
X23008Y87478D01*
X22933Y87412D01*
X22916Y87400D01*
X22908Y87390D01*
X22887Y87372D01*
X22150Y86635D01*
X22065Y86526D01*
X21976Y86418D01*
X21968Y86400D01*
X21955Y86384D01*
X21900Y86256D01*
X21841Y86131D01*
X21837Y86111D01*
X21829Y86092D01*
X21807Y85954D01*
X21781Y85818D01*
X21782Y85798D01*
X21779Y85778D01*
X21792Y85639D01*
X21801Y85501D01*
X21807Y85482D01*
X21809Y85461D01*
X21856Y85330D01*
X21899Y85198D01*
X21910Y85181D01*
X21917Y85162D01*
X21995Y85047D01*
X22069Y84930D01*
X22084Y84916D01*
X22095Y84899D01*
X22199Y84807D01*
X22301Y84712D01*
X22318Y84702D01*
X22334Y84688D01*
X22457Y84625D01*
X22579Y84558D01*
X22599Y84553D01*
X22617Y84544D01*
X22753Y84513D01*
X22887Y84479D01*
X22915Y84477D01*
X22927Y84474D01*
X22948Y84475D01*
X23048Y84468D01*
X31947Y84468D01*
X32045Y84481D01*
X32144Y84484D01*
X32203Y84501D01*
X32263Y84508D01*
X32355Y84545D01*
X32450Y84572D01*
X32502Y84603D01*
X32558Y84625D01*
X32638Y84683D01*
X32724Y84734D01*
X32799Y84800D01*
X32816Y84812D01*
X32823Y84822D01*
X32845Y84840D01*
X40788Y92784D01*
X40806Y92807D01*
X40829Y92826D01*
X40903Y92932D01*
X40983Y93035D01*
X40995Y93062D01*
X41012Y93086D01*
X41058Y93207D01*
X41109Y93327D01*
X41114Y93356D01*
X41124Y93383D01*
X41139Y93512D01*
X41159Y93641D01*
X41156Y93670D01*
X41160Y93700D01*
X41141Y93828D01*
X41129Y93957D01*
X41119Y93985D01*
X41115Y94014D01*
X41063Y94167D01*
X40706Y95029D01*
X40706Y98646D01*
X42091Y101989D01*
X44649Y104547D01*
X47991Y105931D01*
X51609Y105931D01*
X54951Y104547D01*
X55151Y104347D01*
X55261Y104262D01*
X55368Y104174D01*
X55386Y104165D01*
X55402Y104153D01*
X55530Y104097D01*
X55655Y104038D01*
X55675Y104034D01*
X55694Y104026D01*
X55831Y104004D01*
X55968Y103978D01*
X55988Y103980D01*
X56008Y103976D01*
X56146Y103989D01*
X56285Y103998D01*
X56304Y104004D01*
X56325Y104006D01*
X56456Y104053D01*
X56588Y104096D01*
X56605Y104107D01*
X56624Y104114D01*
X56739Y104192D01*
X56856Y104266D01*
X56870Y104281D01*
X56887Y104292D01*
X56979Y104397D01*
X57074Y104498D01*
X57084Y104516D01*
X57097Y104531D01*
X57161Y104655D01*
X57228Y104776D01*
X57233Y104796D01*
X57242Y104814D01*
X57273Y104950D01*
X57307Y105084D01*
X57309Y105112D01*
X57312Y105124D01*
X57311Y105145D01*
X57318Y105245D01*
X57318Y124877D01*
X58701Y126261D01*
X58762Y126339D01*
X58830Y126411D01*
X58859Y126464D01*
X58896Y126512D01*
X58935Y126603D01*
X58983Y126690D01*
X58998Y126748D01*
X59022Y126804D01*
X59038Y126902D01*
X59063Y126997D01*
X59069Y127098D01*
X59072Y127118D01*
X59071Y127130D01*
X59073Y127158D01*
X59073Y128944D01*
X59950Y131062D01*
X61572Y132684D01*
X63690Y133561D01*
X65983Y133561D01*
X68102Y132684D01*
X69723Y131062D01*
X69945Y130528D01*
X69959Y130502D01*
X69968Y130474D01*
X70038Y130365D01*
X70102Y130252D01*
X70123Y130231D01*
X70139Y130206D01*
X70233Y130116D01*
X70323Y130023D01*
X70349Y130008D01*
X70370Y129988D01*
X70484Y129925D01*
X70595Y129857D01*
X70623Y129848D01*
X70649Y129834D01*
X70774Y129802D01*
X70898Y129763D01*
X70928Y129762D01*
X70957Y129755D01*
X71117Y129744D01*
X82021Y129744D01*
X83182Y128583D01*
X83182Y123988D01*
X83197Y123869D01*
X83204Y123751D01*
X83217Y123712D01*
X83222Y123672D01*
X83266Y123561D01*
X83302Y123448D01*
X83324Y123414D01*
X83339Y123376D01*
X83409Y123280D01*
X83472Y123180D01*
X83502Y123152D01*
X83526Y123119D01*
X83617Y123043D01*
X83704Y122962D01*
X83739Y122942D01*
X83771Y122916D01*
X83878Y122866D01*
X83983Y122808D01*
X84022Y122798D01*
X84058Y122781D01*
X84175Y122758D01*
X84290Y122729D01*
X84351Y122725D01*
X84371Y122721D01*
X84391Y122722D01*
X84451Y122718D01*
X85911Y122718D01*
X86030Y122733D01*
X86148Y122741D01*
X86187Y122753D01*
X86227Y122758D01*
X86338Y122802D01*
X86451Y122839D01*
X86485Y122860D01*
X86523Y122875D01*
X86619Y122945D01*
X86719Y123009D01*
X86747Y123038D01*
X86780Y123062D01*
X86856Y123154D01*
X86937Y123241D01*
X86957Y123276D01*
X86983Y123307D01*
X87008Y123361D01*
X88342Y124694D01*
X98983Y124694D01*
X100144Y123533D01*
X100144Y114892D01*
X98863Y113610D01*
X98790Y113516D01*
X98711Y113427D01*
X98693Y113391D01*
X98668Y113359D01*
X98621Y113249D01*
X98567Y113143D01*
X98558Y113104D01*
X98542Y113067D01*
X98523Y112949D01*
X98497Y112833D01*
X98498Y112793D01*
X98492Y112753D01*
X98503Y112634D01*
X98507Y112515D01*
X98518Y112476D01*
X98522Y112436D01*
X98562Y112324D01*
X98595Y112210D01*
X98615Y112175D01*
X98629Y112137D01*
X98696Y112038D01*
X98756Y111936D01*
X98796Y111891D01*
X98808Y111874D01*
X98823Y111860D01*
X98863Y111815D01*
X100144Y110533D01*
X100144Y107201D01*
X100159Y107082D01*
X100167Y106964D01*
X100179Y106925D01*
X100184Y106885D01*
X100228Y106774D01*
X100265Y106661D01*
X100286Y106627D01*
X100301Y106589D01*
X100371Y106493D01*
X100435Y106393D01*
X100464Y106365D01*
X100488Y106332D01*
X100580Y106256D01*
X100667Y106175D01*
X100702Y106155D01*
X100733Y106129D01*
X100841Y106079D01*
X100945Y106021D01*
X100984Y106011D01*
X101021Y105994D01*
X101138Y105971D01*
X101253Y105942D01*
X101313Y105938D01*
X101333Y105934D01*
X101353Y105935D01*
X101414Y105931D01*
X102409Y105931D01*
X105751Y104547D01*
X108309Y101989D01*
X109694Y98646D01*
X109694Y95029D01*
X108309Y91686D01*
X105751Y89128D01*
X102409Y87744D01*
X98791Y87744D01*
X95449Y89128D01*
X92891Y91686D01*
X91765Y94404D01*
X91730Y94464D01*
X91705Y94529D01*
X91652Y94602D01*
X91607Y94680D01*
X91559Y94730D01*
X91518Y94786D01*
X91449Y94844D01*
X91386Y94908D01*
X91327Y94945D01*
X91273Y94989D01*
X91192Y95028D01*
X91115Y95074D01*
X91048Y95095D01*
X90985Y95125D01*
X90897Y95142D01*
X90811Y95168D01*
X90741Y95171D01*
X90673Y95185D01*
X90583Y95179D01*
X90493Y95183D01*
X90425Y95169D01*
X90355Y95165D01*
X90270Y95137D01*
X90182Y95119D01*
X90119Y95088D01*
X90053Y95067D01*
X89977Y95019D01*
X89896Y94979D01*
X89843Y94934D01*
X89784Y94897D01*
X89723Y94831D01*
X89654Y94773D01*
X89614Y94716D01*
X89566Y94665D01*
X89523Y94586D01*
X89471Y94513D01*
X89446Y94447D01*
X89413Y94386D01*
X89390Y94300D01*
X89358Y94215D01*
X89351Y94146D01*
X89333Y94079D01*
X89323Y93918D01*
X89323Y90987D01*
X81050Y82714D01*
X64609Y82714D01*
X64511Y82702D01*
X64412Y82699D01*
X64354Y82682D01*
X64294Y82675D01*
X64202Y82638D01*
X64107Y82611D01*
X64054Y82580D01*
X63998Y82558D01*
X63918Y82499D01*
X63833Y82449D01*
X63757Y82383D01*
X63741Y82371D01*
X63733Y82361D01*
X63712Y82343D01*
X49177Y67807D01*
X49116Y67729D01*
X49048Y67657D01*
X49019Y67604D01*
X48982Y67556D01*
X48942Y67465D01*
X48895Y67379D01*
X48879Y67320D01*
X48855Y67264D01*
X48840Y67166D01*
X48815Y67071D01*
X48809Y66971D01*
X48805Y66950D01*
X48807Y66938D01*
X48805Y66910D01*
X48805Y64971D01*
X40276Y56442D01*
X40215Y56364D01*
X40147Y56292D01*
X40118Y56239D01*
X40081Y56191D01*
X40042Y56100D01*
X39994Y56014D01*
X39979Y55955D01*
X39955Y55899D01*
X39939Y55801D01*
X39914Y55706D01*
X39908Y55606D01*
X39905Y55585D01*
X39906Y55573D01*
X39904Y55545D01*
X39904Y52730D01*
X31344Y44170D01*
X21246Y44170D01*
X21147Y44157D01*
X21048Y44154D01*
X20990Y44138D01*
X20930Y44130D01*
X20870Y44106D01*
X17752Y44106D01*
X1852Y60006D01*
X1774Y60067D01*
X1702Y60135D01*
X1649Y60164D01*
X1601Y60201D01*
X1510Y60240D01*
X1424Y60288D01*
X1365Y60303D01*
X1309Y60327D01*
X1211Y60343D01*
X1116Y60367D01*
X1016Y60374D01*
X995Y60377D01*
X983Y60376D01*
X955Y60378D01*
X-39384Y60378D01*
X-39482Y60365D01*
X-39581Y60362D01*
X-39639Y60345D01*
X-39699Y60338D01*
X-39791Y60301D01*
X-39886Y60274D01*
X-39939Y60243D01*
X-39995Y60221D01*
X-40075Y60163D01*
X-40160Y60112D01*
X-40236Y60046D01*
X-40252Y60034D01*
X-40260Y60025D01*
X-40281Y60006D01*
X-41290Y58997D01*
X-43408Y58120D01*
X-45702Y58120D01*
X-47210Y58744D01*
X-47316Y58774D01*
X-47420Y58811D01*
X-47469Y58815D01*
X-47517Y58828D01*
X-47627Y58830D01*
X-47737Y58840D01*
X-47785Y58833D01*
X-47835Y58833D01*
X-47942Y58808D01*
X-48051Y58790D01*
X-48096Y58771D01*
X-48144Y58759D01*
X-48241Y58708D01*
X-48342Y58664D01*
X-48381Y58634D01*
X-48425Y58611D01*
X-48506Y58536D01*
X-48594Y58469D01*
X-48624Y58430D01*
X-48660Y58397D01*
X-48721Y58305D01*
X-48788Y58217D01*
X-48808Y58172D01*
X-48835Y58131D01*
X-48871Y58027D01*
X-48915Y57925D01*
X-48922Y57877D01*
X-48938Y57830D01*
X-48947Y57720D01*
X-48964Y57611D01*
X-48960Y57562D01*
X-48963Y57513D01*
X-48945Y57404D01*
X-48934Y57297D01*
X-48938Y57222D01*
X-48948Y57069D01*
X-48947Y57065D01*
X-48947Y57061D01*
X-48917Y56906D01*
X-48888Y56756D01*
X-48886Y56753D01*
X-48885Y56749D01*
X-48825Y56599D01*
X-48145Y55186D01*
X-48142Y55182D01*
X-48141Y55178D01*
X-48055Y55047D01*
X-47972Y54919D01*
X-47969Y54916D01*
X-47967Y54912D01*
X-47853Y54808D01*
X-47789Y54749D01*
X-47557Y53997D01*
X-47551Y53984D01*
X-47548Y53969D01*
X-47495Y53839D01*
X-47494Y53835D01*
X-47493Y53833D01*
X-47488Y53820D01*
X-47145Y53109D01*
X-47162Y53031D01*
X-47162Y53027D01*
X-47163Y53023D01*
X-47156Y52868D01*
X-47150Y52713D01*
X-47148Y52709D01*
X-47148Y52705D01*
X-47111Y52548D01*
X-46649Y51049D01*
X-46647Y51045D01*
X-46646Y51041D01*
X-46581Y50899D01*
X-46518Y50759D01*
X-46515Y50756D01*
X-46513Y50752D01*
X-46415Y50631D01*
X-46362Y50565D01*
X-46245Y49786D01*
X-46241Y49772D01*
X-46240Y49757D01*
X-46202Y49601D01*
X-45970Y48847D01*
X-45998Y48772D01*
X-45999Y48768D01*
X-46000Y48764D01*
X-46016Y48608D01*
X-46033Y48456D01*
X-46033Y48452D01*
X-46033Y48447D01*
X-46019Y48287D01*
X-45786Y46736D01*
X-45785Y46732D01*
X-45785Y46727D01*
X-45742Y46579D01*
X-45700Y46429D01*
X-45697Y46426D01*
X-45696Y46422D01*
X-45617Y46288D01*
X-45574Y46214D01*
X-45574Y45966D01*
X-45562Y45868D01*
X-45559Y45768D01*
X-45542Y45710D01*
X-45535Y45650D01*
X-45498Y45558D01*
X-45471Y45463D01*
X-45440Y45411D01*
X-45418Y45355D01*
X-45359Y45274D01*
X-45309Y45189D01*
X-45243Y45114D01*
X-45231Y45097D01*
X-45222Y45089D01*
X-45203Y45068D01*
X-41131Y40996D01*
X-41053Y40936D01*
X-40981Y40868D01*
X-40928Y40838D01*
X-40880Y40801D01*
X-40789Y40762D01*
X-40702Y40714D01*
X-40643Y40699D01*
X-40588Y40675D01*
X-40490Y40659D01*
X-40394Y40635D01*
X-40294Y40628D01*
X-40274Y40625D01*
X-40261Y40626D01*
X-40233Y40624D01*
X-38448Y40624D01*
X-36329Y39747D01*
X-34708Y38126D01*
X-33830Y36007D01*
X-33830Y33714D01*
X-34708Y31596D01*
X-36329Y29974D01*
X-38448Y29097D01*
X-40741Y29097D01*
X-42859Y29974D01*
X-44481Y31596D01*
X-44975Y32790D01*
X-45027Y32880D01*
X-45070Y32974D01*
X-45105Y33017D01*
X-45133Y33066D01*
X-45205Y33140D01*
X-45270Y33221D01*
X-45315Y33254D01*
X-45354Y33294D01*
X-45442Y33349D01*
X-45525Y33410D01*
X-45577Y33431D01*
X-45625Y33461D01*
X-45724Y33491D01*
X-45820Y33530D01*
X-45876Y33538D01*
X-45929Y33554D01*
X-46033Y33559D01*
X-46135Y33573D01*
X-46191Y33567D01*
X-46247Y33570D01*
X-46348Y33549D01*
X-46451Y33537D01*
X-46503Y33517D01*
X-46558Y33505D01*
X-46651Y33460D01*
X-46748Y33423D01*
X-46794Y33390D01*
X-46844Y33365D01*
X-46923Y33298D01*
X-47007Y33238D01*
X-47043Y33195D01*
X-47086Y33159D01*
X-47145Y33075D01*
X-47212Y32995D01*
X-47257Y32917D01*
X-47269Y32899D01*
X-47274Y32886D01*
X-47291Y32855D01*
X-47494Y32434D01*
X-47499Y32420D01*
X-47507Y32408D01*
X-47564Y32257D01*
X-47797Y31503D01*
X-47862Y31457D01*
X-47865Y31454D01*
X-47868Y31452D01*
X-47970Y31331D01*
X-48069Y31215D01*
X-48071Y31212D01*
X-48074Y31209D01*
X-48152Y31068D01*
X-48535Y30275D01*
X-48558Y30206D01*
X-48591Y30140D01*
X-48608Y30055D01*
X-48636Y29974D01*
X-48641Y29901D01*
X-48656Y29829D01*
X-48652Y29743D01*
X-48659Y29657D01*
X-48646Y29584D01*
X-48642Y29511D01*
X-48617Y29429D01*
X-48602Y29344D01*
X-48571Y29277D01*
X-48550Y29207D01*
X-48505Y29133D01*
X-48469Y29055D01*
X-48423Y28997D01*
X-48385Y28935D01*
X-48324Y28875D01*
X-48269Y28808D01*
X-48210Y28764D01*
X-48158Y28713D01*
X-48024Y28624D01*
X-16351Y10429D01*
X-16886Y9657D01*
X-16897Y9631D01*
X-16915Y9609D01*
X-16936Y9540D01*
X-16964Y9474D01*
X-16964Y9446D01*
X-16972Y9418D01*
X-16964Y9347D01*
X-16965Y9276D01*
X-16954Y9249D01*
X-16950Y9221D01*
X-16916Y9158D01*
X-16888Y9092D01*
X-16867Y9072D01*
X-16853Y9047D01*
X-16776Y8983D01*
X-16745Y8953D01*
X-16735Y8949D01*
X-16725Y8941D01*
X-248Y-598D01*
X-174Y-623D01*
X-103Y-654D01*
X-81Y-655D01*
X-59Y-662D01*
X18Y-656D01*
G37*
G36*
X-68948Y84486D02*
X-68948Y84486D01*
X-68809Y84499D01*
X-68790Y84506D01*
X-68770Y84508D01*
X-68641Y84559D01*
X-68510Y84606D01*
X-68493Y84618D01*
X-68474Y84625D01*
X-68362Y84707D01*
X-68247Y84785D01*
X-68233Y84800D01*
X-68217Y84812D01*
X-68128Y84919D01*
X-68036Y85023D01*
X-68027Y85041D01*
X-68014Y85057D01*
X-67955Y85183D01*
X-67891Y85307D01*
X-67887Y85327D01*
X-67878Y85345D01*
X-67852Y85481D01*
X-67822Y85617D01*
X-67822Y85637D01*
X-67819Y85657D01*
X-67827Y85796D01*
X-67831Y85935D01*
X-67837Y85954D01*
X-67838Y85975D01*
X-67881Y86107D01*
X-67920Y86240D01*
X-67930Y86258D01*
X-67936Y86277D01*
X-68011Y86394D01*
X-68081Y86514D01*
X-68100Y86535D01*
X-68107Y86546D01*
X-68121Y86560D01*
X-68188Y86635D01*
X-70482Y88929D01*
X-70505Y88947D01*
X-70524Y88970D01*
X-70630Y89044D01*
X-70733Y89124D01*
X-70760Y89136D01*
X-70784Y89153D01*
X-70905Y89199D01*
X-71025Y89250D01*
X-71054Y89255D01*
X-71082Y89265D01*
X-71211Y89280D01*
X-71339Y89300D01*
X-71368Y89297D01*
X-71398Y89301D01*
X-71526Y89283D01*
X-71656Y89270D01*
X-71683Y89260D01*
X-71713Y89256D01*
X-71865Y89204D01*
X-75391Y87744D01*
X-79009Y87744D01*
X-82351Y89128D01*
X-84057Y90834D01*
X-84135Y90895D01*
X-84207Y90962D01*
X-84260Y90992D01*
X-84308Y91029D01*
X-84399Y91068D01*
X-84486Y91116D01*
X-84544Y91131D01*
X-84600Y91155D01*
X-84698Y91171D01*
X-84794Y91195D01*
X-84894Y91202D01*
X-84914Y91205D01*
X-84927Y91204D01*
X-84955Y91206D01*
X-92633Y91206D01*
X-93105Y91677D01*
X-93199Y91750D01*
X-93288Y91829D01*
X-93324Y91847D01*
X-93356Y91872D01*
X-93466Y91919D01*
X-93571Y91973D01*
X-93611Y91982D01*
X-93648Y91998D01*
X-93766Y92017D01*
X-93882Y92043D01*
X-93922Y92042D01*
X-93962Y92048D01*
X-94081Y92037D01*
X-94200Y92033D01*
X-94238Y92022D01*
X-94279Y92018D01*
X-94391Y91978D01*
X-94505Y91945D01*
X-94540Y91924D01*
X-94578Y91911D01*
X-94677Y91844D01*
X-94779Y91783D01*
X-94824Y91744D01*
X-94841Y91732D01*
X-94855Y91717D01*
X-94900Y91677D01*
X-97449Y89128D01*
X-100791Y87744D01*
X-104409Y87744D01*
X-107751Y89128D01*
X-110309Y91686D01*
X-111694Y95029D01*
X-111694Y98646D01*
X-110309Y101989D01*
X-107751Y104547D01*
X-104409Y105931D01*
X-100791Y105931D01*
X-97449Y104547D01*
X-94750Y101848D01*
X-94656Y101775D01*
X-94567Y101696D01*
X-94531Y101678D01*
X-94499Y101653D01*
X-94389Y101606D01*
X-94283Y101552D01*
X-94244Y101543D01*
X-94207Y101527D01*
X-94089Y101508D01*
X-93973Y101482D01*
X-93933Y101483D01*
X-93893Y101477D01*
X-93774Y101488D01*
X-93655Y101492D01*
X-93616Y101503D01*
X-93576Y101507D01*
X-93464Y101547D01*
X-93350Y101580D01*
X-93315Y101601D01*
X-93277Y101614D01*
X-93178Y101681D01*
X-93076Y101742D01*
X-93030Y101781D01*
X-93014Y101793D01*
X-93000Y101808D01*
X-92955Y101848D01*
X-92513Y102290D01*
X-92440Y102384D01*
X-92361Y102473D01*
X-92343Y102509D01*
X-92318Y102541D01*
X-92271Y102650D01*
X-92217Y102757D01*
X-92208Y102796D01*
X-92192Y102833D01*
X-92173Y102951D01*
X-92147Y103067D01*
X-92148Y103107D01*
X-92142Y103147D01*
X-92153Y103266D01*
X-92157Y103385D01*
X-92168Y103424D01*
X-92172Y103464D01*
X-92212Y103576D01*
X-92245Y103690D01*
X-92265Y103725D01*
X-92279Y103763D01*
X-92346Y103862D01*
X-92406Y103964D01*
X-92446Y104009D01*
X-92458Y104026D01*
X-92473Y104040D01*
X-92513Y104085D01*
X-93794Y105367D01*
X-93794Y114008D01*
X-92633Y115169D01*
X-89214Y115169D01*
X-89095Y115184D01*
X-88977Y115192D01*
X-88938Y115204D01*
X-88898Y115209D01*
X-88787Y115253D01*
X-88674Y115290D01*
X-88640Y115311D01*
X-88602Y115326D01*
X-88506Y115396D01*
X-88406Y115460D01*
X-88378Y115489D01*
X-88345Y115513D01*
X-88269Y115605D01*
X-88188Y115692D01*
X-88168Y115727D01*
X-88142Y115758D01*
X-88092Y115866D01*
X-88034Y115970D01*
X-88024Y116009D01*
X-88007Y116046D01*
X-87984Y116163D01*
X-87955Y116278D01*
X-87951Y116338D01*
X-87947Y116358D01*
X-87948Y116378D01*
X-87944Y116439D01*
X-87944Y128583D01*
X-86783Y129744D01*
X-75142Y129744D01*
X-73981Y128583D01*
X-73981Y112942D01*
X-75142Y111781D01*
X-79561Y111781D01*
X-79680Y111766D01*
X-79798Y111758D01*
X-79837Y111746D01*
X-79877Y111741D01*
X-79988Y111697D01*
X-80101Y111660D01*
X-80135Y111639D01*
X-80173Y111624D01*
X-80269Y111554D01*
X-80369Y111490D01*
X-80397Y111461D01*
X-80430Y111437D01*
X-80506Y111345D01*
X-80587Y111258D01*
X-80607Y111223D01*
X-80633Y111192D01*
X-80683Y111084D01*
X-80741Y110980D01*
X-80751Y110941D01*
X-80768Y110904D01*
X-80791Y110787D01*
X-80820Y110672D01*
X-80824Y110612D01*
X-80828Y110592D01*
X-80827Y110572D01*
X-80831Y110511D01*
X-80831Y107076D01*
X-80824Y107027D01*
X-80827Y106977D01*
X-80805Y106870D01*
X-80791Y106761D01*
X-80772Y106715D01*
X-80762Y106666D01*
X-80714Y106567D01*
X-80674Y106465D01*
X-80645Y106425D01*
X-80623Y106380D01*
X-80551Y106297D01*
X-80487Y106208D01*
X-80449Y106176D01*
X-80416Y106138D01*
X-80327Y106075D01*
X-80242Y106005D01*
X-80197Y105984D01*
X-80156Y105955D01*
X-80053Y105916D01*
X-79954Y105870D01*
X-79905Y105860D01*
X-79859Y105843D01*
X-79750Y105830D01*
X-79642Y105810D01*
X-79592Y105813D01*
X-79543Y105807D01*
X-79434Y105823D01*
X-79324Y105829D01*
X-79277Y105845D01*
X-79228Y105852D01*
X-79076Y105904D01*
X-79009Y105931D01*
X-75391Y105931D01*
X-72049Y104547D01*
X-70144Y102642D01*
X-70049Y102569D01*
X-69960Y102490D01*
X-69924Y102472D01*
X-69892Y102447D01*
X-69783Y102399D01*
X-69677Y102345D01*
X-69638Y102337D01*
X-69600Y102321D01*
X-69483Y102302D01*
X-69367Y102276D01*
X-69326Y102277D01*
X-69286Y102271D01*
X-69168Y102282D01*
X-69049Y102285D01*
X-69010Y102297D01*
X-68970Y102300D01*
X-68858Y102341D01*
X-68743Y102374D01*
X-68709Y102394D01*
X-68670Y102408D01*
X-68572Y102475D01*
X-68469Y102535D01*
X-68424Y102575D01*
X-68407Y102587D01*
X-68394Y102602D01*
X-68349Y102642D01*
X-67113Y103877D01*
X-67040Y103971D01*
X-66961Y104061D01*
X-66943Y104097D01*
X-66918Y104129D01*
X-66871Y104238D01*
X-66817Y104344D01*
X-66808Y104383D01*
X-66792Y104421D01*
X-66773Y104538D01*
X-66747Y104654D01*
X-66748Y104695D01*
X-66742Y104735D01*
X-66753Y104853D01*
X-66757Y104972D01*
X-66768Y105011D01*
X-66772Y105051D01*
X-66812Y105164D01*
X-66845Y105278D01*
X-66865Y105312D01*
X-66879Y105351D01*
X-66946Y105449D01*
X-67006Y105552D01*
X-67046Y105597D01*
X-67058Y105614D01*
X-67073Y105627D01*
X-67113Y105672D01*
X-68394Y106954D01*
X-68394Y115596D01*
X-67233Y116757D01*
X-57464Y116757D01*
X-57345Y116772D01*
X-57227Y116779D01*
X-57188Y116792D01*
X-57148Y116797D01*
X-57037Y116841D01*
X-56924Y116877D01*
X-56890Y116899D01*
X-56852Y116914D01*
X-56756Y116984D01*
X-56656Y117047D01*
X-56628Y117077D01*
X-56595Y117101D01*
X-56519Y117192D01*
X-56438Y117279D01*
X-56418Y117314D01*
X-56392Y117346D01*
X-56342Y117453D01*
X-56284Y117558D01*
X-56274Y117597D01*
X-56257Y117633D01*
X-56234Y117750D01*
X-56205Y117865D01*
X-56201Y117926D01*
X-56197Y117946D01*
X-56198Y117966D01*
X-56194Y118026D01*
X-56194Y122233D01*
X-55033Y123394D01*
X-51494Y123394D01*
X-51356Y123412D01*
X-51218Y123425D01*
X-51199Y123432D01*
X-51179Y123434D01*
X-51050Y123485D01*
X-50919Y123532D01*
X-50902Y123544D01*
X-50883Y123551D01*
X-50771Y123633D01*
X-50655Y123711D01*
X-50642Y123726D01*
X-50626Y123738D01*
X-50537Y123845D01*
X-50445Y123949D01*
X-50436Y123967D01*
X-50423Y123983D01*
X-50364Y124109D01*
X-50300Y124233D01*
X-50296Y124253D01*
X-50287Y124271D01*
X-50261Y124407D01*
X-50231Y124543D01*
X-50231Y124563D01*
X-50228Y124583D01*
X-50236Y124722D01*
X-50240Y124861D01*
X-50246Y124880D01*
X-50247Y124901D01*
X-50290Y125032D01*
X-50329Y125166D01*
X-50339Y125184D01*
X-50345Y125203D01*
X-50420Y125321D01*
X-50490Y125440D01*
X-50509Y125461D01*
X-50515Y125472D01*
X-50530Y125486D01*
X-50597Y125561D01*
X-51597Y126561D01*
X-51597Y142890D01*
X-51609Y142988D01*
X-51612Y143087D01*
X-51629Y143145D01*
X-51636Y143206D01*
X-51673Y143298D01*
X-51700Y143393D01*
X-51731Y143445D01*
X-51753Y143501D01*
X-51812Y143581D01*
X-51862Y143667D01*
X-51928Y143742D01*
X-51940Y143759D01*
X-51950Y143766D01*
X-51968Y143788D01*
X-53727Y145546D01*
X-53805Y145607D01*
X-53878Y145675D01*
X-53931Y145704D01*
X-53978Y145741D01*
X-54069Y145781D01*
X-54156Y145828D01*
X-54215Y145844D01*
X-54270Y145868D01*
X-54368Y145883D01*
X-54464Y145908D01*
X-54564Y145914D01*
X-54584Y145917D01*
X-54597Y145916D01*
X-54625Y145918D01*
X-60033Y145918D01*
X-61194Y147079D01*
X-61194Y151801D01*
X-61212Y151939D01*
X-61225Y152077D01*
X-61232Y152096D01*
X-61234Y152117D01*
X-61285Y152246D01*
X-61332Y152377D01*
X-61344Y152393D01*
X-61351Y152412D01*
X-61433Y152525D01*
X-61511Y152640D01*
X-61526Y152653D01*
X-61538Y152670D01*
X-61645Y152758D01*
X-61749Y152850D01*
X-61767Y152859D01*
X-61783Y152872D01*
X-61909Y152932D01*
X-62033Y152995D01*
X-62053Y152999D01*
X-62071Y153008D01*
X-62207Y153034D01*
X-62343Y153064D01*
X-62363Y153064D01*
X-62383Y153068D01*
X-62522Y153059D01*
X-62661Y153055D01*
X-62680Y153049D01*
X-62701Y153048D01*
X-62833Y153005D01*
X-62966Y152966D01*
X-62984Y152956D01*
X-63003Y152950D01*
X-63120Y152876D01*
X-63240Y152805D01*
X-63261Y152786D01*
X-63272Y152780D01*
X-63286Y152765D01*
X-63361Y152698D01*
X-64109Y151951D01*
X-64170Y151873D01*
X-64237Y151800D01*
X-64267Y151747D01*
X-64304Y151700D01*
X-64343Y151609D01*
X-64391Y151522D01*
X-64406Y151463D01*
X-64430Y151408D01*
X-64446Y151310D01*
X-64470Y151214D01*
X-64477Y151114D01*
X-64480Y151094D01*
X-64479Y151081D01*
X-64481Y151053D01*
X-64481Y134942D01*
X-65642Y133781D01*
X-77283Y133781D01*
X-78444Y134942D01*
X-78444Y150583D01*
X-77216Y151812D01*
X-77175Y151828D01*
X-77062Y151865D01*
X-77028Y151886D01*
X-76990Y151901D01*
X-76894Y151971D01*
X-76793Y152035D01*
X-76765Y152064D01*
X-76733Y152088D01*
X-76657Y152180D01*
X-76575Y152267D01*
X-76556Y152302D01*
X-76530Y152333D01*
X-76479Y152441D01*
X-76422Y152545D01*
X-76411Y152584D01*
X-76394Y152621D01*
X-76372Y152738D01*
X-76342Y152853D01*
X-76338Y152913D01*
X-76334Y152933D01*
X-76336Y152953D01*
X-76332Y153014D01*
X-76332Y161333D01*
X-75050Y162615D01*
X-74977Y162709D01*
X-74899Y162798D01*
X-74880Y162834D01*
X-74855Y162866D01*
X-74808Y162976D01*
X-74754Y163082D01*
X-74745Y163121D01*
X-74729Y163158D01*
X-74710Y163276D01*
X-74684Y163392D01*
X-74686Y163432D01*
X-74679Y163472D01*
X-74690Y163591D01*
X-74694Y163710D01*
X-74705Y163749D01*
X-74709Y163789D01*
X-74749Y163901D01*
X-74782Y164015D01*
X-74803Y164050D01*
X-74817Y164088D01*
X-74884Y164187D01*
X-74944Y164289D01*
X-74984Y164334D01*
X-74995Y164351D01*
X-75011Y164365D01*
X-75050Y164410D01*
X-76332Y165692D01*
X-76332Y168465D01*
X-76349Y168603D01*
X-76362Y168742D01*
X-76369Y168761D01*
X-76372Y168781D01*
X-76423Y168910D01*
X-76470Y169041D01*
X-76481Y169058D01*
X-76489Y169077D01*
X-76570Y169189D01*
X-76649Y169304D01*
X-76664Y169318D01*
X-76676Y169334D01*
X-76783Y169422D01*
X-76887Y169515D01*
X-76905Y169524D01*
X-76921Y169537D01*
X-77046Y169596D01*
X-77170Y169659D01*
X-77190Y169664D01*
X-77208Y169672D01*
X-77345Y169698D01*
X-77481Y169729D01*
X-77501Y169728D01*
X-77521Y169732D01*
X-77659Y169723D01*
X-77798Y169719D01*
X-77818Y169713D01*
X-77838Y169712D01*
X-77970Y169669D01*
X-78104Y169631D01*
X-78121Y169620D01*
X-78141Y169614D01*
X-78258Y169540D01*
X-78378Y169469D01*
X-78399Y169451D01*
X-78409Y169444D01*
X-78423Y169429D01*
X-78499Y169363D01*
X-97072Y150789D01*
X-97133Y150711D01*
X-97201Y150639D01*
X-97230Y150586D01*
X-97267Y150538D01*
X-97306Y150447D01*
X-97354Y150361D01*
X-97369Y150302D01*
X-97393Y150246D01*
X-97409Y150148D01*
X-97434Y150053D01*
X-97440Y149953D01*
X-97443Y149932D01*
X-97442Y149920D01*
X-97444Y149892D01*
X-97444Y140221D01*
X-97431Y140123D01*
X-97428Y140024D01*
X-97412Y139965D01*
X-97404Y139905D01*
X-97367Y139813D01*
X-97340Y139718D01*
X-97309Y139666D01*
X-97287Y139610D01*
X-97229Y139530D01*
X-97178Y139444D01*
X-97157Y139420D01*
X-97157Y119450D01*
X-115452Y101155D01*
X-115512Y101077D01*
X-115580Y101005D01*
X-115609Y100952D01*
X-115646Y100904D01*
X-115686Y100813D01*
X-115734Y100726D01*
X-115749Y100668D01*
X-115773Y100612D01*
X-115788Y100514D01*
X-115813Y100418D01*
X-115819Y100318D01*
X-115823Y100298D01*
X-115821Y100286D01*
X-115823Y100258D01*
X-115823Y85738D01*
X-115808Y85619D01*
X-115801Y85501D01*
X-115788Y85462D01*
X-115783Y85422D01*
X-115740Y85311D01*
X-115703Y85198D01*
X-115681Y85164D01*
X-115666Y85126D01*
X-115597Y85030D01*
X-115533Y84930D01*
X-115503Y84902D01*
X-115480Y84869D01*
X-115388Y84793D01*
X-115301Y84712D01*
X-115266Y84692D01*
X-115235Y84666D01*
X-115127Y84616D01*
X-115023Y84558D01*
X-114983Y84548D01*
X-114947Y84531D01*
X-114830Y84508D01*
X-114715Y84479D01*
X-114655Y84475D01*
X-114635Y84471D01*
X-114614Y84472D01*
X-114554Y84468D01*
X-69085Y84468D01*
X-68948Y84486D01*
G37*
G36*
X-48765Y192963D02*
X-48765Y192963D01*
X-48646Y192967D01*
X-48607Y192978D01*
X-48567Y192982D01*
X-48455Y193022D01*
X-48340Y193055D01*
X-48305Y193076D01*
X-48267Y193089D01*
X-48169Y193156D01*
X-48066Y193217D01*
X-48021Y193257D01*
X-48004Y193268D01*
X-47991Y193283D01*
X-47945Y193323D01*
X-47166Y194103D01*
X-44960Y195017D01*
X-44931Y195020D01*
X-44821Y195064D01*
X-44707Y195101D01*
X-44673Y195122D01*
X-44636Y195137D01*
X-44539Y195207D01*
X-44439Y195271D01*
X-44411Y195300D01*
X-44378Y195324D01*
X-44302Y195416D01*
X-44221Y195503D01*
X-44201Y195538D01*
X-44175Y195569D01*
X-44125Y195677D01*
X-44067Y195781D01*
X-44057Y195820D01*
X-44040Y195857D01*
X-44018Y195974D01*
X-43988Y196089D01*
X-43984Y196149D01*
X-43980Y196169D01*
X-43981Y196189D01*
X-43978Y196250D01*
X-43978Y199193D01*
X-34228Y208943D01*
X-34167Y209021D01*
X-34099Y209093D01*
X-34070Y209146D01*
X-34033Y209194D01*
X-33994Y209285D01*
X-33946Y209372D01*
X-33931Y209430D01*
X-33907Y209486D01*
X-33891Y209584D01*
X-33867Y209680D01*
X-33860Y209780D01*
X-33857Y209800D01*
X-33858Y209812D01*
X-33856Y209840D01*
X-33856Y217270D01*
X-19499Y231628D01*
X-19438Y231706D01*
X-19370Y231778D01*
X-19341Y231831D01*
X-19304Y231879D01*
X-19264Y231970D01*
X-19217Y232057D01*
X-19201Y232116D01*
X-19177Y232171D01*
X-19162Y232269D01*
X-19137Y232365D01*
X-19131Y232465D01*
X-19128Y232485D01*
X-19129Y232498D01*
X-19127Y232526D01*
X-19127Y240586D01*
X-19144Y240723D01*
X-19157Y240862D01*
X-19164Y240881D01*
X-19167Y240901D01*
X-19218Y241030D01*
X-19265Y241161D01*
X-19276Y241178D01*
X-19284Y241197D01*
X-19366Y241309D01*
X-19444Y241424D01*
X-19459Y241438D01*
X-19471Y241454D01*
X-19578Y241543D01*
X-19682Y241635D01*
X-19700Y241644D01*
X-19716Y241657D01*
X-19841Y241716D01*
X-19965Y241780D01*
X-19985Y241784D01*
X-20003Y241793D01*
X-20139Y241819D01*
X-20276Y241849D01*
X-20296Y241849D01*
X-20316Y241852D01*
X-20454Y241844D01*
X-20594Y241839D01*
X-20613Y241834D01*
X-20633Y241833D01*
X-20765Y241790D01*
X-20899Y241751D01*
X-20916Y241741D01*
X-20936Y241735D01*
X-21053Y241660D01*
X-21173Y241589D01*
X-21194Y241571D01*
X-21204Y241564D01*
X-21218Y241549D01*
X-21237Y241533D01*
X-24591Y240144D01*
X-28209Y240144D01*
X-31551Y241528D01*
X-34109Y244086D01*
X-35494Y247429D01*
X-35494Y251046D01*
X-34109Y254389D01*
X-32058Y256440D01*
X-31973Y256550D01*
X-31884Y256657D01*
X-31876Y256675D01*
X-31863Y256691D01*
X-31808Y256819D01*
X-31749Y256945D01*
X-31745Y256964D01*
X-31737Y256983D01*
X-31715Y257121D01*
X-31689Y257257D01*
X-31690Y257277D01*
X-31687Y257297D01*
X-31700Y257436D01*
X-31709Y257574D01*
X-31715Y257594D01*
X-31717Y257614D01*
X-31764Y257745D01*
X-31807Y257877D01*
X-31818Y257894D01*
X-31824Y257913D01*
X-31903Y258028D01*
X-31977Y258146D01*
X-31992Y258160D01*
X-32003Y258176D01*
X-32107Y258268D01*
X-32209Y258364D01*
X-32226Y258373D01*
X-32241Y258387D01*
X-32366Y258450D01*
X-32487Y258517D01*
X-32507Y258522D01*
X-32525Y258531D01*
X-32661Y258562D01*
X-32795Y258597D01*
X-32823Y258598D01*
X-32835Y258601D01*
X-32856Y258600D01*
X-32956Y258607D01*
X-36947Y258607D01*
X-37045Y258594D01*
X-37144Y258591D01*
X-37202Y258575D01*
X-37262Y258567D01*
X-37354Y258530D01*
X-37450Y258503D01*
X-37502Y258472D01*
X-37558Y258450D01*
X-37638Y258392D01*
X-37724Y258341D01*
X-37799Y258275D01*
X-37815Y258263D01*
X-37823Y258254D01*
X-37844Y258235D01*
X-42788Y253291D01*
X-42806Y253268D01*
X-42828Y253249D01*
X-42903Y253143D01*
X-42983Y253040D01*
X-42995Y253013D01*
X-43012Y252989D01*
X-43058Y252868D01*
X-43109Y252748D01*
X-43114Y252719D01*
X-43124Y252692D01*
X-43139Y252563D01*
X-43159Y252434D01*
X-43156Y252405D01*
X-43160Y252375D01*
X-43141Y252247D01*
X-43129Y252118D01*
X-43119Y252090D01*
X-43115Y252061D01*
X-43063Y251908D01*
X-42706Y251046D01*
X-42706Y247429D01*
X-44091Y244086D01*
X-46649Y241528D01*
X-47797Y241052D01*
X-47823Y241038D01*
X-47851Y241029D01*
X-47961Y240959D01*
X-48073Y240895D01*
X-48094Y240874D01*
X-48119Y240858D01*
X-48209Y240764D01*
X-48302Y240674D01*
X-48317Y240648D01*
X-48337Y240627D01*
X-48400Y240513D01*
X-48468Y240402D01*
X-48477Y240374D01*
X-48491Y240348D01*
X-48523Y240223D01*
X-48562Y240098D01*
X-48563Y240069D01*
X-48570Y240040D01*
X-48581Y239880D01*
X-48581Y223842D01*
X-49742Y222681D01*
X-61383Y222681D01*
X-62544Y223842D01*
X-62544Y228049D01*
X-62559Y228167D01*
X-62567Y228286D01*
X-62579Y228324D01*
X-62584Y228364D01*
X-62628Y228475D01*
X-62665Y228588D01*
X-62686Y228622D01*
X-62701Y228660D01*
X-62771Y228756D01*
X-62835Y228857D01*
X-62864Y228885D01*
X-62888Y228917D01*
X-62980Y228993D01*
X-63067Y229075D01*
X-63102Y229094D01*
X-63133Y229120D01*
X-63241Y229171D01*
X-63345Y229228D01*
X-63384Y229239D01*
X-63421Y229256D01*
X-63538Y229278D01*
X-63653Y229308D01*
X-63713Y229312D01*
X-63733Y229316D01*
X-63753Y229314D01*
X-63814Y229318D01*
X-72425Y229318D01*
X-72543Y229303D01*
X-72662Y229296D01*
X-72700Y229283D01*
X-72740Y229278D01*
X-72851Y229234D01*
X-72964Y229198D01*
X-72998Y229176D01*
X-73036Y229161D01*
X-73132Y229091D01*
X-73233Y229028D01*
X-73261Y228998D01*
X-73293Y228974D01*
X-73369Y228883D01*
X-73451Y228796D01*
X-73470Y228761D01*
X-73496Y228729D01*
X-73547Y228622D01*
X-73604Y228517D01*
X-73615Y228478D01*
X-73632Y228442D01*
X-73654Y228325D01*
X-73684Y228210D01*
X-73688Y228149D01*
X-73692Y228129D01*
X-73690Y228109D01*
X-73694Y228049D01*
X-73694Y218898D01*
X-73677Y218760D01*
X-73664Y218622D01*
X-73657Y218603D01*
X-73654Y218582D01*
X-73603Y218453D01*
X-73556Y218322D01*
X-73545Y218306D01*
X-73537Y218287D01*
X-73456Y218175D01*
X-73377Y218059D01*
X-73362Y218046D01*
X-73350Y218029D01*
X-73243Y217941D01*
X-73139Y217849D01*
X-73121Y217840D01*
X-73105Y217827D01*
X-72980Y217767D01*
X-72856Y217704D01*
X-72836Y217700D01*
X-72818Y217691D01*
X-72681Y217665D01*
X-72545Y217635D01*
X-72525Y217635D01*
X-72505Y217631D01*
X-72367Y217640D01*
X-72228Y217644D01*
X-72208Y217650D01*
X-72188Y217651D01*
X-72056Y217694D01*
X-71922Y217733D01*
X-71905Y217743D01*
X-71885Y217749D01*
X-71768Y217823D01*
X-71648Y217894D01*
X-71627Y217913D01*
X-71617Y217919D01*
X-71603Y217934D01*
X-71527Y218001D01*
X-70883Y218644D01*
X-59242Y218644D01*
X-58081Y217483D01*
X-58081Y201842D01*
X-59309Y200613D01*
X-59350Y200597D01*
X-59463Y200560D01*
X-59497Y200539D01*
X-59535Y200524D01*
X-59631Y200454D01*
X-59732Y200390D01*
X-59760Y200361D01*
X-59792Y200337D01*
X-59868Y200245D01*
X-59950Y200158D01*
X-59969Y200123D01*
X-59995Y200092D01*
X-60046Y199984D01*
X-60103Y199880D01*
X-60114Y199841D01*
X-60131Y199804D01*
X-60153Y199687D01*
X-60183Y199572D01*
X-60187Y199512D01*
X-60191Y199492D01*
X-60189Y199472D01*
X-60193Y199411D01*
X-60193Y195498D01*
X-60176Y195360D01*
X-60163Y195221D01*
X-60156Y195202D01*
X-60153Y195182D01*
X-60102Y195053D01*
X-60055Y194922D01*
X-60044Y194905D01*
X-60036Y194886D01*
X-59955Y194774D01*
X-59876Y194659D01*
X-59861Y194645D01*
X-59849Y194629D01*
X-59742Y194540D01*
X-59638Y194448D01*
X-59620Y194439D01*
X-59604Y194426D01*
X-59479Y194367D01*
X-59355Y194304D01*
X-59335Y194299D01*
X-59317Y194291D01*
X-59180Y194265D01*
X-59044Y194234D01*
X-59024Y194235D01*
X-59004Y194231D01*
X-58865Y194240D01*
X-58727Y194244D01*
X-58707Y194249D01*
X-58687Y194251D01*
X-58555Y194293D01*
X-58421Y194332D01*
X-58404Y194342D01*
X-58384Y194349D01*
X-58267Y194423D01*
X-58147Y194494D01*
X-58126Y194512D01*
X-58116Y194519D01*
X-58102Y194534D01*
X-58026Y194600D01*
X-57787Y194840D01*
X-55668Y195717D01*
X-53375Y195717D01*
X-51257Y194840D01*
X-49740Y193323D01*
X-49646Y193250D01*
X-49557Y193171D01*
X-49521Y193153D01*
X-49489Y193128D01*
X-49380Y193081D01*
X-49274Y193027D01*
X-49234Y193018D01*
X-49197Y193002D01*
X-49079Y192983D01*
X-48964Y192957D01*
X-48923Y192958D01*
X-48883Y192952D01*
X-48765Y192963D01*
G37*
G36*
X150093Y145539D02*
X150093Y145539D01*
X150165Y145548D01*
X150189Y145561D01*
X150215Y145568D01*
X150274Y145611D01*
X150337Y145648D01*
X150354Y145670D01*
X150376Y145686D01*
X150413Y145749D01*
X150457Y145807D01*
X150463Y145833D01*
X150477Y145857D01*
X150494Y145961D01*
X150504Y146000D01*
X150503Y146009D01*
X150505Y146021D01*
X150487Y200051D01*
X150482Y200077D01*
X150484Y200104D01*
X150462Y200174D01*
X150448Y200246D01*
X150432Y200268D01*
X150424Y200294D01*
X150376Y200349D01*
X150335Y200410D01*
X150312Y200424D01*
X150294Y200445D01*
X150229Y200477D01*
X150167Y200516D01*
X150141Y200521D01*
X150116Y200533D01*
X150011Y200543D01*
X149971Y200550D01*
X149962Y200547D01*
X149951Y200548D01*
X145924Y200245D01*
X145894Y200237D01*
X145851Y200234D01*
X141914Y199335D01*
X141885Y199321D01*
X141843Y199313D01*
X138085Y197836D01*
X138058Y197819D01*
X138018Y197804D01*
X134522Y195784D01*
X134498Y195763D01*
X134460Y195742D01*
X131304Y193223D01*
X131284Y193199D01*
X131249Y193173D01*
X128504Y190212D01*
X128487Y190185D01*
X128458Y190153D01*
X126184Y186817D01*
X126172Y186787D01*
X126147Y186752D01*
X124396Y183114D01*
X124388Y183083D01*
X124369Y183044D01*
X123180Y179186D01*
X123177Y179154D01*
X123163Y179113D01*
X122563Y175120D01*
X122565Y175088D01*
X122557Y175046D01*
X122559Y171008D01*
X122565Y170978D01*
X122563Y170967D01*
X122565Y170958D01*
X122564Y170934D01*
X123167Y166941D01*
X123178Y166911D01*
X123184Y166868D01*
X124375Y163011D01*
X124391Y162983D01*
X124403Y162941D01*
X126156Y159304D01*
X126175Y159278D01*
X126193Y159239D01*
X128469Y155904D01*
X128491Y155882D01*
X128515Y155846D01*
X131262Y152887D01*
X131288Y152868D01*
X131317Y152836D01*
X134475Y150319D01*
X134503Y150305D01*
X134536Y150277D01*
X138034Y148260D01*
X138064Y148250D01*
X138101Y148227D01*
X141860Y146753D01*
X141891Y146748D01*
X141931Y146731D01*
X145868Y145834D01*
X145900Y145834D01*
X145942Y145823D01*
X149968Y145523D01*
X149995Y145526D01*
X150022Y145522D01*
X150093Y145539D01*
G37*
G36*
X-149962Y145528D02*
X-149962Y145528D01*
X-149951Y145527D01*
X-145924Y145830D01*
X-145894Y145838D01*
X-145851Y145841D01*
X-141914Y146740D01*
X-141885Y146754D01*
X-141843Y146762D01*
X-138085Y148239D01*
X-138058Y148256D01*
X-138018Y148271D01*
X-134522Y150291D01*
X-134498Y150312D01*
X-134460Y150333D01*
X-131304Y152852D01*
X-131284Y152876D01*
X-131249Y152902D01*
X-128504Y155863D01*
X-128487Y155890D01*
X-128458Y155922D01*
X-126184Y159258D01*
X-126172Y159288D01*
X-126147Y159323D01*
X-124396Y162961D01*
X-124388Y162992D01*
X-124369Y163031D01*
X-123180Y166889D01*
X-123177Y166921D01*
X-123163Y166962D01*
X-122563Y170955D01*
X-122565Y170987D01*
X-122557Y171029D01*
X-122559Y175067D01*
X-122565Y175098D01*
X-122564Y175141D01*
X-123167Y179134D01*
X-123178Y179164D01*
X-123184Y179207D01*
X-124375Y183064D01*
X-124391Y183092D01*
X-124403Y183134D01*
X-126156Y186771D01*
X-126175Y186797D01*
X-126193Y186836D01*
X-128469Y190171D01*
X-128491Y190193D01*
X-128515Y190229D01*
X-131262Y193188D01*
X-131288Y193207D01*
X-131317Y193239D01*
X-134475Y195756D01*
X-134503Y195770D01*
X-134536Y195798D01*
X-138034Y197815D01*
X-138064Y197825D01*
X-138101Y197848D01*
X-141860Y199322D01*
X-141891Y199327D01*
X-141931Y199344D01*
X-145868Y200241D01*
X-145900Y200241D01*
X-145942Y200252D01*
X-149968Y200552D01*
X-149995Y200549D01*
X-150022Y200553D01*
X-150093Y200536D01*
X-150165Y200527D01*
X-150189Y200514D01*
X-150215Y200507D01*
X-150274Y200464D01*
X-150337Y200427D01*
X-150354Y200405D01*
X-150376Y200389D01*
X-150413Y200326D01*
X-150457Y200268D01*
X-150463Y200242D01*
X-150477Y200218D01*
X-150494Y200114D01*
X-150504Y200075D01*
X-150503Y200066D01*
X-150505Y200054D01*
X-150487Y146024D01*
X-150482Y145998D01*
X-150484Y145971D01*
X-150462Y145901D01*
X-150448Y145829D01*
X-150432Y145807D01*
X-150424Y145781D01*
X-150376Y145726D01*
X-150335Y145665D01*
X-150312Y145651D01*
X-150294Y145630D01*
X-150229Y145598D01*
X-150167Y145559D01*
X-150141Y145554D01*
X-150116Y145542D01*
X-150011Y145532D01*
X-149971Y145525D01*
X-149962Y145528D01*
G37*
G36*
X79052Y275727D02*
X79052Y275727D01*
X79082Y275736D01*
X79125Y275738D01*
X83062Y276635D01*
X83091Y276648D01*
X83133Y276657D01*
X86893Y278131D01*
X86919Y278148D01*
X86960Y278164D01*
X90457Y280181D01*
X90481Y280202D01*
X90519Y280223D01*
X93676Y282740D01*
X93697Y282764D01*
X93731Y282790D01*
X96478Y285749D01*
X96495Y285777D01*
X96525Y285808D01*
X98800Y289143D01*
X98811Y289168D01*
X98828Y289189D01*
X98838Y289221D01*
X98840Y289225D01*
X98842Y289233D01*
X98849Y289259D01*
X98878Y289326D01*
X98878Y289354D01*
X98885Y289380D01*
X98877Y289452D01*
X98877Y289525D01*
X98866Y289550D01*
X98863Y289577D01*
X98828Y289641D01*
X98799Y289708D01*
X98779Y289727D01*
X98766Y289751D01*
X98685Y289818D01*
X98656Y289846D01*
X98647Y289849D01*
X98638Y289857D01*
X51855Y316887D01*
X51829Y316895D01*
X51807Y316911D01*
X51736Y316927D01*
X51667Y316950D01*
X51639Y316948D01*
X51613Y316954D01*
X51541Y316940D01*
X51468Y316934D01*
X51444Y316922D01*
X51417Y316917D01*
X51357Y316877D01*
X51292Y316843D01*
X51274Y316822D01*
X51252Y316807D01*
X51191Y316721D01*
X51165Y316690D01*
X51162Y316681D01*
X51156Y316671D01*
X49403Y313034D01*
X49395Y313003D01*
X49375Y312964D01*
X48184Y309107D01*
X48181Y309075D01*
X48167Y309034D01*
X47564Y305041D01*
X47566Y305010D01*
X47559Y304967D01*
X47557Y300929D01*
X47564Y300898D01*
X47563Y300855D01*
X48163Y296862D01*
X48174Y296832D01*
X48180Y296789D01*
X49369Y292931D01*
X49384Y292903D01*
X49396Y292861D01*
X51147Y289223D01*
X51166Y289198D01*
X51184Y289158D01*
X53458Y285822D01*
X53480Y285799D01*
X53504Y285763D01*
X56249Y282802D01*
X56275Y282784D01*
X56304Y282752D01*
X59460Y280233D01*
X59488Y280219D01*
X59522Y280191D01*
X63018Y278171D01*
X63048Y278161D01*
X63085Y278139D01*
X66843Y276662D01*
X66874Y276657D01*
X66914Y276640D01*
X70851Y275741D01*
X70882Y275740D01*
X70924Y275730D01*
X74951Y275427D01*
X74982Y275431D01*
X75025Y275427D01*
X79052Y275727D01*
G37*
G36*
X-51541Y29135D02*
X-51541Y29135D01*
X-51468Y29141D01*
X-51444Y29153D01*
X-51417Y29158D01*
X-51357Y29198D01*
X-51292Y29232D01*
X-51274Y29253D01*
X-51252Y29268D01*
X-51191Y29354D01*
X-51165Y29385D01*
X-51162Y29394D01*
X-51156Y29404D01*
X-49403Y33041D01*
X-49395Y33072D01*
X-49375Y33111D01*
X-48184Y36968D01*
X-48181Y37000D01*
X-48167Y37041D01*
X-47564Y41034D01*
X-47566Y41065D01*
X-47559Y41108D01*
X-47557Y45146D01*
X-47564Y45177D01*
X-47563Y45220D01*
X-48163Y49213D01*
X-48174Y49243D01*
X-48180Y49286D01*
X-49369Y53144D01*
X-49384Y53172D01*
X-49396Y53214D01*
X-51147Y56852D01*
X-51166Y56877D01*
X-51184Y56917D01*
X-53458Y60253D01*
X-53480Y60276D01*
X-53504Y60312D01*
X-56249Y63273D01*
X-56275Y63291D01*
X-56304Y63323D01*
X-59460Y65842D01*
X-59488Y65856D01*
X-59522Y65884D01*
X-63018Y67904D01*
X-63048Y67914D01*
X-63085Y67936D01*
X-66843Y69413D01*
X-66874Y69418D01*
X-66914Y69435D01*
X-70851Y70334D01*
X-70882Y70335D01*
X-70924Y70345D01*
X-74951Y70648D01*
X-74982Y70644D01*
X-75025Y70648D01*
X-79052Y70348D01*
X-79082Y70339D01*
X-79125Y70337D01*
X-83062Y69440D01*
X-83091Y69427D01*
X-83133Y69418D01*
X-86893Y67944D01*
X-86919Y67927D01*
X-86960Y67911D01*
X-90457Y65894D01*
X-90481Y65873D01*
X-90519Y65852D01*
X-93676Y63335D01*
X-93697Y63311D01*
X-93731Y63285D01*
X-96478Y60326D01*
X-96495Y60298D01*
X-96525Y60267D01*
X-98800Y56932D01*
X-98811Y56907D01*
X-98828Y56886D01*
X-98849Y56816D01*
X-98878Y56749D01*
X-98878Y56721D01*
X-98885Y56695D01*
X-98877Y56623D01*
X-98877Y56550D01*
X-98866Y56525D01*
X-98863Y56498D01*
X-98828Y56434D01*
X-98799Y56367D01*
X-98779Y56348D01*
X-98766Y56324D01*
X-98685Y56257D01*
X-98656Y56229D01*
X-98647Y56226D01*
X-98638Y56218D01*
X-51855Y29188D01*
X-51829Y29180D01*
X-51807Y29164D01*
X-51736Y29148D01*
X-51667Y29125D01*
X-51639Y29127D01*
X-51613Y29121D01*
X-51541Y29135D01*
G37*
G36*
X51684Y29144D02*
X51684Y29144D01*
X51711Y29143D01*
X51810Y29180D01*
X51849Y29191D01*
X51856Y29197D01*
X51867Y29201D01*
X98632Y56201D01*
X98653Y56219D01*
X98677Y56231D01*
X98726Y56285D01*
X98781Y56333D01*
X98793Y56358D01*
X98811Y56378D01*
X98835Y56447D01*
X98867Y56512D01*
X98868Y56540D01*
X98877Y56565D01*
X98873Y56638D01*
X98876Y56711D01*
X98866Y56737D01*
X98865Y56764D01*
X98821Y56859D01*
X98807Y56897D01*
X98800Y56904D01*
X98795Y56915D01*
X96522Y60249D01*
X96499Y60271D01*
X96475Y60307D01*
X93731Y63266D01*
X93705Y63284D01*
X93676Y63316D01*
X90521Y65832D01*
X90493Y65847D01*
X90459Y65875D01*
X86964Y67892D01*
X86934Y67902D01*
X86897Y67925D01*
X83141Y69399D01*
X83109Y69404D01*
X83069Y69421D01*
X79135Y70319D01*
X79103Y70320D01*
X79061Y70330D01*
X75037Y70632D01*
X75006Y70628D01*
X74963Y70632D01*
X70939Y70330D01*
X70908Y70321D01*
X70865Y70319D01*
X66931Y69421D01*
X66902Y69408D01*
X66859Y69399D01*
X63103Y67925D01*
X63076Y67907D01*
X63036Y67892D01*
X59541Y65875D01*
X59517Y65853D01*
X59479Y65832D01*
X56324Y63316D01*
X56304Y63292D01*
X56269Y63266D01*
X53525Y60307D01*
X53508Y60280D01*
X53478Y60249D01*
X51205Y56915D01*
X51192Y56886D01*
X51168Y56850D01*
X49417Y53215D01*
X49409Y53184D01*
X49389Y53145D01*
X48200Y49289D01*
X48197Y49257D01*
X48183Y49216D01*
X47582Y45226D01*
X47583Y45194D01*
X47576Y45151D01*
X47576Y41116D01*
X47578Y41108D01*
X47577Y41100D01*
X47582Y41075D01*
X47582Y41042D01*
X48183Y37051D01*
X48194Y37021D01*
X48200Y36978D01*
X49389Y33122D01*
X49405Y33094D01*
X49417Y33053D01*
X51168Y29417D01*
X51184Y29395D01*
X51193Y29370D01*
X51244Y29317D01*
X51288Y29259D01*
X51311Y29245D01*
X51330Y29225D01*
X51397Y29196D01*
X51460Y29160D01*
X51487Y29157D01*
X51512Y29146D01*
X51585Y29145D01*
X51658Y29136D01*
X51684Y29144D01*
G37*
G36*
X-70939Y275745D02*
X-70939Y275745D01*
X-70908Y275754D01*
X-70865Y275756D01*
X-66931Y276654D01*
X-66902Y276667D01*
X-66859Y276676D01*
X-63103Y278150D01*
X-63076Y278168D01*
X-63036Y278183D01*
X-59541Y280200D01*
X-59517Y280222D01*
X-59479Y280243D01*
X-56324Y282759D01*
X-56304Y282783D01*
X-56269Y282809D01*
X-53525Y285768D01*
X-53508Y285795D01*
X-53478Y285826D01*
X-51205Y289160D01*
X-51192Y289189D01*
X-51168Y289225D01*
X-49417Y292860D01*
X-49409Y292891D01*
X-49389Y292930D01*
X-48200Y296786D01*
X-48197Y296818D01*
X-48183Y296859D01*
X-47582Y300849D01*
X-47583Y300881D01*
X-47576Y300924D01*
X-47576Y304959D01*
X-47583Y304990D01*
X-47582Y305033D01*
X-48183Y309024D01*
X-48194Y309054D01*
X-48200Y309097D01*
X-49389Y312953D01*
X-49405Y312981D01*
X-49417Y313022D01*
X-51168Y316658D01*
X-51184Y316680D01*
X-51193Y316705D01*
X-51244Y316758D01*
X-51288Y316816D01*
X-51311Y316830D01*
X-51330Y316850D01*
X-51397Y316879D01*
X-51460Y316915D01*
X-51487Y316918D01*
X-51512Y316929D01*
X-51585Y316930D01*
X-51658Y316939D01*
X-51684Y316931D01*
X-51711Y316932D01*
X-51810Y316895D01*
X-51849Y316884D01*
X-51856Y316878D01*
X-51867Y316874D01*
X-98632Y289874D01*
X-98653Y289856D01*
X-98677Y289844D01*
X-98726Y289790D01*
X-98781Y289742D01*
X-98793Y289717D01*
X-98811Y289697D01*
X-98835Y289628D01*
X-98867Y289563D01*
X-98868Y289535D01*
X-98877Y289510D01*
X-98873Y289437D01*
X-98876Y289364D01*
X-98866Y289338D01*
X-98865Y289311D01*
X-98825Y289225D01*
X-98822Y289211D01*
X-98816Y289203D01*
X-98807Y289178D01*
X-98800Y289171D01*
X-98795Y289160D01*
X-96522Y285826D01*
X-96499Y285804D01*
X-96475Y285768D01*
X-93731Y282809D01*
X-93705Y282791D01*
X-93676Y282759D01*
X-90521Y280243D01*
X-90493Y280228D01*
X-90459Y280200D01*
X-86964Y278183D01*
X-86934Y278173D01*
X-86897Y278150D01*
X-83141Y276676D01*
X-83109Y276671D01*
X-83069Y276654D01*
X-79135Y275756D01*
X-79103Y275755D01*
X-79061Y275745D01*
X-75037Y275443D01*
X-75006Y275447D01*
X-74963Y275443D01*
X-70939Y275745D01*
G37*
%LPC*%
G36*
X106178Y179974D02*
X106178Y179974D01*
X104059Y180851D01*
X102438Y182473D01*
X101560Y184591D01*
X101560Y186884D01*
X102438Y189002D01*
X104059Y190624D01*
X105598Y191261D01*
X105606Y191266D01*
X105615Y191268D01*
X105744Y191345D01*
X105874Y191419D01*
X105881Y191425D01*
X105889Y191430D01*
X106010Y191536D01*
X106685Y192212D01*
X106746Y192290D01*
X106814Y192362D01*
X106843Y192415D01*
X106880Y192463D01*
X106919Y192554D01*
X106967Y192641D01*
X106982Y192699D01*
X107006Y192755D01*
X107022Y192853D01*
X107047Y192949D01*
X107053Y193049D01*
X107056Y193069D01*
X107055Y193081D01*
X107057Y193109D01*
X107057Y194050D01*
X107823Y195899D01*
X109416Y197492D01*
X125964Y214039D01*
X125969Y214047D01*
X125977Y214053D01*
X126067Y214172D01*
X126159Y214291D01*
X126162Y214299D01*
X126168Y214307D01*
X126239Y214451D01*
X126876Y215990D01*
X128498Y217611D01*
X130616Y218489D01*
X132909Y218489D01*
X135027Y217611D01*
X136649Y215990D01*
X137526Y213872D01*
X137526Y211578D01*
X136649Y209460D01*
X135028Y207839D01*
X133489Y207201D01*
X133481Y207197D01*
X133472Y207194D01*
X133344Y207119D01*
X133212Y207044D01*
X133206Y207037D01*
X133198Y207032D01*
X133077Y206926D01*
X117488Y191338D01*
X117428Y191259D01*
X117360Y191187D01*
X117331Y191134D01*
X117294Y191086D01*
X117254Y190995D01*
X117206Y190909D01*
X117191Y190850D01*
X117167Y190794D01*
X117152Y190697D01*
X117127Y190601D01*
X117121Y190501D01*
X117117Y190480D01*
X117119Y190468D01*
X117117Y190440D01*
X117117Y189499D01*
X116351Y187651D01*
X113123Y184423D01*
X113118Y184416D01*
X113110Y184410D01*
X113020Y184290D01*
X112928Y184172D01*
X112925Y184163D01*
X112919Y184156D01*
X112848Y184011D01*
X112211Y182472D01*
X110589Y180851D01*
X108471Y179974D01*
X106178Y179974D01*
G37*
%LPD*%
%LPC*%
G36*
X135378Y111711D02*
X135378Y111711D01*
X133260Y112589D01*
X131639Y114210D01*
X130761Y116328D01*
X130761Y117187D01*
X130749Y117285D01*
X130746Y117385D01*
X130729Y117443D01*
X130721Y117503D01*
X130685Y117595D01*
X130657Y117690D01*
X130626Y117742D01*
X130604Y117799D01*
X130546Y117879D01*
X130496Y117964D01*
X130429Y118039D01*
X130417Y118056D01*
X130408Y118064D01*
X130389Y118085D01*
X111398Y137076D01*
X111391Y137082D01*
X111385Y137089D01*
X111265Y137179D01*
X111147Y137271D01*
X111138Y137275D01*
X111131Y137280D01*
X110986Y137351D01*
X109447Y137989D01*
X107826Y139610D01*
X106949Y141728D01*
X106949Y144022D01*
X107826Y146140D01*
X109448Y147761D01*
X111566Y148639D01*
X113859Y148639D01*
X115977Y147761D01*
X117599Y146140D01*
X118236Y144601D01*
X118241Y144593D01*
X118243Y144584D01*
X118319Y144455D01*
X118394Y144325D01*
X118400Y144318D01*
X118405Y144310D01*
X118511Y144189D01*
X140789Y121912D01*
X141081Y121207D01*
X141086Y121199D01*
X141088Y121190D01*
X141164Y121061D01*
X141239Y120931D01*
X141245Y120924D01*
X141250Y120916D01*
X141356Y120795D01*
X141411Y120740D01*
X142289Y118622D01*
X142289Y116328D01*
X141411Y114210D01*
X139790Y112589D01*
X137672Y111711D01*
X135378Y111711D01*
G37*
%LPD*%
%LPC*%
G36*
X-144521Y217418D02*
X-144521Y217418D01*
X-145682Y218579D01*
X-145682Y228221D01*
X-144521Y229382D01*
X-134879Y229382D01*
X-133718Y228221D01*
X-133718Y218579D01*
X-134879Y217418D01*
X-144521Y217418D01*
G37*
%LPD*%
D10*
X-139700Y223400D03*
X-139700Y208400D03*
D11*
X25400Y58738D03*
D12*
X20488Y214313D03*
X33488Y214313D03*
D13*
X34363Y173038D03*
X51363Y173038D03*
D14*
X25400Y282575D03*
X0Y282575D03*
X-25400Y282575D03*
D15*
X-16Y338266D03*
X143067Y255638D03*
X143084Y90409D03*
X16Y7809D03*
X-143067Y90438D03*
X-143084Y255666D03*
X71551Y296908D03*
X143051Y173067D03*
X71550Y49109D03*
X-71551Y49167D03*
X-143051Y173008D03*
X-71550Y296966D03*
D16*
X-102600Y96838D03*
X-77200Y96838D03*
X-51800Y96838D03*
X-26400Y96838D03*
X-1000Y96838D03*
X24400Y96838D03*
X49800Y96838D03*
X75200Y96838D03*
X100600Y96838D03*
X102600Y249238D03*
X77200Y249238D03*
X51800Y249238D03*
X26400Y249238D03*
X1000Y249238D03*
X-26400Y249238D03*
X-51800Y249238D03*
X-77200Y249238D03*
X-102600Y249238D03*
D17*
X49238Y198550D03*
X68238Y198550D03*
X58738Y220550D03*
X80988Y198550D03*
X99988Y198550D03*
X90488Y220550D03*
X-39713Y136413D03*
X-58713Y136413D03*
X-49213Y114413D03*
X-71463Y142763D03*
X-90463Y142763D03*
X-80963Y120763D03*
X42838Y144350D03*
X23838Y144350D03*
X33338Y122350D03*
X-104750Y211250D03*
X-85750Y211250D03*
X-95250Y233250D03*
X-65063Y209663D03*
X-46063Y209663D03*
X-55563Y231663D03*
X85700Y142763D03*
X66700Y142763D03*
X76200Y120763D03*
D12*
X64938Y182563D03*
X77938Y182563D03*
X-55713Y152400D03*
X-42713Y152400D03*
D18*
X-69850Y170013D03*
X-69850Y157013D03*
X7938Y136375D03*
X7938Y149375D03*
X-95250Y182413D03*
X-95250Y195413D03*
X-66675Y184000D03*
X-66675Y197000D03*
D12*
X69700Y157163D03*
X82700Y157163D03*
D18*
X76200Y236688D03*
X76200Y223688D03*
X103188Y236688D03*
X103188Y223688D03*
X-61913Y98275D03*
X-61913Y111275D03*
X-87313Y96688D03*
X-87313Y109688D03*
X12700Y107800D03*
X12700Y120800D03*
X-112713Y249388D03*
X-112713Y236388D03*
X-68263Y247800D03*
X-68263Y234800D03*
X93663Y106213D03*
X93663Y119213D03*
D19*
X25880Y144350D02*
X23838Y144350D01*
D20*
X-80113Y161513D03*
X-118213Y117063D03*
X-92813Y126588D03*
X-86463Y220251D03*
X-69001Y223426D03*
X136525Y117475D03*
X112713Y142875D03*
D21*
X136525Y119063D02*
X136525Y117475D01*
X136525Y119063D02*
X112713Y142875D01*
D20*
X-106363Y177800D03*
X-106363Y198438D03*
D21*
X-106363Y177800D01*
D20*
X131763Y212725D03*
D21*
X112087Y193049D01*
X112087Y190500D01*
X107324Y185738D01*
D20*
X107324Y185738D03*
X12700Y288802D03*
D22*
X13573Y287929D01*
X13573Y243602D01*
D20*
X13573Y243602D03*
D23*
X-125699Y208400D02*
X-139700Y208400D01*
X-125699Y208400D02*
X-125262Y207963D01*
D20*
X-125262Y207963D03*
D22*
X38397Y169003D02*
X40537Y169003D01*
X38397Y169003D02*
X34363Y173038D01*
D20*
X40537Y169003D03*
X-139700Y223400D03*
X64837Y127797D03*
D24*
X60569Y123530D01*
X60569Y92951D01*
X40651Y68349D02*
X36531Y64229D01*
X40651Y73032D02*
X60569Y92951D01*
X40651Y73032D02*
X40651Y68349D01*
X36531Y64229D02*
X30892Y64229D01*
X25400Y58738D01*
D23*
X10413Y204238D02*
X20488Y214313D01*
X10413Y204238D02*
X9949Y204238D01*
D20*
X9949Y204238D03*
X32646Y201399D03*
D23*
X48358Y182563D02*
X64938Y182563D01*
X48358Y182563D02*
X32646Y198275D01*
X32646Y201399D01*
D20*
X-33464Y190500D03*
D24*
X-33464Y197127D01*
X-1588Y282575D02*
X0Y282575D01*
X-1588Y282575D02*
X-9525Y274638D01*
X-9525Y230609D01*
X-26083Y214051D02*
X-26083Y204508D01*
X-33464Y197127D01*
X-26083Y214051D02*
X-9525Y230609D01*
D20*
X-17463Y207963D03*
D23*
X-17463Y182563D01*
X-30013Y170013D02*
X-69850Y170013D01*
X-30013Y170013D02*
X-17463Y182563D01*
D20*
X1608Y112713D03*
D19*
X1608Y130045D02*
X7938Y136375D01*
X1608Y130045D02*
X1608Y112713D01*
D20*
X-107950Y134938D03*
D23*
X-95250Y166538D02*
X-95250Y182413D01*
X-107950Y153838D02*
X-107950Y134938D01*
X-107950Y153838D02*
X-95250Y166538D01*
D19*
X-66675Y184000D02*
X-60722Y189953D01*
X-54522Y189953D01*
D20*
X-54522Y189953D03*
X20638Y203200D03*
D19*
X25857Y197980D01*
X25857Y166086D01*
X62082Y157163D02*
X69700Y157163D01*
X62082Y157163D02*
X59360Y159884D01*
X32059Y159884D01*
X25857Y166086D01*
D20*
X-7938Y111125D03*
D23*
X-46138Y125971D02*
X-48154Y127987D01*
X-11410Y111125D02*
X-7938Y111125D01*
X-11410Y111125D02*
X-14963Y114678D01*
X-48154Y144842D02*
X-55713Y152400D01*
X-48154Y144842D02*
X-48154Y127987D01*
X-46138Y125971D02*
X-33188Y125971D01*
X-21896Y114678D01*
X-14963Y114678D01*
D20*
X-43901Y189217D03*
D24*
X-15875Y230653D02*
X-15875Y273050D01*
X-15875Y230653D02*
X-30604Y215924D01*
X-30604Y207968D01*
X-40726Y197846D01*
X-40726Y192392D01*
X-43901Y189217D01*
X-15875Y273050D02*
X-25400Y282575D01*
D19*
X33488Y214300D02*
X49238Y198550D01*
X33488Y214300D02*
X33488Y214313D01*
X77938Y182563D02*
X80988Y185613D01*
X80988Y198550D01*
X-39713Y136413D02*
X-42713Y139413D01*
X-42713Y152400D01*
X-71463Y155400D02*
X-71463Y142763D01*
X-71463Y155400D02*
X-69850Y157013D01*
X37813Y149375D02*
X42838Y144350D01*
X31877Y154855D02*
X12623Y154855D01*
X7938Y150170D01*
X7938Y149375D01*
X37357Y149375D02*
X37813Y149375D01*
X37357Y149375D02*
X31877Y154855D01*
D22*
X-95250Y201750D02*
X-104750Y211250D01*
X-95250Y201750D02*
X-95250Y195413D01*
D23*
X-65063Y198613D02*
X-65063Y209663D01*
X-65063Y198613D02*
X-66675Y197000D01*
D19*
X82700Y157163D02*
X85738Y142725D01*
X85700Y142763D01*
X-38925Y262113D02*
X-51800Y249238D01*
X-38925Y262113D02*
X-24810Y262113D01*
D20*
X-24810Y262113D03*
D19*
X77200Y249238D02*
X77200Y237688D01*
X76200Y236688D01*
X102600Y237275D02*
X103188Y236688D01*
X102600Y237275D02*
X102600Y249238D01*
D20*
X-52388Y71438D03*
D19*
X31855Y73025D02*
X33618Y71262D01*
D20*
X33618Y71262D03*
D19*
X-50800Y73025D02*
X-52388Y71438D01*
X-50800Y73025D02*
X31855Y73025D01*
X-53238Y98275D02*
X-61913Y98275D01*
X-53238Y98275D02*
X-51800Y96838D01*
X-73432Y96838D02*
X-77200Y96838D01*
X-73432Y96838D02*
X-62815Y86220D01*
X24400Y93843D02*
X24400Y96838D01*
X24400Y93843D02*
X16777Y86220D01*
X-62815Y86220D01*
X-77200Y96838D02*
X-77350Y96688D01*
X-87313Y96688D01*
X-438Y96275D02*
X7938Y96275D01*
X-438Y96275D02*
X-1000Y96838D01*
D20*
X-27952Y109713D03*
D19*
X-4145Y96838D02*
X-1000Y96838D01*
X-4145Y96838D02*
X-17020Y109713D01*
X-27952Y109713D01*
D23*
X7938Y96275D02*
X12700Y101038D01*
X12700Y107800D01*
D19*
X-48467Y261202D02*
X-38913Y270756D01*
X-90635Y261202D02*
X-102600Y249238D01*
X-38913Y270756D02*
X-38913Y284796D01*
X-26846Y296863D01*
X-48467Y261202D02*
X-90635Y261202D01*
X26846Y296863D02*
X42275Y281433D01*
X42275Y258763D01*
X51800Y249238D01*
X26846Y296863D02*
X-26846Y296863D01*
X-102750Y249388D02*
X-112713Y249388D01*
X-102750Y249388D02*
X-102600Y249238D01*
X49800Y96838D02*
X33925Y80963D01*
X-116650Y80963D01*
X-119329Y83642D02*
X-119329Y102236D01*
X-119329Y83642D02*
X-116650Y80963D01*
X-68263Y247800D02*
X-69700Y249238D01*
X-77200Y249238D01*
X-77200Y175620D01*
X-100950Y151870D01*
X-100950Y138243D02*
X-100663Y137956D01*
X-100950Y138243D02*
X-100950Y151870D01*
X-100663Y120902D02*
X-119329Y102236D01*
X-100663Y120902D02*
X-100663Y137956D01*
D20*
X-44555Y63884D03*
D19*
X2933Y63884D02*
X19204Y47612D01*
X2933Y63884D02*
X-44555Y63884D01*
X79598Y86220D02*
X85817Y92440D01*
X85817Y98367D01*
X93663Y106213D01*
X79598Y86220D02*
X65275Y86220D01*
D23*
X62721Y86220D01*
X45362Y68862D02*
X45362Y66397D01*
X36462Y57497D02*
X36462Y54156D01*
X29918Y47612D02*
X19204Y47612D01*
X45362Y68862D02*
X62721Y86220D01*
X45362Y66397D02*
X36462Y57497D01*
X36462Y54156D02*
X29918Y47612D01*
D22*
X93663Y103775D02*
X93663Y106213D01*
X93663Y103775D02*
X100600Y96838D01*
D20*
X25050Y225425D03*
D19*
X10763Y225425D01*
X1000Y235188D01*
X1000Y249238D01*
D20*
X46038Y225542D03*
D19*
X32454Y239126D01*
X27691Y239126D01*
D22*
X26400Y240417D01*
X26400Y249238D01*
D20*
X-39594Y34861D03*
D24*
X-71532Y49148D02*
X-71551Y49167D01*
X-53882Y49148D02*
X-39594Y34861D01*
X-53882Y49148D02*
X-71532Y49148D01*
X137253Y167269D02*
X140567Y170583D01*
X143051Y173067D01*
D20*
X135621Y142997D03*
D24*
X135621Y165637D01*
X137253Y167269D01*
D20*
X-52285Y277710D03*
D24*
X-52294Y277710D02*
X-71550Y296966D01*
X-52294Y277710D02*
X-52285Y277710D01*
D20*
X-127000Y136525D03*
D24*
X-143051Y152576D01*
X-143051Y173008D01*
D20*
X28575Y32455D03*
D24*
X44836Y32455D01*
X68638Y46197D01*
X71550Y49109D01*
D19*
X-58700Y234800D02*
X-68263Y234800D01*
X-58700Y234800D02*
X-55563Y231663D01*
X-95250Y233250D02*
X-109575Y233250D01*
X-112713Y236388D01*
X31788Y120800D02*
X33338Y122350D01*
X31788Y120800D02*
X12700Y120800D01*
X-80963Y116038D02*
X-87313Y109688D01*
X-80963Y116038D02*
X-80963Y120763D01*
X-61913Y111275D02*
X-52350Y111275D01*
X-49213Y114413D01*
X90488Y220550D02*
X93625Y223688D01*
X103188Y223688D01*
X61875Y223688D02*
X58738Y220550D01*
X61875Y223688D02*
X76200Y223688D01*
X76200Y120763D02*
X77750Y119213D01*
X93663Y119213D01*
D20*
X88716Y271999D03*
D24*
X71551Y289164D01*
X71551Y296908D01*
M02*
