G04 EAGLE Gerber RS-274X export*
G75*
%MOMM*%
%FSLAX34Y34*%
%LPD*%
%INBottom Copper*%
%IPPOS*%
%AMOC8*
5,1,8,0,0,1.08239X$1,22.5*%
G01*
%ADD10R,1.399997X0.400000*%
%ADD11P,1.649562X8X22.500000*%
%ADD12R,0.700000X0.900000*%
%ADD13R,0.900000X0.700000*%
%ADD14R,1.100000X1.000000*%
%ADD15R,1.500000X1.300000*%
%ADD16C,1.524000*%
%ADD17C,1.000000*%
%ADD18C,1.422400*%
%ADD19R,1.400000X1.000000*%
%ADD20R,0.550000X0.300000*%
%ADD21R,0.300000X0.550000*%
%ADD22R,5.600000X5.600000*%
%ADD23C,0.292100*%
%ADD24C,0.508000*%
%ADD25C,0.406400*%
%ADD26C,0.756400*%
%ADD27C,0.609600*%
%ADD28C,0.304800*%
%ADD29C,0.254000*%
%ADD30C,0.299719*%

G36*
X18Y-656D02*
X18Y-656D01*
X96Y-657D01*
X119Y-648D01*
X139Y-646D01*
X178Y-626D01*
X252Y-599D01*
X16706Y8901D01*
X16728Y8920D01*
X16753Y8932D01*
X16788Y8970D01*
X16791Y8972D01*
X16794Y8977D01*
X16801Y8985D01*
X16855Y9033D01*
X16867Y9059D01*
X16886Y9080D01*
X16910Y9148D01*
X16941Y9212D01*
X16942Y9241D01*
X16952Y9268D01*
X16947Y9339D01*
X16950Y9411D01*
X16940Y9438D01*
X16938Y9466D01*
X16895Y9558D01*
X16881Y9597D01*
X16873Y9605D01*
X16868Y9617D01*
X16461Y10208D01*
X32956Y19731D01*
X33067Y19815D01*
X33180Y19896D01*
X33193Y19911D01*
X33209Y19923D01*
X33296Y20032D01*
X33385Y20138D01*
X33394Y20157D01*
X33407Y20173D01*
X33464Y20300D01*
X33524Y20425D01*
X33528Y20444D01*
X33536Y20463D01*
X33560Y20600D01*
X33587Y20736D01*
X33586Y20757D01*
X33589Y20777D01*
X33578Y20915D01*
X33571Y21054D01*
X33565Y21073D01*
X33563Y21094D01*
X33517Y21225D01*
X33476Y21358D01*
X33465Y21375D01*
X33459Y21394D01*
X33382Y21510D01*
X33309Y21628D01*
X33294Y21642D01*
X33283Y21659D01*
X33179Y21752D01*
X33079Y21848D01*
X33062Y21858D01*
X33047Y21872D01*
X32924Y21936D01*
X32802Y22005D01*
X32776Y22014D01*
X32765Y22019D01*
X32745Y22024D01*
X32650Y22056D01*
X32387Y22127D01*
X32302Y22138D01*
X32219Y22160D01*
X32083Y22168D01*
X32072Y22170D01*
X32068Y22169D01*
X32059Y22170D01*
X22444Y22170D01*
X6273Y38341D01*
X6273Y58520D01*
X6300Y58570D01*
X6338Y58618D01*
X6377Y58709D01*
X6425Y58795D01*
X6440Y58854D01*
X6464Y58910D01*
X6479Y59008D01*
X6504Y59103D01*
X6511Y59203D01*
X6514Y59224D01*
X6513Y59236D01*
X6514Y59264D01*
X6514Y66219D01*
X8791Y68496D01*
X25872Y85577D01*
X25958Y85687D01*
X26046Y85794D01*
X26055Y85812D01*
X26067Y85828D01*
X26123Y85956D01*
X26182Y86081D01*
X26186Y86101D01*
X26194Y86120D01*
X26216Y86258D01*
X26242Y86394D01*
X26240Y86414D01*
X26243Y86434D01*
X26230Y86573D01*
X26222Y86711D01*
X26216Y86730D01*
X26214Y86751D01*
X26166Y86882D01*
X26124Y87014D01*
X26113Y87031D01*
X26106Y87050D01*
X26028Y87165D01*
X25954Y87282D01*
X25939Y87296D01*
X25927Y87313D01*
X25823Y87405D01*
X25722Y87500D01*
X25704Y87510D01*
X25689Y87524D01*
X25565Y87587D01*
X25443Y87654D01*
X25424Y87659D01*
X25406Y87668D01*
X25270Y87699D01*
X25136Y87733D01*
X25107Y87735D01*
X25095Y87738D01*
X25075Y87737D01*
X24975Y87744D01*
X22591Y87744D01*
X19249Y89128D01*
X16691Y91686D01*
X15306Y95029D01*
X15306Y98646D01*
X16691Y101989D01*
X19249Y104547D01*
X20332Y104996D01*
X20375Y105020D01*
X20422Y105037D01*
X20513Y105099D01*
X20608Y105153D01*
X20644Y105188D01*
X20685Y105216D01*
X20758Y105298D01*
X20837Y105375D01*
X20863Y105417D01*
X20896Y105454D01*
X20946Y105552D01*
X21003Y105646D01*
X21018Y105693D01*
X21040Y105737D01*
X21064Y105845D01*
X21097Y105950D01*
X21099Y105999D01*
X21110Y106048D01*
X21107Y106158D01*
X21112Y106267D01*
X21102Y106316D01*
X21100Y106366D01*
X21070Y106471D01*
X21048Y106579D01*
X21026Y106624D01*
X21012Y106671D01*
X20956Y106765D01*
X20908Y106864D01*
X20876Y106902D01*
X20850Y106945D01*
X20744Y107066D01*
X11088Y116721D01*
X11088Y120373D01*
X11076Y120472D01*
X11073Y120571D01*
X11065Y120597D01*
X11064Y120612D01*
X11054Y120643D01*
X11049Y120689D01*
X11012Y120781D01*
X10985Y120876D01*
X10972Y120898D01*
X10966Y120915D01*
X10947Y120945D01*
X10932Y120985D01*
X10873Y121065D01*
X10823Y121150D01*
X10802Y121174D01*
X10796Y121183D01*
X10782Y121196D01*
X10757Y121226D01*
X10745Y121242D01*
X10735Y121250D01*
X10717Y121271D01*
X10609Y121379D01*
X10609Y128521D01*
X11770Y129682D01*
X29386Y129682D01*
X29505Y129697D01*
X29623Y129704D01*
X29662Y129717D01*
X29702Y129722D01*
X29813Y129766D01*
X29926Y129802D01*
X29960Y129824D01*
X29998Y129839D01*
X30094Y129909D01*
X30194Y129972D01*
X30222Y130002D01*
X30255Y130026D01*
X30331Y130117D01*
X30412Y130204D01*
X30432Y130239D01*
X30458Y130271D01*
X30508Y130378D01*
X30566Y130483D01*
X30576Y130522D01*
X30593Y130558D01*
X30616Y130675D01*
X30645Y130790D01*
X30649Y130851D01*
X30653Y130871D01*
X30652Y130891D01*
X30656Y130951D01*
X30656Y186549D01*
X30641Y186667D01*
X30633Y186786D01*
X30621Y186824D01*
X30616Y186864D01*
X30572Y186975D01*
X30535Y187088D01*
X30514Y187122D01*
X30499Y187160D01*
X30429Y187256D01*
X30365Y187357D01*
X30336Y187385D01*
X30312Y187417D01*
X30220Y187493D01*
X30133Y187575D01*
X30098Y187594D01*
X30067Y187620D01*
X29959Y187671D01*
X29855Y187728D01*
X29816Y187739D01*
X29779Y187756D01*
X29662Y187778D01*
X29547Y187808D01*
X29487Y187812D01*
X29467Y187816D01*
X29447Y187814D01*
X29386Y187818D01*
X6769Y187818D01*
X5608Y188979D01*
X5608Y196401D01*
X5612Y196429D01*
X5637Y196525D01*
X5643Y196625D01*
X5646Y196645D01*
X5645Y196658D01*
X5647Y196686D01*
X5647Y199863D01*
X5635Y199961D01*
X5632Y200060D01*
X5615Y200118D01*
X5607Y200178D01*
X5571Y200270D01*
X5543Y200366D01*
X5512Y200418D01*
X5490Y200474D01*
X5432Y200554D01*
X5382Y200640D01*
X5315Y200715D01*
X5303Y200731D01*
X5294Y200739D01*
X5275Y200760D01*
X5062Y200973D01*
X4185Y203092D01*
X4185Y205385D01*
X4932Y207188D01*
X4945Y207236D01*
X4966Y207281D01*
X4987Y207389D01*
X5016Y207495D01*
X5017Y207545D01*
X5026Y207593D01*
X5019Y207703D01*
X5021Y207813D01*
X5009Y207861D01*
X5006Y207911D01*
X4972Y208015D01*
X4947Y208122D01*
X4924Y208166D01*
X4908Y208213D01*
X4850Y208306D01*
X4798Y208403D01*
X4765Y208440D01*
X4738Y208482D01*
X4658Y208557D01*
X4584Y208639D01*
X4543Y208666D01*
X4506Y208700D01*
X4410Y208753D01*
X4318Y208813D01*
X4271Y208829D01*
X4228Y208853D01*
X4122Y208881D01*
X4018Y208917D01*
X3968Y208920D01*
X3920Y208933D01*
X3759Y208943D01*
X3404Y208943D01*
X2243Y210104D01*
X2243Y221746D01*
X3404Y222907D01*
X18017Y222907D01*
X18135Y222922D01*
X18254Y222929D01*
X18293Y222942D01*
X18333Y222947D01*
X18443Y222991D01*
X18557Y223027D01*
X18591Y223049D01*
X18628Y223064D01*
X18725Y223134D01*
X18825Y223197D01*
X18853Y223227D01*
X18886Y223251D01*
X18962Y223342D01*
X19043Y223429D01*
X19063Y223464D01*
X19089Y223496D01*
X19139Y223603D01*
X19197Y223708D01*
X19207Y223747D01*
X19224Y223783D01*
X19246Y223900D01*
X19276Y224015D01*
X19280Y224076D01*
X19284Y224096D01*
X19283Y224116D01*
X19286Y224176D01*
X19286Y226572D01*
X20164Y228690D01*
X21785Y230311D01*
X24135Y231285D01*
X24163Y231293D01*
X24215Y231324D01*
X24272Y231346D01*
X24352Y231404D01*
X24437Y231454D01*
X24512Y231521D01*
X24529Y231533D01*
X24537Y231542D01*
X24558Y231561D01*
X25404Y232407D01*
X41046Y232407D01*
X42351Y231102D01*
X42374Y231084D01*
X42393Y231062D01*
X42499Y230987D01*
X42602Y230907D01*
X42629Y230895D01*
X42653Y230878D01*
X42775Y230832D01*
X42894Y230781D01*
X42923Y230776D01*
X42951Y230766D01*
X43080Y230751D01*
X43208Y230731D01*
X43237Y230734D01*
X43267Y230730D01*
X43395Y230749D01*
X43525Y230761D01*
X43552Y230771D01*
X43582Y230775D01*
X43734Y230827D01*
X44891Y231306D01*
X47184Y231306D01*
X49302Y230429D01*
X50924Y228807D01*
X51206Y228127D01*
X51220Y228101D01*
X51229Y228073D01*
X51299Y227963D01*
X51363Y227851D01*
X51384Y227830D01*
X51400Y227805D01*
X51494Y227715D01*
X51585Y227622D01*
X51610Y227607D01*
X51631Y227587D01*
X51745Y227524D01*
X51856Y227456D01*
X51884Y227447D01*
X51910Y227433D01*
X52035Y227401D01*
X52160Y227362D01*
X52189Y227361D01*
X52218Y227354D01*
X52378Y227343D01*
X84886Y227343D01*
X85005Y227358D01*
X85123Y227366D01*
X85162Y227378D01*
X85202Y227383D01*
X85313Y227427D01*
X85426Y227464D01*
X85460Y227485D01*
X85498Y227500D01*
X85594Y227570D01*
X85694Y227634D01*
X85722Y227663D01*
X85755Y227687D01*
X85831Y227779D01*
X85912Y227866D01*
X85932Y227901D01*
X85958Y227932D01*
X86008Y228040D01*
X86066Y228144D01*
X86076Y228183D01*
X86093Y228220D01*
X86116Y228337D01*
X86145Y228452D01*
X86149Y228512D01*
X86153Y228532D01*
X86152Y228552D01*
X86156Y228613D01*
X86156Y229658D01*
X87317Y230819D01*
X102958Y230819D01*
X104119Y229658D01*
X104119Y218017D01*
X102958Y216856D01*
X87317Y216856D01*
X86156Y218017D01*
X86156Y219062D01*
X86141Y219181D01*
X86133Y219299D01*
X86121Y219338D01*
X86116Y219378D01*
X86072Y219489D01*
X86035Y219602D01*
X86014Y219636D01*
X85999Y219674D01*
X85929Y219770D01*
X85865Y219870D01*
X85836Y219898D01*
X85812Y219931D01*
X85720Y220007D01*
X85633Y220088D01*
X85598Y220108D01*
X85567Y220134D01*
X85459Y220184D01*
X85355Y220242D01*
X85316Y220252D01*
X85279Y220269D01*
X85162Y220292D01*
X85047Y220321D01*
X84987Y220325D01*
X84967Y220329D01*
X84947Y220328D01*
X84886Y220332D01*
X83389Y220332D01*
X83270Y220317D01*
X83152Y220309D01*
X83113Y220297D01*
X83073Y220292D01*
X82962Y220248D01*
X82849Y220211D01*
X82815Y220190D01*
X82777Y220175D01*
X82681Y220105D01*
X82581Y220041D01*
X82553Y220012D01*
X82520Y219988D01*
X82444Y219896D01*
X82363Y219809D01*
X82343Y219774D01*
X82317Y219743D01*
X82267Y219635D01*
X82209Y219531D01*
X82199Y219492D01*
X82182Y219455D01*
X82159Y219338D01*
X82130Y219223D01*
X82126Y219163D01*
X82122Y219143D01*
X82123Y219123D01*
X82119Y219062D01*
X82119Y208517D01*
X80958Y207356D01*
X68076Y207356D01*
X67958Y207341D01*
X67839Y207333D01*
X67801Y207321D01*
X67761Y207316D01*
X67650Y207272D01*
X67537Y207235D01*
X67503Y207214D01*
X67465Y207199D01*
X67369Y207129D01*
X67268Y207065D01*
X67240Y207036D01*
X67208Y207012D01*
X67132Y206920D01*
X67050Y206833D01*
X67031Y206798D01*
X67005Y206767D01*
X66954Y206659D01*
X66897Y206555D01*
X66886Y206516D01*
X66869Y206479D01*
X66847Y206362D01*
X66817Y206247D01*
X66813Y206187D01*
X66809Y206167D01*
X66811Y206147D01*
X66807Y206086D01*
X66807Y197142D01*
X65646Y195981D01*
X58182Y195981D01*
X58084Y195968D01*
X57985Y195965D01*
X57927Y195948D01*
X57867Y195941D01*
X57775Y195904D01*
X57680Y195877D01*
X57627Y195846D01*
X57571Y195824D01*
X57491Y195766D01*
X57406Y195715D01*
X57330Y195649D01*
X57314Y195637D01*
X57306Y195627D01*
X57285Y195609D01*
X56800Y195124D01*
X56715Y195014D01*
X56626Y194907D01*
X56617Y194888D01*
X56605Y194872D01*
X56549Y194744D01*
X56490Y194619D01*
X56487Y194599D01*
X56478Y194581D01*
X56456Y194442D01*
X56431Y194307D01*
X56432Y194287D01*
X56429Y194266D01*
X56442Y194128D01*
X56450Y193989D01*
X56456Y193970D01*
X56458Y193950D01*
X56505Y193819D01*
X56548Y193687D01*
X56559Y193670D01*
X56566Y193651D01*
X56644Y193536D01*
X56718Y193418D01*
X56733Y193404D01*
X56745Y193387D01*
X56849Y193295D01*
X56950Y193200D01*
X56968Y193190D01*
X56983Y193177D01*
X57107Y193114D01*
X57229Y193047D01*
X57248Y193042D01*
X57266Y193032D01*
X57402Y193002D01*
X57537Y192967D01*
X57565Y192965D01*
X57577Y192963D01*
X57597Y192963D01*
X57697Y192957D01*
X68624Y192957D01*
X68742Y192972D01*
X68861Y192979D01*
X68899Y192992D01*
X68939Y192997D01*
X69050Y193041D01*
X69163Y193077D01*
X69197Y193099D01*
X69235Y193114D01*
X69331Y193184D01*
X69432Y193247D01*
X69460Y193277D01*
X69492Y193301D01*
X69568Y193392D01*
X69650Y193479D01*
X69669Y193514D01*
X69695Y193546D01*
X69746Y193653D01*
X69803Y193758D01*
X69814Y193797D01*
X69831Y193833D01*
X69853Y193950D01*
X69883Y194065D01*
X69887Y194126D01*
X69891Y194146D01*
X69889Y194166D01*
X69893Y194226D01*
X69893Y197796D01*
X71054Y198957D01*
X101983Y198957D01*
X103144Y197796D01*
X103144Y183154D01*
X101863Y181873D01*
X101790Y181778D01*
X101711Y181689D01*
X101693Y181653D01*
X101668Y181621D01*
X101621Y181512D01*
X101567Y181406D01*
X101558Y181367D01*
X101542Y181329D01*
X101523Y181212D01*
X101497Y181096D01*
X101498Y181055D01*
X101492Y181015D01*
X101503Y180897D01*
X101507Y180778D01*
X101518Y180739D01*
X101522Y180699D01*
X101562Y180586D01*
X101595Y180472D01*
X101615Y180438D01*
X101629Y180399D01*
X101696Y180301D01*
X101756Y180198D01*
X101796Y180153D01*
X101808Y180136D01*
X101823Y180123D01*
X101863Y180078D01*
X103144Y178796D01*
X103144Y164154D01*
X101983Y162993D01*
X99826Y162993D01*
X99708Y162978D01*
X99589Y162971D01*
X99551Y162958D01*
X99511Y162953D01*
X99400Y162909D01*
X99287Y162873D01*
X99253Y162851D01*
X99215Y162836D01*
X99119Y162766D01*
X99018Y162703D01*
X98990Y162673D01*
X98958Y162649D01*
X98882Y162558D01*
X98800Y162471D01*
X98781Y162436D01*
X98755Y162404D01*
X98704Y162297D01*
X98647Y162192D01*
X98636Y162153D01*
X98619Y162117D01*
X98597Y162000D01*
X98567Y161885D01*
X98563Y161824D01*
X98559Y161804D01*
X98561Y161784D01*
X98557Y161724D01*
X98557Y156167D01*
X97396Y155006D01*
X86754Y155006D01*
X85593Y156167D01*
X85593Y161724D01*
X85578Y161842D01*
X85571Y161961D01*
X85558Y161999D01*
X85553Y162039D01*
X85509Y162150D01*
X85473Y162263D01*
X85451Y162297D01*
X85436Y162335D01*
X85366Y162431D01*
X85303Y162532D01*
X85273Y162560D01*
X85249Y162592D01*
X85158Y162668D01*
X85071Y162750D01*
X85036Y162769D01*
X85004Y162795D01*
X84897Y162846D01*
X84792Y162903D01*
X84753Y162914D01*
X84717Y162931D01*
X84600Y162953D01*
X84485Y162983D01*
X84424Y162987D01*
X84404Y162991D01*
X84384Y162989D01*
X84324Y162993D01*
X71054Y162993D01*
X69893Y164154D01*
X69893Y166192D01*
X69878Y166310D01*
X69871Y166429D01*
X69858Y166467D01*
X69853Y166507D01*
X69809Y166618D01*
X69773Y166731D01*
X69751Y166765D01*
X69736Y166803D01*
X69666Y166899D01*
X69603Y167000D01*
X69573Y167028D01*
X69549Y167060D01*
X69458Y167136D01*
X69371Y167218D01*
X69336Y167237D01*
X69304Y167263D01*
X69197Y167314D01*
X69092Y167371D01*
X69053Y167382D01*
X69017Y167399D01*
X68900Y167421D01*
X68785Y167451D01*
X68724Y167455D01*
X68704Y167459D01*
X68684Y167457D01*
X68624Y167461D01*
X68012Y167461D01*
X66852Y168621D01*
X66774Y168682D01*
X66702Y168750D01*
X66649Y168779D01*
X66601Y168816D01*
X66510Y168856D01*
X66423Y168903D01*
X66365Y168919D01*
X66309Y168943D01*
X66211Y168958D01*
X66115Y168983D01*
X66015Y168989D01*
X65995Y168992D01*
X65983Y168991D01*
X65955Y168993D01*
X57062Y168993D01*
X56964Y168981D01*
X56865Y168978D01*
X56807Y168961D01*
X56747Y168953D01*
X56654Y168917D01*
X56559Y168889D01*
X56507Y168858D01*
X56451Y168836D01*
X56371Y168778D01*
X56285Y168728D01*
X56210Y168661D01*
X56194Y168649D01*
X56186Y168640D01*
X56165Y168621D01*
X53329Y165786D01*
X53244Y165676D01*
X53156Y165569D01*
X53147Y165551D01*
X53134Y165535D01*
X53079Y165407D01*
X53020Y165281D01*
X53016Y165262D01*
X53008Y165243D01*
X52986Y165105D01*
X52960Y164969D01*
X52961Y164949D01*
X52958Y164929D01*
X52971Y164790D01*
X52980Y164652D01*
X52986Y164633D01*
X52988Y164612D01*
X53035Y164481D01*
X53078Y164349D01*
X53089Y164332D01*
X53096Y164313D01*
X53174Y164197D01*
X53248Y164081D01*
X53263Y164067D01*
X53274Y164050D01*
X53378Y163958D01*
X53480Y163863D01*
X53498Y163853D01*
X53513Y163839D01*
X53637Y163776D01*
X53758Y163709D01*
X53778Y163704D01*
X53796Y163695D01*
X53932Y163664D01*
X54066Y163630D01*
X54094Y163628D01*
X54106Y163625D01*
X54127Y163626D01*
X54227Y163619D01*
X64971Y163619D01*
X66132Y162458D01*
X66132Y156817D01*
X64971Y155656D01*
X58293Y155656D01*
X58195Y155643D01*
X58096Y155640D01*
X58037Y155623D01*
X57977Y155616D01*
X57885Y155579D01*
X57790Y155552D01*
X57738Y155521D01*
X57682Y155499D01*
X57601Y155441D01*
X57516Y155390D01*
X57441Y155324D01*
X57424Y155312D01*
X57416Y155302D01*
X57395Y155284D01*
X51748Y149637D01*
X50676Y149637D01*
X50578Y149624D01*
X50479Y149621D01*
X50421Y149605D01*
X50360Y149597D01*
X50268Y149560D01*
X50173Y149533D01*
X50121Y149502D01*
X50065Y149480D01*
X49985Y149422D01*
X49899Y149371D01*
X49824Y149305D01*
X49807Y149293D01*
X49800Y149284D01*
X49779Y149265D01*
X49049Y148535D01*
X48975Y148441D01*
X48897Y148352D01*
X48878Y148316D01*
X48854Y148284D01*
X48806Y148174D01*
X48752Y148068D01*
X48743Y148029D01*
X48727Y147992D01*
X48709Y147874D01*
X48683Y147758D01*
X48684Y147718D01*
X48677Y147678D01*
X48689Y147559D01*
X48692Y147440D01*
X48703Y147401D01*
X48707Y147361D01*
X48748Y147249D01*
X48781Y147135D01*
X48801Y147100D01*
X48815Y147062D01*
X48882Y146963D01*
X48942Y146861D01*
X48982Y146816D01*
X48993Y146799D01*
X49009Y146785D01*
X49049Y146740D01*
X49779Y146010D01*
X49857Y145949D01*
X49929Y145881D01*
X49982Y145852D01*
X50030Y145815D01*
X50121Y145776D01*
X50207Y145728D01*
X50266Y145713D01*
X50322Y145689D01*
X50420Y145673D01*
X50515Y145648D01*
X50615Y145642D01*
X50636Y145639D01*
X50648Y145640D01*
X50676Y145638D01*
X51748Y145638D01*
X57395Y139991D01*
X57474Y139930D01*
X57546Y139863D01*
X57599Y139833D01*
X57647Y139796D01*
X57737Y139757D01*
X57824Y139709D01*
X57883Y139694D01*
X57938Y139670D01*
X58036Y139654D01*
X58132Y139630D01*
X58232Y139623D01*
X58252Y139620D01*
X58265Y139621D01*
X58293Y139619D01*
X64971Y139619D01*
X66132Y138458D01*
X66132Y134348D01*
X66136Y134319D01*
X66133Y134289D01*
X66155Y134161D01*
X66172Y134032D01*
X66183Y134005D01*
X66188Y133976D01*
X66241Y133857D01*
X66289Y133737D01*
X66306Y133713D01*
X66318Y133686D01*
X66399Y133584D01*
X66476Y133479D01*
X66498Y133461D01*
X66517Y133437D01*
X66621Y133359D01*
X66721Y133277D01*
X66747Y133264D01*
X66771Y133246D01*
X66915Y133175D01*
X68102Y132684D01*
X69139Y131647D01*
X69248Y131562D01*
X69356Y131473D01*
X69374Y131464D01*
X69390Y131452D01*
X69518Y131397D01*
X69643Y131337D01*
X69663Y131334D01*
X69682Y131326D01*
X69820Y131304D01*
X69956Y131278D01*
X69976Y131279D01*
X69996Y131276D01*
X70135Y131289D01*
X70273Y131297D01*
X70292Y131304D01*
X70313Y131306D01*
X70444Y131353D01*
X70576Y131395D01*
X70593Y131406D01*
X70612Y131413D01*
X70727Y131491D01*
X70844Y131566D01*
X70858Y131580D01*
X70875Y131592D01*
X70967Y131696D01*
X71062Y131797D01*
X71072Y131815D01*
X71086Y131830D01*
X71149Y131954D01*
X71216Y132076D01*
X71221Y132095D01*
X71230Y132113D01*
X71261Y132249D01*
X71295Y132384D01*
X71297Y132412D01*
X71300Y132424D01*
X71299Y132444D01*
X71306Y132544D01*
X71306Y137521D01*
X72467Y138682D01*
X83108Y138682D01*
X84269Y137521D01*
X84269Y128879D01*
X83108Y127718D01*
X77430Y127718D01*
X77332Y127706D01*
X77233Y127703D01*
X77175Y127686D01*
X77115Y127678D01*
X77023Y127642D01*
X76928Y127614D01*
X76875Y127583D01*
X76819Y127561D01*
X76739Y127503D01*
X76654Y127453D01*
X76578Y127386D01*
X76562Y127374D01*
X76554Y127365D01*
X76533Y127346D01*
X75369Y126183D01*
X75284Y126074D01*
X75195Y125966D01*
X75187Y125948D01*
X75174Y125932D01*
X75119Y125804D01*
X75060Y125678D01*
X75056Y125658D01*
X75048Y125640D01*
X75026Y125502D01*
X75000Y125366D01*
X75001Y125346D01*
X74998Y125326D01*
X75011Y125187D01*
X75020Y125049D01*
X75026Y125029D01*
X75028Y125009D01*
X75075Y124878D01*
X75118Y124746D01*
X75129Y124729D01*
X75136Y124710D01*
X75214Y124595D01*
X75288Y124477D01*
X75303Y124463D01*
X75314Y124447D01*
X75418Y124355D01*
X75520Y124259D01*
X75537Y124250D01*
X75553Y124236D01*
X75676Y124173D01*
X75798Y124106D01*
X75818Y124101D01*
X75836Y124092D01*
X75972Y124061D01*
X76106Y124026D01*
X76134Y124025D01*
X76146Y124022D01*
X76167Y124023D01*
X76267Y124016D01*
X107621Y124016D01*
X107719Y124029D01*
X107818Y124032D01*
X107876Y124048D01*
X107936Y124056D01*
X108028Y124092D01*
X108124Y124120D01*
X108176Y124151D01*
X108232Y124173D01*
X108312Y124231D01*
X108397Y124282D01*
X108473Y124348D01*
X108489Y124360D01*
X108497Y124369D01*
X108518Y124388D01*
X120443Y136312D01*
X120503Y136391D01*
X120571Y136463D01*
X120600Y136516D01*
X120638Y136564D01*
X120677Y136654D01*
X120725Y136741D01*
X120740Y136800D01*
X120764Y136855D01*
X120779Y136953D01*
X120804Y137049D01*
X120811Y137149D01*
X120814Y137169D01*
X120813Y137182D01*
X120814Y137210D01*
X120814Y147067D01*
X120802Y147165D01*
X120799Y147264D01*
X120782Y147322D01*
X120775Y147383D01*
X120738Y147475D01*
X120711Y147570D01*
X120680Y147622D01*
X120658Y147678D01*
X120599Y147758D01*
X120549Y147844D01*
X120483Y147919D01*
X120471Y147936D01*
X120461Y147943D01*
X120443Y147965D01*
X113382Y155025D01*
X111106Y157302D01*
X111106Y241818D01*
X111088Y241956D01*
X111075Y242094D01*
X111068Y242113D01*
X111066Y242134D01*
X111015Y242263D01*
X110968Y242394D01*
X110956Y242411D01*
X110949Y242429D01*
X110867Y242542D01*
X110789Y242657D01*
X110774Y242670D01*
X110762Y242687D01*
X110655Y242775D01*
X110550Y242867D01*
X110532Y242877D01*
X110517Y242889D01*
X110391Y242949D01*
X110267Y243012D01*
X110247Y243016D01*
X110229Y243025D01*
X110093Y243051D01*
X109957Y243082D01*
X109937Y243081D01*
X109917Y243085D01*
X109778Y243076D01*
X109639Y243072D01*
X109620Y243066D01*
X109599Y243065D01*
X109468Y243022D01*
X109334Y242984D01*
X109316Y242973D01*
X109297Y242967D01*
X109179Y242893D01*
X109060Y242822D01*
X109039Y242803D01*
X109028Y242797D01*
X109014Y242782D01*
X108939Y242716D01*
X107751Y241528D01*
X104409Y240144D01*
X100791Y240144D01*
X97449Y241528D01*
X94891Y244086D01*
X94534Y244948D01*
X94519Y244974D01*
X94510Y245002D01*
X94440Y245111D01*
X94376Y245224D01*
X94355Y245245D01*
X94340Y245270D01*
X94245Y245360D01*
X94155Y245453D01*
X94130Y245468D01*
X94108Y245488D01*
X93994Y245551D01*
X93884Y245619D01*
X93855Y245628D01*
X93830Y245642D01*
X93704Y245674D01*
X93580Y245713D01*
X93550Y245714D01*
X93522Y245721D01*
X93361Y245732D01*
X90763Y245732D01*
X88449Y248045D01*
X88410Y248076D01*
X88376Y248113D01*
X88285Y248173D01*
X88198Y248240D01*
X88152Y248260D01*
X88111Y248287D01*
X88007Y248323D01*
X87906Y248367D01*
X87857Y248374D01*
X87810Y248391D01*
X87700Y248399D01*
X87592Y248417D01*
X87542Y248412D01*
X87493Y248416D01*
X87385Y248397D01*
X87275Y248387D01*
X87228Y248370D01*
X87179Y248361D01*
X87079Y248316D01*
X86976Y248279D01*
X86935Y248251D01*
X86889Y248231D01*
X86804Y248162D01*
X86713Y248101D01*
X86680Y248063D01*
X86641Y248032D01*
X86575Y247945D01*
X86502Y247862D01*
X86480Y247818D01*
X86450Y247778D01*
X86379Y247634D01*
X84909Y244086D01*
X82351Y241528D01*
X79009Y240144D01*
X75391Y240144D01*
X72049Y241528D01*
X69491Y244086D01*
X68106Y247429D01*
X68106Y251046D01*
X68463Y251908D01*
X68471Y251937D01*
X68484Y251963D01*
X68488Y251979D01*
X68490Y251984D01*
X68498Y252025D01*
X68513Y252090D01*
X68547Y252215D01*
X68547Y252244D01*
X68554Y252273D01*
X68550Y252403D01*
X68552Y252533D01*
X68545Y252562D01*
X68544Y252591D01*
X68508Y252716D01*
X68478Y252842D01*
X68464Y252868D01*
X68456Y252897D01*
X68390Y253008D01*
X68329Y253123D01*
X68309Y253145D01*
X68294Y253171D01*
X68188Y253291D01*
X59978Y261502D01*
X59900Y261562D01*
X59827Y261630D01*
X59774Y261659D01*
X59727Y261696D01*
X59636Y261736D01*
X59549Y261784D01*
X59490Y261799D01*
X59435Y261823D01*
X59337Y261838D01*
X59241Y261863D01*
X59141Y261869D01*
X59121Y261873D01*
X59108Y261871D01*
X59080Y261873D01*
X-11218Y261873D01*
X-11316Y261861D01*
X-11415Y261858D01*
X-11473Y261841D01*
X-11533Y261833D01*
X-11625Y261797D01*
X-11720Y261769D01*
X-11773Y261739D01*
X-11829Y261716D01*
X-11909Y261658D01*
X-11994Y261608D01*
X-12070Y261542D01*
X-12086Y261530D01*
X-12094Y261520D01*
X-12115Y261502D01*
X-15010Y258607D01*
X-19639Y258607D01*
X-19737Y258594D01*
X-19836Y258591D01*
X-19895Y258575D01*
X-19955Y258567D01*
X-20047Y258530D01*
X-20142Y258503D01*
X-20194Y258472D01*
X-20250Y258450D01*
X-20330Y258392D01*
X-20416Y258341D01*
X-20491Y258275D01*
X-20508Y258263D01*
X-20516Y258254D01*
X-20537Y258235D01*
X-20639Y258132D01*
X-20712Y258038D01*
X-20791Y257949D01*
X-20809Y257913D01*
X-20834Y257881D01*
X-20882Y257772D01*
X-20936Y257666D01*
X-20944Y257627D01*
X-20961Y257589D01*
X-20979Y257472D01*
X-21005Y257356D01*
X-21004Y257315D01*
X-21010Y257275D01*
X-20999Y257157D01*
X-20996Y257038D01*
X-20984Y256999D01*
X-20981Y256959D01*
X-20940Y256846D01*
X-20907Y256732D01*
X-20887Y256697D01*
X-20873Y256659D01*
X-20806Y256561D01*
X-20746Y256458D01*
X-20706Y256413D01*
X-20694Y256396D01*
X-20679Y256383D01*
X-20639Y256337D01*
X-18691Y254389D01*
X-17306Y251046D01*
X-17306Y247429D01*
X-18691Y244086D01*
X-21249Y241528D01*
X-24591Y240144D01*
X-28209Y240144D01*
X-31551Y241528D01*
X-34109Y244086D01*
X-34244Y244412D01*
X-34279Y244473D01*
X-34305Y244537D01*
X-34357Y244610D01*
X-34402Y244688D01*
X-34451Y244738D01*
X-34491Y244795D01*
X-34561Y244852D01*
X-34623Y244917D01*
X-34683Y244953D01*
X-34736Y244998D01*
X-34818Y245036D01*
X-34894Y245083D01*
X-34961Y245103D01*
X-35024Y245133D01*
X-35112Y245150D01*
X-35198Y245177D01*
X-35268Y245180D01*
X-35337Y245193D01*
X-35426Y245187D01*
X-35516Y245192D01*
X-35584Y245178D01*
X-35654Y245173D01*
X-35739Y245146D01*
X-35827Y245127D01*
X-35890Y245097D01*
X-35956Y245075D01*
X-36032Y245027D01*
X-36113Y244988D01*
X-36166Y244942D01*
X-36225Y244905D01*
X-36287Y244840D01*
X-36355Y244781D01*
X-36395Y244724D01*
X-36443Y244673D01*
X-36486Y244595D01*
X-36538Y244521D01*
X-36563Y244456D01*
X-36597Y244395D01*
X-36619Y244308D01*
X-36651Y244224D01*
X-36659Y244155D01*
X-36676Y244087D01*
X-36686Y243926D01*
X-36686Y243211D01*
X-36674Y243113D01*
X-36671Y243014D01*
X-36654Y242956D01*
X-36646Y242896D01*
X-36610Y242804D01*
X-36582Y242709D01*
X-36552Y242656D01*
X-36529Y242600D01*
X-36471Y242520D01*
X-36421Y242435D01*
X-36355Y242359D01*
X-36343Y242343D01*
X-36333Y242335D01*
X-36315Y242314D01*
X-17141Y223141D01*
X-17063Y223080D01*
X-16991Y223012D01*
X-16938Y222983D01*
X-16890Y222946D01*
X-16799Y222906D01*
X-16712Y222858D01*
X-16654Y222843D01*
X-16598Y222819D01*
X-16500Y222804D01*
X-16405Y222779D01*
X-16304Y222773D01*
X-16284Y222769D01*
X-16272Y222771D01*
X-16244Y222769D01*
X-11330Y222769D01*
X-2656Y214095D01*
X-2656Y200221D01*
X-2669Y200207D01*
X-2698Y200154D01*
X-2736Y200106D01*
X-2775Y200015D01*
X-2823Y199929D01*
X-2838Y199870D01*
X-2862Y199814D01*
X-2878Y199716D01*
X-2902Y199621D01*
X-2909Y199521D01*
X-2912Y199500D01*
X-2911Y199488D01*
X-2912Y199460D01*
X-2912Y197126D01*
X-2900Y197028D01*
X-2897Y196929D01*
X-2880Y196871D01*
X-2873Y196811D01*
X-2836Y196719D01*
X-2809Y196624D01*
X-2778Y196572D01*
X-2756Y196515D01*
X-2697Y196435D01*
X-2647Y196350D01*
X-2581Y196274D01*
X-2569Y196258D01*
X-2559Y196250D01*
X-2541Y196229D01*
X-2433Y196121D01*
X-2433Y188979D01*
X-3594Y187818D01*
X-18237Y187818D01*
X-19398Y188979D01*
X-19398Y196401D01*
X-19394Y196429D01*
X-19369Y196525D01*
X-19363Y196625D01*
X-19360Y196645D01*
X-19361Y196658D01*
X-19359Y196686D01*
X-19359Y201661D01*
X-19363Y201690D01*
X-19360Y201720D01*
X-19381Y201839D01*
X-19381Y201844D01*
X-19383Y201848D01*
X-19399Y201977D01*
X-19410Y202004D01*
X-19415Y202033D01*
X-19468Y202152D01*
X-19516Y202272D01*
X-19533Y202296D01*
X-19545Y202323D01*
X-19626Y202425D01*
X-19703Y202530D01*
X-19725Y202548D01*
X-19744Y202572D01*
X-19848Y202650D01*
X-19948Y202732D01*
X-19974Y202745D01*
X-19998Y202763D01*
X-20142Y202834D01*
X-20728Y203076D01*
X-22349Y204698D01*
X-23226Y206816D01*
X-23226Y209109D01*
X-22319Y211299D01*
X-22312Y211314D01*
X-22287Y211345D01*
X-22240Y211455D01*
X-22186Y211561D01*
X-22177Y211600D01*
X-22161Y211637D01*
X-22142Y211755D01*
X-22116Y211871D01*
X-22117Y211912D01*
X-22111Y211951D01*
X-22122Y212070D01*
X-22126Y212189D01*
X-22137Y212228D01*
X-22141Y212268D01*
X-22181Y212380D01*
X-22214Y212495D01*
X-22234Y212529D01*
X-22248Y212567D01*
X-22315Y212666D01*
X-22376Y212769D01*
X-22415Y212814D01*
X-22427Y212830D01*
X-22442Y212844D01*
X-22482Y212889D01*
X-23613Y214020D01*
X-41033Y231440D01*
X-41111Y231501D01*
X-41183Y231569D01*
X-41236Y231598D01*
X-41284Y231635D01*
X-41375Y231674D01*
X-41461Y231722D01*
X-41520Y231737D01*
X-41576Y231761D01*
X-41674Y231777D01*
X-41769Y231802D01*
X-41869Y231808D01*
X-41890Y231811D01*
X-41902Y231810D01*
X-41930Y231812D01*
X-53848Y231812D01*
X-66870Y244833D01*
X-66876Y244845D01*
X-66909Y244928D01*
X-66950Y244985D01*
X-66982Y245046D01*
X-67043Y245113D01*
X-67096Y245185D01*
X-67150Y245230D01*
X-67196Y245282D01*
X-67271Y245331D01*
X-67341Y245388D01*
X-67404Y245418D01*
X-67462Y245456D01*
X-67547Y245486D01*
X-67628Y245524D01*
X-67697Y245537D01*
X-67763Y245560D01*
X-67852Y245567D01*
X-67941Y245584D01*
X-68010Y245579D01*
X-68080Y245585D01*
X-68168Y245569D01*
X-68258Y245564D01*
X-68324Y245542D01*
X-68393Y245530D01*
X-68475Y245493D01*
X-68561Y245466D01*
X-68620Y245429D01*
X-68683Y245400D01*
X-68753Y245344D01*
X-68829Y245296D01*
X-68877Y245245D01*
X-68932Y245201D01*
X-68986Y245130D01*
X-69047Y245064D01*
X-69081Y245003D01*
X-69123Y244947D01*
X-69194Y244803D01*
X-69491Y244086D01*
X-72049Y241528D01*
X-75391Y240144D01*
X-79009Y240144D01*
X-82351Y241528D01*
X-84909Y244086D01*
X-86294Y247429D01*
X-86294Y251046D01*
X-84909Y254389D01*
X-82351Y256947D01*
X-79009Y258331D01*
X-75391Y258331D01*
X-72049Y256947D01*
X-69491Y254389D01*
X-69194Y253672D01*
X-69159Y253612D01*
X-69134Y253547D01*
X-69081Y253474D01*
X-69036Y253396D01*
X-68988Y253346D01*
X-68947Y253290D01*
X-68877Y253232D01*
X-68815Y253168D01*
X-68756Y253131D01*
X-68702Y253087D01*
X-68621Y253048D01*
X-68544Y253001D01*
X-68477Y252981D01*
X-68414Y252951D01*
X-68326Y252934D01*
X-68240Y252908D01*
X-68170Y252904D01*
X-68102Y252891D01*
X-68012Y252897D01*
X-67922Y252893D01*
X-67854Y252907D01*
X-67784Y252911D01*
X-67699Y252939D01*
X-67611Y252957D01*
X-67548Y252988D01*
X-67482Y253009D01*
X-67406Y253057D01*
X-67325Y253097D01*
X-67272Y253142D01*
X-67213Y253179D01*
X-67151Y253245D01*
X-67083Y253303D01*
X-67043Y253360D01*
X-66995Y253411D01*
X-66952Y253490D01*
X-66900Y253563D01*
X-66875Y253628D01*
X-66842Y253689D01*
X-66819Y253777D01*
X-66787Y253860D01*
X-66780Y253930D01*
X-66762Y253997D01*
X-66752Y254158D01*
X-66752Y261643D01*
X-66764Y261741D01*
X-66767Y261840D01*
X-66784Y261898D01*
X-66792Y261959D01*
X-66828Y262051D01*
X-66856Y262146D01*
X-66887Y262198D01*
X-66909Y262254D01*
X-66967Y262334D01*
X-67017Y262420D01*
X-67084Y262495D01*
X-67096Y262512D01*
X-67105Y262519D01*
X-67124Y262541D01*
X-74802Y270219D01*
X-74802Y272099D01*
X-74803Y272107D01*
X-74802Y272114D01*
X-74823Y272264D01*
X-74842Y272415D01*
X-74844Y272422D01*
X-74845Y272429D01*
X-74903Y272570D01*
X-74959Y272711D01*
X-74963Y272716D01*
X-74966Y272723D01*
X-75056Y272845D01*
X-75146Y272968D01*
X-75151Y272973D01*
X-75156Y272978D01*
X-75274Y273074D01*
X-75391Y273171D01*
X-75397Y273174D01*
X-75403Y273178D01*
X-75542Y273242D01*
X-75678Y273306D01*
X-75685Y273308D01*
X-75692Y273311D01*
X-75795Y273329D01*
X-75818Y273344D01*
X-75948Y273431D01*
X-75952Y273432D01*
X-75956Y273434D01*
X-76102Y273484D01*
X-76249Y273535D01*
X-76253Y273535D01*
X-76257Y273536D01*
X-76416Y273559D01*
X-77979Y273676D01*
X-77983Y273675D01*
X-77987Y273676D01*
X-78142Y273667D01*
X-78296Y273660D01*
X-78300Y273658D01*
X-78304Y273658D01*
X-78451Y273611D01*
X-78534Y273585D01*
X-79302Y273761D01*
X-79317Y273762D01*
X-79330Y273767D01*
X-79490Y273789D01*
X-80277Y273848D01*
X-80336Y273901D01*
X-80340Y273903D01*
X-80343Y273906D01*
X-80479Y273977D01*
X-80618Y274049D01*
X-80622Y274050D01*
X-80625Y274052D01*
X-80780Y274098D01*
X-82307Y274446D01*
X-82311Y274447D01*
X-82315Y274448D01*
X-82470Y274463D01*
X-82624Y274478D01*
X-82628Y274477D01*
X-82632Y274478D01*
X-82786Y274453D01*
X-82870Y274440D01*
X-83603Y274728D01*
X-83618Y274731D01*
X-83630Y274738D01*
X-83785Y274784D01*
X-84554Y274959D01*
X-84605Y275021D01*
X-84608Y275024D01*
X-84611Y275027D01*
X-84735Y275117D01*
X-84861Y275209D01*
X-84865Y275211D01*
X-84868Y275213D01*
X-85014Y275281D01*
X-86473Y275854D01*
X-86477Y275855D01*
X-86480Y275857D01*
X-86629Y275893D01*
X-86781Y275932D01*
X-86785Y275932D01*
X-86789Y275933D01*
X-86944Y275932D01*
X-87030Y275931D01*
X-87712Y276325D01*
X-87726Y276331D01*
X-87737Y276339D01*
X-87883Y276408D01*
X-88618Y276696D01*
X-88659Y276764D01*
X-88662Y276767D01*
X-88664Y276771D01*
X-88775Y276880D01*
X-88884Y276989D01*
X-88888Y276991D01*
X-88891Y276994D01*
X-89025Y277083D01*
X-90382Y277866D01*
X-90385Y277868D01*
X-90389Y277870D01*
X-90532Y277930D01*
X-90675Y277990D01*
X-90679Y277990D01*
X-90683Y277992D01*
X-90837Y278013D01*
X-90921Y278026D01*
X-91537Y278517D01*
X-91550Y278525D01*
X-91560Y278535D01*
X-91694Y278624D01*
X-92377Y279019D01*
X-92408Y279093D01*
X-92410Y279096D01*
X-92412Y279100D01*
X-92506Y279225D01*
X-92597Y279348D01*
X-92600Y279351D01*
X-92603Y279354D01*
X-92722Y279462D01*
X-93947Y280439D01*
X-93951Y280441D01*
X-93953Y280444D01*
X-94085Y280523D01*
X-94219Y280604D01*
X-94222Y280606D01*
X-94226Y280608D01*
X-94377Y280653D01*
X-94457Y280677D01*
X-94993Y281255D01*
X-95004Y281264D01*
X-95013Y281276D01*
X-95132Y281384D01*
X-95749Y281876D01*
X-95768Y281953D01*
X-95770Y281957D01*
X-95771Y281961D01*
X-95845Y282098D01*
X-95917Y282234D01*
X-95920Y282237D01*
X-95922Y282241D01*
X-96024Y282366D01*
X-97089Y283514D01*
X-97092Y283517D01*
X-97095Y283520D01*
X-97213Y283618D01*
X-97333Y283718D01*
X-97337Y283720D01*
X-97340Y283723D01*
X-97479Y283788D01*
X-97558Y283826D01*
X-98002Y284477D01*
X-98011Y284487D01*
X-98018Y284500D01*
X-98120Y284625D01*
X-98657Y285203D01*
X-98664Y285283D01*
X-98665Y285287D01*
X-98666Y285291D01*
X-98718Y285438D01*
X-98770Y285583D01*
X-98772Y285586D01*
X-98773Y285590D01*
X-98855Y285729D01*
X-99448Y286598D01*
X-99496Y286652D01*
X-99536Y286712D01*
X-99601Y286771D01*
X-99659Y286837D01*
X-99718Y286877D01*
X-99772Y286925D01*
X-99849Y286966D01*
X-99922Y287015D01*
X-99990Y287039D01*
X-100053Y287073D01*
X-100139Y287093D01*
X-100222Y287122D01*
X-100293Y287129D01*
X-100363Y287146D01*
X-100451Y287144D01*
X-100538Y287152D01*
X-100609Y287141D01*
X-100681Y287139D01*
X-100766Y287116D01*
X-100852Y287102D01*
X-100918Y287073D01*
X-100987Y287054D01*
X-101132Y286983D01*
X-132784Y268708D01*
X-133093Y269356D01*
X-133110Y269378D01*
X-133119Y269405D01*
X-133169Y269457D01*
X-133212Y269515D01*
X-133237Y269529D01*
X-133256Y269550D01*
X-133322Y269578D01*
X-133384Y269614D01*
X-133412Y269618D01*
X-133438Y269629D01*
X-133510Y269630D01*
X-133581Y269639D01*
X-133609Y269631D01*
X-133637Y269632D01*
X-133733Y269596D01*
X-133773Y269585D01*
X-133781Y269578D01*
X-133793Y269574D01*
X-150247Y260074D01*
X-150306Y260022D01*
X-150368Y259976D01*
X-150380Y259957D01*
X-150396Y259942D01*
X-150430Y259872D01*
X-150470Y259805D01*
X-150474Y259780D01*
X-150482Y259763D01*
X-150484Y259718D01*
X-150497Y259641D01*
X-150474Y240601D01*
X-150469Y240573D01*
X-150471Y240545D01*
X-150449Y240477D01*
X-150434Y240406D01*
X-150418Y240383D01*
X-150409Y240356D01*
X-150362Y240302D01*
X-150322Y240243D01*
X-150298Y240227D01*
X-150279Y240206D01*
X-150215Y240174D01*
X-150154Y240136D01*
X-150126Y240131D01*
X-150100Y240119D01*
X-150000Y240110D01*
X-149958Y240103D01*
X-149947Y240105D01*
X-149934Y240104D01*
X-148907Y240188D01*
X-148907Y203639D01*
X-148898Y203568D01*
X-148899Y203496D01*
X-148878Y203411D01*
X-148867Y203324D01*
X-148840Y203257D01*
X-148823Y203187D01*
X-148782Y203109D01*
X-148750Y203028D01*
X-148708Y202970D01*
X-148674Y202906D01*
X-148615Y202842D01*
X-148563Y202771D01*
X-148508Y202725D01*
X-148459Y202672D01*
X-148386Y202624D01*
X-148318Y202568D01*
X-148253Y202537D01*
X-148193Y202498D01*
X-148109Y202470D01*
X-148030Y202432D01*
X-147960Y202419D01*
X-147891Y202396D01*
X-147732Y202374D01*
X-147025Y202321D01*
X-147021Y202321D01*
X-147017Y202320D01*
X-146862Y202329D01*
X-146707Y202337D01*
X-146703Y202338D01*
X-146699Y202339D01*
X-146551Y202386D01*
X-146404Y202432D01*
X-146400Y202434D01*
X-146396Y202435D01*
X-146255Y202512D01*
X-146188Y202554D01*
X-146134Y202599D01*
X-146133Y202599D01*
X-146125Y202606D01*
X-146056Y202650D01*
X-146002Y202707D01*
X-145942Y202756D01*
X-145894Y202822D01*
X-145838Y202882D01*
X-145800Y202950D01*
X-145754Y203013D01*
X-145724Y203088D01*
X-145684Y203160D01*
X-145665Y203235D01*
X-145636Y203308D01*
X-145625Y203389D01*
X-145605Y203468D01*
X-145595Y203618D01*
X-145594Y203623D01*
X-145595Y203625D01*
X-145594Y203629D01*
X-145594Y214808D01*
X-144433Y215969D01*
X-143204Y215969D01*
X-143134Y215978D01*
X-143065Y215977D01*
X-142977Y215998D01*
X-142888Y216009D01*
X-142823Y216035D01*
X-142755Y216051D01*
X-142676Y216093D01*
X-142593Y216126D01*
X-142536Y216167D01*
X-142474Y216200D01*
X-142408Y216260D01*
X-142335Y216313D01*
X-142291Y216367D01*
X-142239Y216414D01*
X-142190Y216489D01*
X-142132Y216558D01*
X-142103Y216621D01*
X-142064Y216680D01*
X-142035Y216765D01*
X-141997Y216846D01*
X-141984Y216914D01*
X-141961Y216980D01*
X-141954Y217070D01*
X-141937Y217158D01*
X-141941Y217228D01*
X-141936Y217297D01*
X-141951Y217386D01*
X-141957Y217476D01*
X-141978Y217542D01*
X-141990Y217611D01*
X-142027Y217693D01*
X-142055Y217778D01*
X-142092Y217837D01*
X-142121Y217901D01*
X-142177Y217971D01*
X-142225Y218047D01*
X-142276Y218095D01*
X-142319Y218149D01*
X-142391Y218203D01*
X-142457Y218265D01*
X-142518Y218298D01*
X-142574Y218340D01*
X-142718Y218411D01*
X-142965Y218514D01*
X-143085Y218634D01*
X-143164Y218695D01*
X-143236Y218762D01*
X-143289Y218792D01*
X-143337Y218829D01*
X-143428Y218868D01*
X-143514Y218916D01*
X-143573Y218931D01*
X-143628Y218955D01*
X-143726Y218971D01*
X-143822Y218995D01*
X-143922Y219002D01*
X-143942Y219005D01*
X-143955Y219004D01*
X-143983Y219006D01*
X-144433Y219006D01*
X-145594Y220167D01*
X-145594Y231808D01*
X-144433Y232969D01*
X-131792Y232969D01*
X-130631Y231808D01*
X-130631Y220167D01*
X-131792Y219006D01*
X-135417Y219006D01*
X-135515Y218993D01*
X-135614Y218990D01*
X-135673Y218973D01*
X-135733Y218966D01*
X-135825Y218929D01*
X-135920Y218902D01*
X-135972Y218871D01*
X-136028Y218849D01*
X-136108Y218791D01*
X-136194Y218740D01*
X-136269Y218674D01*
X-136286Y218662D01*
X-136294Y218652D01*
X-136315Y218634D01*
X-136435Y218514D01*
X-136682Y218411D01*
X-136743Y218377D01*
X-136807Y218351D01*
X-136880Y218298D01*
X-136958Y218254D01*
X-137008Y218205D01*
X-137065Y218164D01*
X-137122Y218095D01*
X-137187Y218033D01*
X-137223Y217973D01*
X-137268Y217919D01*
X-137306Y217838D01*
X-137353Y217761D01*
X-137373Y217695D01*
X-137403Y217632D01*
X-137420Y217543D01*
X-137446Y217458D01*
X-137450Y217388D01*
X-137463Y217319D01*
X-137457Y217230D01*
X-137462Y217140D01*
X-137448Y217071D01*
X-137443Y217002D01*
X-137415Y216916D01*
X-137397Y216828D01*
X-137367Y216766D01*
X-137345Y216699D01*
X-137297Y216623D01*
X-137258Y216543D01*
X-137212Y216490D01*
X-137175Y216431D01*
X-137110Y216369D01*
X-137051Y216301D01*
X-136994Y216260D01*
X-136943Y216213D01*
X-136865Y216169D01*
X-136791Y216118D01*
X-136726Y216093D01*
X-136665Y216059D01*
X-136578Y216037D01*
X-136494Y216005D01*
X-136424Y215997D01*
X-136357Y215980D01*
X-136196Y215969D01*
X-131792Y215969D01*
X-130631Y214808D01*
X-130631Y206630D01*
X-130618Y206532D01*
X-130615Y206433D01*
X-130598Y206375D01*
X-130591Y206315D01*
X-130554Y206223D01*
X-130527Y206128D01*
X-130496Y206075D01*
X-130474Y206019D01*
X-130416Y205939D01*
X-130365Y205854D01*
X-130299Y205778D01*
X-130287Y205762D01*
X-130277Y205754D01*
X-130259Y205733D01*
X-127612Y203086D01*
X-127534Y203025D01*
X-127462Y202958D01*
X-127409Y202928D01*
X-127361Y202891D01*
X-127270Y202852D01*
X-127183Y202804D01*
X-127125Y202789D01*
X-127069Y202765D01*
X-126971Y202749D01*
X-126875Y202725D01*
X-126775Y202718D01*
X-126755Y202715D01*
X-126743Y202716D01*
X-126715Y202714D01*
X-124066Y202714D01*
X-115475Y194124D01*
X-115396Y194063D01*
X-115324Y193995D01*
X-115271Y193966D01*
X-115223Y193929D01*
X-115133Y193889D01*
X-115046Y193842D01*
X-114987Y193826D01*
X-114932Y193802D01*
X-114834Y193787D01*
X-114738Y193762D01*
X-114638Y193756D01*
X-114618Y193753D01*
X-114605Y193754D01*
X-114577Y193752D01*
X-63668Y193752D01*
X-61843Y191927D01*
X-61804Y191896D01*
X-61770Y191859D01*
X-61678Y191799D01*
X-61592Y191732D01*
X-61546Y191712D01*
X-61504Y191685D01*
X-61401Y191649D01*
X-61300Y191605D01*
X-61251Y191597D01*
X-61204Y191581D01*
X-61094Y191573D01*
X-60986Y191555D01*
X-60936Y191560D01*
X-60887Y191556D01*
X-60779Y191575D01*
X-60669Y191585D01*
X-60622Y191602D01*
X-60573Y191611D01*
X-60473Y191656D01*
X-60370Y191693D01*
X-60329Y191721D01*
X-60283Y191741D01*
X-60197Y191810D01*
X-60107Y191871D01*
X-60074Y191909D01*
X-60035Y191940D01*
X-59969Y192027D01*
X-59896Y192110D01*
X-59873Y192154D01*
X-59844Y192194D01*
X-59773Y192338D01*
X-59408Y193218D01*
X-57787Y194840D01*
X-55668Y195717D01*
X-53375Y195717D01*
X-51257Y194840D01*
X-49740Y193323D01*
X-49646Y193250D01*
X-49557Y193171D01*
X-49521Y193153D01*
X-49489Y193128D01*
X-49380Y193081D01*
X-49274Y193027D01*
X-49234Y193018D01*
X-49197Y193002D01*
X-49079Y192983D01*
X-48964Y192957D01*
X-48923Y192958D01*
X-48883Y192952D01*
X-48765Y192963D01*
X-48646Y192967D01*
X-48607Y192978D01*
X-48567Y192982D01*
X-48455Y193022D01*
X-48340Y193055D01*
X-48305Y193076D01*
X-48267Y193089D01*
X-48169Y193156D01*
X-48066Y193217D01*
X-48021Y193257D01*
X-48004Y193268D01*
X-47991Y193283D01*
X-47945Y193323D01*
X-47166Y194103D01*
X-45032Y194987D01*
X-44988Y195011D01*
X-44942Y195028D01*
X-44851Y195090D01*
X-44755Y195144D01*
X-44720Y195179D01*
X-44678Y195207D01*
X-44606Y195289D01*
X-44527Y195366D01*
X-44501Y195408D01*
X-44468Y195445D01*
X-44418Y195543D01*
X-44361Y195637D01*
X-44346Y195684D01*
X-44323Y195729D01*
X-44299Y195836D01*
X-44267Y195941D01*
X-44265Y195990D01*
X-44254Y196039D01*
X-44257Y196149D01*
X-44252Y196258D01*
X-44262Y196307D01*
X-44263Y196357D01*
X-44294Y196462D01*
X-44316Y196570D01*
X-44338Y196615D01*
X-44352Y196662D01*
X-44408Y196757D01*
X-44456Y196856D01*
X-44488Y196893D01*
X-44513Y196936D01*
X-44620Y197057D01*
X-50727Y203164D01*
X-50727Y203386D01*
X-50742Y203505D01*
X-50749Y203623D01*
X-50762Y203662D01*
X-50767Y203702D01*
X-50811Y203813D01*
X-50847Y203926D01*
X-50869Y203960D01*
X-50884Y203998D01*
X-50954Y204094D01*
X-51017Y204194D01*
X-51047Y204222D01*
X-51071Y204255D01*
X-51162Y204331D01*
X-51249Y204412D01*
X-51284Y204432D01*
X-51316Y204458D01*
X-51423Y204508D01*
X-51528Y204566D01*
X-51567Y204576D01*
X-51603Y204593D01*
X-51720Y204616D01*
X-51768Y204628D01*
X-52957Y205817D01*
X-52957Y216458D01*
X-51796Y217619D01*
X-43154Y217619D01*
X-41993Y216458D01*
X-41993Y205817D01*
X-42190Y205620D01*
X-42263Y205526D01*
X-42342Y205437D01*
X-42360Y205401D01*
X-42385Y205369D01*
X-42432Y205259D01*
X-42486Y205153D01*
X-42495Y205114D01*
X-42511Y205077D01*
X-42530Y204959D01*
X-42556Y204843D01*
X-42555Y204803D01*
X-42561Y204763D01*
X-42550Y204644D01*
X-42546Y204525D01*
X-42535Y204486D01*
X-42531Y204446D01*
X-42491Y204334D01*
X-42458Y204220D01*
X-42437Y204185D01*
X-42424Y204147D01*
X-42357Y204048D01*
X-42296Y203946D01*
X-42256Y203900D01*
X-42245Y203884D01*
X-42230Y203870D01*
X-42190Y203825D01*
X-35001Y196636D01*
X-34922Y196575D01*
X-34850Y196507D01*
X-34797Y196478D01*
X-34749Y196441D01*
X-34658Y196401D01*
X-34572Y196354D01*
X-34513Y196338D01*
X-34458Y196314D01*
X-34360Y196299D01*
X-34264Y196274D01*
X-34164Y196268D01*
X-34143Y196265D01*
X-34131Y196266D01*
X-34103Y196264D01*
X-32317Y196264D01*
X-30199Y195386D01*
X-28577Y193765D01*
X-27700Y191647D01*
X-27700Y189323D01*
X-27688Y189225D01*
X-27685Y189126D01*
X-27668Y189068D01*
X-27660Y189008D01*
X-27624Y188915D01*
X-27596Y188820D01*
X-27565Y188768D01*
X-27543Y188712D01*
X-27485Y188632D01*
X-27481Y188624D01*
X-27481Y158930D01*
X-28642Y157769D01*
X-36063Y157769D01*
X-36092Y157774D01*
X-36188Y157798D01*
X-36288Y157805D01*
X-36308Y157808D01*
X-36321Y157807D01*
X-36349Y157809D01*
X-57752Y157809D01*
X-57830Y157870D01*
X-57903Y157937D01*
X-57956Y157967D01*
X-58003Y158004D01*
X-58094Y158043D01*
X-58181Y158091D01*
X-58240Y158106D01*
X-58295Y158130D01*
X-58393Y158146D01*
X-58489Y158170D01*
X-58589Y158177D01*
X-58609Y158180D01*
X-58622Y158179D01*
X-58650Y158181D01*
X-64058Y158181D01*
X-65274Y159396D01*
X-65352Y159457D01*
X-65425Y159525D01*
X-65478Y159554D01*
X-65525Y159591D01*
X-65616Y159631D01*
X-65703Y159678D01*
X-65762Y159694D01*
X-65817Y159718D01*
X-65915Y159733D01*
X-66011Y159758D01*
X-66111Y159764D01*
X-66131Y159767D01*
X-66144Y159766D01*
X-66172Y159768D01*
X-73749Y159768D01*
X-73778Y159764D01*
X-73808Y159767D01*
X-73936Y159744D01*
X-74065Y159728D01*
X-74092Y159717D01*
X-74121Y159712D01*
X-74240Y159659D01*
X-74360Y159611D01*
X-74384Y159594D01*
X-74411Y159582D01*
X-74513Y159501D01*
X-74618Y159424D01*
X-74637Y159402D01*
X-74660Y159383D01*
X-74738Y159279D01*
X-74820Y159179D01*
X-74833Y159153D01*
X-74851Y159129D01*
X-74922Y158985D01*
X-75227Y158248D01*
X-76848Y156627D01*
X-78967Y155749D01*
X-81260Y155749D01*
X-83378Y156627D01*
X-85000Y158248D01*
X-85877Y160367D01*
X-85877Y162660D01*
X-85000Y164778D01*
X-84466Y165312D01*
X-84405Y165390D01*
X-84338Y165462D01*
X-84308Y165515D01*
X-84271Y165563D01*
X-84232Y165654D01*
X-84184Y165741D01*
X-84169Y165799D01*
X-84145Y165855D01*
X-84129Y165953D01*
X-84105Y166048D01*
X-84098Y166148D01*
X-84095Y166169D01*
X-84096Y166181D01*
X-84094Y166209D01*
X-84094Y175571D01*
X-82933Y176732D01*
X-65994Y176732D01*
X-65856Y176749D01*
X-65718Y176762D01*
X-65698Y176769D01*
X-65678Y176772D01*
X-65549Y176823D01*
X-65418Y176870D01*
X-65401Y176881D01*
X-65383Y176889D01*
X-65270Y176970D01*
X-65155Y177049D01*
X-65142Y177064D01*
X-65125Y177076D01*
X-65036Y177183D01*
X-64945Y177287D01*
X-64935Y177305D01*
X-64922Y177321D01*
X-64863Y177446D01*
X-64800Y177570D01*
X-64796Y177590D01*
X-64787Y177608D01*
X-64761Y177745D01*
X-64730Y177881D01*
X-64731Y177901D01*
X-64727Y177921D01*
X-64736Y178059D01*
X-64740Y178198D01*
X-64746Y178218D01*
X-64747Y178238D01*
X-64790Y178370D01*
X-64828Y178504D01*
X-64839Y178521D01*
X-64845Y178541D01*
X-64919Y178658D01*
X-64990Y178778D01*
X-65009Y178799D01*
X-65015Y178809D01*
X-65030Y178823D01*
X-65096Y178899D01*
X-68513Y182315D01*
X-68591Y182376D01*
X-68663Y182444D01*
X-68716Y182473D01*
X-68764Y182510D01*
X-68855Y182549D01*
X-68942Y182597D01*
X-69000Y182612D01*
X-69056Y182636D01*
X-69154Y182652D01*
X-69250Y182677D01*
X-69350Y182683D01*
X-69370Y182686D01*
X-69382Y182685D01*
X-69410Y182687D01*
X-120463Y182687D01*
X-120612Y182668D01*
X-120760Y182652D01*
X-120769Y182648D01*
X-120779Y182647D01*
X-120917Y182592D01*
X-121057Y182539D01*
X-121066Y182533D01*
X-121074Y182530D01*
X-121195Y182442D01*
X-121318Y182356D01*
X-121324Y182349D01*
X-121332Y182343D01*
X-121427Y182228D01*
X-121524Y182114D01*
X-121528Y182106D01*
X-121535Y182098D01*
X-121598Y181964D01*
X-121664Y181829D01*
X-121666Y181819D01*
X-121670Y181810D01*
X-121698Y181664D01*
X-121729Y181517D01*
X-121728Y181508D01*
X-121730Y181498D01*
X-121721Y181349D01*
X-121714Y181200D01*
X-121711Y181187D01*
X-121710Y181181D01*
X-121706Y181167D01*
X-121676Y181043D01*
X-121654Y180971D01*
X-121652Y180967D01*
X-121651Y180963D01*
X-121612Y180878D01*
X-121586Y180822D01*
X-121523Y180681D01*
X-121520Y180678D01*
X-121518Y180674D01*
X-121421Y180555D01*
X-121366Y180487D01*
X-121249Y179708D01*
X-121245Y179694D01*
X-121244Y179680D01*
X-121207Y179523D01*
X-120974Y178769D01*
X-121002Y178694D01*
X-121002Y178690D01*
X-121004Y178686D01*
X-121020Y178532D01*
X-121037Y178378D01*
X-121036Y178374D01*
X-121036Y178370D01*
X-121022Y178209D01*
X-120788Y176658D01*
X-120787Y176654D01*
X-120787Y176650D01*
X-120744Y176502D01*
X-120702Y176352D01*
X-120700Y176348D01*
X-120698Y176344D01*
X-120620Y176211D01*
X-120576Y176136D01*
X-120576Y175349D01*
X-120574Y175334D01*
X-120576Y175320D01*
X-120562Y175160D01*
X-120444Y174379D01*
X-120483Y174310D01*
X-120484Y174306D01*
X-120486Y174302D01*
X-120524Y174153D01*
X-120564Y174002D01*
X-120564Y173998D01*
X-120565Y173994D01*
X-120576Y173833D01*
X-120575Y172264D01*
X-120575Y172260D01*
X-120575Y172256D01*
X-120555Y172104D01*
X-120535Y171949D01*
X-120534Y171945D01*
X-120533Y171941D01*
X-120476Y171799D01*
X-120443Y171717D01*
X-120560Y170938D01*
X-120561Y170924D01*
X-120564Y170910D01*
X-120575Y170749D01*
X-120574Y169960D01*
X-120623Y169897D01*
X-120625Y169893D01*
X-120627Y169889D01*
X-120688Y169747D01*
X-120750Y169605D01*
X-120750Y169601D01*
X-120752Y169597D01*
X-120786Y169439D01*
X-121019Y167888D01*
X-121019Y167884D01*
X-121020Y167880D01*
X-121023Y167722D01*
X-121027Y167570D01*
X-121026Y167566D01*
X-121026Y167562D01*
X-120989Y167408D01*
X-120970Y167327D01*
X-121202Y166574D01*
X-121205Y166560D01*
X-121211Y166547D01*
X-121245Y166389D01*
X-121362Y165609D01*
X-121420Y165554D01*
X-121422Y165550D01*
X-121425Y165547D01*
X-121506Y165416D01*
X-121588Y165284D01*
X-121589Y165280D01*
X-121592Y165277D01*
X-121649Y165126D01*
X-122111Y163627D01*
X-122111Y163623D01*
X-122113Y163619D01*
X-122139Y163464D01*
X-122165Y163313D01*
X-122165Y163309D01*
X-122166Y163305D01*
X-122153Y163148D01*
X-122146Y163065D01*
X-122488Y162355D01*
X-122492Y162341D01*
X-122500Y162329D01*
X-122557Y162178D01*
X-122789Y161424D01*
X-122855Y161378D01*
X-122857Y161375D01*
X-122861Y161373D01*
X-122962Y161253D01*
X-123061Y161137D01*
X-123063Y161133D01*
X-123066Y161130D01*
X-123145Y160989D01*
X-123825Y159576D01*
X-123826Y159572D01*
X-123829Y159568D01*
X-123877Y159421D01*
X-123926Y159274D01*
X-123926Y159270D01*
X-123927Y159266D01*
X-123938Y159110D01*
X-123944Y159025D01*
X-124387Y158374D01*
X-124394Y158361D01*
X-124403Y158350D01*
X-124482Y158210D01*
X-124824Y157499D01*
X-124896Y157463D01*
X-124899Y157460D01*
X-124903Y157459D01*
X-125018Y157358D01*
X-125136Y157255D01*
X-125139Y157252D01*
X-125142Y157249D01*
X-125241Y157122D01*
X-126124Y155825D01*
X-126126Y155822D01*
X-126129Y155818D01*
X-126200Y155677D01*
X-126269Y155542D01*
X-126270Y155538D01*
X-126272Y155534D01*
X-126305Y155381D01*
X-126323Y155299D01*
X-126859Y154721D01*
X-126867Y154709D01*
X-126878Y154700D01*
X-126977Y154573D01*
X-127422Y153921D01*
X-127498Y153896D01*
X-127501Y153894D01*
X-127505Y153893D01*
X-127634Y153810D01*
X-127766Y153726D01*
X-127769Y153723D01*
X-127773Y153721D01*
X-127890Y153610D01*
X-128956Y152459D01*
X-128959Y152456D01*
X-128962Y152453D01*
X-129051Y152327D01*
X-129142Y152201D01*
X-129143Y152197D01*
X-129145Y152194D01*
X-129201Y152049D01*
X-129232Y151969D01*
X-129848Y151477D01*
X-129858Y151467D01*
X-129870Y151459D01*
X-129987Y151348D01*
X-130523Y150770D01*
X-130602Y150757D01*
X-130606Y150755D01*
X-130610Y150754D01*
X-130751Y150691D01*
X-130893Y150629D01*
X-130896Y150626D01*
X-130900Y150624D01*
X-131032Y150532D01*
X-132259Y149553D01*
X-132261Y149551D01*
X-132265Y149548D01*
X-132373Y149436D01*
X-132480Y149326D01*
X-132482Y149322D01*
X-132485Y149319D01*
X-132562Y149183D01*
X-132604Y149109D01*
X-133286Y148715D01*
X-133298Y148706D01*
X-133311Y148700D01*
X-133443Y148608D01*
X-134060Y148116D01*
X-134140Y148115D01*
X-134144Y148114D01*
X-134148Y148114D01*
X-134297Y148072D01*
X-134447Y148032D01*
X-134450Y148030D01*
X-134454Y148028D01*
X-134599Y147957D01*
X-135957Y147172D01*
X-135960Y147170D01*
X-135964Y147168D01*
X-136088Y147073D01*
X-136210Y146980D01*
X-136213Y146976D01*
X-136216Y146974D01*
X-136313Y146850D01*
X-136365Y146784D01*
X-137098Y146496D01*
X-137111Y146489D01*
X-137125Y146485D01*
X-137269Y146414D01*
X-137953Y146019D01*
X-138032Y146030D01*
X-138036Y146029D01*
X-138040Y146030D01*
X-138196Y146011D01*
X-138348Y145993D01*
X-138352Y145992D01*
X-138356Y145991D01*
X-138509Y145942D01*
X-139969Y145368D01*
X-139973Y145366D01*
X-139977Y145365D01*
X-140113Y145290D01*
X-140248Y145216D01*
X-140251Y145213D01*
X-140255Y145211D01*
X-140368Y145105D01*
X-140431Y145046D01*
X-141199Y144870D01*
X-141212Y144865D01*
X-141226Y144864D01*
X-141380Y144814D01*
X-142114Y144526D01*
X-142191Y144548D01*
X-142195Y144548D01*
X-142199Y144550D01*
X-142354Y144554D01*
X-142509Y144559D01*
X-142513Y144558D01*
X-142517Y144558D01*
X-142676Y144533D01*
X-144205Y144183D01*
X-144209Y144182D01*
X-144213Y144181D01*
X-144357Y144128D01*
X-144504Y144074D01*
X-144508Y144071D01*
X-144511Y144070D01*
X-144638Y143982D01*
X-144710Y143933D01*
X-145495Y143874D01*
X-145509Y143871D01*
X-145524Y143871D01*
X-145683Y143845D01*
X-146452Y143669D01*
X-146524Y143703D01*
X-146529Y143704D01*
X-146532Y143706D01*
X-146684Y143733D01*
X-146837Y143761D01*
X-146841Y143761D01*
X-146845Y143762D01*
X-147006Y143760D01*
X-147733Y143705D01*
X-147803Y143691D01*
X-147874Y143686D01*
X-147958Y143659D01*
X-148044Y143642D01*
X-148109Y143611D01*
X-148177Y143588D01*
X-148251Y143541D01*
X-148330Y143503D01*
X-148385Y143457D01*
X-148446Y143418D01*
X-148506Y143354D01*
X-148573Y143297D01*
X-148614Y143239D01*
X-148664Y143187D01*
X-148706Y143110D01*
X-148757Y143038D01*
X-148782Y142971D01*
X-148817Y142908D01*
X-148839Y142823D01*
X-148871Y142741D01*
X-148879Y142670D01*
X-148897Y142600D01*
X-148907Y142440D01*
X-148907Y105888D01*
X-149978Y105975D01*
X-150007Y105971D01*
X-150035Y105976D01*
X-150105Y105959D01*
X-150176Y105951D01*
X-150201Y105936D01*
X-150229Y105930D01*
X-150286Y105887D01*
X-150348Y105852D01*
X-150366Y105829D01*
X-150389Y105812D01*
X-150425Y105750D01*
X-150468Y105693D01*
X-150475Y105665D01*
X-150490Y105640D01*
X-150507Y105542D01*
X-150517Y105501D01*
X-150515Y105490D01*
X-150518Y105476D01*
X-150495Y86437D01*
X-150479Y86361D01*
X-150471Y86285D01*
X-150460Y86265D01*
X-150455Y86242D01*
X-150411Y86179D01*
X-150374Y86112D01*
X-150354Y86095D01*
X-150342Y86078D01*
X-150305Y86054D01*
X-150246Y86005D01*
X-133769Y76466D01*
X-133741Y76457D01*
X-133717Y76440D01*
X-133648Y76425D01*
X-133580Y76403D01*
X-133551Y76405D01*
X-133523Y76399D01*
X-133453Y76412D01*
X-133382Y76418D01*
X-133356Y76431D01*
X-133328Y76437D01*
X-133268Y76477D01*
X-133205Y76509D01*
X-133187Y76532D01*
X-133163Y76548D01*
X-133105Y76630D01*
X-133078Y76662D01*
X-133075Y76673D01*
X-133067Y76684D01*
X-132750Y77352D01*
X-113570Y66278D01*
X-113569Y66277D01*
X-113567Y66276D01*
X-101121Y59127D01*
X-101056Y59099D01*
X-100996Y59064D01*
X-100910Y59038D01*
X-100828Y59004D01*
X-100758Y58994D01*
X-100691Y58974D01*
X-100602Y58971D01*
X-100513Y58958D01*
X-100443Y58966D01*
X-100373Y58963D01*
X-100286Y58982D01*
X-100197Y58992D01*
X-100131Y59017D01*
X-100062Y59032D01*
X-99983Y59072D01*
X-99899Y59103D01*
X-99841Y59144D01*
X-99779Y59175D01*
X-99711Y59234D01*
X-99638Y59285D01*
X-99592Y59339D01*
X-99539Y59385D01*
X-99440Y59512D01*
X-98858Y60365D01*
X-98856Y60369D01*
X-98854Y60372D01*
X-98785Y60508D01*
X-98713Y60648D01*
X-98712Y60652D01*
X-98711Y60656D01*
X-98679Y60801D01*
X-98659Y60891D01*
X-98123Y61469D01*
X-98114Y61480D01*
X-98103Y61490D01*
X-98004Y61617D01*
X-97560Y62269D01*
X-97483Y62293D01*
X-97480Y62295D01*
X-97476Y62297D01*
X-97345Y62381D01*
X-97215Y62463D01*
X-97212Y62466D01*
X-97208Y62468D01*
X-97091Y62579D01*
X-96024Y63729D01*
X-96021Y63732D01*
X-96018Y63735D01*
X-95929Y63861D01*
X-95838Y63987D01*
X-95837Y63991D01*
X-95835Y63995D01*
X-95780Y64138D01*
X-95748Y64220D01*
X-95132Y64711D01*
X-95122Y64721D01*
X-95110Y64729D01*
X-94993Y64840D01*
X-94456Y65418D01*
X-94377Y65431D01*
X-94373Y65432D01*
X-94369Y65433D01*
X-94228Y65496D01*
X-94086Y65559D01*
X-94082Y65561D01*
X-94079Y65563D01*
X-93947Y65655D01*
X-92720Y66633D01*
X-92717Y66636D01*
X-92713Y66638D01*
X-92607Y66749D01*
X-92498Y66861D01*
X-92496Y66864D01*
X-92493Y66867D01*
X-92417Y67001D01*
X-92374Y67077D01*
X-91691Y67471D01*
X-91680Y67479D01*
X-91667Y67485D01*
X-91535Y67577D01*
X-90917Y68069D01*
X-90838Y68070D01*
X-90834Y68071D01*
X-90829Y68071D01*
X-90681Y68113D01*
X-90531Y68153D01*
X-90527Y68155D01*
X-90523Y68156D01*
X-90379Y68228D01*
X-89020Y69012D01*
X-89016Y69015D01*
X-89013Y69016D01*
X-88891Y69110D01*
X-88766Y69204D01*
X-88764Y69207D01*
X-88760Y69210D01*
X-88667Y69329D01*
X-88611Y69399D01*
X-87878Y69687D01*
X-87865Y69694D01*
X-87851Y69698D01*
X-87728Y69759D01*
X-87720Y69762D01*
X-87717Y69764D01*
X-87707Y69769D01*
X-87024Y70164D01*
X-86944Y70153D01*
X-86940Y70153D01*
X-86936Y70153D01*
X-86783Y70171D01*
X-86628Y70189D01*
X-86624Y70191D01*
X-86620Y70191D01*
X-86467Y70240D01*
X-85006Y70813D01*
X-85003Y70815D01*
X-84999Y70816D01*
X-84864Y70891D01*
X-84727Y70965D01*
X-84724Y70968D01*
X-84721Y70970D01*
X-84610Y71075D01*
X-84545Y71135D01*
X-83777Y71310D01*
X-83763Y71315D01*
X-83749Y71317D01*
X-83596Y71366D01*
X-82861Y71654D01*
X-82784Y71632D01*
X-82780Y71631D01*
X-82776Y71630D01*
X-82620Y71626D01*
X-82466Y71621D01*
X-82462Y71621D01*
X-82458Y71621D01*
X-82299Y71647D01*
X-80770Y71996D01*
X-80766Y71997D01*
X-80761Y71998D01*
X-80617Y72051D01*
X-80471Y72105D01*
X-80467Y72107D01*
X-80463Y72108D01*
X-80336Y72197D01*
X-80265Y72246D01*
X-79479Y72304D01*
X-79465Y72307D01*
X-79451Y72307D01*
X-79292Y72332D01*
X-78523Y72508D01*
X-78450Y72474D01*
X-78446Y72473D01*
X-78442Y72472D01*
X-78288Y72444D01*
X-78137Y72416D01*
X-78133Y72416D01*
X-78129Y72415D01*
X-77968Y72417D01*
X-76404Y72534D01*
X-76400Y72535D01*
X-76395Y72534D01*
X-76243Y72566D01*
X-76092Y72597D01*
X-76088Y72599D01*
X-76084Y72600D01*
X-75945Y72668D01*
X-75868Y72706D01*
X-75082Y72647D01*
X-75068Y72647D01*
X-75053Y72645D01*
X-74892Y72647D01*
X-74105Y72705D01*
X-74039Y72661D01*
X-74035Y72660D01*
X-74031Y72657D01*
X-73883Y72607D01*
X-73738Y72557D01*
X-73734Y72556D01*
X-73730Y72555D01*
X-73571Y72533D01*
X-72006Y72415D01*
X-72002Y72415D01*
X-71998Y72415D01*
X-71844Y72423D01*
X-71689Y72431D01*
X-71685Y72432D01*
X-71681Y72433D01*
X-71535Y72479D01*
X-71451Y72505D01*
X-70683Y72330D01*
X-70668Y72328D01*
X-70655Y72324D01*
X-70495Y72301D01*
X-69708Y72242D01*
X-69649Y72188D01*
X-69645Y72187D01*
X-69642Y72184D01*
X-69504Y72112D01*
X-69367Y72041D01*
X-69363Y72040D01*
X-69360Y72038D01*
X-69205Y71992D01*
X-67676Y71642D01*
X-67672Y71642D01*
X-67668Y71641D01*
X-67516Y71626D01*
X-67359Y71611D01*
X-67355Y71612D01*
X-67351Y71611D01*
X-67199Y71635D01*
X-67113Y71649D01*
X-66380Y71361D01*
X-66366Y71357D01*
X-66353Y71350D01*
X-66198Y71305D01*
X-65429Y71129D01*
X-65379Y71067D01*
X-65375Y71065D01*
X-65373Y71061D01*
X-65245Y70969D01*
X-65122Y70879D01*
X-65119Y70877D01*
X-65115Y70875D01*
X-64969Y70807D01*
X-63509Y70233D01*
X-63505Y70232D01*
X-63501Y70230D01*
X-63352Y70193D01*
X-63201Y70155D01*
X-63197Y70155D01*
X-63193Y70154D01*
X-63038Y70155D01*
X-62951Y70155D01*
X-62269Y69761D01*
X-62256Y69756D01*
X-62244Y69747D01*
X-62098Y69679D01*
X-61364Y69390D01*
X-61323Y69322D01*
X-61320Y69319D01*
X-61318Y69315D01*
X-61208Y69207D01*
X-61098Y69097D01*
X-61094Y69095D01*
X-61091Y69092D01*
X-60957Y69003D01*
X-59807Y68338D01*
X-59748Y68314D01*
X-59694Y68281D01*
X-59602Y68252D01*
X-59513Y68215D01*
X-59451Y68206D01*
X-59390Y68187D01*
X-59294Y68182D01*
X-59199Y68168D01*
X-59136Y68175D01*
X-59073Y68172D01*
X-58978Y68191D01*
X-58883Y68201D01*
X-58823Y68223D01*
X-58761Y68236D01*
X-58675Y68278D01*
X-58584Y68312D01*
X-58532Y68348D01*
X-58476Y68376D01*
X-58402Y68438D01*
X-58323Y68493D01*
X-58282Y68541D01*
X-58234Y68582D01*
X-58178Y68661D01*
X-58115Y68734D01*
X-58087Y68790D01*
X-58050Y68842D01*
X-58016Y68932D01*
X-57973Y69018D01*
X-57960Y69080D01*
X-57938Y69140D01*
X-57927Y69236D01*
X-57907Y69329D01*
X-57910Y69393D01*
X-57902Y69456D01*
X-57916Y69551D01*
X-57920Y69647D01*
X-57938Y69708D01*
X-57947Y69771D01*
X-57999Y69923D01*
X-58151Y70291D01*
X-58151Y72584D01*
X-57274Y74702D01*
X-56265Y75711D01*
X-56204Y75790D01*
X-56137Y75862D01*
X-56107Y75915D01*
X-56070Y75963D01*
X-56031Y76054D01*
X-55983Y76140D01*
X-55968Y76199D01*
X-55944Y76254D01*
X-55928Y76352D01*
X-55904Y76448D01*
X-55897Y76548D01*
X-55894Y76568D01*
X-55895Y76581D01*
X-55893Y76609D01*
X-55893Y87842D01*
X-55897Y87871D01*
X-55895Y87900D01*
X-55917Y88029D01*
X-55933Y88157D01*
X-55944Y88185D01*
X-55949Y88214D01*
X-56003Y88332D01*
X-56050Y88453D01*
X-56068Y88477D01*
X-56080Y88504D01*
X-56161Y88605D01*
X-56237Y88710D01*
X-56260Y88729D01*
X-56278Y88752D01*
X-56382Y88830D01*
X-56482Y88913D01*
X-56509Y88926D01*
X-56532Y88943D01*
X-56677Y89014D01*
X-56951Y89128D01*
X-59509Y91686D01*
X-60894Y95029D01*
X-60894Y98646D01*
X-59509Y101989D01*
X-57458Y104040D01*
X-57373Y104150D01*
X-57284Y104257D01*
X-57276Y104275D01*
X-57263Y104291D01*
X-57208Y104419D01*
X-57149Y104545D01*
X-57145Y104564D01*
X-57137Y104583D01*
X-57115Y104721D01*
X-57089Y104857D01*
X-57090Y104877D01*
X-57087Y104897D01*
X-57100Y105036D01*
X-57109Y105174D01*
X-57115Y105194D01*
X-57117Y105214D01*
X-57164Y105345D01*
X-57207Y105477D01*
X-57218Y105494D01*
X-57224Y105513D01*
X-57303Y105628D01*
X-57377Y105746D01*
X-57392Y105760D01*
X-57403Y105776D01*
X-57507Y105868D01*
X-57609Y105964D01*
X-57626Y105973D01*
X-57641Y105987D01*
X-57766Y106050D01*
X-57887Y106117D01*
X-57907Y106122D01*
X-57925Y106131D01*
X-58061Y106162D01*
X-58195Y106197D01*
X-58223Y106198D01*
X-58235Y106201D01*
X-58256Y106200D01*
X-58356Y106207D01*
X-70644Y106207D01*
X-70782Y106189D01*
X-70921Y106176D01*
X-70940Y106169D01*
X-70960Y106167D01*
X-71089Y106116D01*
X-71220Y106069D01*
X-71237Y106057D01*
X-71256Y106050D01*
X-71368Y105968D01*
X-71483Y105890D01*
X-71496Y105875D01*
X-71513Y105863D01*
X-71602Y105756D01*
X-71694Y105652D01*
X-71703Y105634D01*
X-71716Y105618D01*
X-71775Y105492D01*
X-71838Y105368D01*
X-71843Y105349D01*
X-71851Y105330D01*
X-71877Y105194D01*
X-71908Y105058D01*
X-71907Y105038D01*
X-71911Y105018D01*
X-71902Y104880D01*
X-71898Y104740D01*
X-71892Y104721D01*
X-71891Y104701D01*
X-71848Y104569D01*
X-71810Y104435D01*
X-71799Y104417D01*
X-71793Y104398D01*
X-71719Y104280D01*
X-71648Y104161D01*
X-71630Y104140D01*
X-71623Y104129D01*
X-71608Y104115D01*
X-71542Y104040D01*
X-69491Y101989D01*
X-68106Y98646D01*
X-68106Y95029D01*
X-69491Y91686D01*
X-72049Y89128D01*
X-75391Y87744D01*
X-79009Y87744D01*
X-82351Y89128D01*
X-84909Y91686D01*
X-86294Y95029D01*
X-86294Y98646D01*
X-84909Y101989D01*
X-82858Y104040D01*
X-82773Y104150D01*
X-82684Y104257D01*
X-82676Y104275D01*
X-82663Y104291D01*
X-82608Y104419D01*
X-82549Y104545D01*
X-82545Y104564D01*
X-82537Y104583D01*
X-82515Y104721D01*
X-82489Y104857D01*
X-82490Y104877D01*
X-82487Y104897D01*
X-82500Y105036D01*
X-82509Y105174D01*
X-82515Y105194D01*
X-82517Y105214D01*
X-82564Y105345D01*
X-82607Y105477D01*
X-82618Y105494D01*
X-82624Y105513D01*
X-82703Y105628D01*
X-82777Y105746D01*
X-82792Y105760D01*
X-82803Y105776D01*
X-82907Y105868D01*
X-83009Y105964D01*
X-83026Y105973D01*
X-83041Y105987D01*
X-83166Y106050D01*
X-83287Y106117D01*
X-83307Y106122D01*
X-83325Y106131D01*
X-83461Y106162D01*
X-83595Y106197D01*
X-83623Y106198D01*
X-83635Y106201D01*
X-83656Y106200D01*
X-83756Y106207D01*
X-87747Y106207D01*
X-87845Y106194D01*
X-87944Y106191D01*
X-88002Y106175D01*
X-88062Y106167D01*
X-88154Y106130D01*
X-88250Y106103D01*
X-88302Y106072D01*
X-88358Y106050D01*
X-88438Y105992D01*
X-88524Y105941D01*
X-88599Y105875D01*
X-88615Y105863D01*
X-88623Y105854D01*
X-88644Y105835D01*
X-93588Y100891D01*
X-93606Y100868D01*
X-93628Y100849D01*
X-93703Y100743D01*
X-93783Y100640D01*
X-93795Y100613D01*
X-93812Y100589D01*
X-93858Y100468D01*
X-93909Y100348D01*
X-93914Y100319D01*
X-93924Y100292D01*
X-93939Y100163D01*
X-93959Y100034D01*
X-93956Y100005D01*
X-93960Y99975D01*
X-93941Y99847D01*
X-93929Y99718D01*
X-93919Y99690D01*
X-93915Y99661D01*
X-93863Y99508D01*
X-93506Y98646D01*
X-93506Y95029D01*
X-94891Y91686D01*
X-97449Y89128D01*
X-100791Y87744D01*
X-104409Y87744D01*
X-107751Y89128D01*
X-110309Y91686D01*
X-111694Y95029D01*
X-111694Y98646D01*
X-110309Y101989D01*
X-107751Y104547D01*
X-104409Y105931D01*
X-100791Y105931D01*
X-99929Y105574D01*
X-99901Y105567D01*
X-99875Y105553D01*
X-99748Y105525D01*
X-99623Y105491D01*
X-99593Y105490D01*
X-99564Y105484D01*
X-99434Y105488D01*
X-99305Y105485D01*
X-99276Y105492D01*
X-99246Y105493D01*
X-99122Y105529D01*
X-98995Y105560D01*
X-98969Y105573D01*
X-98941Y105582D01*
X-98829Y105648D01*
X-98714Y105708D01*
X-98692Y105728D01*
X-98667Y105743D01*
X-98546Y105850D01*
X-91177Y113219D01*
X-33123Y113219D01*
X-33025Y113231D01*
X-32926Y113234D01*
X-32868Y113251D01*
X-32807Y113258D01*
X-32715Y113295D01*
X-32620Y113322D01*
X-32568Y113353D01*
X-32512Y113375D01*
X-32432Y113434D01*
X-32346Y113484D01*
X-32271Y113550D01*
X-32254Y113562D01*
X-32247Y113572D01*
X-32225Y113590D01*
X-31217Y114599D01*
X-29098Y115477D01*
X-26805Y115477D01*
X-25925Y115112D01*
X-25877Y115099D01*
X-25833Y115078D01*
X-25725Y115057D01*
X-25619Y115028D01*
X-25569Y115027D01*
X-25520Y115018D01*
X-25411Y115025D01*
X-25301Y115023D01*
X-25252Y115035D01*
X-25203Y115038D01*
X-25098Y115072D01*
X-24991Y115097D01*
X-24947Y115121D01*
X-24900Y115136D01*
X-24807Y115195D01*
X-24710Y115246D01*
X-24674Y115279D01*
X-24632Y115306D01*
X-24556Y115386D01*
X-24475Y115460D01*
X-24448Y115502D01*
X-24414Y115538D01*
X-24361Y115634D01*
X-24300Y115726D01*
X-24284Y115773D01*
X-24260Y115816D01*
X-24233Y115922D01*
X-24197Y116027D01*
X-24193Y116076D01*
X-24181Y116124D01*
X-24170Y116285D01*
X-24170Y120623D01*
X-24183Y120721D01*
X-24186Y120821D01*
X-24203Y120879D01*
X-24210Y120939D01*
X-24247Y121031D01*
X-24274Y121126D01*
X-24305Y121178D01*
X-24327Y121235D01*
X-24385Y121315D01*
X-24400Y121340D01*
X-24400Y128521D01*
X-23239Y129682D01*
X1407Y129682D01*
X2568Y128521D01*
X2568Y121379D01*
X1833Y120643D01*
X1748Y120534D01*
X1659Y120426D01*
X1650Y120408D01*
X1638Y120392D01*
X1582Y120264D01*
X1523Y120139D01*
X1519Y120119D01*
X1511Y120100D01*
X1489Y119962D01*
X1463Y119826D01*
X1465Y119806D01*
X1461Y119786D01*
X1474Y119647D01*
X1483Y119509D01*
X1489Y119490D01*
X1491Y119469D01*
X1538Y119338D01*
X1581Y119206D01*
X1592Y119189D01*
X1599Y119170D01*
X1677Y119055D01*
X1751Y118938D01*
X1766Y118924D01*
X1777Y118907D01*
X1881Y118815D01*
X1983Y118720D01*
X2001Y118710D01*
X2016Y118696D01*
X2140Y118633D01*
X2261Y118566D01*
X2281Y118561D01*
X2299Y118552D01*
X2435Y118521D01*
X2569Y118487D01*
X2597Y118485D01*
X2609Y118482D01*
X2630Y118483D01*
X2730Y118476D01*
X2754Y118476D01*
X4873Y117599D01*
X6494Y115977D01*
X7372Y113859D01*
X7372Y111566D01*
X6494Y109448D01*
X4873Y107826D01*
X3385Y107210D01*
X3263Y107140D01*
X3141Y107076D01*
X3126Y107062D01*
X3108Y107052D01*
X3008Y106955D01*
X2906Y106862D01*
X2895Y106845D01*
X2880Y106831D01*
X2807Y106712D01*
X2731Y106596D01*
X2724Y106577D01*
X2714Y106560D01*
X2673Y106427D01*
X2628Y106295D01*
X2626Y106275D01*
X2620Y106256D01*
X2614Y106116D01*
X2603Y105978D01*
X2606Y105959D01*
X2605Y105938D01*
X2633Y105802D01*
X2657Y105665D01*
X2665Y105647D01*
X2669Y105627D01*
X2730Y105502D01*
X2788Y105375D01*
X2800Y105359D01*
X2809Y105341D01*
X2899Y105236D01*
X2986Y105127D01*
X3002Y105114D01*
X3015Y105099D01*
X3129Y105019D01*
X3240Y104935D01*
X3265Y104923D01*
X3275Y104916D01*
X3295Y104909D01*
X3385Y104864D01*
X4151Y104547D01*
X6709Y101989D01*
X8094Y98646D01*
X8094Y95029D01*
X6709Y91686D01*
X4151Y89128D01*
X809Y87744D01*
X-2809Y87744D01*
X-6185Y89142D01*
X-6206Y89159D01*
X-6314Y89248D01*
X-6332Y89256D01*
X-6348Y89269D01*
X-6476Y89324D01*
X-6602Y89383D01*
X-6621Y89387D01*
X-6640Y89395D01*
X-6777Y89417D01*
X-6914Y89443D01*
X-6934Y89442D01*
X-6954Y89445D01*
X-7093Y89432D01*
X-7231Y89423D01*
X-7250Y89417D01*
X-7271Y89415D01*
X-7402Y89368D01*
X-7534Y89325D01*
X-7551Y89314D01*
X-7570Y89308D01*
X-7685Y89229D01*
X-7803Y89155D01*
X-7816Y89140D01*
X-7833Y89129D01*
X-7925Y89025D01*
X-8021Y88923D01*
X-8030Y88906D01*
X-8044Y88891D01*
X-8107Y88767D01*
X-8174Y88645D01*
X-8179Y88625D01*
X-8188Y88607D01*
X-8219Y88471D01*
X-8253Y88337D01*
X-8255Y88309D01*
X-8258Y88297D01*
X-8257Y88276D01*
X-8264Y88176D01*
X-8264Y75880D01*
X-35970Y48173D01*
X-36031Y48095D01*
X-36099Y48022D01*
X-36128Y47969D01*
X-36165Y47922D01*
X-36205Y47831D01*
X-36253Y47744D01*
X-36268Y47685D01*
X-36292Y47630D01*
X-36307Y47532D01*
X-36332Y47436D01*
X-36338Y47336D01*
X-36342Y47316D01*
X-36340Y47303D01*
X-36342Y47275D01*
X-36342Y40286D01*
X-36330Y40188D01*
X-36327Y40089D01*
X-36310Y40030D01*
X-36302Y39970D01*
X-36266Y39878D01*
X-36238Y39783D01*
X-36208Y39731D01*
X-36185Y39675D01*
X-36127Y39595D01*
X-36077Y39509D01*
X-36011Y39434D01*
X-35999Y39417D01*
X-35989Y39409D01*
X-35970Y39388D01*
X-34708Y38126D01*
X-33830Y36007D01*
X-33830Y33714D01*
X-34708Y31596D01*
X-36329Y29974D01*
X-38448Y29097D01*
X-40741Y29097D01*
X-42859Y29974D01*
X-44481Y31596D01*
X-44975Y32790D01*
X-45027Y32880D01*
X-45070Y32974D01*
X-45105Y33017D01*
X-45133Y33066D01*
X-45205Y33140D01*
X-45270Y33221D01*
X-45315Y33254D01*
X-45354Y33294D01*
X-45442Y33349D01*
X-45525Y33410D01*
X-45577Y33431D01*
X-45625Y33461D01*
X-45724Y33491D01*
X-45820Y33530D01*
X-45876Y33538D01*
X-45929Y33554D01*
X-46033Y33559D01*
X-46135Y33573D01*
X-46191Y33567D01*
X-46247Y33570D01*
X-46348Y33549D01*
X-46451Y33537D01*
X-46503Y33517D01*
X-46558Y33505D01*
X-46651Y33460D01*
X-46748Y33423D01*
X-46794Y33390D01*
X-46844Y33365D01*
X-46923Y33298D01*
X-47007Y33238D01*
X-47043Y33195D01*
X-47086Y33159D01*
X-47145Y33075D01*
X-47212Y32995D01*
X-47257Y32917D01*
X-47269Y32899D01*
X-47274Y32886D01*
X-47291Y32855D01*
X-47494Y32434D01*
X-47499Y32420D01*
X-47507Y32408D01*
X-47564Y32257D01*
X-47797Y31503D01*
X-47862Y31457D01*
X-47865Y31454D01*
X-47868Y31452D01*
X-47970Y31331D01*
X-48069Y31215D01*
X-48071Y31212D01*
X-48074Y31209D01*
X-48152Y31068D01*
X-48535Y30275D01*
X-48558Y30206D01*
X-48591Y30140D01*
X-48608Y30055D01*
X-48636Y29974D01*
X-48641Y29901D01*
X-48656Y29829D01*
X-48652Y29743D01*
X-48659Y29657D01*
X-48646Y29584D01*
X-48642Y29511D01*
X-48617Y29429D01*
X-48602Y29344D01*
X-48571Y29277D01*
X-48550Y29207D01*
X-48505Y29133D01*
X-48469Y29055D01*
X-48423Y28997D01*
X-48385Y28935D01*
X-48324Y28875D01*
X-48269Y28808D01*
X-48210Y28764D01*
X-48158Y28713D01*
X-48024Y28624D01*
X-16351Y10429D01*
X-16886Y9657D01*
X-16897Y9631D01*
X-16915Y9609D01*
X-16936Y9540D01*
X-16964Y9474D01*
X-16964Y9446D01*
X-16972Y9418D01*
X-16964Y9347D01*
X-16965Y9276D01*
X-16954Y9249D01*
X-16950Y9221D01*
X-16916Y9158D01*
X-16888Y9092D01*
X-16867Y9072D01*
X-16853Y9047D01*
X-16776Y8983D01*
X-16745Y8953D01*
X-16735Y8949D01*
X-16725Y8941D01*
X-248Y-598D01*
X-174Y-623D01*
X-103Y-654D01*
X-81Y-655D01*
X-59Y-662D01*
X18Y-656D01*
G37*
G36*
X-36774Y256324D02*
X-36774Y256324D01*
X-36636Y256332D01*
X-36617Y256338D01*
X-36596Y256340D01*
X-36465Y256388D01*
X-36333Y256430D01*
X-36316Y256441D01*
X-36297Y256448D01*
X-36182Y256526D01*
X-36065Y256600D01*
X-36051Y256615D01*
X-36034Y256627D01*
X-35942Y256731D01*
X-35847Y256832D01*
X-35837Y256850D01*
X-35824Y256865D01*
X-35760Y256989D01*
X-35693Y257111D01*
X-35688Y257130D01*
X-35679Y257148D01*
X-35648Y257284D01*
X-35614Y257418D01*
X-35612Y257447D01*
X-35609Y257459D01*
X-35610Y257479D01*
X-35604Y257579D01*
X-35604Y266583D01*
X-29999Y272188D01*
X-29969Y272227D01*
X-29932Y272260D01*
X-29872Y272352D01*
X-29804Y272439D01*
X-29785Y272484D01*
X-29757Y272526D01*
X-29722Y272630D01*
X-29678Y272731D01*
X-29670Y272780D01*
X-29654Y272827D01*
X-29645Y272936D01*
X-29628Y273045D01*
X-29633Y273094D01*
X-29629Y273144D01*
X-29648Y273252D01*
X-29658Y273361D01*
X-29675Y273408D01*
X-29683Y273457D01*
X-29728Y273557D01*
X-29766Y273661D01*
X-29794Y273702D01*
X-29814Y273747D01*
X-29883Y273833D01*
X-29944Y273924D01*
X-29982Y273957D01*
X-30013Y273995D01*
X-30100Y274062D01*
X-30183Y274134D01*
X-30227Y274157D01*
X-30267Y274187D01*
X-30411Y274258D01*
X-30839Y274435D01*
X-33540Y277136D01*
X-35002Y280665D01*
X-35002Y284485D01*
X-33540Y288014D01*
X-30839Y290715D01*
X-27310Y292177D01*
X-23490Y292177D01*
X-19961Y290715D01*
X-17260Y288014D01*
X-15798Y284485D01*
X-15798Y280665D01*
X-17260Y277136D01*
X-18315Y276081D01*
X-18400Y275972D01*
X-18489Y275864D01*
X-18497Y275846D01*
X-18510Y275830D01*
X-18565Y275702D01*
X-18624Y275576D01*
X-18628Y275557D01*
X-18636Y275538D01*
X-18658Y275400D01*
X-18684Y275264D01*
X-18683Y275244D01*
X-18686Y275224D01*
X-18673Y275085D01*
X-18664Y274947D01*
X-18658Y274927D01*
X-18656Y274907D01*
X-18609Y274776D01*
X-18566Y274644D01*
X-18555Y274627D01*
X-18549Y274608D01*
X-18470Y274493D01*
X-18396Y274375D01*
X-18381Y274362D01*
X-18370Y274345D01*
X-18266Y274253D01*
X-18164Y274157D01*
X-18147Y274148D01*
X-18132Y274134D01*
X-18008Y274071D01*
X-17886Y274004D01*
X-17866Y273999D01*
X-17848Y273990D01*
X-17712Y273959D01*
X-17578Y273925D01*
X-17550Y273923D01*
X-17538Y273920D01*
X-17518Y273921D01*
X-17417Y273914D01*
X-7983Y273914D01*
X-7845Y273932D01*
X-7706Y273945D01*
X-7687Y273952D01*
X-7667Y273954D01*
X-7538Y274005D01*
X-7407Y274052D01*
X-7390Y274064D01*
X-7371Y274071D01*
X-7259Y274153D01*
X-7144Y274231D01*
X-7131Y274246D01*
X-7114Y274258D01*
X-7025Y274365D01*
X-6933Y274469D01*
X-6924Y274487D01*
X-6911Y274503D01*
X-6852Y274629D01*
X-6789Y274753D01*
X-6784Y274772D01*
X-6776Y274791D01*
X-6750Y274927D01*
X-6719Y275063D01*
X-6720Y275083D01*
X-6716Y275103D01*
X-6725Y275241D01*
X-6729Y275381D01*
X-6734Y275400D01*
X-6736Y275420D01*
X-6778Y275552D01*
X-6817Y275686D01*
X-6828Y275704D01*
X-6834Y275723D01*
X-6908Y275841D01*
X-6979Y275960D01*
X-6997Y275981D01*
X-7004Y275992D01*
X-7019Y276006D01*
X-7085Y276081D01*
X-8140Y277136D01*
X-9602Y280665D01*
X-9602Y284485D01*
X-8140Y288014D01*
X-5439Y290715D01*
X-1910Y292177D01*
X1910Y292177D01*
X5439Y290715D01*
X8140Y288014D01*
X8406Y287372D01*
X8421Y287347D01*
X8430Y287319D01*
X8499Y287209D01*
X8563Y287096D01*
X8584Y287075D01*
X8600Y287050D01*
X8694Y286961D01*
X8785Y286868D01*
X8810Y286852D01*
X8831Y286832D01*
X8945Y286769D01*
X9056Y286702D01*
X9084Y286693D01*
X9110Y286679D01*
X9236Y286646D01*
X9360Y286608D01*
X9389Y286607D01*
X9418Y286599D01*
X9564Y286590D01*
X10762Y285392D01*
X10840Y285331D01*
X10912Y285264D01*
X10965Y285234D01*
X11013Y285197D01*
X11104Y285158D01*
X11191Y285110D01*
X11249Y285095D01*
X11305Y285071D01*
X11403Y285055D01*
X11499Y285031D01*
X11599Y285024D01*
X11619Y285021D01*
X11631Y285022D01*
X11659Y285020D01*
X13741Y285020D01*
X13839Y285033D01*
X13938Y285036D01*
X13996Y285053D01*
X14056Y285060D01*
X14148Y285097D01*
X14243Y285124D01*
X14295Y285155D01*
X14352Y285177D01*
X14432Y285235D01*
X14517Y285286D01*
X14593Y285352D01*
X14609Y285364D01*
X14617Y285374D01*
X14638Y285392D01*
X15837Y286591D01*
X15851Y286593D01*
X15880Y286590D01*
X16008Y286613D01*
X16137Y286629D01*
X16164Y286640D01*
X16194Y286645D01*
X16312Y286698D01*
X16433Y286746D01*
X16457Y286763D01*
X16484Y286775D01*
X16585Y286856D01*
X16690Y286933D01*
X16709Y286955D01*
X16732Y286974D01*
X16810Y287077D01*
X16893Y287178D01*
X16905Y287204D01*
X16923Y287228D01*
X16994Y287372D01*
X17260Y288014D01*
X19961Y290715D01*
X23490Y292177D01*
X27310Y292177D01*
X30839Y290715D01*
X33540Y288014D01*
X35002Y284485D01*
X35002Y280665D01*
X33540Y277136D01*
X32485Y276081D01*
X32400Y275972D01*
X32311Y275864D01*
X32303Y275846D01*
X32290Y275830D01*
X32235Y275702D01*
X32176Y275576D01*
X32172Y275557D01*
X32164Y275538D01*
X32142Y275400D01*
X32116Y275264D01*
X32117Y275244D01*
X32114Y275224D01*
X32127Y275085D01*
X32136Y274947D01*
X32142Y274927D01*
X32144Y274907D01*
X32191Y274776D01*
X32234Y274644D01*
X32245Y274627D01*
X32251Y274608D01*
X32330Y274493D01*
X32404Y274375D01*
X32419Y274362D01*
X32430Y274345D01*
X32534Y274253D01*
X32636Y274157D01*
X32653Y274148D01*
X32668Y274134D01*
X32792Y274071D01*
X32914Y274004D01*
X32934Y273999D01*
X32952Y273990D01*
X33088Y273959D01*
X33222Y273925D01*
X33250Y273923D01*
X33262Y273920D01*
X33282Y273921D01*
X33383Y273914D01*
X61688Y273914D01*
X61832Y273932D01*
X61977Y273948D01*
X61990Y273952D01*
X62004Y273954D01*
X62139Y274008D01*
X62276Y274058D01*
X62287Y274066D01*
X62300Y274071D01*
X62417Y274157D01*
X62537Y274239D01*
X62546Y274250D01*
X62557Y274258D01*
X62650Y274370D01*
X62745Y274480D01*
X62751Y274492D01*
X62760Y274503D01*
X62822Y274634D01*
X62887Y274765D01*
X62890Y274778D01*
X62895Y274791D01*
X62923Y274933D01*
X62953Y275076D01*
X62953Y275090D01*
X62955Y275103D01*
X62946Y275248D01*
X62940Y275393D01*
X62936Y275407D01*
X62935Y275420D01*
X62891Y275559D01*
X62849Y275698D01*
X62842Y275710D01*
X62837Y275723D01*
X62759Y275846D01*
X62684Y275970D01*
X62675Y275980D01*
X62667Y275992D01*
X62561Y276091D01*
X62458Y276193D01*
X62442Y276204D01*
X62436Y276210D01*
X62421Y276218D01*
X62324Y276282D01*
X62269Y276314D01*
X62256Y276319D01*
X62244Y276328D01*
X62098Y276396D01*
X61364Y276685D01*
X61323Y276753D01*
X61320Y276756D01*
X61318Y276760D01*
X61208Y276868D01*
X61098Y276978D01*
X61094Y276980D01*
X61091Y276983D01*
X60957Y277072D01*
X59599Y277857D01*
X59595Y277859D01*
X59591Y277861D01*
X59451Y277919D01*
X59306Y277980D01*
X59301Y277981D01*
X59298Y277982D01*
X59147Y278004D01*
X59059Y278017D01*
X58443Y278508D01*
X58431Y278516D01*
X58420Y278526D01*
X58286Y278615D01*
X57603Y279010D01*
X57573Y279084D01*
X57571Y279087D01*
X57569Y279091D01*
X57476Y279214D01*
X57383Y279339D01*
X57380Y279342D01*
X57378Y279345D01*
X57259Y279453D01*
X56032Y280432D01*
X56029Y280434D01*
X56026Y280437D01*
X55893Y280517D01*
X55761Y280598D01*
X55757Y280599D01*
X55753Y280601D01*
X55605Y280645D01*
X55522Y280671D01*
X54987Y281248D01*
X54976Y281258D01*
X54967Y281269D01*
X54848Y281377D01*
X54231Y281869D01*
X54212Y281947D01*
X54210Y281951D01*
X54209Y281955D01*
X54136Y282091D01*
X54063Y282228D01*
X54060Y282231D01*
X54058Y282235D01*
X53956Y282359D01*
X52890Y283510D01*
X52886Y283513D01*
X52884Y283516D01*
X52764Y283615D01*
X52646Y283714D01*
X52642Y283716D01*
X52639Y283719D01*
X52497Y283786D01*
X52421Y283822D01*
X51977Y284473D01*
X51968Y284484D01*
X51961Y284496D01*
X51859Y284621D01*
X51323Y285200D01*
X51316Y285279D01*
X51314Y285283D01*
X51314Y285287D01*
X51261Y285435D01*
X51210Y285579D01*
X51207Y285583D01*
X51206Y285587D01*
X51124Y285725D01*
X50241Y287022D01*
X50238Y287025D01*
X50236Y287029D01*
X50131Y287146D01*
X50030Y287260D01*
X50027Y287262D01*
X50024Y287266D01*
X49894Y287352D01*
X49824Y287400D01*
X49482Y288110D01*
X49474Y288122D01*
X49469Y288136D01*
X49387Y288274D01*
X48943Y288926D01*
X48948Y289006D01*
X48947Y289010D01*
X48947Y289014D01*
X48917Y289168D01*
X48888Y289319D01*
X48886Y289322D01*
X48885Y289326D01*
X48825Y289476D01*
X48145Y290889D01*
X48142Y290893D01*
X48141Y290897D01*
X48055Y291028D01*
X47972Y291156D01*
X47969Y291159D01*
X47967Y291163D01*
X47853Y291267D01*
X47789Y291326D01*
X47557Y292078D01*
X47551Y292091D01*
X47548Y292106D01*
X47488Y292255D01*
X47145Y292966D01*
X47162Y293044D01*
X47162Y293048D01*
X47163Y293052D01*
X47156Y293206D01*
X47150Y293362D01*
X47148Y293366D01*
X47148Y293370D01*
X47111Y293527D01*
X46649Y295026D01*
X46647Y295030D01*
X46646Y295034D01*
X46581Y295176D01*
X46518Y295316D01*
X46515Y295319D01*
X46513Y295323D01*
X46416Y295443D01*
X46362Y295510D01*
X46245Y296289D01*
X46241Y296303D01*
X46240Y296318D01*
X46202Y296474D01*
X45970Y297228D01*
X45998Y297303D01*
X45999Y297307D01*
X46000Y297311D01*
X46016Y297466D01*
X46033Y297619D01*
X46033Y297623D01*
X46033Y297628D01*
X46019Y297788D01*
X45786Y299339D01*
X45785Y299343D01*
X45785Y299348D01*
X45742Y299496D01*
X45700Y299645D01*
X45697Y299649D01*
X45696Y299653D01*
X45617Y299787D01*
X45574Y299861D01*
X45575Y300649D01*
X45573Y300663D01*
X45574Y300678D01*
X45560Y300838D01*
X45443Y301618D01*
X45482Y301688D01*
X45483Y301692D01*
X45485Y301696D01*
X45525Y301850D01*
X45564Y301996D01*
X45564Y302000D01*
X45565Y302004D01*
X45575Y302164D01*
X45576Y303733D01*
X45575Y303737D01*
X45576Y303742D01*
X45555Y303895D01*
X45536Y304049D01*
X45534Y304053D01*
X45534Y304057D01*
X45475Y304203D01*
X45444Y304281D01*
X45562Y305060D01*
X45562Y305074D01*
X45566Y305088D01*
X45576Y305249D01*
X45576Y306038D01*
X45625Y306101D01*
X45627Y306105D01*
X45629Y306108D01*
X45688Y306246D01*
X45752Y306393D01*
X45752Y306397D01*
X45754Y306401D01*
X45788Y306558D01*
X46022Y308109D01*
X46023Y308113D01*
X46024Y308117D01*
X46026Y308272D01*
X46030Y308427D01*
X46029Y308431D01*
X46029Y308435D01*
X45994Y308583D01*
X45974Y308670D01*
X46207Y309423D01*
X46209Y309437D01*
X46215Y309451D01*
X46249Y309608D01*
X46367Y310388D01*
X46425Y310443D01*
X46427Y310447D01*
X46430Y310450D01*
X46511Y310581D01*
X46593Y310713D01*
X46594Y310717D01*
X46597Y310720D01*
X46654Y310871D01*
X47117Y312370D01*
X47117Y312374D01*
X47119Y312378D01*
X47144Y312527D01*
X47172Y312683D01*
X47171Y312688D01*
X47172Y312691D01*
X47159Y312843D01*
X47152Y312932D01*
X47494Y313641D01*
X47499Y313655D01*
X47507Y313667D01*
X47564Y313818D01*
X47797Y314572D01*
X47862Y314618D01*
X47865Y314621D01*
X47868Y314623D01*
X47967Y314741D01*
X48069Y314859D01*
X48071Y314863D01*
X48073Y314866D01*
X48152Y315007D01*
X48606Y315948D01*
X48629Y316017D01*
X48661Y316081D01*
X48680Y316167D01*
X48707Y316250D01*
X48713Y316322D01*
X48728Y316392D01*
X48724Y316480D01*
X48730Y316567D01*
X48718Y316638D01*
X48715Y316710D01*
X48689Y316794D01*
X48674Y316880D01*
X48644Y316945D01*
X48623Y317014D01*
X48578Y317089D01*
X48541Y317169D01*
X48496Y317225D01*
X48459Y317287D01*
X48396Y317348D01*
X48341Y317416D01*
X48283Y317459D01*
X48232Y317509D01*
X48098Y317599D01*
X16491Y335847D01*
X16886Y336418D01*
X16897Y336444D01*
X16915Y336466D01*
X16936Y336535D01*
X16964Y336601D01*
X16964Y336629D01*
X16972Y336657D01*
X16964Y336728D01*
X16965Y336799D01*
X16954Y336826D01*
X16950Y336854D01*
X16916Y336917D01*
X16888Y336983D01*
X16867Y337003D01*
X16853Y337028D01*
X16776Y337092D01*
X16745Y337122D01*
X16735Y337126D01*
X16725Y337134D01*
X248Y346673D01*
X174Y346698D01*
X103Y346729D01*
X81Y346730D01*
X59Y346737D01*
X-18Y346731D01*
X-96Y346732D01*
X-119Y346723D01*
X-139Y346721D01*
X-178Y346701D01*
X-252Y346674D01*
X-16706Y337174D01*
X-16728Y337155D01*
X-16753Y337143D01*
X-16801Y337090D01*
X-16855Y337042D01*
X-16867Y337016D01*
X-16886Y336995D01*
X-16910Y336927D01*
X-16941Y336863D01*
X-16942Y336834D01*
X-16952Y336807D01*
X-16947Y336736D01*
X-16950Y336664D01*
X-16940Y336637D01*
X-16938Y336609D01*
X-16895Y336517D01*
X-16881Y336478D01*
X-16873Y336470D01*
X-16868Y336458D01*
X-16461Y335867D01*
X-48114Y317593D01*
X-48171Y317549D01*
X-48233Y317514D01*
X-48297Y317453D01*
X-48367Y317400D01*
X-48412Y317344D01*
X-48464Y317295D01*
X-48510Y317220D01*
X-48565Y317151D01*
X-48594Y317086D01*
X-48632Y317025D01*
X-48658Y316941D01*
X-48694Y316861D01*
X-48706Y316790D01*
X-48728Y316721D01*
X-48732Y316634D01*
X-48747Y316547D01*
X-48741Y316476D01*
X-48745Y316404D01*
X-48728Y316318D01*
X-48721Y316230D01*
X-48697Y316162D01*
X-48683Y316092D01*
X-48623Y315943D01*
X-48166Y314994D01*
X-48164Y314991D01*
X-48162Y314987D01*
X-48077Y314858D01*
X-47993Y314728D01*
X-47990Y314725D01*
X-47988Y314721D01*
X-47873Y314617D01*
X-47810Y314558D01*
X-47578Y313806D01*
X-47572Y313792D01*
X-47569Y313778D01*
X-47508Y313629D01*
X-47166Y312918D01*
X-47183Y312840D01*
X-47183Y312836D01*
X-47183Y312832D01*
X-47176Y312678D01*
X-47170Y312522D01*
X-47169Y312518D01*
X-47169Y312514D01*
X-47131Y312358D01*
X-46669Y310860D01*
X-46667Y310857D01*
X-46667Y310853D01*
X-46602Y310713D01*
X-46538Y310571D01*
X-46535Y310567D01*
X-46534Y310564D01*
X-46436Y310443D01*
X-46382Y310376D01*
X-46265Y309597D01*
X-46261Y309583D01*
X-46260Y309569D01*
X-46222Y309412D01*
X-45990Y308658D01*
X-46018Y308583D01*
X-46018Y308579D01*
X-46020Y308575D01*
X-46036Y308420D01*
X-46053Y308267D01*
X-46052Y308263D01*
X-46053Y308259D01*
X-46039Y308099D01*
X-45805Y306549D01*
X-45804Y306546D01*
X-45804Y306541D01*
X-45761Y306392D01*
X-45719Y306243D01*
X-45717Y306240D01*
X-45716Y306236D01*
X-45637Y306103D01*
X-45594Y306028D01*
X-45594Y305240D01*
X-45592Y305226D01*
X-45593Y305211D01*
X-45579Y305051D01*
X-45462Y304271D01*
X-45501Y304201D01*
X-45502Y304197D01*
X-45504Y304193D01*
X-45543Y304042D01*
X-45582Y303893D01*
X-45582Y303889D01*
X-45583Y303885D01*
X-45594Y303725D01*
X-45594Y302158D01*
X-45593Y302154D01*
X-45594Y302150D01*
X-45573Y301997D01*
X-45554Y301842D01*
X-45552Y301839D01*
X-45552Y301834D01*
X-45493Y301688D01*
X-45462Y301611D01*
X-45579Y300832D01*
X-45580Y300817D01*
X-45583Y300803D01*
X-45590Y300692D01*
X-45591Y300689D01*
X-45591Y300686D01*
X-45594Y300642D01*
X-45594Y299853D01*
X-45643Y299790D01*
X-45644Y299786D01*
X-45647Y299783D01*
X-45708Y299639D01*
X-45769Y299498D01*
X-45770Y299494D01*
X-45771Y299490D01*
X-45805Y299333D01*
X-46039Y297784D01*
X-46039Y297780D01*
X-46040Y297776D01*
X-46043Y297618D01*
X-46046Y297466D01*
X-46045Y297462D01*
X-46046Y297458D01*
X-46009Y297303D01*
X-45990Y297223D01*
X-46222Y296470D01*
X-46225Y296456D01*
X-46231Y296443D01*
X-46265Y296285D01*
X-46382Y295505D01*
X-46440Y295450D01*
X-46442Y295446D01*
X-46445Y295444D01*
X-46525Y295314D01*
X-46609Y295180D01*
X-46610Y295176D01*
X-46612Y295173D01*
X-46669Y295022D01*
X-47131Y293525D01*
X-47132Y293521D01*
X-47133Y293517D01*
X-47159Y293364D01*
X-47186Y293212D01*
X-47186Y293208D01*
X-47186Y293204D01*
X-47173Y293049D01*
X-47167Y292963D01*
X-47508Y292253D01*
X-47513Y292240D01*
X-47521Y292227D01*
X-47578Y292077D01*
X-47810Y291323D01*
X-47876Y291277D01*
X-47878Y291274D01*
X-47882Y291271D01*
X-47981Y291154D01*
X-48082Y291035D01*
X-48084Y291032D01*
X-48087Y291028D01*
X-48166Y290888D01*
X-48846Y289477D01*
X-48847Y289473D01*
X-48849Y289469D01*
X-48897Y289323D01*
X-48947Y289175D01*
X-48947Y289171D01*
X-48948Y289167D01*
X-48958Y289012D01*
X-48965Y288926D01*
X-49408Y288275D01*
X-49415Y288263D01*
X-49424Y288252D01*
X-49503Y288111D01*
X-49846Y287400D01*
X-49917Y287365D01*
X-49920Y287362D01*
X-49924Y287360D01*
X-50038Y287260D01*
X-50158Y287156D01*
X-50160Y287153D01*
X-50163Y287150D01*
X-50262Y287023D01*
X-51145Y285729D01*
X-51146Y285725D01*
X-51149Y285722D01*
X-51218Y285585D01*
X-51289Y285446D01*
X-51290Y285442D01*
X-51292Y285438D01*
X-51326Y285283D01*
X-51359Y285138D01*
X-51390Y285094D01*
X-51399Y285070D01*
X-51414Y285049D01*
X-51457Y284923D01*
X-51505Y284798D01*
X-51508Y284772D01*
X-51517Y284748D01*
X-51527Y284615D01*
X-51543Y284482D01*
X-51540Y284457D01*
X-51542Y284431D01*
X-51519Y284300D01*
X-51502Y284167D01*
X-51492Y284143D01*
X-51488Y284117D01*
X-51433Y283996D01*
X-51383Y283872D01*
X-51368Y283851D01*
X-51357Y283827D01*
X-51274Y283723D01*
X-51195Y283616D01*
X-51175Y283599D01*
X-51159Y283579D01*
X-51052Y283499D01*
X-50949Y283414D01*
X-50925Y283403D01*
X-50904Y283388D01*
X-50760Y283317D01*
X-49020Y282596D01*
X-47398Y280975D01*
X-46521Y278856D01*
X-46521Y276563D01*
X-47398Y274445D01*
X-48661Y273182D01*
X-48722Y273104D01*
X-48790Y273031D01*
X-48819Y272978D01*
X-48856Y272931D01*
X-48895Y272840D01*
X-48943Y272753D01*
X-48958Y272694D01*
X-48982Y272639D01*
X-48998Y272541D01*
X-49022Y272445D01*
X-49029Y272345D01*
X-49032Y272325D01*
X-49031Y272312D01*
X-49033Y272284D01*
X-49033Y268470D01*
X-49020Y268372D01*
X-49017Y268273D01*
X-49000Y268214D01*
X-48993Y268154D01*
X-48956Y268062D01*
X-48929Y267967D01*
X-48898Y267915D01*
X-48876Y267859D01*
X-48818Y267779D01*
X-48767Y267693D01*
X-48701Y267618D01*
X-48689Y267601D01*
X-48680Y267594D01*
X-48661Y267572D01*
X-37770Y256682D01*
X-37660Y256596D01*
X-37553Y256508D01*
X-37535Y256499D01*
X-37519Y256487D01*
X-37391Y256431D01*
X-37266Y256372D01*
X-37246Y256368D01*
X-37227Y256360D01*
X-37089Y256338D01*
X-36953Y256312D01*
X-36933Y256314D01*
X-36913Y256311D01*
X-36774Y256324D01*
G37*
G36*
X35660Y31089D02*
X35660Y31089D01*
X35792Y31092D01*
X35818Y31099D01*
X35845Y31101D01*
X35971Y31142D01*
X36099Y31177D01*
X36133Y31194D01*
X36148Y31199D01*
X36166Y31211D01*
X36243Y31249D01*
X45311Y36484D01*
X45403Y36554D01*
X45500Y36618D01*
X45529Y36650D01*
X45564Y36676D01*
X45636Y36767D01*
X45714Y36853D01*
X45748Y36909D01*
X45761Y36925D01*
X45769Y36943D01*
X45798Y36990D01*
X45906Y37194D01*
X45907Y37198D01*
X45910Y37201D01*
X45964Y37348D01*
X46018Y37492D01*
X46019Y37496D01*
X46020Y37500D01*
X46036Y37654D01*
X46053Y37808D01*
X46052Y37812D01*
X46053Y37816D01*
X46039Y37976D01*
X45805Y39525D01*
X45804Y39529D01*
X45804Y39534D01*
X45761Y39683D01*
X45719Y39832D01*
X45717Y39835D01*
X45716Y39839D01*
X45638Y39970D01*
X45594Y40047D01*
X45594Y40835D01*
X45592Y40849D01*
X45593Y40864D01*
X45579Y41024D01*
X45462Y41804D01*
X45501Y41874D01*
X45502Y41878D01*
X45504Y41882D01*
X45542Y42031D01*
X45582Y42182D01*
X45582Y42186D01*
X45583Y42190D01*
X45594Y42350D01*
X45594Y43917D01*
X45593Y43921D01*
X45594Y43925D01*
X45573Y44078D01*
X45554Y44233D01*
X45552Y44236D01*
X45552Y44240D01*
X45494Y44384D01*
X45462Y44464D01*
X45579Y45243D01*
X45580Y45258D01*
X45583Y45272D01*
X45594Y45433D01*
X45594Y46222D01*
X45643Y46285D01*
X45644Y46289D01*
X45647Y46292D01*
X45708Y46436D01*
X45769Y46577D01*
X45770Y46581D01*
X45771Y46585D01*
X45805Y46742D01*
X46039Y48291D01*
X46039Y48295D01*
X46040Y48299D01*
X46043Y48457D01*
X46046Y48609D01*
X46045Y48613D01*
X46046Y48617D01*
X46009Y48769D01*
X45990Y48852D01*
X46222Y49605D01*
X46225Y49619D01*
X46231Y49632D01*
X46265Y49790D01*
X46382Y50570D01*
X46440Y50625D01*
X46442Y50629D01*
X46445Y50631D01*
X46525Y50762D01*
X46609Y50895D01*
X46610Y50899D01*
X46612Y50902D01*
X46669Y51053D01*
X47131Y52550D01*
X47132Y52554D01*
X47133Y52558D01*
X47159Y52710D01*
X47186Y52863D01*
X47186Y52867D01*
X47186Y52871D01*
X47173Y53024D01*
X47166Y53112D01*
X47508Y53822D01*
X47513Y53835D01*
X47521Y53848D01*
X47567Y53970D01*
X47572Y53981D01*
X47573Y53987D01*
X47578Y53998D01*
X47810Y54752D01*
X47876Y54798D01*
X47878Y54801D01*
X47882Y54804D01*
X47981Y54921D01*
X48082Y55040D01*
X48084Y55043D01*
X48087Y55046D01*
X48166Y55187D01*
X48846Y56598D01*
X48847Y56602D01*
X48849Y56606D01*
X48897Y56751D01*
X48947Y56900D01*
X48947Y56904D01*
X48948Y56908D01*
X48958Y57063D01*
X48965Y57149D01*
X49408Y57799D01*
X49415Y57812D01*
X49424Y57823D01*
X49503Y57964D01*
X49846Y58675D01*
X49917Y58710D01*
X49920Y58713D01*
X49924Y58715D01*
X50040Y58817D01*
X50158Y58919D01*
X50160Y58922D01*
X50163Y58925D01*
X50262Y59052D01*
X51145Y60346D01*
X51146Y60350D01*
X51149Y60353D01*
X51218Y60491D01*
X51289Y60629D01*
X51290Y60633D01*
X51292Y60637D01*
X51324Y60784D01*
X51344Y60872D01*
X51880Y61450D01*
X51888Y61462D01*
X51899Y61471D01*
X51998Y61598D01*
X52443Y62250D01*
X52519Y62275D01*
X52522Y62277D01*
X52526Y62278D01*
X52658Y62363D01*
X52788Y62445D01*
X52790Y62448D01*
X52794Y62450D01*
X52911Y62561D01*
X53976Y63709D01*
X53979Y63713D01*
X53982Y63715D01*
X54072Y63843D01*
X54076Y63848D01*
X54077Y63850D01*
X54162Y63968D01*
X54163Y63972D01*
X54166Y63975D01*
X54221Y64121D01*
X54252Y64200D01*
X54868Y64691D01*
X54878Y64702D01*
X54890Y64709D01*
X55007Y64820D01*
X55544Y65399D01*
X55623Y65412D01*
X55627Y65413D01*
X55631Y65414D01*
X55773Y65478D01*
X55914Y65540D01*
X55917Y65542D01*
X55921Y65544D01*
X56053Y65636D01*
X57278Y66613D01*
X57281Y66616D01*
X57284Y66618D01*
X57389Y66728D01*
X57500Y66841D01*
X57502Y66844D01*
X57505Y66847D01*
X57580Y66981D01*
X57624Y67057D01*
X58306Y67451D01*
X58317Y67460D01*
X58331Y67466D01*
X58463Y67558D01*
X59080Y68050D01*
X59160Y68051D01*
X59164Y68052D01*
X59168Y68052D01*
X59317Y68094D01*
X59467Y68134D01*
X59470Y68136D01*
X59474Y68137D01*
X59618Y68209D01*
X60975Y68992D01*
X60978Y68995D01*
X60982Y68996D01*
X61105Y69091D01*
X61229Y69184D01*
X61231Y69188D01*
X61234Y69190D01*
X61330Y69312D01*
X61383Y69380D01*
X62117Y69667D01*
X62129Y69674D01*
X62143Y69678D01*
X62288Y69750D01*
X62971Y70144D01*
X63050Y70133D01*
X63054Y70134D01*
X63058Y70133D01*
X63212Y70152D01*
X63366Y70170D01*
X63370Y70171D01*
X63374Y70172D01*
X63527Y70221D01*
X64986Y70794D01*
X64990Y70796D01*
X64993Y70797D01*
X65128Y70871D01*
X65265Y70946D01*
X65268Y70949D01*
X65272Y70951D01*
X65384Y71057D01*
X65447Y71116D01*
X66215Y71291D01*
X66229Y71296D01*
X66243Y71298D01*
X66396Y71347D01*
X67131Y71635D01*
X67208Y71613D01*
X67212Y71613D01*
X67216Y71612D01*
X67370Y71607D01*
X67526Y71602D01*
X67530Y71603D01*
X67534Y71603D01*
X67693Y71628D01*
X69220Y71977D01*
X69224Y71979D01*
X69228Y71979D01*
X69372Y72032D01*
X69519Y72086D01*
X69522Y72088D01*
X69526Y72090D01*
X69654Y72179D01*
X69724Y72227D01*
X70510Y72286D01*
X70524Y72289D01*
X70539Y72289D01*
X70698Y72314D01*
X71467Y72490D01*
X71539Y72456D01*
X71543Y72455D01*
X71547Y72454D01*
X71703Y72426D01*
X71852Y72398D01*
X71856Y72398D01*
X71860Y72397D01*
X72021Y72399D01*
X73584Y72516D01*
X73588Y72517D01*
X73592Y72517D01*
X73745Y72549D01*
X73895Y72580D01*
X73899Y72582D01*
X73903Y72582D01*
X74042Y72651D01*
X74120Y72689D01*
X74905Y72630D01*
X74920Y72630D01*
X74934Y72628D01*
X75095Y72630D01*
X75882Y72689D01*
X75948Y72644D01*
X75952Y72643D01*
X75956Y72641D01*
X76102Y72591D01*
X76249Y72540D01*
X76253Y72540D01*
X76257Y72539D01*
X76416Y72516D01*
X77979Y72399D01*
X77983Y72400D01*
X77987Y72399D01*
X78142Y72408D01*
X78296Y72415D01*
X78300Y72417D01*
X78304Y72417D01*
X78451Y72464D01*
X78534Y72490D01*
X79302Y72314D01*
X79317Y72313D01*
X79330Y72308D01*
X79490Y72286D01*
X80277Y72227D01*
X80336Y72174D01*
X80340Y72172D01*
X80343Y72169D01*
X80479Y72098D01*
X80618Y72026D01*
X80622Y72025D01*
X80625Y72023D01*
X80780Y71977D01*
X82307Y71628D01*
X82311Y71628D01*
X82315Y71627D01*
X82470Y71612D01*
X82624Y71597D01*
X82628Y71598D01*
X82632Y71597D01*
X82786Y71622D01*
X82870Y71635D01*
X83603Y71347D01*
X83617Y71344D01*
X83630Y71337D01*
X83785Y71291D01*
X84554Y71116D01*
X84605Y71054D01*
X84608Y71051D01*
X84611Y71048D01*
X84735Y70958D01*
X84861Y70866D01*
X84865Y70864D01*
X84868Y70862D01*
X85014Y70794D01*
X86473Y70221D01*
X86477Y70220D01*
X86480Y70218D01*
X86629Y70182D01*
X86781Y70143D01*
X86785Y70143D01*
X86789Y70142D01*
X86944Y70143D01*
X87030Y70144D01*
X87712Y69750D01*
X87726Y69744D01*
X87737Y69736D01*
X87883Y69667D01*
X88618Y69379D01*
X88659Y69311D01*
X88662Y69308D01*
X88664Y69304D01*
X88775Y69195D01*
X88884Y69086D01*
X88888Y69084D01*
X88891Y69081D01*
X89025Y68992D01*
X90382Y68209D01*
X90385Y68207D01*
X90389Y68205D01*
X90532Y68145D01*
X90675Y68085D01*
X90679Y68085D01*
X90683Y68083D01*
X90837Y68061D01*
X90921Y68049D01*
X91537Y67558D01*
X91550Y67550D01*
X91560Y67540D01*
X91694Y67451D01*
X92377Y67056D01*
X92408Y66982D01*
X92410Y66979D01*
X92412Y66975D01*
X92506Y66850D01*
X92597Y66727D01*
X92600Y66724D01*
X92603Y66721D01*
X92722Y66613D01*
X93947Y65636D01*
X93951Y65634D01*
X93953Y65631D01*
X94085Y65552D01*
X94219Y65471D01*
X94222Y65469D01*
X94226Y65467D01*
X94377Y65422D01*
X94457Y65398D01*
X94993Y64820D01*
X95004Y64811D01*
X95013Y64799D01*
X95132Y64691D01*
X95749Y64199D01*
X95768Y64122D01*
X95770Y64118D01*
X95771Y64114D01*
X95846Y63975D01*
X95917Y63841D01*
X95920Y63838D01*
X95922Y63834D01*
X96024Y63709D01*
X97089Y62561D01*
X97092Y62558D01*
X97095Y62555D01*
X97213Y62457D01*
X97333Y62357D01*
X97337Y62355D01*
X97340Y62352D01*
X97479Y62287D01*
X97558Y62249D01*
X98002Y61598D01*
X98011Y61587D01*
X98018Y61575D01*
X98120Y61450D01*
X98657Y60872D01*
X98664Y60792D01*
X98665Y60788D01*
X98665Y60784D01*
X98718Y60637D01*
X98770Y60492D01*
X98772Y60489D01*
X98773Y60485D01*
X98855Y60346D01*
X99448Y59476D01*
X99496Y59423D01*
X99536Y59363D01*
X99601Y59304D01*
X99659Y59238D01*
X99719Y59198D01*
X99772Y59150D01*
X99849Y59109D01*
X99922Y59060D01*
X99990Y59036D01*
X100053Y59002D01*
X100139Y58982D01*
X100222Y58952D01*
X100293Y58946D01*
X100363Y58929D01*
X100451Y58931D01*
X100538Y58923D01*
X100609Y58934D01*
X100681Y58936D01*
X100766Y58959D01*
X100852Y58973D01*
X100918Y59002D01*
X100987Y59021D01*
X101132Y59092D01*
X132784Y77367D01*
X133093Y76719D01*
X133110Y76697D01*
X133119Y76670D01*
X133169Y76618D01*
X133212Y76560D01*
X133237Y76546D01*
X133256Y76525D01*
X133322Y76497D01*
X133384Y76461D01*
X133412Y76457D01*
X133438Y76446D01*
X133510Y76445D01*
X133581Y76436D01*
X133609Y76444D01*
X133637Y76443D01*
X133733Y76479D01*
X133773Y76490D01*
X133781Y76497D01*
X133793Y76501D01*
X150247Y86001D01*
X150306Y86053D01*
X150368Y86099D01*
X150380Y86118D01*
X150396Y86133D01*
X150430Y86203D01*
X150470Y86270D01*
X150474Y86295D01*
X150482Y86312D01*
X150484Y86357D01*
X150497Y86434D01*
X150474Y105474D01*
X150469Y105502D01*
X150471Y105530D01*
X150449Y105598D01*
X150434Y105669D01*
X150418Y105692D01*
X150409Y105719D01*
X150362Y105773D01*
X150322Y105832D01*
X150298Y105848D01*
X150279Y105869D01*
X150215Y105901D01*
X150154Y105939D01*
X150126Y105944D01*
X150100Y105956D01*
X150000Y105965D01*
X149958Y105972D01*
X149947Y105970D01*
X149934Y105971D01*
X149243Y105914D01*
X149242Y133642D01*
X149225Y133779D01*
X149212Y133918D01*
X149205Y133937D01*
X149203Y133957D01*
X149151Y134087D01*
X149104Y134217D01*
X149093Y134234D01*
X149086Y134253D01*
X149004Y134365D01*
X148926Y134481D01*
X148911Y134494D01*
X148899Y134510D01*
X148792Y134599D01*
X148687Y134691D01*
X148669Y134700D01*
X148654Y134713D01*
X148528Y134772D01*
X148404Y134836D01*
X148384Y134840D01*
X148366Y134849D01*
X148229Y134875D01*
X148094Y134905D01*
X148074Y134905D01*
X148054Y134909D01*
X147915Y134900D01*
X147776Y134896D01*
X147756Y134890D01*
X147736Y134889D01*
X147604Y134846D01*
X147470Y134807D01*
X147453Y134797D01*
X147434Y134791D01*
X147316Y134716D01*
X147197Y134646D01*
X147175Y134627D01*
X147165Y134621D01*
X147151Y134606D01*
X147076Y134539D01*
X116485Y103949D01*
X109397Y103949D01*
X109348Y103943D01*
X109298Y103945D01*
X109191Y103923D01*
X109082Y103909D01*
X109036Y103891D01*
X108987Y103881D01*
X108888Y103832D01*
X108786Y103792D01*
X108746Y103763D01*
X108701Y103741D01*
X108617Y103670D01*
X108529Y103605D01*
X108497Y103567D01*
X108459Y103535D01*
X108396Y103445D01*
X108326Y103360D01*
X108305Y103315D01*
X108276Y103275D01*
X108237Y103172D01*
X108190Y103072D01*
X108181Y103024D01*
X108163Y102977D01*
X108151Y102868D01*
X108130Y102760D01*
X108134Y102711D01*
X108128Y102661D01*
X108143Y102552D01*
X108150Y102443D01*
X108166Y102395D01*
X108172Y102346D01*
X108225Y102194D01*
X109694Y98646D01*
X109694Y95029D01*
X108309Y91686D01*
X105751Y89128D01*
X102409Y87744D01*
X98791Y87744D01*
X95449Y89128D01*
X92891Y91686D01*
X91506Y95029D01*
X91506Y98646D01*
X92975Y102194D01*
X92989Y102242D01*
X93010Y102287D01*
X93030Y102394D01*
X93059Y102501D01*
X93060Y102550D01*
X93070Y102599D01*
X93063Y102709D01*
X93064Y102819D01*
X93053Y102867D01*
X93050Y102916D01*
X93016Y103021D01*
X92990Y103128D01*
X92967Y103172D01*
X92952Y103219D01*
X92893Y103312D01*
X92842Y103409D01*
X92808Y103446D01*
X92782Y103488D01*
X92701Y103563D01*
X92628Y103644D01*
X92586Y103672D01*
X92550Y103706D01*
X92454Y103759D01*
X92362Y103819D01*
X92315Y103835D01*
X92271Y103859D01*
X92165Y103887D01*
X92061Y103922D01*
X92012Y103926D01*
X91964Y103939D01*
X91803Y103949D01*
X83997Y103949D01*
X83948Y103943D01*
X83898Y103945D01*
X83791Y103923D01*
X83682Y103909D01*
X83636Y103891D01*
X83587Y103881D01*
X83488Y103832D01*
X83386Y103792D01*
X83346Y103763D01*
X83301Y103741D01*
X83217Y103670D01*
X83129Y103605D01*
X83097Y103567D01*
X83059Y103535D01*
X82996Y103445D01*
X82926Y103360D01*
X82905Y103315D01*
X82876Y103275D01*
X82837Y103172D01*
X82790Y103072D01*
X82781Y103024D01*
X82763Y102977D01*
X82751Y102868D01*
X82730Y102760D01*
X82734Y102711D01*
X82728Y102661D01*
X82743Y102552D01*
X82750Y102443D01*
X82766Y102395D01*
X82772Y102346D01*
X82825Y102194D01*
X84294Y98646D01*
X84294Y95029D01*
X82909Y91686D01*
X80351Y89128D01*
X77009Y87744D01*
X73391Y87744D01*
X70049Y89128D01*
X67491Y91686D01*
X67377Y91960D01*
X67353Y92003D01*
X67336Y92050D01*
X67274Y92141D01*
X67220Y92236D01*
X67185Y92272D01*
X67157Y92313D01*
X67075Y92386D01*
X66998Y92464D01*
X66956Y92490D01*
X66919Y92523D01*
X66821Y92573D01*
X66727Y92631D01*
X66680Y92645D01*
X66636Y92668D01*
X66528Y92692D01*
X66423Y92724D01*
X66374Y92727D01*
X66325Y92738D01*
X66216Y92734D01*
X66106Y92739D01*
X66057Y92729D01*
X66007Y92728D01*
X65902Y92697D01*
X65794Y92675D01*
X65750Y92653D01*
X65702Y92639D01*
X65607Y92584D01*
X65509Y92535D01*
X65471Y92503D01*
X65428Y92478D01*
X65307Y92372D01*
X43117Y70182D01*
X40692Y67756D01*
X38789Y67756D01*
X38691Y67744D01*
X38592Y67741D01*
X38533Y67724D01*
X38473Y67717D01*
X38381Y67680D01*
X38286Y67653D01*
X38234Y67622D01*
X38178Y67600D01*
X38098Y67541D01*
X38012Y67491D01*
X37937Y67425D01*
X37920Y67413D01*
X37912Y67403D01*
X37891Y67385D01*
X36883Y66376D01*
X34719Y65480D01*
X34676Y65455D01*
X34629Y65438D01*
X34538Y65377D01*
X34443Y65322D01*
X34407Y65288D01*
X34366Y65260D01*
X34293Y65177D01*
X34214Y65101D01*
X34188Y65059D01*
X34155Y65021D01*
X34105Y64923D01*
X34048Y64830D01*
X34033Y64782D01*
X34011Y64738D01*
X33987Y64631D01*
X33954Y64526D01*
X33952Y64476D01*
X33941Y64428D01*
X33944Y64318D01*
X33939Y64208D01*
X33949Y64159D01*
X33951Y64110D01*
X33981Y64004D01*
X34003Y63897D01*
X34025Y63852D01*
X34039Y63804D01*
X34095Y63710D01*
X34143Y63611D01*
X34175Y63573D01*
X34201Y63530D01*
X34307Y63410D01*
X35002Y62715D01*
X35002Y54760D01*
X29377Y49136D01*
X21423Y49136D01*
X19706Y50852D01*
X19596Y50937D01*
X19489Y51026D01*
X19471Y51035D01*
X19455Y51047D01*
X19327Y51103D01*
X19202Y51162D01*
X19182Y51165D01*
X19163Y51173D01*
X19025Y51195D01*
X18889Y51221D01*
X18869Y51220D01*
X18849Y51223D01*
X18710Y51210D01*
X18572Y51202D01*
X18553Y51195D01*
X18532Y51194D01*
X18401Y51146D01*
X18269Y51104D01*
X18252Y51093D01*
X18233Y51086D01*
X18118Y51008D01*
X18001Y50933D01*
X17987Y50919D01*
X17970Y50907D01*
X17878Y50803D01*
X17783Y50702D01*
X17773Y50684D01*
X17759Y50669D01*
X17696Y50545D01*
X17629Y50423D01*
X17624Y50404D01*
X17615Y50386D01*
X17584Y50250D01*
X17550Y50115D01*
X17548Y50087D01*
X17545Y50075D01*
X17546Y50055D01*
X17539Y49955D01*
X17539Y48615D01*
X17552Y48517D01*
X17555Y48418D01*
X17572Y48360D01*
X17579Y48300D01*
X17616Y48208D01*
X17643Y48113D01*
X17674Y48060D01*
X17696Y48004D01*
X17754Y47924D01*
X17805Y47839D01*
X17871Y47763D01*
X17883Y47747D01*
X17893Y47739D01*
X17911Y47718D01*
X27038Y38591D01*
X27117Y38530D01*
X27189Y38462D01*
X27242Y38433D01*
X27290Y38396D01*
X27380Y38356D01*
X27467Y38309D01*
X27526Y38293D01*
X27581Y38269D01*
X27679Y38254D01*
X27775Y38229D01*
X27875Y38223D01*
X27895Y38220D01*
X27908Y38221D01*
X27936Y38219D01*
X29722Y38219D01*
X31840Y37341D01*
X33461Y35720D01*
X34339Y33602D01*
X34339Y32348D01*
X34355Y32217D01*
X34367Y32085D01*
X34375Y32059D01*
X34379Y32032D01*
X34427Y31910D01*
X34471Y31784D01*
X34486Y31762D01*
X34496Y31737D01*
X34573Y31630D01*
X34647Y31519D01*
X34667Y31501D01*
X34683Y31479D01*
X34785Y31395D01*
X34883Y31306D01*
X34907Y31294D01*
X34928Y31277D01*
X35047Y31220D01*
X35165Y31159D01*
X35191Y31153D01*
X35215Y31141D01*
X35345Y31116D01*
X35474Y31086D01*
X35501Y31086D01*
X35528Y31081D01*
X35660Y31089D01*
G37*
G36*
X123696Y187670D02*
X123696Y187670D01*
X123821Y187678D01*
X123853Y187689D01*
X123888Y187693D01*
X124004Y187738D01*
X124123Y187776D01*
X124152Y187795D01*
X124184Y187807D01*
X124286Y187879D01*
X124392Y187946D01*
X124415Y187972D01*
X124443Y187991D01*
X124524Y188087D01*
X124610Y188178D01*
X124626Y188208D01*
X124649Y188234D01*
X124727Y188375D01*
X124824Y188576D01*
X124896Y188612D01*
X124899Y188615D01*
X124903Y188616D01*
X125018Y188717D01*
X125136Y188820D01*
X125139Y188823D01*
X125142Y188826D01*
X125241Y188953D01*
X126124Y190250D01*
X126126Y190253D01*
X126129Y190257D01*
X126198Y190395D01*
X126269Y190533D01*
X126270Y190537D01*
X126272Y190541D01*
X126305Y190694D01*
X126323Y190776D01*
X126859Y191354D01*
X126867Y191365D01*
X126878Y191375D01*
X126977Y191502D01*
X127422Y192154D01*
X127498Y192179D01*
X127501Y192181D01*
X127505Y192182D01*
X127634Y192265D01*
X127766Y192349D01*
X127769Y192352D01*
X127773Y192354D01*
X127890Y192465D01*
X128956Y193615D01*
X128959Y193619D01*
X128962Y193621D01*
X129051Y193748D01*
X129142Y193874D01*
X129143Y193878D01*
X129145Y193881D01*
X129201Y194026D01*
X129232Y194106D01*
X129848Y194598D01*
X129858Y194608D01*
X129870Y194616D01*
X129987Y194727D01*
X130523Y195305D01*
X130602Y195318D01*
X130606Y195320D01*
X130610Y195321D01*
X130750Y195383D01*
X130893Y195446D01*
X130897Y195449D01*
X130900Y195451D01*
X131032Y195543D01*
X132259Y196522D01*
X132262Y196525D01*
X132265Y196527D01*
X132372Y196638D01*
X132480Y196749D01*
X132482Y196753D01*
X132485Y196756D01*
X132562Y196892D01*
X132604Y196966D01*
X133286Y197360D01*
X133298Y197369D01*
X133311Y197375D01*
X133443Y197467D01*
X134060Y197959D01*
X134140Y197960D01*
X134144Y197961D01*
X134148Y197961D01*
X134297Y198003D01*
X134447Y198043D01*
X134450Y198045D01*
X134454Y198046D01*
X134599Y198118D01*
X135957Y198903D01*
X135960Y198905D01*
X135964Y198907D01*
X136088Y199002D01*
X136210Y199095D01*
X136213Y199099D01*
X136216Y199101D01*
X136313Y199224D01*
X136365Y199291D01*
X137098Y199579D01*
X137111Y199586D01*
X137125Y199590D01*
X137269Y199661D01*
X137953Y200056D01*
X138032Y200045D01*
X138036Y200046D01*
X138040Y200045D01*
X138196Y200064D01*
X138348Y200082D01*
X138352Y200083D01*
X138356Y200084D01*
X138509Y200133D01*
X139969Y200707D01*
X139973Y200708D01*
X139977Y200710D01*
X140113Y200785D01*
X140248Y200859D01*
X140251Y200862D01*
X140255Y200864D01*
X140368Y200970D01*
X140431Y201029D01*
X141198Y201205D01*
X141212Y201210D01*
X141226Y201211D01*
X141380Y201261D01*
X142114Y201549D01*
X142191Y201527D01*
X142195Y201526D01*
X142199Y201525D01*
X142354Y201521D01*
X142509Y201516D01*
X142513Y201517D01*
X142517Y201517D01*
X142676Y201542D01*
X144205Y201892D01*
X144209Y201893D01*
X144213Y201894D01*
X144357Y201947D01*
X144504Y202001D01*
X144508Y202003D01*
X144511Y202005D01*
X144638Y202093D01*
X144710Y202142D01*
X145495Y202201D01*
X145509Y202204D01*
X145524Y202204D01*
X145683Y202230D01*
X146452Y202406D01*
X146524Y202372D01*
X146529Y202371D01*
X146532Y202369D01*
X146683Y202342D01*
X146837Y202314D01*
X146841Y202314D01*
X146845Y202313D01*
X147006Y202315D01*
X148068Y202395D01*
X148138Y202409D01*
X148209Y202414D01*
X148293Y202441D01*
X148379Y202458D01*
X148444Y202490D01*
X148512Y202512D01*
X148586Y202559D01*
X148665Y202597D01*
X148720Y202644D01*
X148780Y202682D01*
X148841Y202746D01*
X148908Y202803D01*
X148949Y202861D01*
X148998Y202914D01*
X149041Y202991D01*
X149092Y203062D01*
X149117Y203129D01*
X149152Y203192D01*
X149174Y203277D01*
X149205Y203359D01*
X149213Y203431D01*
X149231Y203500D01*
X149242Y203661D01*
X149241Y240160D01*
X149978Y240100D01*
X150007Y240104D01*
X150035Y240099D01*
X150105Y240116D01*
X150176Y240124D01*
X150201Y240139D01*
X150229Y240145D01*
X150286Y240188D01*
X150348Y240223D01*
X150366Y240246D01*
X150389Y240263D01*
X150425Y240325D01*
X150468Y240382D01*
X150475Y240410D01*
X150490Y240435D01*
X150507Y240533D01*
X150517Y240574D01*
X150515Y240585D01*
X150518Y240599D01*
X150495Y259638D01*
X150479Y259714D01*
X150471Y259790D01*
X150460Y259810D01*
X150455Y259833D01*
X150411Y259896D01*
X150374Y259963D01*
X150354Y259980D01*
X150342Y259997D01*
X150305Y260021D01*
X150246Y260070D01*
X133769Y269609D01*
X133741Y269618D01*
X133717Y269635D01*
X133648Y269650D01*
X133580Y269672D01*
X133551Y269670D01*
X133523Y269676D01*
X133453Y269663D01*
X133382Y269657D01*
X133356Y269644D01*
X133328Y269638D01*
X133268Y269598D01*
X133205Y269566D01*
X133187Y269543D01*
X133163Y269527D01*
X133105Y269445D01*
X133078Y269413D01*
X133075Y269402D01*
X133067Y269391D01*
X132750Y268723D01*
X101141Y286973D01*
X101075Y287001D01*
X101014Y287037D01*
X100929Y287062D01*
X100848Y287096D01*
X100777Y287107D01*
X100708Y287127D01*
X100621Y287130D01*
X100533Y287143D01*
X100462Y287135D01*
X100391Y287138D01*
X100305Y287119D01*
X100217Y287110D01*
X100150Y287085D01*
X100080Y287069D01*
X100002Y287029D01*
X99919Y286999D01*
X99860Y286958D01*
X99796Y286926D01*
X99730Y286868D01*
X99658Y286817D01*
X99611Y286763D01*
X99557Y286716D01*
X99458Y286589D01*
X98858Y285710D01*
X98857Y285706D01*
X98854Y285703D01*
X98783Y285563D01*
X98713Y285427D01*
X98713Y285423D01*
X98711Y285419D01*
X98678Y285268D01*
X98659Y285184D01*
X98123Y284606D01*
X98114Y284595D01*
X98103Y284585D01*
X98004Y284458D01*
X97560Y283806D01*
X97483Y283782D01*
X97480Y283779D01*
X97476Y283778D01*
X97346Y283695D01*
X97215Y283612D01*
X97212Y283609D01*
X97208Y283607D01*
X97091Y283496D01*
X96123Y282453D01*
X96068Y282375D01*
X96004Y282304D01*
X95975Y282247D01*
X95938Y282195D01*
X95903Y282106D01*
X95860Y282020D01*
X95846Y281958D01*
X95822Y281898D01*
X95811Y281804D01*
X95790Y281710D01*
X95792Y281646D01*
X95784Y281583D01*
X95797Y281488D01*
X95800Y281392D01*
X95817Y281331D01*
X95826Y281267D01*
X95861Y281178D01*
X95888Y281087D01*
X95920Y281032D01*
X95944Y280972D01*
X96001Y280895D01*
X96050Y280813D01*
X96094Y280763D01*
X96094Y280762D01*
X96095Y280761D01*
X96121Y280731D01*
X96133Y280716D01*
X96141Y280709D01*
X96156Y280692D01*
X99001Y277847D01*
X99001Y274820D01*
X99013Y274722D01*
X99016Y274623D01*
X99033Y274565D01*
X99041Y274505D01*
X99077Y274412D01*
X99105Y274317D01*
X99136Y274265D01*
X99158Y274209D01*
X99216Y274129D01*
X99266Y274043D01*
X99333Y273968D01*
X99345Y273951D01*
X99354Y273944D01*
X99373Y273923D01*
X105550Y267746D01*
X105628Y267685D01*
X105700Y267617D01*
X105753Y267588D01*
X105801Y267551D01*
X105892Y267511D01*
X105979Y267463D01*
X106037Y267448D01*
X106093Y267424D01*
X106191Y267409D01*
X106287Y267384D01*
X106387Y267378D01*
X106407Y267374D01*
X106419Y267376D01*
X106447Y267374D01*
X110112Y267374D01*
X122314Y255172D01*
X122314Y188925D01*
X122319Y188891D01*
X122316Y188857D01*
X122339Y188734D01*
X122354Y188610D01*
X122367Y188578D01*
X122373Y188544D01*
X122425Y188430D01*
X122471Y188314D01*
X122491Y188286D01*
X122506Y188255D01*
X122585Y188158D01*
X122658Y188057D01*
X122685Y188035D01*
X122706Y188008D01*
X122807Y187934D01*
X122903Y187854D01*
X122934Y187839D01*
X122962Y187819D01*
X123078Y187771D01*
X123191Y187718D01*
X123225Y187712D01*
X123257Y187699D01*
X123381Y187682D01*
X123503Y187658D01*
X123538Y187661D01*
X123572Y187656D01*
X123696Y187670D01*
G37*
%LPC*%
G36*
X-119360Y111299D02*
X-119360Y111299D01*
X-121478Y112177D01*
X-123100Y113798D01*
X-123977Y115917D01*
X-123977Y118210D01*
X-123100Y120328D01*
X-121478Y121950D01*
X-119360Y122827D01*
X-118652Y122827D01*
X-118553Y122840D01*
X-118454Y122843D01*
X-118396Y122859D01*
X-118336Y122867D01*
X-118244Y122903D01*
X-118149Y122931D01*
X-118097Y122962D01*
X-118040Y122984D01*
X-117960Y123042D01*
X-117875Y123092D01*
X-117799Y123159D01*
X-117783Y123171D01*
X-117775Y123180D01*
X-117754Y123199D01*
X-113074Y127879D01*
X-111956Y128997D01*
X-111883Y129091D01*
X-111804Y129180D01*
X-111786Y129216D01*
X-111761Y129248D01*
X-111714Y129357D01*
X-111660Y129464D01*
X-111651Y129503D01*
X-111635Y129540D01*
X-111616Y129658D01*
X-111590Y129774D01*
X-111591Y129814D01*
X-111585Y129854D01*
X-111596Y129973D01*
X-111600Y130092D01*
X-111611Y130131D01*
X-111615Y130171D01*
X-111655Y130283D01*
X-111688Y130397D01*
X-111708Y130432D01*
X-111722Y130470D01*
X-111789Y130569D01*
X-111850Y130671D01*
X-111889Y130716D01*
X-111901Y130733D01*
X-111916Y130747D01*
X-111956Y130792D01*
X-112836Y131672D01*
X-113714Y133791D01*
X-113714Y136084D01*
X-113350Y136964D01*
X-113336Y137012D01*
X-113315Y137057D01*
X-113295Y137164D01*
X-113266Y137271D01*
X-113265Y137320D01*
X-113255Y137369D01*
X-113262Y137479D01*
X-113261Y137589D01*
X-113272Y137637D01*
X-113275Y137686D01*
X-113309Y137791D01*
X-113335Y137898D01*
X-113358Y137942D01*
X-113373Y137989D01*
X-113432Y138082D01*
X-113483Y138179D01*
X-113517Y138216D01*
X-113543Y138258D01*
X-113623Y138333D01*
X-113697Y138414D01*
X-113739Y138442D01*
X-113775Y138476D01*
X-113871Y138529D01*
X-113963Y138589D01*
X-114010Y138605D01*
X-114054Y138629D01*
X-114160Y138657D01*
X-114264Y138692D01*
X-114313Y138696D01*
X-114361Y138709D01*
X-114522Y138719D01*
X-119682Y138719D01*
X-119780Y138706D01*
X-119879Y138703D01*
X-119937Y138687D01*
X-119997Y138679D01*
X-120089Y138642D01*
X-120184Y138615D01*
X-120236Y138584D01*
X-120293Y138562D01*
X-120373Y138504D01*
X-120458Y138453D01*
X-120534Y138387D01*
X-120550Y138375D01*
X-120558Y138366D01*
X-120579Y138347D01*
X-120864Y138062D01*
X-120925Y137983D01*
X-120993Y137911D01*
X-121022Y137858D01*
X-121059Y137810D01*
X-121099Y137720D01*
X-121146Y137633D01*
X-121162Y137574D01*
X-121186Y137519D01*
X-121201Y137421D01*
X-121226Y137325D01*
X-121232Y137225D01*
X-121235Y137205D01*
X-121234Y137192D01*
X-121236Y137164D01*
X-121236Y135378D01*
X-122114Y133260D01*
X-123735Y131639D01*
X-125853Y130761D01*
X-128147Y130761D01*
X-130265Y131639D01*
X-131886Y133260D01*
X-132764Y135378D01*
X-132764Y137672D01*
X-131886Y139790D01*
X-130265Y141411D01*
X-128147Y142289D01*
X-126361Y142289D01*
X-126263Y142301D01*
X-126164Y142304D01*
X-126105Y142321D01*
X-126045Y142329D01*
X-125953Y142365D01*
X-125858Y142393D01*
X-125806Y142424D01*
X-125750Y142446D01*
X-125669Y142504D01*
X-125584Y142554D01*
X-125509Y142621D01*
X-125492Y142633D01*
X-125484Y142642D01*
X-125463Y142661D01*
X-122901Y145223D01*
X-84584Y145223D01*
X-82484Y143122D01*
X-82406Y143062D01*
X-82334Y142994D01*
X-82281Y142965D01*
X-82233Y142928D01*
X-82142Y142888D01*
X-82055Y142840D01*
X-81997Y142825D01*
X-81941Y142801D01*
X-81843Y142786D01*
X-81747Y142761D01*
X-81647Y142755D01*
X-81627Y142751D01*
X-81614Y142753D01*
X-81586Y142751D01*
X-59176Y142751D01*
X-59078Y142763D01*
X-58979Y142766D01*
X-58921Y142783D01*
X-58860Y142791D01*
X-58768Y142827D01*
X-58673Y142855D01*
X-58621Y142885D01*
X-58565Y142908D01*
X-58485Y142966D01*
X-58399Y143016D01*
X-58324Y143082D01*
X-58307Y143094D01*
X-58300Y143104D01*
X-58279Y143122D01*
X-46901Y154500D01*
X-36539Y154500D01*
X-36441Y154512D01*
X-36342Y154515D01*
X-36284Y154532D01*
X-36224Y154540D01*
X-36132Y154576D01*
X-36036Y154604D01*
X-35984Y154635D01*
X-35928Y154657D01*
X-35848Y154715D01*
X-35822Y154730D01*
X-28642Y154730D01*
X-27481Y153569D01*
X-27481Y133923D01*
X-28642Y132762D01*
X-35783Y132762D01*
X-36944Y133923D01*
X-36944Y141535D01*
X-36959Y141654D01*
X-36967Y141772D01*
X-36979Y141811D01*
X-36984Y141851D01*
X-37028Y141962D01*
X-37065Y142075D01*
X-37086Y142109D01*
X-37101Y142147D01*
X-37171Y142243D01*
X-37235Y142343D01*
X-37264Y142371D01*
X-37288Y142404D01*
X-37380Y142480D01*
X-37467Y142561D01*
X-37502Y142581D01*
X-37533Y142607D01*
X-37641Y142657D01*
X-37745Y142715D01*
X-37784Y142725D01*
X-37821Y142742D01*
X-37938Y142765D01*
X-38053Y142794D01*
X-38113Y142798D01*
X-38133Y142802D01*
X-38153Y142801D01*
X-38214Y142805D01*
X-40714Y142805D01*
X-40812Y142792D01*
X-40911Y142789D01*
X-40969Y142772D01*
X-41029Y142765D01*
X-41121Y142728D01*
X-41217Y142701D01*
X-41269Y142670D01*
X-41325Y142648D01*
X-41405Y142590D01*
X-41491Y142539D01*
X-41566Y142473D01*
X-41582Y142461D01*
X-41590Y142451D01*
X-41611Y142433D01*
X-52699Y131345D01*
X-86645Y131345D01*
X-86694Y131338D01*
X-86744Y131341D01*
X-86851Y131319D01*
X-86961Y131305D01*
X-87007Y131287D01*
X-87055Y131277D01*
X-87154Y131228D01*
X-87256Y131188D01*
X-87296Y131159D01*
X-87341Y131137D01*
X-87425Y131066D01*
X-87514Y131001D01*
X-87545Y130963D01*
X-87583Y130930D01*
X-87646Y130841D01*
X-87716Y130756D01*
X-87738Y130711D01*
X-87766Y130670D01*
X-87805Y130568D01*
X-87852Y130468D01*
X-87861Y130420D01*
X-87879Y130373D01*
X-87891Y130264D01*
X-87912Y130156D01*
X-87909Y130106D01*
X-87914Y130057D01*
X-87899Y129948D01*
X-87892Y129839D01*
X-87877Y129791D01*
X-87870Y129742D01*
X-87818Y129590D01*
X-87049Y127735D01*
X-87049Y125442D01*
X-87927Y123323D01*
X-89548Y121702D01*
X-91667Y120824D01*
X-93960Y120824D01*
X-96078Y121702D01*
X-96579Y122203D01*
X-96657Y122263D01*
X-96729Y122331D01*
X-96782Y122360D01*
X-96830Y122397D01*
X-96921Y122437D01*
X-97008Y122485D01*
X-97066Y122500D01*
X-97122Y122524D01*
X-97220Y122539D01*
X-97316Y122564D01*
X-97416Y122570D01*
X-97436Y122574D01*
X-97448Y122572D01*
X-97476Y122574D01*
X-106500Y122574D01*
X-106598Y122562D01*
X-106697Y122559D01*
X-106755Y122542D01*
X-106815Y122534D01*
X-106907Y122498D01*
X-107003Y122470D01*
X-107055Y122440D01*
X-107111Y122417D01*
X-107191Y122359D01*
X-107276Y122309D01*
X-107352Y122243D01*
X-107368Y122231D01*
X-107376Y122221D01*
X-107397Y122203D01*
X-112078Y117522D01*
X-112138Y117444D01*
X-112206Y117372D01*
X-112235Y117319D01*
X-112272Y117271D01*
X-112312Y117180D01*
X-112360Y117093D01*
X-112375Y117035D01*
X-112399Y116979D01*
X-112414Y116881D01*
X-112439Y116786D01*
X-112445Y116685D01*
X-112449Y116665D01*
X-112447Y116653D01*
X-112449Y116625D01*
X-112449Y115917D01*
X-113327Y113798D01*
X-114948Y112177D01*
X-117067Y111299D01*
X-119360Y111299D01*
G37*
%LPD*%
G36*
X150093Y145539D02*
X150093Y145539D01*
X150165Y145548D01*
X150189Y145561D01*
X150215Y145568D01*
X150274Y145611D01*
X150337Y145648D01*
X150354Y145670D01*
X150376Y145686D01*
X150413Y145749D01*
X150457Y145807D01*
X150463Y145833D01*
X150477Y145857D01*
X150494Y145961D01*
X150504Y146000D01*
X150503Y146009D01*
X150505Y146021D01*
X150487Y200051D01*
X150482Y200077D01*
X150484Y200104D01*
X150462Y200174D01*
X150448Y200246D01*
X150432Y200268D01*
X150424Y200294D01*
X150376Y200349D01*
X150335Y200410D01*
X150312Y200424D01*
X150294Y200445D01*
X150229Y200477D01*
X150167Y200516D01*
X150141Y200521D01*
X150116Y200533D01*
X150011Y200543D01*
X149971Y200550D01*
X149962Y200547D01*
X149951Y200548D01*
X145924Y200245D01*
X145894Y200237D01*
X145851Y200234D01*
X141914Y199335D01*
X141885Y199321D01*
X141843Y199313D01*
X138085Y197836D01*
X138058Y197819D01*
X138018Y197804D01*
X134522Y195784D01*
X134498Y195763D01*
X134460Y195742D01*
X131304Y193223D01*
X131284Y193199D01*
X131249Y193173D01*
X128504Y190212D01*
X128487Y190185D01*
X128458Y190153D01*
X126184Y186817D01*
X126172Y186787D01*
X126147Y186752D01*
X124396Y183114D01*
X124388Y183083D01*
X124369Y183044D01*
X123180Y179186D01*
X123177Y179154D01*
X123163Y179113D01*
X122563Y175120D01*
X122565Y175088D01*
X122557Y175046D01*
X122559Y171008D01*
X122565Y170978D01*
X122563Y170967D01*
X122565Y170958D01*
X122564Y170934D01*
X123167Y166941D01*
X123178Y166911D01*
X123184Y166868D01*
X124375Y163011D01*
X124391Y162983D01*
X124403Y162941D01*
X126156Y159304D01*
X126175Y159278D01*
X126193Y159239D01*
X128469Y155904D01*
X128491Y155882D01*
X128515Y155846D01*
X131262Y152887D01*
X131288Y152868D01*
X131317Y152836D01*
X134475Y150319D01*
X134503Y150305D01*
X134536Y150277D01*
X138034Y148260D01*
X138064Y148250D01*
X138101Y148227D01*
X141860Y146753D01*
X141891Y146748D01*
X141931Y146731D01*
X145868Y145834D01*
X145900Y145834D01*
X145942Y145823D01*
X149968Y145523D01*
X149995Y145526D01*
X150022Y145522D01*
X150093Y145539D01*
G37*
G36*
X-149962Y145528D02*
X-149962Y145528D01*
X-149951Y145527D01*
X-145924Y145830D01*
X-145894Y145838D01*
X-145851Y145841D01*
X-141914Y146740D01*
X-141885Y146754D01*
X-141843Y146762D01*
X-138085Y148239D01*
X-138058Y148256D01*
X-138018Y148271D01*
X-134522Y150291D01*
X-134498Y150312D01*
X-134460Y150333D01*
X-131304Y152852D01*
X-131284Y152876D01*
X-131249Y152902D01*
X-128504Y155863D01*
X-128487Y155890D01*
X-128458Y155922D01*
X-126184Y159258D01*
X-126172Y159288D01*
X-126147Y159323D01*
X-124396Y162961D01*
X-124388Y162992D01*
X-124369Y163031D01*
X-123180Y166889D01*
X-123177Y166921D01*
X-123163Y166962D01*
X-122563Y170955D01*
X-122565Y170987D01*
X-122557Y171029D01*
X-122559Y175067D01*
X-122565Y175098D01*
X-122564Y175141D01*
X-123167Y179134D01*
X-123178Y179164D01*
X-123184Y179207D01*
X-124375Y183064D01*
X-124391Y183092D01*
X-124403Y183134D01*
X-126156Y186771D01*
X-126175Y186797D01*
X-126193Y186836D01*
X-128469Y190171D01*
X-128491Y190193D01*
X-128515Y190229D01*
X-131262Y193188D01*
X-131288Y193207D01*
X-131317Y193239D01*
X-134475Y195756D01*
X-134503Y195770D01*
X-134536Y195798D01*
X-138034Y197815D01*
X-138064Y197825D01*
X-138101Y197848D01*
X-141860Y199322D01*
X-141891Y199327D01*
X-141931Y199344D01*
X-145868Y200241D01*
X-145900Y200241D01*
X-145942Y200252D01*
X-149968Y200552D01*
X-149995Y200549D01*
X-150022Y200553D01*
X-150093Y200536D01*
X-150165Y200527D01*
X-150189Y200514D01*
X-150215Y200507D01*
X-150274Y200464D01*
X-150337Y200427D01*
X-150354Y200405D01*
X-150376Y200389D01*
X-150413Y200326D01*
X-150457Y200268D01*
X-150463Y200242D01*
X-150477Y200218D01*
X-150494Y200114D01*
X-150504Y200075D01*
X-150503Y200066D01*
X-150505Y200054D01*
X-150487Y146024D01*
X-150482Y145998D01*
X-150484Y145971D01*
X-150462Y145901D01*
X-150448Y145829D01*
X-150432Y145807D01*
X-150424Y145781D01*
X-150376Y145726D01*
X-150335Y145665D01*
X-150312Y145651D01*
X-150294Y145630D01*
X-150229Y145598D01*
X-150167Y145559D01*
X-150141Y145554D01*
X-150116Y145542D01*
X-150011Y145532D01*
X-149971Y145525D01*
X-149962Y145528D01*
G37*
G36*
X79052Y275727D02*
X79052Y275727D01*
X79082Y275736D01*
X79125Y275738D01*
X83062Y276635D01*
X83091Y276648D01*
X83133Y276657D01*
X86893Y278131D01*
X86919Y278148D01*
X86960Y278164D01*
X90457Y280181D01*
X90481Y280202D01*
X90519Y280223D01*
X93676Y282740D01*
X93697Y282764D01*
X93731Y282790D01*
X96478Y285749D01*
X96495Y285777D01*
X96525Y285808D01*
X98800Y289143D01*
X98811Y289168D01*
X98828Y289189D01*
X98838Y289221D01*
X98840Y289225D01*
X98842Y289233D01*
X98849Y289259D01*
X98878Y289326D01*
X98878Y289354D01*
X98885Y289380D01*
X98877Y289452D01*
X98877Y289525D01*
X98866Y289550D01*
X98863Y289577D01*
X98828Y289641D01*
X98799Y289708D01*
X98779Y289727D01*
X98766Y289751D01*
X98685Y289818D01*
X98656Y289846D01*
X98647Y289849D01*
X98638Y289857D01*
X51855Y316887D01*
X51829Y316895D01*
X51807Y316911D01*
X51736Y316927D01*
X51667Y316950D01*
X51639Y316948D01*
X51613Y316954D01*
X51541Y316940D01*
X51468Y316934D01*
X51444Y316922D01*
X51417Y316917D01*
X51357Y316877D01*
X51292Y316843D01*
X51274Y316822D01*
X51252Y316807D01*
X51191Y316721D01*
X51165Y316690D01*
X51162Y316681D01*
X51156Y316671D01*
X49403Y313034D01*
X49395Y313003D01*
X49375Y312964D01*
X48184Y309107D01*
X48181Y309075D01*
X48167Y309034D01*
X47564Y305041D01*
X47566Y305010D01*
X47559Y304967D01*
X47557Y300929D01*
X47564Y300898D01*
X47563Y300855D01*
X48163Y296862D01*
X48174Y296832D01*
X48180Y296789D01*
X49369Y292931D01*
X49384Y292903D01*
X49396Y292861D01*
X51147Y289223D01*
X51166Y289198D01*
X51184Y289158D01*
X53458Y285822D01*
X53480Y285799D01*
X53504Y285763D01*
X56249Y282802D01*
X56275Y282784D01*
X56304Y282752D01*
X59460Y280233D01*
X59488Y280219D01*
X59522Y280191D01*
X63018Y278171D01*
X63048Y278161D01*
X63085Y278139D01*
X66843Y276662D01*
X66874Y276657D01*
X66914Y276640D01*
X70851Y275741D01*
X70882Y275740D01*
X70924Y275730D01*
X74951Y275427D01*
X74982Y275431D01*
X75025Y275427D01*
X79052Y275727D01*
G37*
G36*
X-51541Y29135D02*
X-51541Y29135D01*
X-51468Y29141D01*
X-51444Y29153D01*
X-51417Y29158D01*
X-51357Y29198D01*
X-51292Y29232D01*
X-51274Y29253D01*
X-51252Y29268D01*
X-51191Y29354D01*
X-51165Y29385D01*
X-51162Y29394D01*
X-51156Y29404D01*
X-49403Y33041D01*
X-49395Y33072D01*
X-49375Y33111D01*
X-48184Y36968D01*
X-48181Y37000D01*
X-48167Y37041D01*
X-47564Y41034D01*
X-47566Y41065D01*
X-47559Y41108D01*
X-47557Y45146D01*
X-47564Y45177D01*
X-47563Y45220D01*
X-48163Y49213D01*
X-48174Y49243D01*
X-48180Y49286D01*
X-49369Y53144D01*
X-49384Y53172D01*
X-49396Y53214D01*
X-51147Y56852D01*
X-51166Y56877D01*
X-51184Y56917D01*
X-53458Y60253D01*
X-53480Y60276D01*
X-53504Y60312D01*
X-56249Y63273D01*
X-56275Y63291D01*
X-56304Y63323D01*
X-59460Y65842D01*
X-59488Y65856D01*
X-59522Y65884D01*
X-63018Y67904D01*
X-63048Y67914D01*
X-63085Y67936D01*
X-66843Y69413D01*
X-66874Y69418D01*
X-66914Y69435D01*
X-70851Y70334D01*
X-70882Y70335D01*
X-70924Y70345D01*
X-74951Y70648D01*
X-74982Y70644D01*
X-75025Y70648D01*
X-79052Y70348D01*
X-79082Y70339D01*
X-79125Y70337D01*
X-83062Y69440D01*
X-83091Y69427D01*
X-83133Y69418D01*
X-86893Y67944D01*
X-86919Y67927D01*
X-86960Y67911D01*
X-90457Y65894D01*
X-90481Y65873D01*
X-90519Y65852D01*
X-93676Y63335D01*
X-93697Y63311D01*
X-93731Y63285D01*
X-96478Y60326D01*
X-96495Y60298D01*
X-96525Y60267D01*
X-98800Y56932D01*
X-98811Y56907D01*
X-98828Y56886D01*
X-98849Y56816D01*
X-98878Y56749D01*
X-98878Y56721D01*
X-98885Y56695D01*
X-98877Y56623D01*
X-98877Y56550D01*
X-98866Y56525D01*
X-98863Y56498D01*
X-98828Y56434D01*
X-98799Y56367D01*
X-98779Y56348D01*
X-98766Y56324D01*
X-98685Y56257D01*
X-98656Y56229D01*
X-98647Y56226D01*
X-98638Y56218D01*
X-51855Y29188D01*
X-51829Y29180D01*
X-51807Y29164D01*
X-51736Y29148D01*
X-51667Y29125D01*
X-51639Y29127D01*
X-51613Y29121D01*
X-51541Y29135D01*
G37*
G36*
X51684Y29144D02*
X51684Y29144D01*
X51711Y29143D01*
X51810Y29180D01*
X51849Y29191D01*
X51856Y29197D01*
X51867Y29201D01*
X98632Y56201D01*
X98653Y56219D01*
X98677Y56231D01*
X98726Y56285D01*
X98781Y56333D01*
X98793Y56358D01*
X98811Y56378D01*
X98835Y56447D01*
X98867Y56512D01*
X98868Y56540D01*
X98877Y56565D01*
X98873Y56638D01*
X98876Y56711D01*
X98866Y56737D01*
X98865Y56764D01*
X98821Y56859D01*
X98807Y56897D01*
X98800Y56904D01*
X98795Y56915D01*
X96522Y60249D01*
X96499Y60271D01*
X96475Y60307D01*
X93731Y63266D01*
X93705Y63284D01*
X93676Y63316D01*
X90521Y65832D01*
X90493Y65847D01*
X90459Y65875D01*
X86964Y67892D01*
X86934Y67902D01*
X86897Y67925D01*
X83141Y69399D01*
X83109Y69404D01*
X83069Y69421D01*
X79135Y70319D01*
X79103Y70320D01*
X79061Y70330D01*
X75037Y70632D01*
X75006Y70628D01*
X74963Y70632D01*
X70939Y70330D01*
X70908Y70321D01*
X70865Y70319D01*
X66931Y69421D01*
X66902Y69408D01*
X66859Y69399D01*
X63103Y67925D01*
X63076Y67907D01*
X63036Y67892D01*
X59541Y65875D01*
X59517Y65853D01*
X59479Y65832D01*
X56324Y63316D01*
X56304Y63292D01*
X56269Y63266D01*
X53525Y60307D01*
X53508Y60280D01*
X53478Y60249D01*
X51205Y56915D01*
X51192Y56886D01*
X51168Y56850D01*
X49417Y53215D01*
X49409Y53184D01*
X49389Y53145D01*
X48200Y49289D01*
X48197Y49257D01*
X48183Y49216D01*
X47582Y45226D01*
X47583Y45194D01*
X47576Y45151D01*
X47576Y41116D01*
X47578Y41108D01*
X47577Y41100D01*
X47582Y41075D01*
X47582Y41042D01*
X48183Y37051D01*
X48194Y37021D01*
X48200Y36978D01*
X49389Y33122D01*
X49405Y33094D01*
X49417Y33053D01*
X51168Y29417D01*
X51184Y29395D01*
X51193Y29370D01*
X51244Y29317D01*
X51288Y29259D01*
X51311Y29245D01*
X51330Y29225D01*
X51397Y29196D01*
X51460Y29160D01*
X51487Y29157D01*
X51512Y29146D01*
X51585Y29145D01*
X51658Y29136D01*
X51684Y29144D01*
G37*
G36*
X-70939Y275745D02*
X-70939Y275745D01*
X-70908Y275754D01*
X-70865Y275756D01*
X-66931Y276654D01*
X-66902Y276667D01*
X-66859Y276676D01*
X-63103Y278150D01*
X-63076Y278168D01*
X-63036Y278183D01*
X-59541Y280200D01*
X-59517Y280222D01*
X-59479Y280243D01*
X-56324Y282759D01*
X-56304Y282783D01*
X-56269Y282809D01*
X-53525Y285768D01*
X-53508Y285795D01*
X-53478Y285826D01*
X-51205Y289160D01*
X-51192Y289189D01*
X-51168Y289225D01*
X-49417Y292860D01*
X-49409Y292891D01*
X-49389Y292930D01*
X-48200Y296786D01*
X-48197Y296818D01*
X-48183Y296859D01*
X-47582Y300849D01*
X-47583Y300881D01*
X-47576Y300924D01*
X-47576Y304959D01*
X-47583Y304990D01*
X-47582Y305033D01*
X-48183Y309024D01*
X-48194Y309054D01*
X-48200Y309097D01*
X-49389Y312953D01*
X-49405Y312981D01*
X-49417Y313022D01*
X-51168Y316658D01*
X-51184Y316680D01*
X-51193Y316705D01*
X-51244Y316758D01*
X-51288Y316816D01*
X-51311Y316830D01*
X-51330Y316850D01*
X-51397Y316879D01*
X-51460Y316915D01*
X-51487Y316918D01*
X-51512Y316929D01*
X-51585Y316930D01*
X-51658Y316939D01*
X-51684Y316931D01*
X-51711Y316932D01*
X-51810Y316895D01*
X-51849Y316884D01*
X-51856Y316878D01*
X-51867Y316874D01*
X-98632Y289874D01*
X-98653Y289856D01*
X-98677Y289844D01*
X-98726Y289790D01*
X-98781Y289742D01*
X-98793Y289717D01*
X-98811Y289697D01*
X-98835Y289628D01*
X-98867Y289563D01*
X-98868Y289535D01*
X-98877Y289510D01*
X-98873Y289437D01*
X-98876Y289364D01*
X-98866Y289338D01*
X-98865Y289311D01*
X-98825Y289225D01*
X-98822Y289211D01*
X-98816Y289203D01*
X-98807Y289178D01*
X-98800Y289171D01*
X-98795Y289160D01*
X-96522Y285826D01*
X-96499Y285804D01*
X-96475Y285768D01*
X-93731Y282809D01*
X-93705Y282791D01*
X-93676Y282759D01*
X-90521Y280243D01*
X-90493Y280228D01*
X-90459Y280200D01*
X-86964Y278183D01*
X-86934Y278173D01*
X-86897Y278150D01*
X-83141Y276676D01*
X-83109Y276671D01*
X-83069Y276654D01*
X-79135Y275756D01*
X-79103Y275755D01*
X-79061Y275745D01*
X-75037Y275443D01*
X-75006Y275447D01*
X-74963Y275443D01*
X-70939Y275745D01*
G37*
%LPC*%
G36*
X-87610Y214487D02*
X-87610Y214487D01*
X-89728Y215364D01*
X-91350Y216986D01*
X-92227Y219104D01*
X-92227Y221397D01*
X-91350Y223516D01*
X-89728Y225137D01*
X-87610Y226015D01*
X-86902Y226015D01*
X-86803Y226027D01*
X-86704Y226030D01*
X-86646Y226047D01*
X-86586Y226054D01*
X-86494Y226091D01*
X-86399Y226118D01*
X-86347Y226149D01*
X-86290Y226171D01*
X-86210Y226230D01*
X-86125Y226280D01*
X-86049Y226346D01*
X-86033Y226358D01*
X-86025Y226368D01*
X-86004Y226386D01*
X-84951Y227440D01*
X-73664Y227440D01*
X-73566Y227452D01*
X-73467Y227455D01*
X-73409Y227472D01*
X-73348Y227479D01*
X-73256Y227516D01*
X-73161Y227543D01*
X-73109Y227574D01*
X-73053Y227596D01*
X-72973Y227655D01*
X-72887Y227705D01*
X-72812Y227771D01*
X-72795Y227783D01*
X-72788Y227793D01*
X-72766Y227811D01*
X-72266Y228312D01*
X-70147Y229190D01*
X-67854Y229190D01*
X-65736Y228312D01*
X-64114Y226691D01*
X-63237Y224572D01*
X-63237Y222279D01*
X-64114Y220161D01*
X-65736Y218539D01*
X-67854Y217662D01*
X-70147Y217662D01*
X-72266Y218539D01*
X-72766Y219040D01*
X-72845Y219101D01*
X-72917Y219169D01*
X-72970Y219198D01*
X-73018Y219235D01*
X-73109Y219274D01*
X-73195Y219322D01*
X-73254Y219337D01*
X-73310Y219361D01*
X-73408Y219377D01*
X-73503Y219402D01*
X-73603Y219408D01*
X-73624Y219411D01*
X-73636Y219410D01*
X-73664Y219412D01*
X-79724Y219412D01*
X-79753Y219408D01*
X-79782Y219410D01*
X-79911Y219388D01*
X-80039Y219372D01*
X-80067Y219361D01*
X-80096Y219356D01*
X-80214Y219303D01*
X-80335Y219255D01*
X-80359Y219238D01*
X-80386Y219225D01*
X-80487Y219144D01*
X-80592Y219068D01*
X-80611Y219045D01*
X-80634Y219027D01*
X-80712Y218923D01*
X-80795Y218823D01*
X-80808Y218796D01*
X-80825Y218773D01*
X-80896Y218628D01*
X-81577Y216986D01*
X-83198Y215364D01*
X-85317Y214487D01*
X-87610Y214487D01*
G37*
%LPD*%
%LPC*%
G36*
X49991Y240144D02*
X49991Y240144D01*
X46649Y241528D01*
X44091Y244086D01*
X42706Y247429D01*
X42706Y251046D01*
X44091Y254389D01*
X46649Y256947D01*
X49991Y258331D01*
X53609Y258331D01*
X56951Y256947D01*
X59509Y254389D01*
X60894Y251046D01*
X60894Y247429D01*
X59509Y244086D01*
X56951Y241528D01*
X53609Y240144D01*
X49991Y240144D01*
G37*
%LPD*%
%LPC*%
G36*
X24591Y240144D02*
X24591Y240144D01*
X21249Y241528D01*
X18691Y244086D01*
X17306Y247429D01*
X17306Y251046D01*
X18691Y254389D01*
X21249Y256947D01*
X24591Y258331D01*
X28209Y258331D01*
X31551Y256947D01*
X34109Y254389D01*
X35494Y251046D01*
X35494Y247429D01*
X34109Y244086D01*
X31551Y241528D01*
X28209Y240144D01*
X24591Y240144D01*
G37*
%LPD*%
%LPC*%
G36*
X-104409Y240144D02*
X-104409Y240144D01*
X-107751Y241528D01*
X-110309Y244086D01*
X-111694Y247429D01*
X-111694Y251046D01*
X-110309Y254389D01*
X-107751Y256947D01*
X-104409Y258331D01*
X-100791Y258331D01*
X-97449Y256947D01*
X-94891Y254389D01*
X-93506Y251046D01*
X-93506Y247429D01*
X-94891Y244086D01*
X-97449Y241528D01*
X-100791Y240144D01*
X-104409Y240144D01*
G37*
%LPD*%
%LPC*%
G36*
X-809Y240144D02*
X-809Y240144D01*
X-4151Y241528D01*
X-6709Y244086D01*
X-8094Y247429D01*
X-8094Y251046D01*
X-6709Y254389D01*
X-4151Y256947D01*
X-809Y258331D01*
X2809Y258331D01*
X6151Y256947D01*
X8709Y254389D01*
X10094Y251046D01*
X10094Y247429D01*
X8709Y244086D01*
X6151Y241528D01*
X2809Y240144D01*
X-809Y240144D01*
G37*
%LPD*%
D10*
X57150Y135638D03*
X57150Y147638D03*
X57150Y159637D03*
D11*
X25400Y58738D03*
D12*
X47775Y212725D03*
X34775Y212725D03*
D13*
X60325Y201463D03*
X60325Y214463D03*
D12*
X-60475Y211138D03*
X-47475Y211138D03*
D14*
X-138113Y208988D03*
X-138113Y225988D03*
D13*
X92075Y160488D03*
X92075Y147488D03*
X77788Y133200D03*
X77788Y146200D03*
X57150Y187475D03*
X57150Y174475D03*
X66675Y187475D03*
X66675Y174475D03*
X-58738Y163663D03*
X-58738Y150663D03*
D15*
X79375Y190475D03*
X79375Y171475D03*
X93663Y190475D03*
X93663Y171475D03*
X-74613Y168250D03*
X-74613Y149250D03*
D16*
X25400Y282575D03*
X0Y282575D03*
X-25400Y282575D03*
D17*
X-16Y338266D03*
X143067Y255638D03*
X143084Y90409D03*
X16Y7809D03*
X-143067Y90438D03*
X-143084Y255666D03*
X71551Y296908D03*
X143051Y173067D03*
X71550Y49109D03*
X-71551Y49167D03*
X-143051Y173008D03*
X-71550Y296966D03*
D18*
X-102600Y96838D03*
X-77200Y96838D03*
X-51800Y96838D03*
X-26400Y96838D03*
X-1000Y96838D03*
X24400Y96838D03*
X49800Y96838D03*
X75200Y96838D03*
X100600Y96838D03*
X102600Y249238D03*
X77200Y249238D03*
X51800Y249238D03*
X26400Y249238D03*
X1000Y249238D03*
X-26400Y249238D03*
X-51800Y249238D03*
X-77200Y249238D03*
X-102600Y249238D03*
D19*
X33225Y225425D03*
X11225Y234925D03*
X11225Y215925D03*
X95138Y223838D03*
X73138Y233338D03*
X73138Y214338D03*
D20*
X35388Y186257D03*
X35388Y181256D03*
X35388Y176254D03*
X35388Y171253D03*
X35388Y166252D03*
X35388Y161251D03*
X35388Y156249D03*
X35388Y151248D03*
X35388Y146247D03*
X35388Y141246D03*
X35388Y136244D03*
X35388Y131243D03*
D21*
X29095Y124950D03*
X24094Y124950D03*
X19092Y124950D03*
X14091Y124950D03*
X9090Y124950D03*
X4089Y124950D03*
X-914Y124950D03*
X-5915Y124950D03*
X-10916Y124950D03*
X-15917Y124950D03*
X-20919Y124950D03*
X-25920Y124950D03*
D20*
X-32213Y131243D03*
X-32213Y136244D03*
X-32213Y141246D03*
X-32213Y146247D03*
X-32213Y151248D03*
X-32213Y156249D03*
X-32213Y161251D03*
X-32213Y166252D03*
X-32213Y171253D03*
X-32213Y176254D03*
X-32213Y181256D03*
X-32213Y186257D03*
D21*
X-25920Y192550D03*
X-20919Y192550D03*
X-15917Y192550D03*
X-10916Y192550D03*
X-5915Y192550D03*
X-914Y192550D03*
X4089Y192550D03*
X9090Y192550D03*
X14091Y192550D03*
X19092Y192550D03*
X24094Y192550D03*
X29095Y192550D03*
D22*
X1588Y158750D03*
D23*
X-32213Y161251D02*
X-56326Y161251D01*
X-58738Y163663D01*
D24*
X-63325Y168250D02*
X-74613Y168250D01*
X-63325Y168250D02*
X-58738Y163663D01*
D25*
X-74613Y168250D02*
X-80113Y162749D01*
X-80113Y161513D01*
D26*
X-80113Y161513D03*
X-118213Y117063D03*
X-92813Y126588D03*
D25*
X-108688Y126588D02*
X-118213Y117063D01*
X-108688Y126588D02*
X-92813Y126588D01*
D26*
X-86463Y220251D03*
X-69001Y223426D03*
D25*
X-83288Y223426D02*
X-86463Y220251D01*
X-83288Y223426D02*
X-69001Y223426D01*
D27*
X-71438Y152425D02*
X-74613Y149250D01*
D28*
X-32213Y156249D02*
X-914Y156249D01*
X1588Y158750D01*
D26*
X136525Y117475D03*
X112713Y142875D03*
X-106363Y177800D03*
X-106363Y198438D03*
X131763Y212725D03*
X107324Y185738D03*
D25*
X12125Y235825D02*
X11225Y234925D01*
D26*
X12700Y288802D03*
X13573Y243602D03*
D23*
X-32213Y156249D02*
X-53151Y156249D01*
X-58738Y150663D01*
D24*
X-69675Y150663D01*
X-71438Y152425D01*
D26*
X-125262Y207963D03*
X40537Y169003D03*
D23*
X35388Y166252D02*
X35388Y161251D01*
X35388Y166252D02*
X35388Y171253D01*
D25*
X38138Y169003D02*
X35388Y166252D01*
X38138Y169003D02*
X40537Y169003D01*
X79375Y190475D02*
X93663Y190475D01*
X79375Y190475D02*
X76375Y187475D01*
X66675Y187475D01*
X57150Y187475D01*
X56426Y186751D01*
X54222Y186751D01*
X43712Y176240D01*
X43712Y172178D01*
X40537Y169003D01*
D23*
X35448Y156309D02*
X35388Y156249D01*
X35448Y156309D02*
X39563Y156309D01*
X47761Y165086D02*
X57150Y174475D01*
X47761Y164507D02*
X39563Y156309D01*
X47761Y164507D02*
X47761Y165086D01*
D25*
X57150Y174475D02*
X66675Y174475D01*
X69675Y171475D01*
X79375Y171475D01*
X93663Y171475D01*
X92075Y169888D02*
X92075Y160488D01*
X92075Y169888D02*
X93663Y171475D01*
D28*
X-138113Y224988D02*
X-138113Y225988D01*
X-138113Y224988D02*
X-139700Y223400D01*
D26*
X-139700Y223400D03*
D29*
X35388Y141246D02*
X35638Y140995D01*
X40877Y140995D01*
X46038Y135835D01*
X46038Y129541D01*
X50293Y125285D01*
D26*
X64837Y127797D03*
D29*
X66675Y127797D01*
X72385Y127797D01*
X77788Y133200D01*
X66675Y127797D02*
X64163Y125285D01*
X50293Y125285D01*
D26*
X9949Y204238D03*
D23*
X9090Y203379D02*
X9090Y192550D01*
X9090Y203379D02*
X9949Y204238D01*
D26*
X32646Y201399D03*
D23*
X29095Y197848D02*
X29095Y192550D01*
X29095Y197848D02*
X32646Y201399D01*
D26*
X-33464Y190500D03*
D29*
X-47475Y204511D02*
X-47475Y211138D01*
X-47475Y204511D02*
X-33464Y190500D01*
X-34960Y189004D02*
X-32213Y186257D01*
X-34960Y189004D02*
X-33464Y190500D01*
D25*
X0Y282575D02*
X7903Y282575D01*
X9471Y281007D01*
X15929Y281007D01*
X17497Y282575D01*
X25400Y282575D01*
D23*
X-15917Y206417D02*
X-15917Y192550D01*
X-15917Y206417D02*
X-17463Y207963D01*
D26*
X-17463Y207963D03*
X1608Y112713D03*
D23*
X-5855Y124891D02*
X-5915Y124950D01*
X-5855Y124891D02*
X-5855Y120774D01*
X1608Y113312D02*
X1608Y112713D01*
X1608Y113312D02*
X-5855Y120774D01*
D26*
X-107950Y134938D03*
D23*
X-85561Y134938D01*
X-85411Y134787D01*
X-54125Y134787D01*
X-42666Y146247D02*
X-32213Y146247D01*
X-42666Y146247D02*
X-54125Y134787D01*
D26*
X-54522Y189953D03*
D23*
X-51124Y186556D02*
X-51124Y186224D01*
X-51124Y186556D02*
X-54522Y189953D01*
X-41154Y176254D02*
X-32213Y176254D01*
X-41154Y176254D02*
X-51124Y186224D01*
D26*
X20638Y203200D03*
D23*
X24094Y199744D02*
X24094Y192550D01*
X24094Y199744D02*
X20638Y203200D01*
D29*
X48803Y142386D02*
X50401Y142386D01*
X57150Y135638D01*
X48803Y142386D02*
X44943Y146247D01*
D23*
X35388Y146247D01*
D29*
X35388Y151248D02*
X47163Y151248D01*
X48803Y152889D01*
X50401Y152889D01*
X57150Y159637D01*
D26*
X-7938Y111125D03*
D23*
X-10916Y114103D01*
X-10916Y124950D01*
D26*
X-43901Y189217D03*
D30*
X-37528Y181256D02*
X-32213Y181256D01*
X-37528Y181256D02*
X-43901Y187629D01*
X-43901Y189217D01*
D26*
X-24810Y262113D03*
D28*
X-16462Y262113D01*
X-13196Y265379D01*
X61058Y265379D01*
X77200Y249238D01*
X-32098Y259094D02*
X-32098Y265131D01*
X92215Y249238D02*
X102600Y249238D01*
X-26400Y249238D02*
X-26400Y253397D01*
X-32098Y259094D01*
X-26820Y270408D02*
X71044Y270408D01*
X-26820Y270408D02*
X-32098Y265131D01*
X71044Y270408D02*
X92215Y249238D01*
D26*
X-52388Y71438D03*
D28*
X-52388Y96250D01*
X-51800Y96838D01*
D26*
X33618Y71262D03*
D28*
X39240Y71262D02*
X64815Y96838D01*
X39240Y71262D02*
X33618Y71262D01*
X64815Y96838D02*
X75200Y96838D01*
X-89725Y109713D02*
X-102600Y96838D01*
X-89725Y109713D02*
X-27952Y109713D01*
D26*
X-27952Y109713D03*
D28*
X-26400Y96838D02*
X-26400Y82039D01*
X-44555Y63884D01*
D26*
X-44555Y63884D03*
D28*
X25050Y225425D02*
X33225Y225425D01*
D26*
X25050Y225425D03*
D28*
X47742Y223838D02*
X95138Y223838D01*
X47742Y223838D02*
X46038Y225542D01*
D26*
X46038Y225542D03*
D25*
X60450Y214338D02*
X73138Y214338D01*
X60450Y214338D02*
X60325Y214463D01*
D28*
X27113Y215925D02*
X11225Y215925D01*
X29425Y212725D02*
X34775Y212725D01*
X29425Y212725D02*
X27113Y215925D01*
D23*
X35447Y181315D02*
X35388Y181256D01*
X41579Y184771D02*
X58270Y201463D01*
X60325Y201463D01*
X41579Y184771D02*
X41579Y183331D01*
X39563Y181315D01*
X35447Y181315D01*
X35388Y186257D02*
X47775Y198645D01*
X47775Y212725D01*
D29*
X-39594Y49148D02*
X-39594Y34861D01*
D26*
X-39594Y34861D03*
D29*
X-39594Y49148D02*
X-11516Y77227D01*
X-11516Y103003D01*
X-15917Y107404D01*
X-15917Y124950D01*
X-16156Y92426D02*
X-16156Y80749D01*
X-16156Y92426D02*
X-16037Y92545D01*
X-16037Y101130D01*
X-20919Y106012D01*
X-20919Y124950D01*
X-47738Y49167D02*
X-71551Y49167D01*
X-47738Y49167D02*
X-16156Y80749D01*
X34642Y121755D02*
X44675Y111722D01*
X34642Y121755D02*
X32290Y121755D01*
X29095Y124950D01*
X44675Y111722D02*
X113265Y111722D01*
X135621Y134077D01*
X135621Y142997D01*
D26*
X135621Y142997D03*
D29*
X42802Y107201D02*
X32769Y117234D01*
X42802Y107201D02*
X115138Y107201D01*
X24343Y120853D02*
X24343Y124700D01*
X24094Y124950D01*
X27963Y117234D02*
X32769Y117234D01*
X27963Y117234D02*
X24343Y120853D01*
X143771Y172346D02*
X145256Y170861D01*
X143771Y172346D02*
X143051Y173067D01*
X143771Y172346D02*
X143771Y135834D01*
X115138Y107201D01*
X-5915Y192550D02*
X-6164Y192800D01*
X-39938Y241339D02*
X-39938Y254251D01*
D26*
X-52285Y277710D03*
D29*
X-52285Y266597D02*
X-39938Y254251D01*
X-52285Y266597D02*
X-52285Y277710D01*
X-5908Y201589D02*
X-6164Y201333D01*
X-6164Y192800D01*
X-18117Y219517D02*
X-39938Y241339D01*
X-18117Y219517D02*
X-12677Y219517D01*
X-5908Y212749D01*
X-5908Y201589D01*
X-63500Y246063D02*
X-63500Y263516D01*
X-63500Y246063D02*
X-52501Y235064D01*
X-40057Y235064D01*
X-71550Y271566D02*
X-71550Y296966D01*
X-71550Y271566D02*
X-63500Y263516D01*
X-10429Y203462D02*
X-10916Y202976D01*
X-10916Y192550D01*
X-19989Y214996D02*
X-40057Y235064D01*
X-19989Y214996D02*
X-14549Y214996D01*
X-10429Y210876D01*
X-10429Y203462D01*
X-32213Y166252D02*
X-47851Y166252D01*
X-67538Y185939D01*
X-127000Y185939D02*
X-139930Y173008D01*
X-141288Y173008D01*
X-143051Y173008D01*
X-128357Y185939D02*
X-67538Y185939D01*
X-128357Y185939D02*
X-141288Y173008D01*
X-45554Y151248D02*
X-32213Y151248D01*
X-45554Y151248D02*
X-57303Y139499D01*
D26*
X-127000Y136525D03*
D29*
X-85931Y141971D02*
X-83459Y139499D01*
X-85931Y141971D02*
X-121554Y141971D01*
X-127000Y136525D01*
X-83459Y139499D02*
X-57303Y139499D01*
X19092Y124950D02*
X19342Y124699D01*
X26090Y112713D02*
X30897Y112713D01*
X19342Y119460D02*
X19342Y124699D01*
X19342Y119460D02*
X26090Y112713D01*
X30897Y112713D02*
X39437Y104172D01*
X14529Y63241D02*
X14529Y57391D01*
X14288Y57150D01*
X14529Y63241D02*
X39437Y88149D01*
X39437Y104172D01*
X14288Y57150D02*
X14288Y46743D01*
X28575Y32455D01*
D26*
X28575Y32455D03*
D29*
X14340Y124700D02*
X14091Y124950D01*
X24217Y108191D02*
X27702Y108191D01*
X34916Y100978D01*
X14340Y118068D02*
X14340Y124700D01*
X14340Y118068D02*
X24217Y108191D01*
X34916Y100978D02*
X34916Y90021D01*
X9766Y57391D02*
X9525Y57150D01*
X9766Y64872D02*
X34916Y90021D01*
X9766Y64872D02*
X9766Y57391D01*
X9525Y57150D02*
X9525Y39688D01*
X23791Y25422D01*
X32654Y25422D02*
X68638Y46197D01*
X71550Y49109D01*
X32654Y25422D02*
X23791Y25422D01*
X124066Y148940D02*
X114357Y158649D01*
X114357Y252136D01*
X124066Y148940D02*
X124066Y135337D01*
D26*
X88716Y271999D03*
D29*
X101114Y259601D02*
X106893Y259601D01*
X101114Y259601D02*
X88716Y271999D01*
X106893Y259601D02*
X114357Y252136D01*
X39484Y135994D02*
X41389Y134090D01*
X35637Y135994D02*
X35388Y136244D01*
X35637Y135994D02*
X39484Y135994D01*
X41389Y127796D02*
X48421Y120764D01*
X41389Y127796D02*
X41389Y134090D01*
X48421Y120764D02*
X109494Y120764D01*
X124066Y135337D01*
X128588Y133464D02*
X128588Y150813D01*
X119063Y160338D01*
X119063Y253825D01*
X108765Y264122D02*
X104575Y264122D01*
X108765Y264122D02*
X119063Y253825D01*
X104575Y264122D02*
X95749Y272947D01*
X95749Y276500D01*
X91629Y280620D01*
X87839Y280620D01*
X71551Y296908D01*
X35388Y131243D02*
X35388Y127403D01*
X46548Y116243D01*
X111366Y116243D01*
X128588Y133464D01*
X-116450Y190500D02*
X-125413Y199463D01*
X-128588Y199463D01*
X-138113Y208988D01*
X-65015Y190500D02*
X-45768Y171253D01*
X-32213Y171253D01*
X-65015Y190500D02*
X-116450Y190500D01*
M02*
