G04 EAGLE Gerber RS-274X export*
G75*
%MOMM*%
%FSLAX34Y34*%
%LPD*%
%INSilkscreen Bottom*%
%IPPOS*%
%AMOC8*
5,1,8,0,0,1.08239X$1,22.5*%
G01*
%ADD10C,0.152400*%
%ADD11C,0.101600*%
%ADD12C,0.254000*%
%ADD13C,0.076200*%
%ADD14R,0.584200X0.457200*%

G36*
X-9009Y198757D02*
X-9009Y198757D01*
X-9006Y198756D01*
X-8963Y198776D01*
X-8920Y198794D01*
X-8919Y198796D01*
X-8917Y198797D01*
X-8884Y198882D01*
X-8884Y201422D01*
X-8885Y201424D01*
X-8884Y201426D01*
X-8904Y201469D01*
X-8923Y201513D01*
X-8925Y201513D01*
X-8926Y201515D01*
X-9011Y201548D01*
X-12821Y201548D01*
X-12823Y201547D01*
X-12825Y201548D01*
X-12868Y201528D01*
X-12911Y201510D01*
X-12912Y201508D01*
X-12914Y201507D01*
X-12947Y201422D01*
X-12947Y198882D01*
X-12946Y198880D01*
X-12947Y198878D01*
X-12927Y198835D01*
X-12908Y198791D01*
X-12906Y198791D01*
X-12905Y198789D01*
X-12821Y198756D01*
X-9011Y198756D01*
X-9009Y198757D01*
G37*
G36*
X-38543Y154219D02*
X-38543Y154219D01*
X-38540Y154218D01*
X-38497Y154238D01*
X-38454Y154256D01*
X-38453Y154258D01*
X-38451Y154259D01*
X-38418Y154344D01*
X-38418Y158154D01*
X-38419Y158156D01*
X-38418Y158158D01*
X-38438Y158201D01*
X-38457Y158245D01*
X-38459Y158245D01*
X-38460Y158247D01*
X-38545Y158280D01*
X-41085Y158280D01*
X-41087Y158279D01*
X-41089Y158280D01*
X-41132Y158260D01*
X-41175Y158242D01*
X-41176Y158240D01*
X-41178Y158239D01*
X-41211Y158154D01*
X-41211Y154344D01*
X-41210Y154342D01*
X-41211Y154340D01*
X-41191Y154297D01*
X-41172Y154253D01*
X-41170Y154253D01*
X-41169Y154251D01*
X-41085Y154218D01*
X-38545Y154218D01*
X-38543Y154219D01*
G37*
G36*
X44262Y139216D02*
X44262Y139216D01*
X44264Y139215D01*
X44307Y139235D01*
X44350Y139253D01*
X44351Y139255D01*
X44353Y139256D01*
X44386Y139341D01*
X44386Y143151D01*
X44385Y143153D01*
X44386Y143155D01*
X44366Y143198D01*
X44347Y143242D01*
X44345Y143242D01*
X44344Y143244D01*
X44260Y143277D01*
X41720Y143277D01*
X41718Y143276D01*
X41715Y143277D01*
X41672Y143257D01*
X41629Y143239D01*
X41628Y143237D01*
X41626Y143236D01*
X41593Y143151D01*
X41593Y139341D01*
X41594Y139339D01*
X41593Y139337D01*
X41613Y139294D01*
X41632Y139250D01*
X41634Y139250D01*
X41635Y139248D01*
X41720Y139215D01*
X44260Y139215D01*
X44262Y139216D01*
G37*
G36*
X-4008Y115953D02*
X-4008Y115953D01*
X-4005Y115952D01*
X-3962Y115972D01*
X-3919Y115990D01*
X-3918Y115992D01*
X-3916Y115993D01*
X-3883Y116078D01*
X-3883Y118618D01*
X-3884Y118620D01*
X-3883Y118622D01*
X-3903Y118665D01*
X-3922Y118709D01*
X-3924Y118709D01*
X-3925Y118711D01*
X-4010Y118744D01*
X-7820Y118744D01*
X-7822Y118743D01*
X-7824Y118744D01*
X-7867Y118724D01*
X-7910Y118706D01*
X-7911Y118704D01*
X-7913Y118703D01*
X-7946Y118618D01*
X-7946Y116078D01*
X-7945Y116076D01*
X-7946Y116074D01*
X-7926Y116031D01*
X-7907Y115987D01*
X-7905Y115987D01*
X-7904Y115985D01*
X-7820Y115952D01*
X-4010Y115952D01*
X-4008Y115953D01*
G37*
D10*
X88138Y264287D02*
X88138Y282067D01*
X83199Y282067D01*
X83059Y282065D01*
X82920Y282059D01*
X82780Y282049D01*
X82641Y282035D01*
X82502Y282018D01*
X82364Y281996D01*
X82227Y281970D01*
X82090Y281941D01*
X81954Y281908D01*
X81820Y281871D01*
X81686Y281830D01*
X81554Y281785D01*
X81422Y281736D01*
X81293Y281684D01*
X81165Y281629D01*
X81038Y281569D01*
X80913Y281506D01*
X80790Y281440D01*
X80669Y281370D01*
X80550Y281297D01*
X80433Y281220D01*
X80319Y281140D01*
X80206Y281057D01*
X80096Y280971D01*
X79989Y280881D01*
X79884Y280789D01*
X79782Y280694D01*
X79682Y280596D01*
X79585Y280495D01*
X79491Y280391D01*
X79401Y280285D01*
X79313Y280176D01*
X79228Y280065D01*
X79147Y279951D01*
X79068Y279836D01*
X78993Y279718D01*
X78922Y279598D01*
X78854Y279475D01*
X78789Y279352D01*
X78728Y279226D01*
X78670Y279098D01*
X78616Y278970D01*
X78566Y278839D01*
X78519Y278707D01*
X78476Y278574D01*
X78437Y278440D01*
X78402Y278305D01*
X78371Y278169D01*
X78343Y278031D01*
X78320Y277894D01*
X78300Y277755D01*
X78284Y277616D01*
X78272Y277477D01*
X78264Y277338D01*
X78260Y277198D01*
X78260Y277058D01*
X78264Y276918D01*
X78272Y276779D01*
X78284Y276640D01*
X78300Y276501D01*
X78320Y276362D01*
X78343Y276225D01*
X78371Y276087D01*
X78402Y275951D01*
X78437Y275816D01*
X78476Y275682D01*
X78519Y275549D01*
X78566Y275417D01*
X78616Y275286D01*
X78670Y275158D01*
X78728Y275030D01*
X78789Y274904D01*
X78854Y274781D01*
X78922Y274659D01*
X78993Y274538D01*
X79068Y274420D01*
X79147Y274305D01*
X79228Y274191D01*
X79313Y274080D01*
X79401Y273971D01*
X79491Y273865D01*
X79585Y273761D01*
X79682Y273660D01*
X79782Y273562D01*
X79884Y273467D01*
X79989Y273375D01*
X80096Y273285D01*
X80206Y273199D01*
X80319Y273116D01*
X80433Y273036D01*
X80550Y272959D01*
X80669Y272886D01*
X80790Y272816D01*
X80913Y272750D01*
X81038Y272687D01*
X81165Y272627D01*
X81293Y272572D01*
X81422Y272520D01*
X81554Y272471D01*
X81686Y272426D01*
X81820Y272385D01*
X81954Y272348D01*
X82090Y272315D01*
X82227Y272286D01*
X82364Y272260D01*
X82502Y272238D01*
X82641Y272221D01*
X82780Y272207D01*
X82920Y272197D01*
X83059Y272191D01*
X83199Y272189D01*
X88138Y272189D01*
X72143Y278116D02*
X67204Y282067D01*
X67204Y264287D01*
X72143Y264287D02*
X62265Y264287D01*
X130937Y113475D02*
X148717Y113475D01*
X148717Y118413D01*
X148715Y118553D01*
X148709Y118692D01*
X148699Y118832D01*
X148685Y118971D01*
X148668Y119110D01*
X148646Y119248D01*
X148620Y119385D01*
X148591Y119522D01*
X148558Y119658D01*
X148521Y119792D01*
X148480Y119926D01*
X148435Y120058D01*
X148386Y120190D01*
X148334Y120319D01*
X148279Y120447D01*
X148219Y120574D01*
X148156Y120699D01*
X148090Y120822D01*
X148020Y120943D01*
X147947Y121062D01*
X147870Y121179D01*
X147790Y121293D01*
X147707Y121406D01*
X147621Y121516D01*
X147531Y121623D01*
X147439Y121728D01*
X147344Y121830D01*
X147246Y121930D01*
X147145Y122027D01*
X147041Y122121D01*
X146935Y122211D01*
X146826Y122299D01*
X146715Y122384D01*
X146601Y122465D01*
X146486Y122544D01*
X146368Y122619D01*
X146248Y122690D01*
X146125Y122758D01*
X146002Y122823D01*
X145876Y122884D01*
X145748Y122942D01*
X145620Y122996D01*
X145489Y123046D01*
X145357Y123093D01*
X145224Y123136D01*
X145090Y123175D01*
X144955Y123210D01*
X144819Y123241D01*
X144681Y123269D01*
X144544Y123292D01*
X144405Y123312D01*
X144266Y123328D01*
X144127Y123340D01*
X143988Y123348D01*
X143848Y123352D01*
X143708Y123352D01*
X143568Y123348D01*
X143429Y123340D01*
X143290Y123328D01*
X143151Y123312D01*
X143012Y123292D01*
X142875Y123269D01*
X142737Y123241D01*
X142601Y123210D01*
X142466Y123175D01*
X142332Y123136D01*
X142199Y123093D01*
X142067Y123046D01*
X141936Y122996D01*
X141808Y122942D01*
X141680Y122884D01*
X141554Y122823D01*
X141431Y122758D01*
X141309Y122690D01*
X141188Y122619D01*
X141070Y122544D01*
X140955Y122465D01*
X140841Y122384D01*
X140730Y122299D01*
X140621Y122211D01*
X140515Y122121D01*
X140411Y122027D01*
X140310Y121930D01*
X140212Y121830D01*
X140117Y121728D01*
X140025Y121623D01*
X139935Y121516D01*
X139849Y121406D01*
X139766Y121293D01*
X139686Y121179D01*
X139609Y121062D01*
X139536Y120943D01*
X139466Y120822D01*
X139400Y120699D01*
X139337Y120574D01*
X139277Y120447D01*
X139222Y120319D01*
X139170Y120190D01*
X139121Y120058D01*
X139076Y119926D01*
X139035Y119792D01*
X138998Y119658D01*
X138965Y119522D01*
X138936Y119385D01*
X138910Y119248D01*
X138888Y119110D01*
X138871Y118971D01*
X138857Y118832D01*
X138847Y118692D01*
X138841Y118553D01*
X138839Y118413D01*
X138839Y113475D01*
X148717Y134902D02*
X148715Y135034D01*
X148709Y135165D01*
X148699Y135297D01*
X148686Y135428D01*
X148668Y135558D01*
X148647Y135688D01*
X148622Y135818D01*
X148593Y135946D01*
X148560Y136074D01*
X148523Y136200D01*
X148483Y136326D01*
X148439Y136450D01*
X148391Y136573D01*
X148340Y136694D01*
X148285Y136814D01*
X148227Y136932D01*
X148165Y137048D01*
X148099Y137162D01*
X148031Y137275D01*
X147959Y137385D01*
X147884Y137493D01*
X147805Y137599D01*
X147724Y137703D01*
X147639Y137804D01*
X147552Y137902D01*
X147461Y137998D01*
X147368Y138091D01*
X147272Y138182D01*
X147174Y138269D01*
X147073Y138354D01*
X146969Y138435D01*
X146863Y138514D01*
X146755Y138589D01*
X146645Y138661D01*
X146532Y138729D01*
X146418Y138795D01*
X146302Y138857D01*
X146184Y138915D01*
X146064Y138970D01*
X145943Y139021D01*
X145820Y139069D01*
X145696Y139113D01*
X145570Y139153D01*
X145444Y139190D01*
X145316Y139223D01*
X145188Y139252D01*
X145058Y139277D01*
X144928Y139298D01*
X144798Y139316D01*
X144667Y139329D01*
X144535Y139339D01*
X144404Y139345D01*
X144272Y139347D01*
X148717Y134902D02*
X148715Y134752D01*
X148709Y134603D01*
X148699Y134454D01*
X148686Y134305D01*
X148668Y134156D01*
X148647Y134008D01*
X148621Y133860D01*
X148592Y133714D01*
X148559Y133568D01*
X148522Y133423D01*
X148481Y133279D01*
X148437Y133136D01*
X148389Y132994D01*
X148337Y132854D01*
X148282Y132715D01*
X148223Y132577D01*
X148160Y132442D01*
X148094Y132307D01*
X148024Y132175D01*
X147951Y132045D01*
X147874Y131916D01*
X147794Y131789D01*
X147711Y131665D01*
X147625Y131543D01*
X147535Y131423D01*
X147442Y131306D01*
X147347Y131191D01*
X147248Y131078D01*
X147146Y130968D01*
X147042Y130861D01*
X146935Y130757D01*
X146825Y130655D01*
X146712Y130557D01*
X146597Y130461D01*
X146479Y130369D01*
X146359Y130279D01*
X146237Y130193D01*
X146113Y130110D01*
X145986Y130030D01*
X145858Y129954D01*
X145727Y129881D01*
X145594Y129811D01*
X145460Y129745D01*
X145324Y129683D01*
X145187Y129624D01*
X145048Y129568D01*
X144907Y129517D01*
X144766Y129469D01*
X140815Y137865D02*
X140908Y137961D01*
X141004Y138053D01*
X141103Y138143D01*
X141204Y138230D01*
X141307Y138315D01*
X141412Y138396D01*
X141520Y138474D01*
X141630Y138549D01*
X141742Y138622D01*
X141856Y138691D01*
X141972Y138757D01*
X142090Y138819D01*
X142209Y138878D01*
X142330Y138934D01*
X142453Y138987D01*
X142577Y139036D01*
X142702Y139081D01*
X142829Y139124D01*
X142956Y139162D01*
X143085Y139197D01*
X143214Y139228D01*
X143345Y139256D01*
X143476Y139280D01*
X143608Y139301D01*
X143740Y139317D01*
X143873Y139330D01*
X144006Y139340D01*
X144139Y139345D01*
X144272Y139347D01*
X140815Y137866D02*
X130937Y129470D01*
X130937Y139347D01*
X137851Y151717D02*
X143778Y151717D01*
X137851Y151717D02*
X133406Y155174D01*
X137851Y151717D02*
X133406Y148260D01*
X137851Y151717D02*
X139827Y157150D01*
X137851Y151717D02*
X139827Y146284D01*
X-113475Y146063D02*
X-131255Y146063D01*
X-113475Y146063D02*
X-113475Y151001D01*
X-113474Y151001D02*
X-113476Y151141D01*
X-113482Y151280D01*
X-113492Y151420D01*
X-113506Y151559D01*
X-113523Y151698D01*
X-113545Y151836D01*
X-113571Y151973D01*
X-113600Y152110D01*
X-113633Y152246D01*
X-113670Y152380D01*
X-113711Y152514D01*
X-113756Y152646D01*
X-113805Y152778D01*
X-113857Y152907D01*
X-113912Y153035D01*
X-113972Y153162D01*
X-114035Y153287D01*
X-114101Y153410D01*
X-114171Y153531D01*
X-114244Y153650D01*
X-114321Y153767D01*
X-114401Y153881D01*
X-114484Y153994D01*
X-114570Y154104D01*
X-114660Y154211D01*
X-114752Y154316D01*
X-114847Y154418D01*
X-114945Y154518D01*
X-115046Y154615D01*
X-115150Y154709D01*
X-115256Y154799D01*
X-115365Y154887D01*
X-115476Y154972D01*
X-115590Y155053D01*
X-115705Y155132D01*
X-115823Y155207D01*
X-115944Y155278D01*
X-116066Y155346D01*
X-116189Y155411D01*
X-116315Y155472D01*
X-116443Y155530D01*
X-116571Y155584D01*
X-116702Y155634D01*
X-116834Y155681D01*
X-116967Y155724D01*
X-117101Y155763D01*
X-117236Y155798D01*
X-117372Y155829D01*
X-117510Y155857D01*
X-117647Y155880D01*
X-117786Y155900D01*
X-117925Y155916D01*
X-118064Y155928D01*
X-118203Y155936D01*
X-118343Y155940D01*
X-118483Y155940D01*
X-118623Y155936D01*
X-118762Y155928D01*
X-118901Y155916D01*
X-119040Y155900D01*
X-119179Y155880D01*
X-119316Y155857D01*
X-119454Y155829D01*
X-119590Y155798D01*
X-119725Y155763D01*
X-119859Y155724D01*
X-119992Y155681D01*
X-120124Y155634D01*
X-120255Y155584D01*
X-120383Y155530D01*
X-120511Y155472D01*
X-120637Y155411D01*
X-120760Y155346D01*
X-120883Y155278D01*
X-121003Y155207D01*
X-121121Y155132D01*
X-121236Y155053D01*
X-121350Y154972D01*
X-121461Y154887D01*
X-121570Y154799D01*
X-121676Y154709D01*
X-121780Y154615D01*
X-121881Y154518D01*
X-121979Y154418D01*
X-122074Y154316D01*
X-122166Y154211D01*
X-122256Y154104D01*
X-122342Y153994D01*
X-122425Y153881D01*
X-122505Y153767D01*
X-122582Y153650D01*
X-122655Y153531D01*
X-122725Y153410D01*
X-122791Y153287D01*
X-122854Y153162D01*
X-122914Y153035D01*
X-122969Y152907D01*
X-123021Y152778D01*
X-123070Y152646D01*
X-123115Y152514D01*
X-123156Y152380D01*
X-123193Y152246D01*
X-123226Y152110D01*
X-123255Y151973D01*
X-123281Y151836D01*
X-123303Y151698D01*
X-123320Y151559D01*
X-123334Y151420D01*
X-123344Y151280D01*
X-123350Y151141D01*
X-123352Y151001D01*
X-123352Y146063D01*
X-131255Y162058D02*
X-131255Y167984D01*
X-131254Y167984D02*
X-131252Y168108D01*
X-131246Y168232D01*
X-131236Y168356D01*
X-131223Y168479D01*
X-131205Y168602D01*
X-131184Y168724D01*
X-131159Y168846D01*
X-131130Y168967D01*
X-131097Y169086D01*
X-131061Y169205D01*
X-131020Y169322D01*
X-130977Y169438D01*
X-130929Y169553D01*
X-130878Y169666D01*
X-130823Y169778D01*
X-130765Y169887D01*
X-130704Y169995D01*
X-130639Y170101D01*
X-130571Y170205D01*
X-130499Y170306D01*
X-130425Y170406D01*
X-130347Y170502D01*
X-130267Y170597D01*
X-130183Y170689D01*
X-130097Y170778D01*
X-130008Y170864D01*
X-129916Y170948D01*
X-129821Y171028D01*
X-129725Y171106D01*
X-129625Y171180D01*
X-129524Y171252D01*
X-129420Y171320D01*
X-129314Y171385D01*
X-129206Y171446D01*
X-129097Y171504D01*
X-128985Y171559D01*
X-128872Y171610D01*
X-128757Y171658D01*
X-128641Y171701D01*
X-128524Y171742D01*
X-128405Y171778D01*
X-128286Y171811D01*
X-128165Y171840D01*
X-128043Y171865D01*
X-127921Y171886D01*
X-127798Y171904D01*
X-127675Y171917D01*
X-127551Y171927D01*
X-127427Y171933D01*
X-127303Y171935D01*
X-125328Y171935D01*
X-125204Y171933D01*
X-125080Y171927D01*
X-124956Y171917D01*
X-124833Y171904D01*
X-124710Y171886D01*
X-124588Y171865D01*
X-124466Y171840D01*
X-124345Y171811D01*
X-124226Y171778D01*
X-124107Y171742D01*
X-123990Y171701D01*
X-123874Y171658D01*
X-123759Y171610D01*
X-123646Y171559D01*
X-123534Y171504D01*
X-123425Y171446D01*
X-123317Y171385D01*
X-123211Y171320D01*
X-123107Y171252D01*
X-123006Y171180D01*
X-122906Y171106D01*
X-122810Y171028D01*
X-122715Y170948D01*
X-122623Y170864D01*
X-122534Y170778D01*
X-122448Y170689D01*
X-122364Y170597D01*
X-122284Y170502D01*
X-122206Y170406D01*
X-122132Y170306D01*
X-122060Y170205D01*
X-121992Y170101D01*
X-121927Y169995D01*
X-121866Y169887D01*
X-121808Y169778D01*
X-121753Y169666D01*
X-121702Y169553D01*
X-121654Y169438D01*
X-121611Y169322D01*
X-121570Y169205D01*
X-121534Y169086D01*
X-121501Y168967D01*
X-121472Y168846D01*
X-121447Y168724D01*
X-121426Y168602D01*
X-121408Y168479D01*
X-121395Y168356D01*
X-121385Y168232D01*
X-121379Y168108D01*
X-121377Y167984D01*
X-121377Y162058D01*
X-113475Y162058D01*
X-113475Y171935D01*
X-118413Y184305D02*
X-124340Y184305D01*
X-128785Y187762D01*
X-124340Y184305D02*
X-128785Y180848D01*
X-124340Y184305D02*
X-122365Y189738D01*
X-124340Y184305D02*
X-122365Y178872D01*
X-63853Y78613D02*
X-63853Y60833D01*
X-63853Y78613D02*
X-68792Y78613D01*
X-68932Y78611D01*
X-69071Y78605D01*
X-69211Y78595D01*
X-69350Y78581D01*
X-69489Y78564D01*
X-69627Y78542D01*
X-69764Y78516D01*
X-69901Y78487D01*
X-70037Y78454D01*
X-70171Y78417D01*
X-70305Y78376D01*
X-70437Y78331D01*
X-70569Y78282D01*
X-70698Y78230D01*
X-70826Y78175D01*
X-70953Y78115D01*
X-71078Y78052D01*
X-71201Y77986D01*
X-71322Y77916D01*
X-71441Y77843D01*
X-71558Y77766D01*
X-71672Y77686D01*
X-71785Y77603D01*
X-71895Y77517D01*
X-72002Y77427D01*
X-72107Y77335D01*
X-72209Y77240D01*
X-72309Y77142D01*
X-72406Y77041D01*
X-72500Y76937D01*
X-72590Y76831D01*
X-72678Y76722D01*
X-72763Y76611D01*
X-72844Y76497D01*
X-72923Y76382D01*
X-72998Y76264D01*
X-73069Y76143D01*
X-73137Y76021D01*
X-73202Y75898D01*
X-73263Y75772D01*
X-73321Y75644D01*
X-73375Y75516D01*
X-73425Y75385D01*
X-73472Y75253D01*
X-73515Y75120D01*
X-73554Y74986D01*
X-73589Y74851D01*
X-73620Y74715D01*
X-73648Y74577D01*
X-73671Y74440D01*
X-73691Y74301D01*
X-73707Y74162D01*
X-73719Y74023D01*
X-73727Y73884D01*
X-73731Y73744D01*
X-73731Y73604D01*
X-73727Y73464D01*
X-73719Y73325D01*
X-73707Y73186D01*
X-73691Y73047D01*
X-73671Y72908D01*
X-73648Y72771D01*
X-73620Y72633D01*
X-73589Y72497D01*
X-73554Y72362D01*
X-73515Y72228D01*
X-73472Y72095D01*
X-73425Y71963D01*
X-73375Y71832D01*
X-73321Y71704D01*
X-73263Y71576D01*
X-73202Y71450D01*
X-73137Y71327D01*
X-73069Y71204D01*
X-72998Y71084D01*
X-72923Y70966D01*
X-72844Y70851D01*
X-72763Y70737D01*
X-72678Y70626D01*
X-72590Y70517D01*
X-72500Y70411D01*
X-72406Y70307D01*
X-72309Y70206D01*
X-72209Y70108D01*
X-72107Y70013D01*
X-72002Y69921D01*
X-71895Y69831D01*
X-71785Y69745D01*
X-71672Y69662D01*
X-71558Y69582D01*
X-71441Y69505D01*
X-71322Y69432D01*
X-71201Y69362D01*
X-71078Y69296D01*
X-70953Y69233D01*
X-70826Y69173D01*
X-70698Y69118D01*
X-70569Y69066D01*
X-70437Y69017D01*
X-70305Y68972D01*
X-70171Y68931D01*
X-70037Y68894D01*
X-69901Y68861D01*
X-69764Y68832D01*
X-69627Y68806D01*
X-69489Y68784D01*
X-69350Y68767D01*
X-69211Y68753D01*
X-69071Y68743D01*
X-68932Y68737D01*
X-68792Y68735D01*
X-63853Y68735D01*
X-79848Y64784D02*
X-83799Y78613D01*
X-79848Y64784D02*
X-89726Y64784D01*
X-86762Y68735D02*
X-86762Y60833D01*
X80610Y60833D02*
X80610Y78613D01*
X75671Y78613D01*
X75531Y78611D01*
X75392Y78605D01*
X75252Y78595D01*
X75113Y78581D01*
X74974Y78564D01*
X74836Y78542D01*
X74699Y78516D01*
X74562Y78487D01*
X74426Y78454D01*
X74292Y78417D01*
X74158Y78376D01*
X74026Y78331D01*
X73894Y78282D01*
X73765Y78230D01*
X73637Y78175D01*
X73510Y78115D01*
X73385Y78052D01*
X73262Y77986D01*
X73141Y77916D01*
X73022Y77843D01*
X72905Y77766D01*
X72791Y77686D01*
X72678Y77603D01*
X72568Y77517D01*
X72461Y77427D01*
X72356Y77335D01*
X72254Y77240D01*
X72154Y77142D01*
X72057Y77041D01*
X71963Y76937D01*
X71873Y76831D01*
X71785Y76722D01*
X71700Y76611D01*
X71619Y76497D01*
X71540Y76382D01*
X71465Y76264D01*
X71394Y76143D01*
X71326Y76021D01*
X71261Y75898D01*
X71200Y75772D01*
X71142Y75644D01*
X71088Y75516D01*
X71038Y75385D01*
X70991Y75253D01*
X70948Y75120D01*
X70909Y74986D01*
X70874Y74851D01*
X70843Y74715D01*
X70815Y74577D01*
X70792Y74440D01*
X70772Y74301D01*
X70756Y74162D01*
X70744Y74023D01*
X70736Y73884D01*
X70732Y73744D01*
X70732Y73604D01*
X70736Y73464D01*
X70744Y73325D01*
X70756Y73186D01*
X70772Y73047D01*
X70792Y72908D01*
X70815Y72771D01*
X70843Y72633D01*
X70874Y72497D01*
X70909Y72362D01*
X70948Y72228D01*
X70991Y72095D01*
X71038Y71963D01*
X71088Y71832D01*
X71142Y71704D01*
X71200Y71576D01*
X71261Y71450D01*
X71326Y71327D01*
X71394Y71204D01*
X71465Y71084D01*
X71540Y70966D01*
X71619Y70851D01*
X71700Y70737D01*
X71785Y70626D01*
X71873Y70517D01*
X71963Y70411D01*
X72057Y70307D01*
X72154Y70206D01*
X72254Y70108D01*
X72356Y70013D01*
X72461Y69921D01*
X72568Y69831D01*
X72678Y69745D01*
X72791Y69662D01*
X72905Y69582D01*
X73022Y69505D01*
X73141Y69432D01*
X73262Y69362D01*
X73385Y69296D01*
X73510Y69233D01*
X73637Y69173D01*
X73765Y69118D01*
X73894Y69066D01*
X74026Y69017D01*
X74158Y68972D01*
X74292Y68931D01*
X74426Y68894D01*
X74562Y68861D01*
X74699Y68832D01*
X74836Y68806D01*
X74974Y68784D01*
X75113Y68767D01*
X75252Y68753D01*
X75392Y68743D01*
X75531Y68737D01*
X75671Y68735D01*
X80610Y68735D01*
X64615Y60833D02*
X59676Y60833D01*
X59536Y60835D01*
X59397Y60841D01*
X59257Y60851D01*
X59118Y60865D01*
X58979Y60882D01*
X58841Y60904D01*
X58704Y60930D01*
X58567Y60959D01*
X58431Y60992D01*
X58297Y61029D01*
X58163Y61070D01*
X58031Y61115D01*
X57899Y61164D01*
X57770Y61216D01*
X57642Y61271D01*
X57515Y61331D01*
X57390Y61394D01*
X57267Y61460D01*
X57146Y61530D01*
X57027Y61603D01*
X56910Y61680D01*
X56796Y61760D01*
X56683Y61843D01*
X56573Y61929D01*
X56466Y62019D01*
X56361Y62111D01*
X56259Y62206D01*
X56159Y62304D01*
X56062Y62405D01*
X55968Y62509D01*
X55878Y62615D01*
X55790Y62724D01*
X55705Y62835D01*
X55624Y62949D01*
X55545Y63064D01*
X55470Y63182D01*
X55399Y63302D01*
X55331Y63425D01*
X55266Y63548D01*
X55205Y63674D01*
X55147Y63802D01*
X55093Y63930D01*
X55043Y64061D01*
X54996Y64193D01*
X54953Y64326D01*
X54914Y64460D01*
X54879Y64595D01*
X54848Y64731D01*
X54820Y64869D01*
X54797Y65006D01*
X54777Y65145D01*
X54761Y65284D01*
X54749Y65423D01*
X54741Y65562D01*
X54737Y65702D01*
X54737Y65842D01*
X54741Y65982D01*
X54749Y66121D01*
X54761Y66260D01*
X54777Y66399D01*
X54797Y66538D01*
X54820Y66675D01*
X54848Y66813D01*
X54879Y66949D01*
X54914Y67084D01*
X54953Y67218D01*
X54996Y67351D01*
X55043Y67483D01*
X55093Y67614D01*
X55147Y67742D01*
X55205Y67870D01*
X55266Y67996D01*
X55331Y68119D01*
X55399Y68241D01*
X55470Y68362D01*
X55545Y68480D01*
X55624Y68595D01*
X55705Y68709D01*
X55790Y68820D01*
X55878Y68929D01*
X55968Y69035D01*
X56062Y69139D01*
X56159Y69240D01*
X56259Y69338D01*
X56361Y69433D01*
X56466Y69525D01*
X56573Y69615D01*
X56683Y69701D01*
X56796Y69784D01*
X56910Y69864D01*
X57027Y69941D01*
X57146Y70014D01*
X57267Y70084D01*
X57390Y70150D01*
X57515Y70213D01*
X57642Y70273D01*
X57770Y70328D01*
X57899Y70380D01*
X58031Y70429D01*
X58163Y70474D01*
X58297Y70515D01*
X58431Y70552D01*
X58567Y70585D01*
X58704Y70614D01*
X58841Y70640D01*
X58979Y70662D01*
X59118Y70679D01*
X59257Y70693D01*
X59397Y70703D01*
X59536Y70709D01*
X59676Y70711D01*
X58688Y78613D02*
X64615Y78613D01*
X58688Y78613D02*
X58564Y78611D01*
X58440Y78605D01*
X58316Y78595D01*
X58193Y78582D01*
X58070Y78564D01*
X57948Y78543D01*
X57826Y78518D01*
X57705Y78489D01*
X57586Y78456D01*
X57467Y78420D01*
X57350Y78379D01*
X57234Y78336D01*
X57119Y78288D01*
X57006Y78237D01*
X56894Y78182D01*
X56785Y78124D01*
X56677Y78063D01*
X56571Y77998D01*
X56467Y77930D01*
X56366Y77858D01*
X56266Y77784D01*
X56170Y77706D01*
X56075Y77626D01*
X55983Y77542D01*
X55894Y77456D01*
X55808Y77367D01*
X55724Y77275D01*
X55644Y77180D01*
X55566Y77084D01*
X55492Y76984D01*
X55420Y76883D01*
X55352Y76779D01*
X55287Y76673D01*
X55226Y76565D01*
X55168Y76456D01*
X55113Y76344D01*
X55062Y76231D01*
X55014Y76116D01*
X54971Y76000D01*
X54930Y75883D01*
X54894Y75764D01*
X54861Y75645D01*
X54832Y75524D01*
X54807Y75402D01*
X54786Y75280D01*
X54768Y75157D01*
X54755Y75034D01*
X54745Y74910D01*
X54739Y74786D01*
X54737Y74662D01*
X54739Y74538D01*
X54745Y74414D01*
X54755Y74290D01*
X54768Y74167D01*
X54786Y74044D01*
X54807Y73922D01*
X54832Y73800D01*
X54861Y73679D01*
X54894Y73560D01*
X54930Y73441D01*
X54971Y73324D01*
X55014Y73208D01*
X55062Y73093D01*
X55113Y72980D01*
X55168Y72868D01*
X55226Y72759D01*
X55287Y72651D01*
X55352Y72545D01*
X55420Y72441D01*
X55492Y72340D01*
X55566Y72240D01*
X55644Y72144D01*
X55724Y72049D01*
X55808Y71957D01*
X55894Y71868D01*
X55983Y71782D01*
X56075Y71698D01*
X56170Y71618D01*
X56266Y71540D01*
X56366Y71466D01*
X56467Y71394D01*
X56571Y71326D01*
X56677Y71261D01*
X56785Y71200D01*
X56894Y71142D01*
X57006Y71087D01*
X57119Y71036D01*
X57234Y70988D01*
X57350Y70945D01*
X57467Y70904D01*
X57586Y70868D01*
X57705Y70835D01*
X57826Y70806D01*
X57948Y70781D01*
X58070Y70760D01*
X58193Y70742D01*
X58316Y70729D01*
X58440Y70719D01*
X58564Y70713D01*
X58688Y70711D01*
X62639Y70711D01*
X-87948Y136777D02*
X-105728Y136777D01*
X-95850Y136777D02*
X-95850Y146654D01*
X-87948Y146654D02*
X-105728Y146654D01*
X-105728Y154085D02*
X-105728Y159024D01*
X-105726Y159164D01*
X-105720Y159303D01*
X-105710Y159443D01*
X-105696Y159582D01*
X-105679Y159721D01*
X-105657Y159859D01*
X-105631Y159996D01*
X-105602Y160133D01*
X-105569Y160269D01*
X-105532Y160403D01*
X-105491Y160537D01*
X-105446Y160669D01*
X-105397Y160801D01*
X-105345Y160930D01*
X-105290Y161058D01*
X-105230Y161185D01*
X-105167Y161310D01*
X-105101Y161433D01*
X-105031Y161554D01*
X-104958Y161673D01*
X-104881Y161790D01*
X-104801Y161904D01*
X-104718Y162017D01*
X-104632Y162127D01*
X-104542Y162234D01*
X-104450Y162339D01*
X-104355Y162441D01*
X-104257Y162541D01*
X-104156Y162638D01*
X-104052Y162732D01*
X-103946Y162822D01*
X-103837Y162910D01*
X-103726Y162995D01*
X-103612Y163076D01*
X-103497Y163155D01*
X-103379Y163230D01*
X-103259Y163301D01*
X-103136Y163369D01*
X-103013Y163434D01*
X-102887Y163495D01*
X-102759Y163553D01*
X-102631Y163607D01*
X-102500Y163657D01*
X-102368Y163704D01*
X-102235Y163747D01*
X-102101Y163786D01*
X-101966Y163821D01*
X-101830Y163852D01*
X-101692Y163880D01*
X-101555Y163903D01*
X-101416Y163923D01*
X-101277Y163939D01*
X-101138Y163951D01*
X-100999Y163959D01*
X-100859Y163963D01*
X-100719Y163963D01*
X-100579Y163959D01*
X-100440Y163951D01*
X-100301Y163939D01*
X-100162Y163923D01*
X-100023Y163903D01*
X-99886Y163880D01*
X-99748Y163852D01*
X-99612Y163821D01*
X-99477Y163786D01*
X-99343Y163747D01*
X-99210Y163704D01*
X-99078Y163657D01*
X-98947Y163607D01*
X-98819Y163553D01*
X-98691Y163495D01*
X-98565Y163434D01*
X-98442Y163369D01*
X-98320Y163301D01*
X-98199Y163230D01*
X-98081Y163155D01*
X-97966Y163076D01*
X-97852Y162995D01*
X-97741Y162910D01*
X-97632Y162822D01*
X-97526Y162732D01*
X-97422Y162638D01*
X-97321Y162541D01*
X-97223Y162441D01*
X-97128Y162339D01*
X-97036Y162234D01*
X-96946Y162127D01*
X-96860Y162017D01*
X-96777Y161904D01*
X-96697Y161790D01*
X-96620Y161673D01*
X-96547Y161554D01*
X-96477Y161433D01*
X-96411Y161310D01*
X-96348Y161185D01*
X-96288Y161058D01*
X-96233Y160930D01*
X-96181Y160801D01*
X-96132Y160669D01*
X-96087Y160537D01*
X-96046Y160403D01*
X-96009Y160269D01*
X-95976Y160133D01*
X-95947Y159996D01*
X-95921Y159859D01*
X-95899Y159721D01*
X-95882Y159582D01*
X-95868Y159443D01*
X-95858Y159303D01*
X-95852Y159164D01*
X-95850Y159024D01*
X-87948Y160012D02*
X-87948Y154085D01*
X-87948Y160012D02*
X-87950Y160136D01*
X-87956Y160260D01*
X-87966Y160384D01*
X-87979Y160507D01*
X-87997Y160630D01*
X-88018Y160752D01*
X-88043Y160874D01*
X-88072Y160995D01*
X-88105Y161114D01*
X-88141Y161233D01*
X-88182Y161350D01*
X-88225Y161466D01*
X-88273Y161581D01*
X-88324Y161694D01*
X-88379Y161806D01*
X-88437Y161915D01*
X-88498Y162023D01*
X-88563Y162129D01*
X-88631Y162233D01*
X-88703Y162334D01*
X-88777Y162434D01*
X-88855Y162530D01*
X-88935Y162625D01*
X-89019Y162717D01*
X-89105Y162806D01*
X-89194Y162892D01*
X-89286Y162976D01*
X-89381Y163056D01*
X-89477Y163134D01*
X-89577Y163208D01*
X-89678Y163280D01*
X-89782Y163348D01*
X-89888Y163413D01*
X-89996Y163474D01*
X-90105Y163532D01*
X-90217Y163587D01*
X-90330Y163638D01*
X-90445Y163686D01*
X-90561Y163729D01*
X-90678Y163770D01*
X-90797Y163806D01*
X-90916Y163839D01*
X-91037Y163868D01*
X-91159Y163893D01*
X-91281Y163914D01*
X-91404Y163932D01*
X-91527Y163945D01*
X-91651Y163955D01*
X-91775Y163961D01*
X-91899Y163963D01*
X-92023Y163961D01*
X-92147Y163955D01*
X-92271Y163945D01*
X-92394Y163932D01*
X-92517Y163914D01*
X-92639Y163893D01*
X-92761Y163868D01*
X-92882Y163839D01*
X-93001Y163806D01*
X-93120Y163770D01*
X-93237Y163729D01*
X-93353Y163686D01*
X-93468Y163638D01*
X-93581Y163587D01*
X-93693Y163532D01*
X-93802Y163474D01*
X-93910Y163413D01*
X-94016Y163348D01*
X-94120Y163280D01*
X-94221Y163208D01*
X-94321Y163134D01*
X-94417Y163056D01*
X-94512Y162976D01*
X-94604Y162892D01*
X-94693Y162806D01*
X-94779Y162717D01*
X-94863Y162625D01*
X-94943Y162530D01*
X-95021Y162434D01*
X-95095Y162334D01*
X-95167Y162233D01*
X-95235Y162129D01*
X-95300Y162023D01*
X-95361Y161915D01*
X-95419Y161806D01*
X-95474Y161694D01*
X-95525Y161581D01*
X-95573Y161466D01*
X-95616Y161350D01*
X-95657Y161233D01*
X-95693Y161114D01*
X-95726Y160995D01*
X-95755Y160874D01*
X-95780Y160752D01*
X-95801Y160630D01*
X-95819Y160507D01*
X-95832Y160384D01*
X-95842Y160260D01*
X-95848Y160136D01*
X-95850Y160012D01*
X-95850Y156061D01*
X-95850Y171591D02*
X-95850Y176530D01*
X-95852Y176670D01*
X-95858Y176809D01*
X-95868Y176949D01*
X-95882Y177088D01*
X-95899Y177227D01*
X-95921Y177365D01*
X-95947Y177502D01*
X-95976Y177639D01*
X-96009Y177775D01*
X-96046Y177909D01*
X-96087Y178043D01*
X-96132Y178175D01*
X-96181Y178307D01*
X-96233Y178436D01*
X-96288Y178564D01*
X-96348Y178691D01*
X-96411Y178816D01*
X-96477Y178939D01*
X-96547Y179060D01*
X-96620Y179179D01*
X-96697Y179296D01*
X-96777Y179410D01*
X-96860Y179523D01*
X-96946Y179633D01*
X-97036Y179740D01*
X-97128Y179845D01*
X-97223Y179947D01*
X-97321Y180047D01*
X-97422Y180144D01*
X-97526Y180238D01*
X-97632Y180328D01*
X-97741Y180416D01*
X-97852Y180501D01*
X-97966Y180582D01*
X-98081Y180661D01*
X-98199Y180736D01*
X-98320Y180807D01*
X-98442Y180875D01*
X-98565Y180940D01*
X-98691Y181001D01*
X-98819Y181059D01*
X-98947Y181113D01*
X-99078Y181163D01*
X-99210Y181210D01*
X-99343Y181253D01*
X-99477Y181292D01*
X-99612Y181327D01*
X-99748Y181358D01*
X-99886Y181386D01*
X-100023Y181409D01*
X-100162Y181429D01*
X-100301Y181445D01*
X-100440Y181457D01*
X-100579Y181465D01*
X-100719Y181469D01*
X-100859Y181469D01*
X-100999Y181465D01*
X-101138Y181457D01*
X-101277Y181445D01*
X-101416Y181429D01*
X-101555Y181409D01*
X-101692Y181386D01*
X-101830Y181358D01*
X-101966Y181327D01*
X-102101Y181292D01*
X-102235Y181253D01*
X-102368Y181210D01*
X-102500Y181163D01*
X-102631Y181113D01*
X-102759Y181059D01*
X-102887Y181001D01*
X-103013Y180940D01*
X-103136Y180875D01*
X-103259Y180807D01*
X-103379Y180736D01*
X-103497Y180661D01*
X-103612Y180582D01*
X-103726Y180501D01*
X-103837Y180416D01*
X-103946Y180328D01*
X-104052Y180238D01*
X-104156Y180144D01*
X-104257Y180047D01*
X-104355Y179947D01*
X-104450Y179845D01*
X-104542Y179740D01*
X-104632Y179633D01*
X-104718Y179523D01*
X-104801Y179410D01*
X-104881Y179296D01*
X-104958Y179179D01*
X-105031Y179060D01*
X-105101Y178939D01*
X-105167Y178816D01*
X-105230Y178691D01*
X-105290Y178564D01*
X-105345Y178436D01*
X-105397Y178307D01*
X-105446Y178175D01*
X-105491Y178043D01*
X-105532Y177909D01*
X-105569Y177775D01*
X-105602Y177639D01*
X-105631Y177502D01*
X-105657Y177365D01*
X-105679Y177227D01*
X-105696Y177088D01*
X-105710Y176949D01*
X-105720Y176809D01*
X-105726Y176670D01*
X-105728Y176530D01*
X-105728Y171591D01*
X-87948Y171591D01*
X-87948Y176530D01*
X-87950Y176654D01*
X-87956Y176778D01*
X-87966Y176902D01*
X-87979Y177025D01*
X-87997Y177148D01*
X-88018Y177270D01*
X-88043Y177392D01*
X-88072Y177513D01*
X-88105Y177632D01*
X-88141Y177751D01*
X-88182Y177868D01*
X-88225Y177984D01*
X-88273Y178099D01*
X-88324Y178212D01*
X-88379Y178324D01*
X-88437Y178433D01*
X-88498Y178541D01*
X-88563Y178647D01*
X-88631Y178751D01*
X-88703Y178852D01*
X-88777Y178952D01*
X-88855Y179048D01*
X-88935Y179143D01*
X-89019Y179235D01*
X-89105Y179324D01*
X-89194Y179410D01*
X-89286Y179494D01*
X-89381Y179574D01*
X-89477Y179652D01*
X-89577Y179726D01*
X-89678Y179798D01*
X-89782Y179866D01*
X-89888Y179931D01*
X-89996Y179992D01*
X-90105Y180050D01*
X-90217Y180105D01*
X-90330Y180156D01*
X-90445Y180204D01*
X-90561Y180247D01*
X-90678Y180288D01*
X-90797Y180324D01*
X-90916Y180357D01*
X-91037Y180386D01*
X-91159Y180411D01*
X-91281Y180432D01*
X-91404Y180450D01*
X-91527Y180463D01*
X-91651Y180473D01*
X-91775Y180479D01*
X-91899Y180481D01*
X-92023Y180479D01*
X-92147Y180473D01*
X-92271Y180463D01*
X-92394Y180450D01*
X-92517Y180432D01*
X-92639Y180411D01*
X-92761Y180386D01*
X-92882Y180357D01*
X-93001Y180324D01*
X-93120Y180288D01*
X-93237Y180247D01*
X-93353Y180204D01*
X-93468Y180156D01*
X-93581Y180105D01*
X-93693Y180050D01*
X-93802Y179992D01*
X-93910Y179931D01*
X-94016Y179866D01*
X-94120Y179798D01*
X-94221Y179726D01*
X-94321Y179652D01*
X-94417Y179574D01*
X-94512Y179494D01*
X-94604Y179410D01*
X-94693Y179324D01*
X-94779Y179235D01*
X-94863Y179143D01*
X-94943Y179048D01*
X-95021Y178952D01*
X-95095Y178852D01*
X-95167Y178751D01*
X-95235Y178647D01*
X-95300Y178541D01*
X-95361Y178433D01*
X-95419Y178324D01*
X-95474Y178212D01*
X-95525Y178099D01*
X-95573Y177984D01*
X-95616Y177868D01*
X-95657Y177751D01*
X-95693Y177632D01*
X-95726Y177513D01*
X-95755Y177392D01*
X-95780Y177270D01*
X-95801Y177148D01*
X-95819Y177025D01*
X-95832Y176902D01*
X-95842Y176778D01*
X-95848Y176654D01*
X-95850Y176530D01*
X-87948Y188230D02*
X-105728Y188230D01*
X-87948Y188230D02*
X-87948Y193169D01*
X-87947Y193169D02*
X-87949Y193309D01*
X-87955Y193448D01*
X-87965Y193588D01*
X-87979Y193727D01*
X-87996Y193866D01*
X-88018Y194004D01*
X-88044Y194141D01*
X-88073Y194278D01*
X-88106Y194414D01*
X-88143Y194548D01*
X-88184Y194682D01*
X-88229Y194814D01*
X-88278Y194946D01*
X-88330Y195075D01*
X-88385Y195203D01*
X-88445Y195330D01*
X-88508Y195455D01*
X-88574Y195578D01*
X-88644Y195699D01*
X-88717Y195818D01*
X-88794Y195935D01*
X-88874Y196049D01*
X-88957Y196162D01*
X-89043Y196272D01*
X-89133Y196379D01*
X-89225Y196484D01*
X-89320Y196586D01*
X-89418Y196686D01*
X-89519Y196783D01*
X-89623Y196877D01*
X-89729Y196967D01*
X-89838Y197055D01*
X-89949Y197140D01*
X-90063Y197221D01*
X-90178Y197300D01*
X-90296Y197375D01*
X-90417Y197446D01*
X-90539Y197514D01*
X-90662Y197579D01*
X-90788Y197640D01*
X-90916Y197698D01*
X-91044Y197752D01*
X-91175Y197802D01*
X-91307Y197849D01*
X-91440Y197892D01*
X-91574Y197931D01*
X-91709Y197966D01*
X-91845Y197997D01*
X-91983Y198025D01*
X-92120Y198048D01*
X-92259Y198068D01*
X-92398Y198084D01*
X-92537Y198096D01*
X-92676Y198104D01*
X-92816Y198108D01*
X-92956Y198108D01*
X-93096Y198104D01*
X-93235Y198096D01*
X-93374Y198084D01*
X-93513Y198068D01*
X-93652Y198048D01*
X-93789Y198025D01*
X-93927Y197997D01*
X-94063Y197966D01*
X-94198Y197931D01*
X-94332Y197892D01*
X-94465Y197849D01*
X-94597Y197802D01*
X-94728Y197752D01*
X-94856Y197698D01*
X-94984Y197640D01*
X-95110Y197579D01*
X-95233Y197514D01*
X-95356Y197446D01*
X-95476Y197375D01*
X-95594Y197300D01*
X-95709Y197221D01*
X-95823Y197140D01*
X-95934Y197055D01*
X-96043Y196967D01*
X-96149Y196877D01*
X-96253Y196783D01*
X-96354Y196686D01*
X-96452Y196586D01*
X-96547Y196484D01*
X-96639Y196379D01*
X-96729Y196272D01*
X-96815Y196162D01*
X-96898Y196049D01*
X-96978Y195935D01*
X-97055Y195818D01*
X-97128Y195699D01*
X-97198Y195578D01*
X-97264Y195455D01*
X-97327Y195330D01*
X-97387Y195203D01*
X-97442Y195075D01*
X-97494Y194946D01*
X-97543Y194814D01*
X-97588Y194682D01*
X-97629Y194548D01*
X-97666Y194414D01*
X-97699Y194278D01*
X-97728Y194141D01*
X-97754Y194004D01*
X-97776Y193866D01*
X-97793Y193727D01*
X-97807Y193588D01*
X-97817Y193448D01*
X-97823Y193309D01*
X-97825Y193169D01*
X-97825Y188230D01*
X-97825Y194157D02*
X-105728Y198108D01*
X-92393Y214773D02*
X-92261Y214771D01*
X-92130Y214765D01*
X-91998Y214755D01*
X-91867Y214742D01*
X-91737Y214724D01*
X-91607Y214703D01*
X-91477Y214678D01*
X-91349Y214649D01*
X-91221Y214616D01*
X-91095Y214579D01*
X-90969Y214539D01*
X-90845Y214495D01*
X-90722Y214447D01*
X-90601Y214396D01*
X-90481Y214341D01*
X-90363Y214283D01*
X-90247Y214221D01*
X-90133Y214155D01*
X-90020Y214087D01*
X-89910Y214015D01*
X-89802Y213940D01*
X-89696Y213861D01*
X-89592Y213780D01*
X-89491Y213695D01*
X-89393Y213608D01*
X-89297Y213517D01*
X-89204Y213424D01*
X-89113Y213328D01*
X-89026Y213230D01*
X-88941Y213129D01*
X-88860Y213025D01*
X-88781Y212919D01*
X-88706Y212811D01*
X-88634Y212701D01*
X-88566Y212588D01*
X-88500Y212474D01*
X-88438Y212358D01*
X-88380Y212240D01*
X-88325Y212120D01*
X-88274Y211999D01*
X-88226Y211876D01*
X-88182Y211752D01*
X-88142Y211626D01*
X-88105Y211500D01*
X-88072Y211372D01*
X-88043Y211244D01*
X-88018Y211114D01*
X-87997Y210984D01*
X-87979Y210854D01*
X-87966Y210723D01*
X-87956Y210591D01*
X-87950Y210460D01*
X-87948Y210328D01*
X-87947Y210328D02*
X-87949Y210178D01*
X-87955Y210029D01*
X-87965Y209880D01*
X-87978Y209731D01*
X-87996Y209582D01*
X-88017Y209434D01*
X-88043Y209286D01*
X-88072Y209140D01*
X-88105Y208994D01*
X-88142Y208849D01*
X-88183Y208705D01*
X-88227Y208562D01*
X-88275Y208420D01*
X-88327Y208280D01*
X-88382Y208141D01*
X-88441Y208003D01*
X-88504Y207868D01*
X-88570Y207733D01*
X-88640Y207601D01*
X-88713Y207471D01*
X-88790Y207342D01*
X-88870Y207215D01*
X-88953Y207091D01*
X-89039Y206969D01*
X-89129Y206849D01*
X-89222Y206732D01*
X-89317Y206617D01*
X-89416Y206504D01*
X-89518Y206394D01*
X-89622Y206287D01*
X-89729Y206183D01*
X-89839Y206081D01*
X-89952Y205983D01*
X-90067Y205887D01*
X-90185Y205795D01*
X-90305Y205705D01*
X-90427Y205619D01*
X-90551Y205536D01*
X-90678Y205456D01*
X-90806Y205380D01*
X-90937Y205307D01*
X-91070Y205237D01*
X-91204Y205171D01*
X-91340Y205109D01*
X-91477Y205050D01*
X-91616Y204994D01*
X-91757Y204943D01*
X-91898Y204895D01*
X-95850Y213291D02*
X-95757Y213387D01*
X-95661Y213479D01*
X-95562Y213569D01*
X-95461Y213656D01*
X-95358Y213741D01*
X-95253Y213822D01*
X-95145Y213900D01*
X-95035Y213975D01*
X-94923Y214048D01*
X-94809Y214117D01*
X-94693Y214183D01*
X-94575Y214245D01*
X-94456Y214304D01*
X-94335Y214360D01*
X-94212Y214413D01*
X-94088Y214462D01*
X-93963Y214507D01*
X-93836Y214550D01*
X-93709Y214588D01*
X-93580Y214623D01*
X-93451Y214654D01*
X-93320Y214682D01*
X-93189Y214706D01*
X-93057Y214727D01*
X-92925Y214743D01*
X-92792Y214756D01*
X-92659Y214766D01*
X-92526Y214771D01*
X-92393Y214773D01*
X-95850Y213291D02*
X-105728Y204895D01*
X-105728Y214773D01*
X-96838Y221646D02*
X-96488Y221650D01*
X-96139Y221663D01*
X-95790Y221684D01*
X-95441Y221713D01*
X-95093Y221750D01*
X-94746Y221796D01*
X-94401Y221850D01*
X-94057Y221912D01*
X-93714Y221983D01*
X-93373Y222062D01*
X-93034Y222148D01*
X-92698Y222243D01*
X-92363Y222346D01*
X-92032Y222457D01*
X-91703Y222575D01*
X-91376Y222702D01*
X-91053Y222836D01*
X-90734Y222978D01*
X-90417Y223128D01*
X-90417Y223127D02*
X-90304Y223167D01*
X-90194Y223211D01*
X-90084Y223259D01*
X-89977Y223310D01*
X-89871Y223365D01*
X-89766Y223423D01*
X-89664Y223485D01*
X-89564Y223550D01*
X-89466Y223618D01*
X-89370Y223689D01*
X-89277Y223764D01*
X-89186Y223841D01*
X-89098Y223921D01*
X-89013Y224004D01*
X-88930Y224090D01*
X-88850Y224179D01*
X-88773Y224270D01*
X-88699Y224364D01*
X-88628Y224460D01*
X-88560Y224558D01*
X-88496Y224658D01*
X-88434Y224761D01*
X-88377Y224865D01*
X-88322Y224971D01*
X-88271Y225079D01*
X-88224Y225189D01*
X-88180Y225300D01*
X-88140Y225412D01*
X-88104Y225526D01*
X-88071Y225640D01*
X-88042Y225756D01*
X-88017Y225873D01*
X-87996Y225990D01*
X-87978Y226108D01*
X-87965Y226227D01*
X-87955Y226346D01*
X-87949Y226465D01*
X-87947Y226584D01*
X-87949Y226703D01*
X-87955Y226822D01*
X-87965Y226941D01*
X-87978Y227060D01*
X-87996Y227178D01*
X-88017Y227295D01*
X-88042Y227412D01*
X-88071Y227528D01*
X-88104Y227642D01*
X-88140Y227756D01*
X-88180Y227868D01*
X-88224Y227979D01*
X-88271Y228089D01*
X-88322Y228197D01*
X-88377Y228303D01*
X-88434Y228407D01*
X-88496Y228510D01*
X-88560Y228610D01*
X-88628Y228708D01*
X-88699Y228804D01*
X-88773Y228898D01*
X-88850Y228989D01*
X-88930Y229078D01*
X-89013Y229164D01*
X-89098Y229247D01*
X-89186Y229327D01*
X-89277Y229404D01*
X-89371Y229479D01*
X-89466Y229550D01*
X-89564Y229618D01*
X-89664Y229683D01*
X-89766Y229745D01*
X-89871Y229803D01*
X-89977Y229858D01*
X-90084Y229909D01*
X-90194Y229957D01*
X-90304Y230001D01*
X-90417Y230041D01*
X-90418Y230041D02*
X-90734Y230191D01*
X-91053Y230333D01*
X-91376Y230467D01*
X-91703Y230594D01*
X-92032Y230712D01*
X-92363Y230823D01*
X-92698Y230926D01*
X-93034Y231021D01*
X-93373Y231107D01*
X-93714Y231186D01*
X-94057Y231257D01*
X-94401Y231319D01*
X-94746Y231373D01*
X-95093Y231419D01*
X-95441Y231456D01*
X-95790Y231485D01*
X-96139Y231506D01*
X-96488Y231519D01*
X-96838Y231523D01*
X-96838Y221646D02*
X-97188Y221650D01*
X-97537Y221663D01*
X-97886Y221684D01*
X-98235Y221713D01*
X-98583Y221750D01*
X-98930Y221796D01*
X-99275Y221850D01*
X-99619Y221912D01*
X-99962Y221983D01*
X-100303Y222062D01*
X-100642Y222148D01*
X-100978Y222243D01*
X-101313Y222346D01*
X-101644Y222457D01*
X-101973Y222575D01*
X-102300Y222702D01*
X-102623Y222836D01*
X-102942Y222978D01*
X-103258Y223128D01*
X-103258Y223127D02*
X-103371Y223167D01*
X-103481Y223211D01*
X-103591Y223259D01*
X-103699Y223310D01*
X-103805Y223365D01*
X-103909Y223423D01*
X-104011Y223485D01*
X-104111Y223550D01*
X-104209Y223618D01*
X-104305Y223689D01*
X-104398Y223764D01*
X-104489Y223841D01*
X-104577Y223921D01*
X-104662Y224005D01*
X-104745Y224090D01*
X-104825Y224179D01*
X-104902Y224270D01*
X-104976Y224364D01*
X-105047Y224460D01*
X-105115Y224558D01*
X-105179Y224658D01*
X-105241Y224761D01*
X-105299Y224865D01*
X-105353Y224971D01*
X-105404Y225079D01*
X-105451Y225189D01*
X-105495Y225300D01*
X-105535Y225412D01*
X-105571Y225526D01*
X-105604Y225640D01*
X-105633Y225756D01*
X-105658Y225873D01*
X-105679Y225990D01*
X-105697Y226108D01*
X-105710Y226227D01*
X-105720Y226346D01*
X-105726Y226465D01*
X-105728Y226584D01*
X-103258Y230041D02*
X-102942Y230191D01*
X-102623Y230333D01*
X-102300Y230467D01*
X-101973Y230594D01*
X-101644Y230712D01*
X-101313Y230823D01*
X-100978Y230926D01*
X-100642Y231021D01*
X-100303Y231107D01*
X-99962Y231186D01*
X-99619Y231257D01*
X-99275Y231319D01*
X-98930Y231373D01*
X-98583Y231419D01*
X-98235Y231456D01*
X-97886Y231485D01*
X-97537Y231506D01*
X-97188Y231519D01*
X-96838Y231523D01*
X-103258Y230041D02*
X-103371Y230001D01*
X-103481Y229957D01*
X-103591Y229909D01*
X-103698Y229858D01*
X-103804Y229803D01*
X-103909Y229745D01*
X-104011Y229683D01*
X-104111Y229618D01*
X-104209Y229550D01*
X-104305Y229479D01*
X-104398Y229404D01*
X-104489Y229327D01*
X-104577Y229247D01*
X-104662Y229164D01*
X-104745Y229078D01*
X-104825Y228989D01*
X-104902Y228898D01*
X-104976Y228804D01*
X-105047Y228708D01*
X-105115Y228610D01*
X-105179Y228510D01*
X-105241Y228407D01*
X-105298Y228303D01*
X-105353Y228197D01*
X-105404Y228089D01*
X-105451Y227979D01*
X-105495Y227868D01*
X-105535Y227756D01*
X-105571Y227642D01*
X-105604Y227528D01*
X-105633Y227412D01*
X-105658Y227295D01*
X-105679Y227178D01*
X-105697Y227060D01*
X-105710Y226941D01*
X-105720Y226822D01*
X-105726Y226703D01*
X-105728Y226584D01*
X-101776Y222633D02*
X-91899Y230536D01*
D11*
X5842Y321324D02*
X7789Y321324D01*
X5842Y321324D02*
X5842Y314833D01*
X9737Y314833D01*
X9836Y314835D01*
X9936Y314841D01*
X10035Y314850D01*
X10133Y314863D01*
X10231Y314880D01*
X10329Y314901D01*
X10425Y314926D01*
X10520Y314954D01*
X10614Y314986D01*
X10707Y315021D01*
X10799Y315060D01*
X10889Y315103D01*
X10977Y315148D01*
X11064Y315198D01*
X11148Y315250D01*
X11231Y315306D01*
X11311Y315364D01*
X11389Y315426D01*
X11464Y315491D01*
X11537Y315559D01*
X11607Y315629D01*
X11675Y315702D01*
X11740Y315777D01*
X11802Y315855D01*
X11860Y315935D01*
X11916Y316018D01*
X11968Y316102D01*
X12018Y316189D01*
X12063Y316277D01*
X12106Y316367D01*
X12145Y316459D01*
X12180Y316552D01*
X12212Y316646D01*
X12240Y316741D01*
X12265Y316837D01*
X12286Y316935D01*
X12303Y317033D01*
X12316Y317131D01*
X12325Y317230D01*
X12331Y317330D01*
X12333Y317429D01*
X12333Y323921D01*
X12331Y324020D01*
X12325Y324120D01*
X12316Y324219D01*
X12303Y324317D01*
X12286Y324415D01*
X12265Y324513D01*
X12240Y324609D01*
X12212Y324704D01*
X12180Y324798D01*
X12145Y324891D01*
X12106Y324983D01*
X12063Y325073D01*
X12018Y325161D01*
X11968Y325248D01*
X11916Y325332D01*
X11860Y325415D01*
X11802Y325495D01*
X11740Y325573D01*
X11675Y325648D01*
X11607Y325721D01*
X11537Y325791D01*
X11464Y325859D01*
X11389Y325924D01*
X11311Y325986D01*
X11231Y326044D01*
X11148Y326100D01*
X11064Y326152D01*
X10977Y326202D01*
X10889Y326247D01*
X10799Y326290D01*
X10707Y326329D01*
X10614Y326364D01*
X10520Y326396D01*
X10425Y326424D01*
X10329Y326449D01*
X10231Y326470D01*
X10133Y326487D01*
X10035Y326500D01*
X9936Y326509D01*
X9836Y326515D01*
X9737Y326517D01*
X5842Y326517D01*
X141Y326517D02*
X141Y314833D01*
X-6350Y314833D02*
X141Y326517D01*
X-6350Y326517D02*
X-6350Y314833D01*
X-12051Y314833D02*
X-12051Y326517D01*
X-15296Y326517D01*
X-15409Y326515D01*
X-15522Y326509D01*
X-15635Y326499D01*
X-15748Y326485D01*
X-15860Y326468D01*
X-15971Y326446D01*
X-16081Y326421D01*
X-16191Y326391D01*
X-16299Y326358D01*
X-16406Y326321D01*
X-16512Y326281D01*
X-16616Y326236D01*
X-16719Y326188D01*
X-16820Y326137D01*
X-16919Y326082D01*
X-17016Y326024D01*
X-17111Y325962D01*
X-17204Y325897D01*
X-17294Y325829D01*
X-17382Y325758D01*
X-17468Y325683D01*
X-17551Y325606D01*
X-17631Y325526D01*
X-17708Y325443D01*
X-17783Y325357D01*
X-17854Y325269D01*
X-17922Y325179D01*
X-17987Y325086D01*
X-18049Y324991D01*
X-18107Y324894D01*
X-18162Y324795D01*
X-18213Y324694D01*
X-18261Y324591D01*
X-18306Y324487D01*
X-18346Y324381D01*
X-18383Y324274D01*
X-18416Y324166D01*
X-18446Y324056D01*
X-18471Y323946D01*
X-18493Y323835D01*
X-18510Y323723D01*
X-18524Y323610D01*
X-18534Y323497D01*
X-18540Y323384D01*
X-18542Y323271D01*
X-18542Y318079D01*
X-18540Y317966D01*
X-18534Y317853D01*
X-18524Y317740D01*
X-18510Y317627D01*
X-18493Y317515D01*
X-18471Y317404D01*
X-18446Y317294D01*
X-18416Y317184D01*
X-18383Y317076D01*
X-18346Y316969D01*
X-18306Y316863D01*
X-18261Y316759D01*
X-18213Y316656D01*
X-18162Y316555D01*
X-18107Y316456D01*
X-18049Y316359D01*
X-17987Y316264D01*
X-17922Y316171D01*
X-17854Y316081D01*
X-17783Y315993D01*
X-17708Y315907D01*
X-17631Y315824D01*
X-17551Y315744D01*
X-17468Y315667D01*
X-17382Y315592D01*
X-17294Y315521D01*
X-17204Y315453D01*
X-17111Y315388D01*
X-17016Y315326D01*
X-16919Y315268D01*
X-16820Y315213D01*
X-16719Y315162D01*
X-16616Y315114D01*
X-16512Y315069D01*
X-16406Y315029D01*
X-16299Y314992D01*
X-16191Y314959D01*
X-16081Y314929D01*
X-15971Y314904D01*
X-15860Y314882D01*
X-15748Y314865D01*
X-15635Y314851D01*
X-15522Y314841D01*
X-15409Y314835D01*
X-15296Y314833D01*
X-12051Y314833D01*
X131091Y105404D02*
X129840Y103912D01*
X134812Y99740D01*
X137315Y102723D01*
X137377Y102801D01*
X137437Y102880D01*
X137493Y102962D01*
X137546Y103046D01*
X137596Y103132D01*
X137643Y103220D01*
X137686Y103310D01*
X137725Y103401D01*
X137762Y103494D01*
X137794Y103588D01*
X137823Y103683D01*
X137849Y103779D01*
X137870Y103876D01*
X137888Y103974D01*
X137902Y104072D01*
X137913Y104171D01*
X137919Y104270D01*
X137922Y104370D01*
X137921Y104469D01*
X137916Y104569D01*
X137907Y104668D01*
X137895Y104766D01*
X137879Y104865D01*
X137859Y104962D01*
X137835Y105059D01*
X137808Y105154D01*
X137777Y105249D01*
X137742Y105342D01*
X137704Y105434D01*
X137662Y105524D01*
X137617Y105613D01*
X137569Y105700D01*
X137517Y105784D01*
X137462Y105867D01*
X137404Y105948D01*
X137343Y106027D01*
X137279Y106103D01*
X137212Y106176D01*
X137142Y106247D01*
X137070Y106315D01*
X136995Y106381D01*
X132023Y110554D01*
X131946Y110617D01*
X131866Y110676D01*
X131784Y110733D01*
X131700Y110786D01*
X131614Y110836D01*
X131526Y110882D01*
X131437Y110926D01*
X131345Y110965D01*
X131253Y111002D01*
X131159Y111034D01*
X131063Y111063D01*
X130967Y111089D01*
X130870Y111110D01*
X130772Y111128D01*
X130674Y111142D01*
X130575Y111153D01*
X130476Y111159D01*
X130376Y111162D01*
X130277Y111161D01*
X130177Y111156D01*
X130078Y111147D01*
X129979Y111135D01*
X129881Y111119D01*
X129784Y111099D01*
X129687Y111075D01*
X129592Y111048D01*
X129497Y111017D01*
X129404Y110982D01*
X129312Y110944D01*
X129222Y110902D01*
X129133Y110857D01*
X129046Y110809D01*
X128961Y110757D01*
X128878Y110702D01*
X128797Y110644D01*
X128719Y110583D01*
X128643Y110518D01*
X128569Y110452D01*
X128498Y110382D01*
X128430Y110309D01*
X128365Y110234D01*
X125862Y107250D01*
X122197Y102883D02*
X131148Y95373D01*
X126975Y90400D02*
X122197Y102883D01*
X118025Y97911D02*
X126975Y90400D01*
X123311Y86033D02*
X114360Y93544D01*
X112274Y91057D01*
X112273Y91057D02*
X112202Y90969D01*
X112134Y90879D01*
X112069Y90786D01*
X112007Y90691D01*
X111949Y90594D01*
X111894Y90495D01*
X111843Y90394D01*
X111795Y90291D01*
X111750Y90187D01*
X111710Y90081D01*
X111673Y89974D01*
X111640Y89866D01*
X111610Y89756D01*
X111585Y89646D01*
X111563Y89535D01*
X111546Y89423D01*
X111532Y89310D01*
X111522Y89197D01*
X111516Y89084D01*
X111514Y88971D01*
X111516Y88858D01*
X111522Y88745D01*
X111532Y88632D01*
X111546Y88519D01*
X111563Y88407D01*
X111585Y88296D01*
X111610Y88186D01*
X111640Y88076D01*
X111673Y87968D01*
X111710Y87861D01*
X111750Y87755D01*
X111795Y87651D01*
X111843Y87548D01*
X111894Y87447D01*
X111949Y87348D01*
X112007Y87251D01*
X112069Y87156D01*
X112134Y87063D01*
X112202Y86973D01*
X112273Y86885D01*
X112348Y86799D01*
X112425Y86716D01*
X112505Y86636D01*
X112588Y86559D01*
X112674Y86484D01*
X112674Y86485D02*
X116652Y83147D01*
X116652Y83146D02*
X116740Y83075D01*
X116830Y83007D01*
X116923Y82942D01*
X117018Y82880D01*
X117115Y82822D01*
X117214Y82767D01*
X117315Y82716D01*
X117418Y82668D01*
X117522Y82623D01*
X117628Y82583D01*
X117735Y82546D01*
X117843Y82513D01*
X117953Y82483D01*
X118063Y82458D01*
X118174Y82436D01*
X118286Y82419D01*
X118399Y82405D01*
X118512Y82395D01*
X118625Y82389D01*
X118738Y82387D01*
X118851Y82389D01*
X118964Y82395D01*
X119077Y82405D01*
X119190Y82419D01*
X119302Y82436D01*
X119413Y82458D01*
X119523Y82483D01*
X119633Y82513D01*
X119741Y82546D01*
X119848Y82583D01*
X119954Y82623D01*
X120058Y82668D01*
X120161Y82716D01*
X120262Y82767D01*
X120361Y82822D01*
X120458Y82880D01*
X120553Y82942D01*
X120646Y83007D01*
X120736Y83075D01*
X120824Y83146D01*
X120910Y83221D01*
X120993Y83298D01*
X121073Y83378D01*
X121150Y83461D01*
X121225Y83547D01*
X123311Y86033D01*
X13998Y29224D02*
X12051Y29224D01*
X12051Y22733D01*
X15946Y22733D01*
X16045Y22735D01*
X16145Y22741D01*
X16244Y22750D01*
X16342Y22763D01*
X16440Y22780D01*
X16538Y22801D01*
X16634Y22826D01*
X16729Y22854D01*
X16823Y22886D01*
X16916Y22921D01*
X17008Y22960D01*
X17098Y23003D01*
X17186Y23048D01*
X17273Y23098D01*
X17357Y23150D01*
X17440Y23206D01*
X17520Y23264D01*
X17598Y23326D01*
X17673Y23391D01*
X17746Y23459D01*
X17816Y23529D01*
X17884Y23602D01*
X17949Y23677D01*
X18011Y23755D01*
X18069Y23835D01*
X18125Y23918D01*
X18177Y24002D01*
X18227Y24089D01*
X18272Y24177D01*
X18315Y24267D01*
X18354Y24359D01*
X18389Y24452D01*
X18421Y24546D01*
X18449Y24641D01*
X18474Y24737D01*
X18495Y24835D01*
X18512Y24933D01*
X18525Y25031D01*
X18534Y25130D01*
X18540Y25230D01*
X18542Y25329D01*
X18542Y31821D01*
X18540Y31920D01*
X18534Y32020D01*
X18525Y32119D01*
X18512Y32217D01*
X18495Y32315D01*
X18474Y32413D01*
X18449Y32509D01*
X18421Y32604D01*
X18389Y32698D01*
X18354Y32791D01*
X18315Y32883D01*
X18272Y32973D01*
X18227Y33061D01*
X18177Y33148D01*
X18125Y33232D01*
X18069Y33315D01*
X18011Y33395D01*
X17949Y33473D01*
X17884Y33548D01*
X17816Y33621D01*
X17746Y33691D01*
X17673Y33759D01*
X17598Y33824D01*
X17520Y33886D01*
X17440Y33944D01*
X17357Y34000D01*
X17273Y34052D01*
X17186Y34102D01*
X17098Y34147D01*
X17008Y34190D01*
X16916Y34229D01*
X16824Y34264D01*
X16729Y34296D01*
X16634Y34324D01*
X16538Y34349D01*
X16440Y34370D01*
X16342Y34387D01*
X16244Y34400D01*
X16145Y34409D01*
X16045Y34415D01*
X15946Y34417D01*
X12051Y34417D01*
X6350Y34417D02*
X6350Y22733D01*
X-141Y22733D02*
X6350Y34417D01*
X-141Y34417D02*
X-141Y22733D01*
X-5842Y22733D02*
X-5842Y34417D01*
X-9087Y34417D01*
X-9200Y34415D01*
X-9313Y34409D01*
X-9426Y34399D01*
X-9539Y34385D01*
X-9651Y34368D01*
X-9762Y34346D01*
X-9872Y34321D01*
X-9982Y34291D01*
X-10090Y34258D01*
X-10197Y34221D01*
X-10303Y34181D01*
X-10407Y34136D01*
X-10510Y34088D01*
X-10611Y34037D01*
X-10710Y33982D01*
X-10807Y33924D01*
X-10902Y33862D01*
X-10995Y33797D01*
X-11085Y33729D01*
X-11173Y33658D01*
X-11259Y33583D01*
X-11342Y33506D01*
X-11422Y33426D01*
X-11499Y33343D01*
X-11574Y33257D01*
X-11645Y33169D01*
X-11713Y33079D01*
X-11778Y32986D01*
X-11840Y32891D01*
X-11898Y32794D01*
X-11953Y32695D01*
X-12004Y32594D01*
X-12052Y32491D01*
X-12097Y32387D01*
X-12137Y32281D01*
X-12174Y32174D01*
X-12207Y32066D01*
X-12237Y31956D01*
X-12262Y31846D01*
X-12284Y31735D01*
X-12301Y31623D01*
X-12315Y31510D01*
X-12325Y31397D01*
X-12331Y31284D01*
X-12333Y31171D01*
X-12333Y25979D01*
X-12334Y25979D02*
X-12332Y25866D01*
X-12326Y25753D01*
X-12316Y25640D01*
X-12302Y25527D01*
X-12285Y25415D01*
X-12263Y25304D01*
X-12238Y25194D01*
X-12208Y25084D01*
X-12175Y24976D01*
X-12138Y24869D01*
X-12098Y24763D01*
X-12053Y24659D01*
X-12005Y24556D01*
X-11954Y24455D01*
X-11899Y24356D01*
X-11841Y24259D01*
X-11779Y24164D01*
X-11714Y24071D01*
X-11646Y23981D01*
X-11575Y23893D01*
X-11500Y23807D01*
X-11423Y23724D01*
X-11343Y23644D01*
X-11260Y23567D01*
X-11174Y23492D01*
X-11086Y23421D01*
X-10996Y23353D01*
X-10903Y23288D01*
X-10808Y23226D01*
X-10711Y23168D01*
X-10612Y23113D01*
X-10511Y23062D01*
X-10408Y23014D01*
X-10304Y22969D01*
X-10198Y22929D01*
X-10091Y22892D01*
X-9983Y22859D01*
X-9873Y22829D01*
X-9763Y22804D01*
X-9652Y22782D01*
X-9540Y22765D01*
X-9427Y22751D01*
X-9314Y22741D01*
X-9201Y22735D01*
X-9088Y22733D01*
X-9087Y22733D02*
X-5842Y22733D01*
X-120729Y256832D02*
X-119756Y258518D01*
X-120729Y256832D02*
X-115108Y253586D01*
X-113161Y256959D01*
X-113113Y257046D01*
X-113068Y257135D01*
X-113027Y257225D01*
X-112989Y257317D01*
X-112955Y257411D01*
X-112924Y257505D01*
X-112897Y257601D01*
X-112874Y257698D01*
X-112854Y257795D01*
X-112839Y257894D01*
X-112827Y257992D01*
X-112818Y258091D01*
X-112814Y258191D01*
X-112813Y258290D01*
X-112816Y258390D01*
X-112823Y258489D01*
X-112834Y258588D01*
X-112849Y258686D01*
X-112867Y258784D01*
X-112889Y258881D01*
X-112915Y258977D01*
X-112944Y259072D01*
X-112977Y259166D01*
X-113014Y259258D01*
X-113054Y259349D01*
X-113097Y259439D01*
X-113144Y259526D01*
X-113195Y259612D01*
X-113248Y259696D01*
X-113305Y259778D01*
X-113365Y259857D01*
X-113427Y259934D01*
X-113493Y260009D01*
X-113562Y260081D01*
X-113633Y260150D01*
X-113707Y260217D01*
X-113783Y260281D01*
X-113862Y260342D01*
X-113943Y260399D01*
X-114026Y260454D01*
X-114111Y260505D01*
X-114111Y260506D02*
X-119733Y263751D01*
X-119820Y263799D01*
X-119909Y263844D01*
X-119999Y263885D01*
X-120091Y263923D01*
X-120185Y263957D01*
X-120279Y263988D01*
X-120375Y264015D01*
X-120472Y264038D01*
X-120569Y264058D01*
X-120668Y264073D01*
X-120766Y264085D01*
X-120865Y264094D01*
X-120965Y264098D01*
X-121064Y264099D01*
X-121164Y264096D01*
X-121263Y264089D01*
X-121362Y264078D01*
X-121460Y264063D01*
X-121558Y264045D01*
X-121655Y264023D01*
X-121751Y263997D01*
X-121846Y263968D01*
X-121940Y263935D01*
X-122032Y263898D01*
X-122123Y263858D01*
X-122212Y263815D01*
X-122300Y263768D01*
X-122386Y263717D01*
X-122470Y263664D01*
X-122551Y263607D01*
X-122631Y263547D01*
X-122708Y263485D01*
X-122783Y263419D01*
X-122855Y263350D01*
X-122924Y263279D01*
X-122991Y263205D01*
X-123055Y263129D01*
X-123115Y263050D01*
X-123173Y262969D01*
X-123228Y262886D01*
X-123279Y262801D01*
X-125227Y259428D01*
X-128077Y254491D02*
X-117958Y248649D01*
X-121204Y243027D02*
X-128077Y254491D01*
X-131323Y248869D02*
X-121204Y243027D01*
X-124054Y238090D02*
X-134173Y243932D01*
X-135796Y241122D01*
X-135851Y241023D01*
X-135902Y240922D01*
X-135950Y240819D01*
X-135995Y240715D01*
X-136035Y240609D01*
X-136072Y240502D01*
X-136105Y240394D01*
X-136135Y240284D01*
X-136160Y240174D01*
X-136182Y240063D01*
X-136199Y239951D01*
X-136213Y239838D01*
X-136223Y239725D01*
X-136229Y239612D01*
X-136231Y239499D01*
X-136229Y239386D01*
X-136223Y239273D01*
X-136213Y239160D01*
X-136199Y239047D01*
X-136182Y238935D01*
X-136160Y238824D01*
X-136135Y238714D01*
X-136105Y238604D01*
X-136072Y238496D01*
X-136035Y238389D01*
X-135995Y238283D01*
X-135950Y238179D01*
X-135902Y238076D01*
X-135851Y237975D01*
X-135796Y237876D01*
X-135738Y237779D01*
X-135676Y237684D01*
X-135611Y237591D01*
X-135543Y237501D01*
X-135472Y237413D01*
X-135397Y237327D01*
X-135320Y237244D01*
X-135240Y237164D01*
X-135157Y237087D01*
X-135071Y237012D01*
X-134983Y236941D01*
X-134893Y236873D01*
X-134800Y236808D01*
X-134705Y236746D01*
X-134608Y236688D01*
X-130111Y234092D01*
X-130111Y234091D02*
X-130012Y234036D01*
X-129911Y233985D01*
X-129808Y233937D01*
X-129704Y233892D01*
X-129598Y233852D01*
X-129491Y233815D01*
X-129383Y233782D01*
X-129273Y233752D01*
X-129163Y233727D01*
X-129052Y233705D01*
X-128940Y233688D01*
X-128827Y233674D01*
X-128714Y233664D01*
X-128601Y233658D01*
X-128488Y233656D01*
X-128375Y233658D01*
X-128262Y233664D01*
X-128149Y233674D01*
X-128036Y233688D01*
X-127924Y233705D01*
X-127813Y233727D01*
X-127703Y233752D01*
X-127593Y233782D01*
X-127485Y233815D01*
X-127378Y233852D01*
X-127272Y233892D01*
X-127168Y233937D01*
X-127065Y233985D01*
X-126964Y234036D01*
X-126865Y234091D01*
X-126768Y234149D01*
X-126673Y234211D01*
X-126580Y234276D01*
X-126490Y234344D01*
X-126401Y234415D01*
X-126316Y234490D01*
X-126233Y234567D01*
X-126153Y234647D01*
X-126076Y234730D01*
X-126001Y234816D01*
X-125930Y234904D01*
X-125862Y234994D01*
X-125797Y235087D01*
X-125735Y235182D01*
X-125677Y235279D01*
X-125677Y235280D02*
X-124054Y238090D01*
X131334Y240705D02*
X132308Y239019D01*
X131334Y240705D02*
X125712Y237459D01*
X127660Y234087D01*
X127711Y234002D01*
X127766Y233919D01*
X127823Y233838D01*
X127884Y233759D01*
X127948Y233683D01*
X128015Y233609D01*
X128084Y233538D01*
X128156Y233469D01*
X128231Y233403D01*
X128308Y233341D01*
X128387Y233281D01*
X128469Y233224D01*
X128553Y233171D01*
X128639Y233120D01*
X128726Y233073D01*
X128816Y233030D01*
X128907Y232990D01*
X128999Y232953D01*
X129093Y232920D01*
X129188Y232891D01*
X129284Y232865D01*
X129381Y232843D01*
X129479Y232825D01*
X129577Y232810D01*
X129676Y232799D01*
X129775Y232792D01*
X129875Y232789D01*
X129974Y232790D01*
X130074Y232794D01*
X130173Y232803D01*
X130272Y232815D01*
X130370Y232830D01*
X130467Y232850D01*
X130564Y232873D01*
X130660Y232900D01*
X130754Y232931D01*
X130848Y232965D01*
X130940Y233003D01*
X131030Y233044D01*
X131119Y233089D01*
X131206Y233137D01*
X131207Y233136D02*
X136828Y236382D01*
X136913Y236433D01*
X136996Y236488D01*
X137077Y236545D01*
X137156Y236606D01*
X137232Y236670D01*
X137306Y236737D01*
X137377Y236806D01*
X137446Y236878D01*
X137512Y236953D01*
X137574Y237030D01*
X137634Y237109D01*
X137691Y237191D01*
X137744Y237275D01*
X137795Y237361D01*
X137842Y237448D01*
X137885Y237538D01*
X137925Y237629D01*
X137962Y237721D01*
X137995Y237815D01*
X138024Y237910D01*
X138050Y238006D01*
X138072Y238103D01*
X138090Y238201D01*
X138105Y238299D01*
X138116Y238398D01*
X138123Y238497D01*
X138126Y238597D01*
X138125Y238696D01*
X138121Y238796D01*
X138112Y238895D01*
X138100Y238993D01*
X138085Y239092D01*
X138065Y239189D01*
X138042Y239286D01*
X138015Y239382D01*
X137984Y239476D01*
X137950Y239570D01*
X137912Y239662D01*
X137871Y239752D01*
X137826Y239841D01*
X137778Y239928D01*
X137778Y239929D02*
X135831Y243301D01*
X132981Y248239D02*
X122862Y242397D01*
X119616Y248018D02*
X132981Y248239D01*
X129735Y253860D02*
X119616Y248018D01*
X116766Y252955D02*
X126885Y258797D01*
X125262Y261608D01*
X125204Y261705D01*
X125142Y261800D01*
X125077Y261893D01*
X125009Y261983D01*
X124938Y262071D01*
X124863Y262157D01*
X124786Y262240D01*
X124706Y262320D01*
X124623Y262397D01*
X124537Y262472D01*
X124449Y262543D01*
X124359Y262611D01*
X124266Y262676D01*
X124171Y262738D01*
X124074Y262796D01*
X123975Y262851D01*
X123874Y262902D01*
X123771Y262950D01*
X123667Y262995D01*
X123561Y263035D01*
X123454Y263072D01*
X123346Y263105D01*
X123236Y263135D01*
X123126Y263160D01*
X123015Y263182D01*
X122903Y263199D01*
X122790Y263213D01*
X122677Y263223D01*
X122564Y263229D01*
X122451Y263231D01*
X122338Y263229D01*
X122225Y263223D01*
X122112Y263213D01*
X121999Y263199D01*
X121887Y263182D01*
X121776Y263160D01*
X121666Y263135D01*
X121556Y263105D01*
X121448Y263072D01*
X121341Y263035D01*
X121235Y262995D01*
X121131Y262950D01*
X121028Y262902D01*
X120927Y262851D01*
X120828Y262796D01*
X116331Y260199D01*
X116331Y260200D02*
X116234Y260142D01*
X116139Y260080D01*
X116046Y260015D01*
X115956Y259947D01*
X115868Y259876D01*
X115782Y259801D01*
X115699Y259724D01*
X115619Y259644D01*
X115542Y259561D01*
X115467Y259475D01*
X115396Y259387D01*
X115328Y259297D01*
X115263Y259204D01*
X115201Y259109D01*
X115143Y259012D01*
X115088Y258913D01*
X115037Y258812D01*
X114989Y258709D01*
X114944Y258605D01*
X114904Y258499D01*
X114867Y258392D01*
X114834Y258284D01*
X114804Y258174D01*
X114779Y258064D01*
X114757Y257953D01*
X114740Y257841D01*
X114726Y257728D01*
X114716Y257615D01*
X114710Y257502D01*
X114708Y257389D01*
X114710Y257276D01*
X114716Y257163D01*
X114726Y257050D01*
X114740Y256937D01*
X114757Y256825D01*
X114779Y256714D01*
X114804Y256604D01*
X114834Y256494D01*
X114867Y256386D01*
X114904Y256279D01*
X114944Y256173D01*
X114989Y256069D01*
X115037Y255966D01*
X115088Y255865D01*
X115143Y255766D01*
X116766Y252955D01*
X-122666Y97830D02*
X-121693Y96144D01*
X-122666Y97830D02*
X-128288Y94584D01*
X-126340Y91212D01*
X-126289Y91127D01*
X-126234Y91044D01*
X-126177Y90963D01*
X-126116Y90884D01*
X-126052Y90808D01*
X-125985Y90734D01*
X-125916Y90663D01*
X-125844Y90594D01*
X-125769Y90528D01*
X-125692Y90466D01*
X-125613Y90406D01*
X-125531Y90349D01*
X-125447Y90296D01*
X-125361Y90245D01*
X-125274Y90198D01*
X-125184Y90155D01*
X-125093Y90115D01*
X-125001Y90078D01*
X-124907Y90045D01*
X-124812Y90016D01*
X-124716Y89990D01*
X-124619Y89968D01*
X-124521Y89950D01*
X-124423Y89935D01*
X-124324Y89924D01*
X-124225Y89917D01*
X-124125Y89914D01*
X-124026Y89915D01*
X-123926Y89919D01*
X-123827Y89928D01*
X-123729Y89940D01*
X-123630Y89955D01*
X-123533Y89975D01*
X-123436Y89998D01*
X-123340Y90025D01*
X-123246Y90056D01*
X-123152Y90090D01*
X-123060Y90128D01*
X-122970Y90169D01*
X-122881Y90214D01*
X-122794Y90262D01*
X-122794Y90261D02*
X-117172Y93507D01*
X-117087Y93558D01*
X-117004Y93613D01*
X-116923Y93670D01*
X-116844Y93731D01*
X-116768Y93795D01*
X-116694Y93862D01*
X-116623Y93931D01*
X-116554Y94003D01*
X-116488Y94078D01*
X-116426Y94155D01*
X-116366Y94234D01*
X-116309Y94316D01*
X-116256Y94400D01*
X-116205Y94486D01*
X-116158Y94573D01*
X-116115Y94663D01*
X-116075Y94754D01*
X-116038Y94846D01*
X-116005Y94940D01*
X-115976Y95035D01*
X-115950Y95131D01*
X-115928Y95228D01*
X-115910Y95326D01*
X-115895Y95424D01*
X-115884Y95523D01*
X-115877Y95622D01*
X-115874Y95722D01*
X-115875Y95821D01*
X-115879Y95921D01*
X-115888Y96020D01*
X-115900Y96118D01*
X-115915Y96217D01*
X-115935Y96314D01*
X-115958Y96411D01*
X-115985Y96507D01*
X-116016Y96601D01*
X-116050Y96695D01*
X-116088Y96787D01*
X-116129Y96877D01*
X-116174Y96966D01*
X-116222Y97053D01*
X-116222Y97054D02*
X-118169Y100426D01*
X-121019Y105364D02*
X-131138Y99522D01*
X-134384Y105143D02*
X-121019Y105364D01*
X-124265Y110985D02*
X-134384Y105143D01*
X-137234Y110080D02*
X-127115Y115922D01*
X-128738Y118733D01*
X-128796Y118830D01*
X-128858Y118925D01*
X-128923Y119018D01*
X-128991Y119108D01*
X-129062Y119196D01*
X-129137Y119282D01*
X-129214Y119365D01*
X-129294Y119445D01*
X-129377Y119522D01*
X-129463Y119597D01*
X-129551Y119668D01*
X-129641Y119736D01*
X-129734Y119801D01*
X-129829Y119863D01*
X-129926Y119921D01*
X-130025Y119976D01*
X-130126Y120027D01*
X-130229Y120075D01*
X-130333Y120120D01*
X-130439Y120160D01*
X-130546Y120197D01*
X-130654Y120230D01*
X-130764Y120260D01*
X-130874Y120285D01*
X-130985Y120307D01*
X-131097Y120324D01*
X-131210Y120338D01*
X-131323Y120348D01*
X-131436Y120354D01*
X-131549Y120356D01*
X-131662Y120354D01*
X-131775Y120348D01*
X-131888Y120338D01*
X-132001Y120324D01*
X-132113Y120307D01*
X-132224Y120285D01*
X-132334Y120260D01*
X-132444Y120230D01*
X-132552Y120197D01*
X-132659Y120160D01*
X-132765Y120120D01*
X-132869Y120075D01*
X-132972Y120027D01*
X-133073Y119976D01*
X-133172Y119921D01*
X-137669Y117324D01*
X-137669Y117325D02*
X-137766Y117267D01*
X-137861Y117205D01*
X-137954Y117140D01*
X-138044Y117072D01*
X-138132Y117001D01*
X-138218Y116926D01*
X-138301Y116849D01*
X-138381Y116769D01*
X-138458Y116686D01*
X-138533Y116600D01*
X-138604Y116512D01*
X-138672Y116422D01*
X-138737Y116329D01*
X-138799Y116234D01*
X-138857Y116137D01*
X-138912Y116038D01*
X-138963Y115937D01*
X-139011Y115834D01*
X-139056Y115730D01*
X-139096Y115624D01*
X-139133Y115517D01*
X-139166Y115409D01*
X-139196Y115299D01*
X-139221Y115189D01*
X-139243Y115078D01*
X-139260Y114966D01*
X-139274Y114853D01*
X-139284Y114740D01*
X-139290Y114627D01*
X-139292Y114514D01*
X-139290Y114401D01*
X-139284Y114288D01*
X-139274Y114175D01*
X-139260Y114062D01*
X-139243Y113950D01*
X-139221Y113839D01*
X-139196Y113729D01*
X-139166Y113619D01*
X-139133Y113511D01*
X-139096Y113404D01*
X-139056Y113298D01*
X-139011Y113194D01*
X-138963Y113091D01*
X-138912Y112990D01*
X-138857Y112891D01*
X-137234Y110080D01*
D10*
X-54737Y264287D02*
X-54737Y282067D01*
X-59676Y282067D01*
X-59816Y282065D01*
X-59955Y282059D01*
X-60095Y282049D01*
X-60234Y282035D01*
X-60373Y282018D01*
X-60511Y281996D01*
X-60648Y281970D01*
X-60785Y281941D01*
X-60921Y281908D01*
X-61055Y281871D01*
X-61189Y281830D01*
X-61321Y281785D01*
X-61453Y281736D01*
X-61582Y281684D01*
X-61710Y281629D01*
X-61837Y281569D01*
X-61962Y281506D01*
X-62085Y281440D01*
X-62206Y281370D01*
X-62325Y281297D01*
X-62442Y281220D01*
X-62556Y281140D01*
X-62669Y281057D01*
X-62779Y280971D01*
X-62886Y280881D01*
X-62991Y280789D01*
X-63093Y280694D01*
X-63193Y280596D01*
X-63290Y280495D01*
X-63384Y280391D01*
X-63474Y280285D01*
X-63562Y280176D01*
X-63647Y280065D01*
X-63728Y279951D01*
X-63807Y279836D01*
X-63882Y279718D01*
X-63953Y279598D01*
X-64021Y279475D01*
X-64086Y279352D01*
X-64147Y279226D01*
X-64205Y279098D01*
X-64259Y278970D01*
X-64309Y278839D01*
X-64356Y278707D01*
X-64399Y278574D01*
X-64438Y278440D01*
X-64473Y278305D01*
X-64504Y278169D01*
X-64532Y278031D01*
X-64555Y277894D01*
X-64575Y277755D01*
X-64591Y277616D01*
X-64603Y277477D01*
X-64611Y277338D01*
X-64615Y277198D01*
X-64615Y277058D01*
X-64611Y276918D01*
X-64603Y276779D01*
X-64591Y276640D01*
X-64575Y276501D01*
X-64555Y276362D01*
X-64532Y276225D01*
X-64504Y276087D01*
X-64473Y275951D01*
X-64438Y275816D01*
X-64399Y275682D01*
X-64356Y275549D01*
X-64309Y275417D01*
X-64259Y275286D01*
X-64205Y275158D01*
X-64147Y275030D01*
X-64086Y274904D01*
X-64021Y274781D01*
X-63953Y274659D01*
X-63882Y274538D01*
X-63807Y274420D01*
X-63728Y274305D01*
X-63647Y274191D01*
X-63562Y274080D01*
X-63474Y273971D01*
X-63384Y273865D01*
X-63290Y273761D01*
X-63193Y273660D01*
X-63093Y273562D01*
X-62991Y273467D01*
X-62886Y273375D01*
X-62779Y273285D01*
X-62669Y273199D01*
X-62556Y273116D01*
X-62442Y273036D01*
X-62325Y272959D01*
X-62206Y272886D01*
X-62085Y272816D01*
X-61962Y272750D01*
X-61837Y272687D01*
X-61710Y272627D01*
X-61582Y272572D01*
X-61453Y272520D01*
X-61321Y272471D01*
X-61189Y272426D01*
X-61055Y272385D01*
X-60921Y272348D01*
X-60785Y272315D01*
X-60648Y272286D01*
X-60511Y272260D01*
X-60373Y272238D01*
X-60234Y272221D01*
X-60095Y272207D01*
X-59955Y272197D01*
X-59816Y272191D01*
X-59676Y272189D01*
X-54737Y272189D01*
X-70732Y274165D02*
X-76659Y274165D01*
X-76783Y274163D01*
X-76907Y274157D01*
X-77031Y274147D01*
X-77154Y274134D01*
X-77277Y274116D01*
X-77399Y274095D01*
X-77521Y274070D01*
X-77642Y274041D01*
X-77761Y274008D01*
X-77880Y273972D01*
X-77997Y273931D01*
X-78113Y273888D01*
X-78228Y273840D01*
X-78341Y273789D01*
X-78453Y273734D01*
X-78562Y273676D01*
X-78670Y273615D01*
X-78776Y273550D01*
X-78880Y273482D01*
X-78981Y273410D01*
X-79081Y273336D01*
X-79177Y273258D01*
X-79272Y273178D01*
X-79364Y273094D01*
X-79453Y273008D01*
X-79539Y272919D01*
X-79623Y272827D01*
X-79703Y272732D01*
X-79781Y272636D01*
X-79855Y272536D01*
X-79927Y272435D01*
X-79995Y272331D01*
X-80060Y272225D01*
X-80121Y272117D01*
X-80179Y272008D01*
X-80234Y271896D01*
X-80285Y271783D01*
X-80333Y271668D01*
X-80376Y271552D01*
X-80417Y271435D01*
X-80453Y271316D01*
X-80486Y271197D01*
X-80515Y271076D01*
X-80540Y270954D01*
X-80561Y270832D01*
X-80579Y270709D01*
X-80592Y270586D01*
X-80602Y270462D01*
X-80608Y270338D01*
X-80610Y270214D01*
X-80610Y269226D01*
X-80608Y269086D01*
X-80602Y268947D01*
X-80592Y268807D01*
X-80578Y268668D01*
X-80561Y268529D01*
X-80539Y268391D01*
X-80513Y268254D01*
X-80484Y268117D01*
X-80451Y267981D01*
X-80414Y267847D01*
X-80373Y267713D01*
X-80328Y267581D01*
X-80279Y267449D01*
X-80227Y267320D01*
X-80172Y267192D01*
X-80112Y267065D01*
X-80049Y266940D01*
X-79983Y266817D01*
X-79913Y266696D01*
X-79840Y266577D01*
X-79763Y266460D01*
X-79683Y266346D01*
X-79600Y266233D01*
X-79514Y266123D01*
X-79424Y266016D01*
X-79332Y265911D01*
X-79237Y265809D01*
X-79139Y265709D01*
X-79038Y265612D01*
X-78934Y265518D01*
X-78828Y265428D01*
X-78719Y265340D01*
X-78608Y265255D01*
X-78494Y265174D01*
X-78379Y265095D01*
X-78261Y265020D01*
X-78140Y264949D01*
X-78018Y264881D01*
X-77895Y264816D01*
X-77769Y264755D01*
X-77641Y264697D01*
X-77513Y264643D01*
X-77382Y264593D01*
X-77250Y264546D01*
X-77117Y264503D01*
X-76983Y264464D01*
X-76848Y264429D01*
X-76712Y264398D01*
X-76574Y264370D01*
X-76437Y264347D01*
X-76298Y264327D01*
X-76159Y264311D01*
X-76020Y264299D01*
X-75881Y264291D01*
X-75741Y264287D01*
X-75601Y264287D01*
X-75461Y264291D01*
X-75322Y264299D01*
X-75183Y264311D01*
X-75044Y264327D01*
X-74905Y264347D01*
X-74768Y264370D01*
X-74630Y264398D01*
X-74494Y264429D01*
X-74359Y264464D01*
X-74225Y264503D01*
X-74092Y264546D01*
X-73960Y264593D01*
X-73829Y264643D01*
X-73701Y264697D01*
X-73573Y264755D01*
X-73447Y264816D01*
X-73324Y264881D01*
X-73201Y264949D01*
X-73081Y265020D01*
X-72963Y265095D01*
X-72848Y265174D01*
X-72734Y265255D01*
X-72623Y265340D01*
X-72514Y265428D01*
X-72408Y265518D01*
X-72304Y265612D01*
X-72203Y265709D01*
X-72105Y265809D01*
X-72010Y265911D01*
X-71918Y266016D01*
X-71828Y266123D01*
X-71742Y266233D01*
X-71659Y266346D01*
X-71579Y266460D01*
X-71502Y266577D01*
X-71429Y266696D01*
X-71359Y266817D01*
X-71293Y266940D01*
X-71230Y267065D01*
X-71170Y267192D01*
X-71115Y267320D01*
X-71063Y267449D01*
X-71014Y267581D01*
X-70969Y267713D01*
X-70928Y267847D01*
X-70891Y267981D01*
X-70858Y268117D01*
X-70829Y268254D01*
X-70803Y268391D01*
X-70781Y268529D01*
X-70764Y268668D01*
X-70750Y268807D01*
X-70740Y268947D01*
X-70734Y269086D01*
X-70732Y269226D01*
X-70732Y274165D01*
X-70734Y274359D01*
X-70742Y274553D01*
X-70753Y274746D01*
X-70770Y274940D01*
X-70791Y275132D01*
X-70818Y275324D01*
X-70848Y275516D01*
X-70884Y275707D01*
X-70924Y275896D01*
X-70969Y276085D01*
X-71018Y276273D01*
X-71072Y276459D01*
X-71131Y276644D01*
X-71194Y276827D01*
X-71261Y277009D01*
X-71334Y277189D01*
X-71410Y277367D01*
X-71491Y277544D01*
X-71576Y277718D01*
X-71665Y277890D01*
X-71759Y278060D01*
X-71856Y278227D01*
X-71958Y278393D01*
X-72064Y278555D01*
X-72173Y278715D01*
X-72287Y278872D01*
X-72404Y279027D01*
X-72526Y279178D01*
X-72651Y279326D01*
X-72779Y279472D01*
X-72911Y279614D01*
X-73046Y279753D01*
X-73185Y279888D01*
X-73327Y280020D01*
X-73473Y280148D01*
X-73621Y280273D01*
X-73772Y280395D01*
X-73927Y280512D01*
X-74084Y280626D01*
X-74244Y280735D01*
X-74406Y280841D01*
X-74572Y280943D01*
X-74739Y281040D01*
X-74909Y281134D01*
X-75081Y281223D01*
X-75255Y281308D01*
X-75432Y281389D01*
X-75610Y281465D01*
X-75790Y281538D01*
X-75972Y281605D01*
X-76155Y281668D01*
X-76340Y281727D01*
X-76526Y281781D01*
X-76714Y281830D01*
X-76903Y281875D01*
X-77092Y281915D01*
X-77283Y281951D01*
X-77475Y281981D01*
X-77667Y282008D01*
X-77859Y282029D01*
X-78053Y282046D01*
X-78246Y282057D01*
X-78440Y282065D01*
X-78634Y282067D01*
D12*
X67310Y165418D02*
X67310Y129858D01*
X67310Y165418D02*
X46990Y165418D01*
X46990Y129858D01*
X67310Y129858D01*
D13*
X53837Y126460D02*
X60103Y117062D01*
X53837Y117062D02*
X60103Y126460D01*
X50437Y124372D02*
X47826Y126460D01*
X47826Y117062D01*
X45216Y117062D02*
X50437Y117062D01*
X52007Y219244D02*
X44641Y219244D01*
X52007Y219244D02*
X52007Y221290D01*
X52006Y221290D02*
X52004Y221379D01*
X51998Y221468D01*
X51988Y221557D01*
X51975Y221645D01*
X51958Y221733D01*
X51936Y221820D01*
X51911Y221905D01*
X51883Y221990D01*
X51850Y222073D01*
X51814Y222155D01*
X51775Y222235D01*
X51732Y222313D01*
X51686Y222389D01*
X51636Y222464D01*
X51583Y222536D01*
X51527Y222605D01*
X51468Y222672D01*
X51407Y222737D01*
X51342Y222798D01*
X51275Y222857D01*
X51206Y222913D01*
X51134Y222966D01*
X51059Y223016D01*
X50983Y223062D01*
X50905Y223105D01*
X50825Y223144D01*
X50743Y223180D01*
X50660Y223213D01*
X50575Y223241D01*
X50490Y223266D01*
X50403Y223288D01*
X50315Y223305D01*
X50227Y223318D01*
X50138Y223328D01*
X50049Y223334D01*
X49960Y223336D01*
X49871Y223334D01*
X49782Y223328D01*
X49693Y223318D01*
X49605Y223305D01*
X49517Y223288D01*
X49430Y223266D01*
X49345Y223241D01*
X49260Y223213D01*
X49177Y223180D01*
X49095Y223144D01*
X49015Y223105D01*
X48937Y223062D01*
X48861Y223016D01*
X48786Y222966D01*
X48714Y222913D01*
X48645Y222857D01*
X48578Y222798D01*
X48513Y222737D01*
X48452Y222672D01*
X48393Y222605D01*
X48337Y222536D01*
X48284Y222464D01*
X48234Y222389D01*
X48188Y222313D01*
X48145Y222235D01*
X48106Y222155D01*
X48070Y222073D01*
X48037Y221990D01*
X48009Y221905D01*
X47984Y221820D01*
X47962Y221733D01*
X47945Y221645D01*
X47932Y221557D01*
X47922Y221468D01*
X47916Y221379D01*
X47914Y221290D01*
X47914Y219244D01*
X47914Y221699D02*
X44641Y223336D01*
X47914Y228145D02*
X47914Y230600D01*
X47914Y228145D02*
X47916Y228067D01*
X47921Y227989D01*
X47931Y227912D01*
X47944Y227835D01*
X47960Y227759D01*
X47980Y227684D01*
X48004Y227610D01*
X48031Y227537D01*
X48062Y227465D01*
X48096Y227395D01*
X48133Y227326D01*
X48174Y227260D01*
X48218Y227195D01*
X48264Y227133D01*
X48314Y227073D01*
X48366Y227015D01*
X48421Y226960D01*
X48479Y226908D01*
X48539Y226858D01*
X48601Y226812D01*
X48666Y226768D01*
X48733Y226727D01*
X48801Y226690D01*
X48871Y226656D01*
X48943Y226625D01*
X49016Y226598D01*
X49090Y226574D01*
X49165Y226554D01*
X49241Y226538D01*
X49318Y226525D01*
X49395Y226515D01*
X49473Y226510D01*
X49551Y226508D01*
X49960Y226508D01*
X50049Y226510D01*
X50138Y226516D01*
X50227Y226526D01*
X50315Y226539D01*
X50403Y226556D01*
X50490Y226578D01*
X50575Y226603D01*
X50660Y226631D01*
X50743Y226664D01*
X50825Y226700D01*
X50905Y226739D01*
X50983Y226782D01*
X51059Y226828D01*
X51134Y226878D01*
X51206Y226931D01*
X51275Y226987D01*
X51342Y227046D01*
X51407Y227107D01*
X51468Y227172D01*
X51527Y227239D01*
X51583Y227308D01*
X51636Y227380D01*
X51686Y227455D01*
X51732Y227531D01*
X51775Y227609D01*
X51814Y227689D01*
X51850Y227771D01*
X51883Y227854D01*
X51911Y227939D01*
X51936Y228024D01*
X51958Y228111D01*
X51975Y228199D01*
X51988Y228287D01*
X51998Y228376D01*
X52004Y228465D01*
X52006Y228554D01*
X52004Y228643D01*
X51998Y228732D01*
X51988Y228821D01*
X51975Y228909D01*
X51958Y228997D01*
X51936Y229084D01*
X51911Y229169D01*
X51883Y229254D01*
X51850Y229337D01*
X51814Y229419D01*
X51775Y229499D01*
X51732Y229577D01*
X51686Y229653D01*
X51636Y229728D01*
X51583Y229800D01*
X51527Y229869D01*
X51468Y229936D01*
X51407Y230001D01*
X51342Y230062D01*
X51275Y230121D01*
X51206Y230177D01*
X51134Y230230D01*
X51059Y230280D01*
X50983Y230326D01*
X50905Y230369D01*
X50825Y230408D01*
X50743Y230444D01*
X50660Y230477D01*
X50575Y230505D01*
X50490Y230530D01*
X50403Y230552D01*
X50315Y230569D01*
X50227Y230582D01*
X50138Y230592D01*
X50049Y230598D01*
X49960Y230600D01*
X47914Y230600D01*
X47802Y230598D01*
X47691Y230592D01*
X47579Y230583D01*
X47468Y230570D01*
X47358Y230552D01*
X47248Y230532D01*
X47139Y230507D01*
X47031Y230479D01*
X46924Y230447D01*
X46818Y230411D01*
X46713Y230372D01*
X46610Y230329D01*
X46508Y230283D01*
X46408Y230233D01*
X46309Y230180D01*
X46213Y230123D01*
X46118Y230064D01*
X46026Y230001D01*
X45936Y229935D01*
X45848Y229866D01*
X45762Y229794D01*
X45679Y229719D01*
X45599Y229641D01*
X45521Y229561D01*
X45446Y229478D01*
X45374Y229392D01*
X45305Y229304D01*
X45239Y229214D01*
X45176Y229122D01*
X45117Y229027D01*
X45060Y228931D01*
X45007Y228832D01*
X44957Y228732D01*
X44911Y228630D01*
X44868Y228527D01*
X44829Y228422D01*
X44793Y228316D01*
X44761Y228209D01*
X44733Y228101D01*
X44708Y227992D01*
X44688Y227882D01*
X44670Y227772D01*
X44657Y227661D01*
X44648Y227549D01*
X44642Y227438D01*
X44640Y227326D01*
X55944Y220250D02*
X63310Y220250D01*
X63310Y222296D01*
X63309Y222296D02*
X63307Y222385D01*
X63301Y222474D01*
X63291Y222563D01*
X63278Y222651D01*
X63261Y222739D01*
X63239Y222826D01*
X63214Y222911D01*
X63186Y222996D01*
X63153Y223079D01*
X63117Y223161D01*
X63078Y223241D01*
X63035Y223319D01*
X62989Y223395D01*
X62939Y223470D01*
X62886Y223542D01*
X62830Y223611D01*
X62771Y223678D01*
X62710Y223743D01*
X62645Y223804D01*
X62578Y223863D01*
X62509Y223919D01*
X62437Y223972D01*
X62362Y224022D01*
X62286Y224068D01*
X62208Y224111D01*
X62128Y224150D01*
X62046Y224186D01*
X61963Y224219D01*
X61878Y224247D01*
X61793Y224272D01*
X61706Y224294D01*
X61618Y224311D01*
X61530Y224324D01*
X61441Y224334D01*
X61352Y224340D01*
X61263Y224342D01*
X61174Y224340D01*
X61085Y224334D01*
X60996Y224324D01*
X60908Y224311D01*
X60820Y224294D01*
X60733Y224272D01*
X60648Y224247D01*
X60563Y224219D01*
X60480Y224186D01*
X60398Y224150D01*
X60318Y224111D01*
X60240Y224068D01*
X60164Y224022D01*
X60089Y223972D01*
X60017Y223919D01*
X59948Y223863D01*
X59881Y223804D01*
X59816Y223743D01*
X59755Y223678D01*
X59696Y223611D01*
X59640Y223542D01*
X59587Y223470D01*
X59537Y223395D01*
X59491Y223319D01*
X59448Y223241D01*
X59409Y223161D01*
X59373Y223079D01*
X59340Y222996D01*
X59312Y222911D01*
X59287Y222826D01*
X59265Y222739D01*
X59248Y222651D01*
X59235Y222563D01*
X59225Y222474D01*
X59219Y222385D01*
X59217Y222296D01*
X59217Y220250D01*
X59217Y222705D02*
X55944Y224342D01*
X61673Y227514D02*
X63310Y229560D01*
X55944Y229560D01*
X55944Y227514D02*
X55944Y231606D01*
X55944Y234829D02*
X55944Y237284D01*
X55943Y237284D02*
X55945Y237364D01*
X55951Y237444D01*
X55961Y237524D01*
X55974Y237603D01*
X55992Y237682D01*
X56013Y237759D01*
X56039Y237835D01*
X56068Y237910D01*
X56100Y237984D01*
X56136Y238056D01*
X56176Y238126D01*
X56219Y238193D01*
X56265Y238259D01*
X56315Y238322D01*
X56367Y238383D01*
X56422Y238442D01*
X56481Y238497D01*
X56541Y238549D01*
X56605Y238599D01*
X56671Y238645D01*
X56738Y238688D01*
X56808Y238728D01*
X56880Y238764D01*
X56954Y238796D01*
X57028Y238825D01*
X57105Y238851D01*
X57182Y238872D01*
X57261Y238890D01*
X57340Y238903D01*
X57420Y238913D01*
X57500Y238919D01*
X57580Y238921D01*
X58399Y238921D01*
X58477Y238919D01*
X58555Y238914D01*
X58632Y238904D01*
X58709Y238891D01*
X58785Y238875D01*
X58860Y238855D01*
X58934Y238831D01*
X59007Y238804D01*
X59079Y238773D01*
X59149Y238739D01*
X59218Y238702D01*
X59284Y238661D01*
X59349Y238617D01*
X59411Y238571D01*
X59471Y238521D01*
X59529Y238469D01*
X59584Y238414D01*
X59636Y238356D01*
X59686Y238296D01*
X59732Y238234D01*
X59776Y238169D01*
X59817Y238103D01*
X59854Y238034D01*
X59888Y237964D01*
X59919Y237892D01*
X59946Y237819D01*
X59970Y237745D01*
X59990Y237670D01*
X60006Y237594D01*
X60019Y237517D01*
X60029Y237440D01*
X60034Y237362D01*
X60036Y237284D01*
X60036Y234829D01*
X63310Y234829D01*
X63310Y238921D01*
X-48588Y225044D02*
X-48588Y217678D01*
X-48588Y225044D02*
X-50634Y225044D01*
X-50723Y225042D01*
X-50812Y225036D01*
X-50901Y225026D01*
X-50989Y225013D01*
X-51077Y224996D01*
X-51164Y224974D01*
X-51249Y224949D01*
X-51334Y224921D01*
X-51417Y224888D01*
X-51499Y224852D01*
X-51579Y224813D01*
X-51657Y224770D01*
X-51733Y224724D01*
X-51808Y224674D01*
X-51880Y224621D01*
X-51949Y224565D01*
X-52016Y224506D01*
X-52081Y224445D01*
X-52142Y224380D01*
X-52201Y224313D01*
X-52257Y224244D01*
X-52310Y224172D01*
X-52360Y224097D01*
X-52406Y224021D01*
X-52449Y223943D01*
X-52488Y223863D01*
X-52524Y223781D01*
X-52557Y223698D01*
X-52585Y223613D01*
X-52610Y223528D01*
X-52632Y223441D01*
X-52649Y223353D01*
X-52662Y223265D01*
X-52672Y223176D01*
X-52678Y223087D01*
X-52680Y222998D01*
X-52678Y222909D01*
X-52672Y222820D01*
X-52662Y222731D01*
X-52649Y222643D01*
X-52632Y222555D01*
X-52610Y222468D01*
X-52585Y222383D01*
X-52557Y222298D01*
X-52524Y222215D01*
X-52488Y222133D01*
X-52449Y222053D01*
X-52406Y221975D01*
X-52360Y221899D01*
X-52310Y221824D01*
X-52257Y221752D01*
X-52201Y221683D01*
X-52142Y221616D01*
X-52081Y221551D01*
X-52016Y221490D01*
X-51949Y221431D01*
X-51880Y221375D01*
X-51808Y221322D01*
X-51733Y221272D01*
X-51657Y221226D01*
X-51579Y221183D01*
X-51499Y221144D01*
X-51417Y221108D01*
X-51334Y221075D01*
X-51249Y221047D01*
X-51164Y221022D01*
X-51077Y221000D01*
X-50989Y220983D01*
X-50901Y220970D01*
X-50812Y220960D01*
X-50723Y220954D01*
X-50634Y220952D01*
X-48588Y220952D01*
X-51043Y220952D02*
X-52680Y217678D01*
X-55852Y217678D02*
X-57898Y217678D01*
X-57987Y217680D01*
X-58076Y217686D01*
X-58165Y217696D01*
X-58253Y217709D01*
X-58341Y217726D01*
X-58428Y217748D01*
X-58513Y217773D01*
X-58598Y217801D01*
X-58681Y217834D01*
X-58763Y217870D01*
X-58843Y217909D01*
X-58921Y217952D01*
X-58997Y217998D01*
X-59072Y218048D01*
X-59144Y218101D01*
X-59213Y218157D01*
X-59280Y218216D01*
X-59345Y218277D01*
X-59406Y218342D01*
X-59465Y218409D01*
X-59521Y218478D01*
X-59574Y218550D01*
X-59624Y218625D01*
X-59670Y218701D01*
X-59713Y218779D01*
X-59752Y218859D01*
X-59788Y218941D01*
X-59821Y219024D01*
X-59849Y219109D01*
X-59874Y219194D01*
X-59896Y219281D01*
X-59913Y219369D01*
X-59926Y219457D01*
X-59936Y219546D01*
X-59942Y219635D01*
X-59944Y219724D01*
X-59942Y219813D01*
X-59936Y219902D01*
X-59926Y219991D01*
X-59913Y220079D01*
X-59896Y220167D01*
X-59874Y220254D01*
X-59849Y220339D01*
X-59821Y220424D01*
X-59788Y220507D01*
X-59752Y220589D01*
X-59713Y220669D01*
X-59670Y220747D01*
X-59624Y220823D01*
X-59574Y220898D01*
X-59521Y220970D01*
X-59465Y221039D01*
X-59406Y221106D01*
X-59345Y221171D01*
X-59280Y221232D01*
X-59213Y221291D01*
X-59144Y221347D01*
X-59072Y221400D01*
X-58997Y221450D01*
X-58921Y221496D01*
X-58843Y221539D01*
X-58763Y221578D01*
X-58681Y221614D01*
X-58598Y221647D01*
X-58513Y221675D01*
X-58428Y221700D01*
X-58341Y221722D01*
X-58253Y221739D01*
X-58165Y221752D01*
X-58076Y221762D01*
X-57987Y221768D01*
X-57898Y221770D01*
X-58307Y225044D02*
X-55852Y225044D01*
X-58307Y225044D02*
X-58386Y225042D01*
X-58465Y225036D01*
X-58544Y225027D01*
X-58622Y225014D01*
X-58699Y224996D01*
X-58775Y224976D01*
X-58850Y224951D01*
X-58924Y224923D01*
X-58997Y224892D01*
X-59068Y224856D01*
X-59137Y224818D01*
X-59204Y224776D01*
X-59269Y224731D01*
X-59332Y224683D01*
X-59393Y224632D01*
X-59450Y224578D01*
X-59506Y224522D01*
X-59558Y224463D01*
X-59608Y224401D01*
X-59654Y224337D01*
X-59698Y224271D01*
X-59738Y224203D01*
X-59774Y224133D01*
X-59808Y224061D01*
X-59838Y223987D01*
X-59864Y223913D01*
X-59887Y223837D01*
X-59905Y223760D01*
X-59921Y223683D01*
X-59932Y223604D01*
X-59940Y223526D01*
X-59944Y223447D01*
X-59944Y223367D01*
X-59940Y223288D01*
X-59932Y223210D01*
X-59921Y223131D01*
X-59905Y223054D01*
X-59887Y222977D01*
X-59864Y222901D01*
X-59838Y222827D01*
X-59808Y222753D01*
X-59774Y222681D01*
X-59738Y222611D01*
X-59698Y222543D01*
X-59654Y222477D01*
X-59608Y222413D01*
X-59558Y222351D01*
X-59506Y222292D01*
X-59450Y222236D01*
X-59393Y222182D01*
X-59332Y222131D01*
X-59269Y222083D01*
X-59204Y222038D01*
X-59137Y221996D01*
X-59068Y221958D01*
X-58997Y221922D01*
X-58924Y221891D01*
X-58850Y221863D01*
X-58775Y221838D01*
X-58699Y221818D01*
X-58622Y221800D01*
X-58544Y221787D01*
X-58465Y221778D01*
X-58386Y221772D01*
X-58307Y221770D01*
X-56670Y221770D01*
X-122428Y211519D02*
X-129794Y211519D01*
X-122428Y211519D02*
X-122428Y213565D01*
X-122430Y213654D01*
X-122436Y213743D01*
X-122446Y213832D01*
X-122459Y213920D01*
X-122476Y214008D01*
X-122498Y214095D01*
X-122523Y214180D01*
X-122551Y214265D01*
X-122584Y214348D01*
X-122620Y214430D01*
X-122659Y214510D01*
X-122702Y214588D01*
X-122748Y214664D01*
X-122798Y214739D01*
X-122851Y214811D01*
X-122907Y214880D01*
X-122966Y214947D01*
X-123027Y215012D01*
X-123092Y215073D01*
X-123159Y215132D01*
X-123228Y215188D01*
X-123300Y215241D01*
X-123375Y215291D01*
X-123451Y215337D01*
X-123529Y215380D01*
X-123609Y215419D01*
X-123691Y215455D01*
X-123774Y215488D01*
X-123859Y215516D01*
X-123944Y215541D01*
X-124031Y215563D01*
X-124119Y215580D01*
X-124207Y215593D01*
X-124296Y215603D01*
X-124385Y215609D01*
X-124474Y215611D01*
X-124563Y215609D01*
X-124652Y215603D01*
X-124741Y215593D01*
X-124829Y215580D01*
X-124917Y215563D01*
X-125004Y215541D01*
X-125089Y215516D01*
X-125174Y215488D01*
X-125257Y215455D01*
X-125339Y215419D01*
X-125419Y215380D01*
X-125497Y215337D01*
X-125573Y215291D01*
X-125648Y215241D01*
X-125720Y215188D01*
X-125789Y215132D01*
X-125856Y215073D01*
X-125921Y215012D01*
X-125982Y214947D01*
X-126041Y214880D01*
X-126097Y214811D01*
X-126150Y214739D01*
X-126200Y214664D01*
X-126246Y214588D01*
X-126289Y214510D01*
X-126328Y214430D01*
X-126364Y214348D01*
X-126397Y214265D01*
X-126425Y214180D01*
X-126450Y214095D01*
X-126472Y214008D01*
X-126489Y213920D01*
X-126502Y213832D01*
X-126512Y213743D01*
X-126518Y213654D01*
X-126520Y213565D01*
X-126520Y211519D01*
X-126520Y213974D02*
X-129794Y215611D01*
X-124270Y222875D02*
X-124185Y222873D01*
X-124100Y222867D01*
X-124016Y222857D01*
X-123932Y222844D01*
X-123848Y222826D01*
X-123766Y222805D01*
X-123685Y222780D01*
X-123605Y222751D01*
X-123526Y222718D01*
X-123449Y222682D01*
X-123374Y222642D01*
X-123300Y222599D01*
X-123229Y222553D01*
X-123160Y222503D01*
X-123093Y222450D01*
X-123029Y222394D01*
X-122968Y222335D01*
X-122909Y222274D01*
X-122853Y222210D01*
X-122800Y222143D01*
X-122750Y222074D01*
X-122704Y222003D01*
X-122661Y221929D01*
X-122621Y221854D01*
X-122585Y221777D01*
X-122552Y221698D01*
X-122523Y221618D01*
X-122498Y221537D01*
X-122477Y221455D01*
X-122459Y221371D01*
X-122446Y221287D01*
X-122436Y221203D01*
X-122430Y221118D01*
X-122428Y221033D01*
X-122430Y220937D01*
X-122436Y220841D01*
X-122446Y220746D01*
X-122459Y220651D01*
X-122477Y220556D01*
X-122498Y220463D01*
X-122523Y220370D01*
X-122552Y220279D01*
X-122584Y220188D01*
X-122620Y220099D01*
X-122660Y220012D01*
X-122703Y219926D01*
X-122749Y219842D01*
X-122799Y219760D01*
X-122853Y219680D01*
X-122909Y219603D01*
X-122969Y219528D01*
X-123031Y219455D01*
X-123097Y219385D01*
X-123165Y219317D01*
X-123236Y219252D01*
X-123309Y219191D01*
X-123385Y219132D01*
X-123464Y219076D01*
X-123544Y219024D01*
X-123627Y218975D01*
X-123711Y218929D01*
X-123797Y218887D01*
X-123885Y218849D01*
X-123974Y218814D01*
X-124065Y218782D01*
X-125702Y222261D02*
X-125643Y222321D01*
X-125581Y222378D01*
X-125517Y222433D01*
X-125450Y222484D01*
X-125381Y222533D01*
X-125311Y222579D01*
X-125238Y222622D01*
X-125164Y222662D01*
X-125088Y222698D01*
X-125010Y222731D01*
X-124931Y222761D01*
X-124851Y222788D01*
X-124770Y222811D01*
X-124688Y222830D01*
X-124606Y222846D01*
X-124522Y222859D01*
X-124438Y222868D01*
X-124354Y222873D01*
X-124270Y222875D01*
X-125702Y222261D02*
X-129794Y218783D01*
X-129794Y222875D01*
X89091Y127963D02*
X96457Y127963D01*
X96457Y130009D01*
X96456Y130009D02*
X96454Y130098D01*
X96448Y130187D01*
X96438Y130276D01*
X96425Y130364D01*
X96408Y130452D01*
X96386Y130539D01*
X96361Y130624D01*
X96333Y130709D01*
X96300Y130792D01*
X96264Y130874D01*
X96225Y130954D01*
X96182Y131032D01*
X96136Y131108D01*
X96086Y131183D01*
X96033Y131255D01*
X95977Y131324D01*
X95918Y131391D01*
X95857Y131456D01*
X95792Y131517D01*
X95725Y131576D01*
X95656Y131632D01*
X95584Y131685D01*
X95509Y131735D01*
X95433Y131781D01*
X95355Y131824D01*
X95275Y131863D01*
X95193Y131899D01*
X95110Y131932D01*
X95025Y131960D01*
X94940Y131985D01*
X94853Y132007D01*
X94765Y132024D01*
X94677Y132037D01*
X94588Y132047D01*
X94499Y132053D01*
X94410Y132055D01*
X94321Y132053D01*
X94232Y132047D01*
X94143Y132037D01*
X94055Y132024D01*
X93967Y132007D01*
X93880Y131985D01*
X93795Y131960D01*
X93710Y131932D01*
X93627Y131899D01*
X93545Y131863D01*
X93465Y131824D01*
X93387Y131781D01*
X93311Y131735D01*
X93236Y131685D01*
X93164Y131632D01*
X93095Y131576D01*
X93028Y131517D01*
X92963Y131456D01*
X92902Y131391D01*
X92843Y131324D01*
X92787Y131255D01*
X92734Y131183D01*
X92684Y131108D01*
X92638Y131032D01*
X92595Y130954D01*
X92556Y130874D01*
X92520Y130792D01*
X92487Y130709D01*
X92459Y130624D01*
X92434Y130539D01*
X92412Y130452D01*
X92395Y130364D01*
X92382Y130276D01*
X92372Y130187D01*
X92366Y130098D01*
X92364Y130009D01*
X92364Y127963D01*
X92364Y130418D02*
X89091Y132055D01*
X94820Y135227D02*
X96457Y137273D01*
X89091Y137273D01*
X89091Y135227D02*
X89091Y139319D01*
X71819Y117270D02*
X71819Y115182D01*
X71821Y115093D01*
X71827Y115005D01*
X71836Y114917D01*
X71849Y114829D01*
X71866Y114742D01*
X71886Y114656D01*
X71911Y114571D01*
X71938Y114486D01*
X71970Y114403D01*
X72004Y114322D01*
X72043Y114242D01*
X72084Y114164D01*
X72129Y114087D01*
X72177Y114013D01*
X72228Y113940D01*
X72282Y113870D01*
X72340Y113803D01*
X72400Y113737D01*
X72462Y113675D01*
X72528Y113615D01*
X72595Y113557D01*
X72665Y113503D01*
X72738Y113452D01*
X72812Y113404D01*
X72889Y113359D01*
X72967Y113318D01*
X73047Y113279D01*
X73128Y113245D01*
X73211Y113213D01*
X73296Y113186D01*
X73381Y113161D01*
X73467Y113141D01*
X73554Y113124D01*
X73642Y113111D01*
X73730Y113102D01*
X73818Y113096D01*
X73907Y113094D01*
X79128Y113094D01*
X79219Y113096D01*
X79310Y113102D01*
X79401Y113112D01*
X79491Y113126D01*
X79580Y113143D01*
X79668Y113165D01*
X79756Y113191D01*
X79842Y113220D01*
X79927Y113253D01*
X80010Y113290D01*
X80092Y113330D01*
X80172Y113374D01*
X80250Y113421D01*
X80326Y113472D01*
X80399Y113525D01*
X80470Y113582D01*
X80539Y113643D01*
X80604Y113706D01*
X80667Y113771D01*
X80727Y113840D01*
X80785Y113911D01*
X80838Y113984D01*
X80889Y114060D01*
X80936Y114138D01*
X80980Y114218D01*
X81020Y114300D01*
X81057Y114383D01*
X81090Y114468D01*
X81119Y114554D01*
X81145Y114642D01*
X81167Y114730D01*
X81184Y114819D01*
X81198Y114909D01*
X81208Y115000D01*
X81214Y115091D01*
X81216Y115182D01*
X81217Y115182D02*
X81217Y117270D01*
X79128Y120739D02*
X81217Y123350D01*
X71819Y123350D01*
X71819Y125960D02*
X71819Y120739D01*
X103727Y180928D02*
X103727Y183017D01*
X103728Y180928D02*
X103730Y180839D01*
X103736Y180751D01*
X103745Y180663D01*
X103758Y180575D01*
X103775Y180488D01*
X103795Y180402D01*
X103820Y180317D01*
X103847Y180232D01*
X103879Y180149D01*
X103913Y180068D01*
X103952Y179988D01*
X103993Y179910D01*
X104038Y179833D01*
X104086Y179759D01*
X104137Y179686D01*
X104191Y179616D01*
X104249Y179549D01*
X104309Y179483D01*
X104371Y179421D01*
X104437Y179361D01*
X104504Y179303D01*
X104574Y179249D01*
X104647Y179198D01*
X104721Y179150D01*
X104798Y179105D01*
X104876Y179064D01*
X104956Y179025D01*
X105037Y178991D01*
X105120Y178959D01*
X105205Y178932D01*
X105290Y178907D01*
X105376Y178887D01*
X105463Y178870D01*
X105551Y178857D01*
X105639Y178848D01*
X105727Y178842D01*
X105816Y178840D01*
X111037Y178840D01*
X111128Y178842D01*
X111219Y178848D01*
X111310Y178858D01*
X111400Y178872D01*
X111489Y178889D01*
X111577Y178911D01*
X111665Y178937D01*
X111751Y178966D01*
X111836Y178999D01*
X111919Y179036D01*
X112001Y179076D01*
X112081Y179120D01*
X112159Y179167D01*
X112235Y179218D01*
X112308Y179271D01*
X112379Y179328D01*
X112448Y179389D01*
X112513Y179452D01*
X112576Y179517D01*
X112636Y179586D01*
X112694Y179657D01*
X112747Y179730D01*
X112798Y179806D01*
X112845Y179884D01*
X112889Y179964D01*
X112929Y180046D01*
X112966Y180129D01*
X112999Y180214D01*
X113028Y180300D01*
X113054Y180388D01*
X113076Y180476D01*
X113093Y180565D01*
X113107Y180655D01*
X113117Y180746D01*
X113123Y180837D01*
X113125Y180928D01*
X113125Y183017D01*
X113126Y189357D02*
X113124Y189452D01*
X113118Y189546D01*
X113109Y189640D01*
X113096Y189734D01*
X113079Y189827D01*
X113058Y189919D01*
X113033Y190011D01*
X113005Y190101D01*
X112973Y190190D01*
X112938Y190278D01*
X112899Y190364D01*
X112857Y190449D01*
X112811Y190532D01*
X112762Y190613D01*
X112710Y190692D01*
X112655Y190769D01*
X112596Y190843D01*
X112535Y190915D01*
X112471Y190985D01*
X112404Y191052D01*
X112334Y191116D01*
X112262Y191177D01*
X112188Y191236D01*
X112111Y191291D01*
X112032Y191343D01*
X111951Y191392D01*
X111868Y191438D01*
X111783Y191480D01*
X111697Y191519D01*
X111609Y191554D01*
X111520Y191586D01*
X111430Y191614D01*
X111338Y191639D01*
X111246Y191660D01*
X111153Y191677D01*
X111059Y191690D01*
X110965Y191699D01*
X110871Y191705D01*
X110776Y191707D01*
X113125Y189357D02*
X113123Y189249D01*
X113117Y189140D01*
X113107Y189032D01*
X113094Y188925D01*
X113076Y188818D01*
X113055Y188711D01*
X113030Y188606D01*
X113001Y188501D01*
X112969Y188398D01*
X112932Y188296D01*
X112892Y188195D01*
X112849Y188096D01*
X112802Y187998D01*
X112751Y187902D01*
X112697Y187808D01*
X112640Y187716D01*
X112579Y187626D01*
X112515Y187538D01*
X112449Y187453D01*
X112379Y187370D01*
X112306Y187290D01*
X112230Y187212D01*
X112152Y187137D01*
X112071Y187065D01*
X111987Y186996D01*
X111901Y186930D01*
X111813Y186867D01*
X111722Y186808D01*
X111630Y186751D01*
X111535Y186698D01*
X111439Y186649D01*
X111340Y186603D01*
X111241Y186560D01*
X111139Y186521D01*
X111037Y186486D01*
X108948Y190924D02*
X109017Y190993D01*
X109088Y191059D01*
X109161Y191123D01*
X109237Y191184D01*
X109316Y191242D01*
X109396Y191296D01*
X109479Y191348D01*
X109563Y191396D01*
X109649Y191442D01*
X109737Y191483D01*
X109827Y191522D01*
X109918Y191557D01*
X110010Y191588D01*
X110103Y191616D01*
X110197Y191640D01*
X110292Y191660D01*
X110388Y191677D01*
X110485Y191690D01*
X110582Y191699D01*
X110679Y191705D01*
X110776Y191707D01*
X108948Y190923D02*
X103727Y186485D01*
X103727Y191707D01*
X115634Y181429D02*
X115634Y179341D01*
X115636Y179252D01*
X115642Y179164D01*
X115651Y179076D01*
X115664Y178988D01*
X115681Y178901D01*
X115701Y178815D01*
X115726Y178730D01*
X115753Y178645D01*
X115785Y178562D01*
X115819Y178481D01*
X115858Y178401D01*
X115899Y178323D01*
X115944Y178246D01*
X115992Y178172D01*
X116043Y178099D01*
X116097Y178029D01*
X116155Y177962D01*
X116215Y177896D01*
X116277Y177834D01*
X116343Y177774D01*
X116410Y177716D01*
X116480Y177662D01*
X116553Y177611D01*
X116627Y177563D01*
X116704Y177518D01*
X116782Y177477D01*
X116862Y177438D01*
X116943Y177404D01*
X117026Y177372D01*
X117111Y177345D01*
X117196Y177320D01*
X117282Y177300D01*
X117369Y177283D01*
X117457Y177270D01*
X117545Y177261D01*
X117633Y177255D01*
X117722Y177253D01*
X117722Y177252D02*
X122943Y177252D01*
X122943Y177253D02*
X123034Y177255D01*
X123125Y177261D01*
X123216Y177271D01*
X123306Y177285D01*
X123395Y177302D01*
X123483Y177324D01*
X123571Y177350D01*
X123657Y177379D01*
X123742Y177412D01*
X123825Y177449D01*
X123907Y177489D01*
X123987Y177533D01*
X124065Y177580D01*
X124141Y177631D01*
X124214Y177684D01*
X124285Y177741D01*
X124354Y177802D01*
X124419Y177865D01*
X124482Y177930D01*
X124542Y177999D01*
X124600Y178070D01*
X124653Y178143D01*
X124704Y178219D01*
X124751Y178297D01*
X124795Y178377D01*
X124835Y178459D01*
X124872Y178542D01*
X124905Y178627D01*
X124934Y178713D01*
X124960Y178801D01*
X124982Y178889D01*
X124999Y178978D01*
X125013Y179068D01*
X125023Y179159D01*
X125029Y179250D01*
X125031Y179341D01*
X125032Y179341D02*
X125032Y181429D01*
X125032Y186986D02*
X117722Y184898D01*
X117722Y190119D01*
X119810Y188553D02*
X115634Y188553D01*
X-62325Y132352D02*
X-62325Y130263D01*
X-62323Y130174D01*
X-62317Y130086D01*
X-62308Y129998D01*
X-62295Y129910D01*
X-62278Y129823D01*
X-62258Y129737D01*
X-62233Y129652D01*
X-62206Y129567D01*
X-62174Y129484D01*
X-62140Y129403D01*
X-62101Y129323D01*
X-62060Y129245D01*
X-62015Y129168D01*
X-61967Y129094D01*
X-61916Y129021D01*
X-61862Y128951D01*
X-61804Y128884D01*
X-61744Y128818D01*
X-61682Y128756D01*
X-61616Y128696D01*
X-61549Y128638D01*
X-61479Y128584D01*
X-61406Y128533D01*
X-61332Y128485D01*
X-61255Y128440D01*
X-61177Y128399D01*
X-61097Y128360D01*
X-61016Y128326D01*
X-60933Y128294D01*
X-60848Y128267D01*
X-60763Y128242D01*
X-60677Y128222D01*
X-60590Y128205D01*
X-60502Y128192D01*
X-60414Y128183D01*
X-60326Y128177D01*
X-60237Y128175D01*
X-55016Y128175D01*
X-55016Y128174D02*
X-54925Y128176D01*
X-54834Y128182D01*
X-54743Y128192D01*
X-54653Y128206D01*
X-54564Y128224D01*
X-54475Y128245D01*
X-54388Y128271D01*
X-54302Y128300D01*
X-54217Y128333D01*
X-54133Y128370D01*
X-54051Y128410D01*
X-53972Y128454D01*
X-53894Y128501D01*
X-53818Y128552D01*
X-53744Y128606D01*
X-53673Y128663D01*
X-53605Y128723D01*
X-53539Y128786D01*
X-53476Y128852D01*
X-53416Y128920D01*
X-53359Y128991D01*
X-53305Y129065D01*
X-53254Y129141D01*
X-53207Y129218D01*
X-53163Y129298D01*
X-53123Y129380D01*
X-53086Y129464D01*
X-53053Y129548D01*
X-53024Y129635D01*
X-52998Y129722D01*
X-52977Y129811D01*
X-52959Y129900D01*
X-52945Y129990D01*
X-52935Y130081D01*
X-52929Y130172D01*
X-52927Y130263D01*
X-52927Y132352D01*
X-57104Y135820D02*
X-57104Y138953D01*
X-57105Y138953D02*
X-57107Y139042D01*
X-57113Y139130D01*
X-57122Y139218D01*
X-57135Y139306D01*
X-57152Y139393D01*
X-57172Y139479D01*
X-57197Y139564D01*
X-57224Y139649D01*
X-57256Y139732D01*
X-57290Y139813D01*
X-57329Y139893D01*
X-57370Y139971D01*
X-57415Y140048D01*
X-57463Y140122D01*
X-57514Y140195D01*
X-57568Y140265D01*
X-57626Y140332D01*
X-57686Y140398D01*
X-57748Y140460D01*
X-57814Y140520D01*
X-57881Y140578D01*
X-57951Y140632D01*
X-58024Y140683D01*
X-58098Y140731D01*
X-58175Y140776D01*
X-58253Y140817D01*
X-58333Y140856D01*
X-58414Y140890D01*
X-58497Y140922D01*
X-58582Y140949D01*
X-58667Y140974D01*
X-58753Y140994D01*
X-58840Y141011D01*
X-58928Y141024D01*
X-59016Y141033D01*
X-59104Y141039D01*
X-59193Y141041D01*
X-59193Y141042D02*
X-59715Y141042D01*
X-59816Y141040D01*
X-59917Y141034D01*
X-60018Y141024D01*
X-60118Y141011D01*
X-60218Y140993D01*
X-60317Y140972D01*
X-60415Y140946D01*
X-60512Y140917D01*
X-60608Y140885D01*
X-60702Y140848D01*
X-60795Y140808D01*
X-60887Y140764D01*
X-60976Y140717D01*
X-61064Y140666D01*
X-61150Y140612D01*
X-61233Y140555D01*
X-61315Y140495D01*
X-61393Y140431D01*
X-61470Y140365D01*
X-61543Y140295D01*
X-61614Y140223D01*
X-61682Y140148D01*
X-61747Y140070D01*
X-61809Y139990D01*
X-61868Y139908D01*
X-61924Y139823D01*
X-61976Y139737D01*
X-62025Y139648D01*
X-62071Y139557D01*
X-62112Y139465D01*
X-62151Y139371D01*
X-62185Y139276D01*
X-62216Y139180D01*
X-62243Y139082D01*
X-62267Y138984D01*
X-62286Y138884D01*
X-62302Y138784D01*
X-62314Y138684D01*
X-62322Y138583D01*
X-62326Y138482D01*
X-62326Y138380D01*
X-62322Y138279D01*
X-62314Y138178D01*
X-62302Y138078D01*
X-62286Y137978D01*
X-62267Y137878D01*
X-62243Y137780D01*
X-62216Y137682D01*
X-62185Y137586D01*
X-62151Y137491D01*
X-62112Y137397D01*
X-62071Y137305D01*
X-62025Y137214D01*
X-61976Y137126D01*
X-61924Y137039D01*
X-61868Y136954D01*
X-61809Y136872D01*
X-61747Y136792D01*
X-61682Y136714D01*
X-61614Y136639D01*
X-61543Y136567D01*
X-61470Y136497D01*
X-61393Y136431D01*
X-61315Y136367D01*
X-61233Y136307D01*
X-61150Y136250D01*
X-61064Y136196D01*
X-60976Y136145D01*
X-60887Y136098D01*
X-60795Y136054D01*
X-60702Y136014D01*
X-60608Y135977D01*
X-60512Y135945D01*
X-60415Y135916D01*
X-60317Y135890D01*
X-60218Y135869D01*
X-60118Y135851D01*
X-60018Y135838D01*
X-59917Y135828D01*
X-59816Y135822D01*
X-59715Y135820D01*
X-57104Y135820D01*
X-56975Y135822D01*
X-56847Y135828D01*
X-56719Y135838D01*
X-56591Y135852D01*
X-56463Y135869D01*
X-56336Y135891D01*
X-56210Y135917D01*
X-56085Y135946D01*
X-55961Y135979D01*
X-55838Y136017D01*
X-55716Y136057D01*
X-55595Y136102D01*
X-55476Y136150D01*
X-55358Y136202D01*
X-55242Y136258D01*
X-55128Y136317D01*
X-55016Y136380D01*
X-54905Y136446D01*
X-54797Y136515D01*
X-54691Y136588D01*
X-54587Y136664D01*
X-54485Y136743D01*
X-54386Y136825D01*
X-54290Y136910D01*
X-54196Y136998D01*
X-54105Y137089D01*
X-54017Y137183D01*
X-53932Y137279D01*
X-53850Y137378D01*
X-53771Y137480D01*
X-53695Y137584D01*
X-53622Y137690D01*
X-53553Y137798D01*
X-53487Y137908D01*
X-53424Y138021D01*
X-53365Y138135D01*
X-53309Y138251D01*
X-53257Y138369D01*
X-53209Y138488D01*
X-53164Y138609D01*
X-53124Y138731D01*
X-53086Y138854D01*
X-53053Y138978D01*
X-53024Y139103D01*
X-52998Y139229D01*
X-52976Y139356D01*
X-52959Y139484D01*
X-52945Y139612D01*
X-52935Y139740D01*
X-52929Y139868D01*
X-52927Y139997D01*
D10*
X69418Y201130D02*
X89548Y201130D01*
D13*
X126587Y195852D02*
X126587Y193763D01*
X126588Y193763D02*
X126590Y193674D01*
X126596Y193586D01*
X126605Y193498D01*
X126618Y193410D01*
X126635Y193323D01*
X126655Y193237D01*
X126680Y193152D01*
X126707Y193067D01*
X126739Y192984D01*
X126773Y192903D01*
X126812Y192823D01*
X126853Y192745D01*
X126898Y192668D01*
X126946Y192594D01*
X126997Y192521D01*
X127051Y192451D01*
X127109Y192384D01*
X127169Y192318D01*
X127231Y192256D01*
X127297Y192196D01*
X127364Y192138D01*
X127434Y192084D01*
X127507Y192033D01*
X127581Y191985D01*
X127658Y191940D01*
X127736Y191899D01*
X127816Y191860D01*
X127897Y191826D01*
X127980Y191794D01*
X128065Y191767D01*
X128150Y191742D01*
X128236Y191722D01*
X128323Y191705D01*
X128411Y191692D01*
X128499Y191683D01*
X128587Y191677D01*
X128676Y191675D01*
X133897Y191675D01*
X133988Y191677D01*
X134079Y191683D01*
X134170Y191693D01*
X134260Y191707D01*
X134349Y191724D01*
X134437Y191746D01*
X134525Y191772D01*
X134611Y191801D01*
X134696Y191834D01*
X134779Y191871D01*
X134861Y191911D01*
X134941Y191955D01*
X135019Y192002D01*
X135095Y192053D01*
X135168Y192106D01*
X135239Y192163D01*
X135308Y192224D01*
X135373Y192287D01*
X135436Y192352D01*
X135496Y192421D01*
X135554Y192492D01*
X135607Y192565D01*
X135658Y192641D01*
X135705Y192719D01*
X135749Y192799D01*
X135789Y192881D01*
X135826Y192964D01*
X135859Y193049D01*
X135888Y193135D01*
X135914Y193223D01*
X135936Y193311D01*
X135953Y193400D01*
X135967Y193490D01*
X135977Y193581D01*
X135983Y193672D01*
X135985Y193763D01*
X135985Y195852D01*
X126587Y199320D02*
X126587Y201931D01*
X126589Y202032D01*
X126595Y202133D01*
X126605Y202234D01*
X126618Y202334D01*
X126636Y202434D01*
X126657Y202533D01*
X126683Y202631D01*
X126712Y202728D01*
X126744Y202824D01*
X126781Y202918D01*
X126821Y203011D01*
X126865Y203103D01*
X126912Y203192D01*
X126963Y203280D01*
X127017Y203366D01*
X127074Y203449D01*
X127134Y203531D01*
X127198Y203609D01*
X127264Y203686D01*
X127334Y203759D01*
X127406Y203830D01*
X127481Y203898D01*
X127559Y203963D01*
X127639Y204025D01*
X127721Y204084D01*
X127806Y204140D01*
X127893Y204192D01*
X127981Y204241D01*
X128072Y204287D01*
X128164Y204328D01*
X128258Y204367D01*
X128353Y204401D01*
X128449Y204432D01*
X128547Y204459D01*
X128645Y204483D01*
X128745Y204502D01*
X128845Y204518D01*
X128945Y204530D01*
X129046Y204538D01*
X129147Y204542D01*
X129249Y204542D01*
X129350Y204538D01*
X129451Y204530D01*
X129551Y204518D01*
X129651Y204502D01*
X129751Y204483D01*
X129849Y204459D01*
X129947Y204432D01*
X130043Y204401D01*
X130138Y204367D01*
X130232Y204328D01*
X130324Y204287D01*
X130415Y204241D01*
X130504Y204192D01*
X130590Y204140D01*
X130675Y204084D01*
X130757Y204025D01*
X130837Y203963D01*
X130915Y203898D01*
X130990Y203830D01*
X131062Y203759D01*
X131132Y203686D01*
X131198Y203609D01*
X131262Y203531D01*
X131322Y203449D01*
X131379Y203366D01*
X131433Y203280D01*
X131484Y203192D01*
X131531Y203103D01*
X131575Y203011D01*
X131615Y202918D01*
X131652Y202824D01*
X131684Y202728D01*
X131713Y202631D01*
X131739Y202533D01*
X131760Y202434D01*
X131778Y202334D01*
X131791Y202234D01*
X131801Y202133D01*
X131807Y202032D01*
X131809Y201931D01*
X135985Y202453D02*
X135985Y199320D01*
X135985Y202453D02*
X135983Y202543D01*
X135977Y202632D01*
X135968Y202722D01*
X135954Y202811D01*
X135937Y202899D01*
X135916Y202986D01*
X135891Y203073D01*
X135862Y203158D01*
X135830Y203242D01*
X135795Y203324D01*
X135755Y203405D01*
X135713Y203484D01*
X135667Y203561D01*
X135617Y203636D01*
X135565Y203709D01*
X135509Y203780D01*
X135451Y203848D01*
X135389Y203913D01*
X135325Y203976D01*
X135258Y204036D01*
X135189Y204093D01*
X135117Y204147D01*
X135043Y204198D01*
X134967Y204246D01*
X134889Y204290D01*
X134809Y204331D01*
X134727Y204369D01*
X134644Y204403D01*
X134559Y204433D01*
X134473Y204460D01*
X134387Y204483D01*
X134299Y204502D01*
X134210Y204517D01*
X134121Y204529D01*
X134032Y204537D01*
X133942Y204541D01*
X133852Y204541D01*
X133762Y204537D01*
X133673Y204529D01*
X133584Y204517D01*
X133495Y204502D01*
X133407Y204483D01*
X133321Y204460D01*
X133235Y204433D01*
X133150Y204403D01*
X133067Y204369D01*
X132985Y204331D01*
X132905Y204290D01*
X132827Y204246D01*
X132751Y204198D01*
X132677Y204147D01*
X132605Y204093D01*
X132536Y204036D01*
X132469Y203976D01*
X132405Y203913D01*
X132343Y203848D01*
X132285Y203780D01*
X132229Y203709D01*
X132177Y203636D01*
X132127Y203561D01*
X132081Y203484D01*
X132039Y203405D01*
X131999Y203324D01*
X131964Y203242D01*
X131932Y203158D01*
X131903Y203073D01*
X131878Y202986D01*
X131857Y202899D01*
X131840Y202811D01*
X131826Y202722D01*
X131817Y202632D01*
X131811Y202543D01*
X131809Y202453D01*
X131808Y202453D02*
X131808Y200365D01*
D10*
X103835Y201130D02*
X83706Y201130D01*
D13*
X138494Y197439D02*
X138494Y195351D01*
X138496Y195262D01*
X138502Y195174D01*
X138511Y195086D01*
X138524Y194998D01*
X138541Y194911D01*
X138561Y194825D01*
X138586Y194740D01*
X138613Y194655D01*
X138645Y194572D01*
X138679Y194491D01*
X138718Y194411D01*
X138759Y194333D01*
X138804Y194256D01*
X138852Y194182D01*
X138903Y194109D01*
X138957Y194039D01*
X139015Y193972D01*
X139075Y193906D01*
X139137Y193844D01*
X139203Y193784D01*
X139270Y193726D01*
X139340Y193672D01*
X139413Y193621D01*
X139487Y193573D01*
X139564Y193528D01*
X139642Y193487D01*
X139722Y193448D01*
X139803Y193414D01*
X139886Y193382D01*
X139971Y193355D01*
X140056Y193330D01*
X140142Y193310D01*
X140229Y193293D01*
X140317Y193280D01*
X140405Y193271D01*
X140493Y193265D01*
X140582Y193263D01*
X140582Y193262D02*
X145803Y193262D01*
X145803Y193263D02*
X145894Y193265D01*
X145985Y193271D01*
X146076Y193281D01*
X146166Y193295D01*
X146255Y193312D01*
X146343Y193334D01*
X146431Y193360D01*
X146517Y193389D01*
X146602Y193422D01*
X146685Y193459D01*
X146767Y193499D01*
X146847Y193543D01*
X146925Y193590D01*
X147001Y193641D01*
X147074Y193694D01*
X147145Y193751D01*
X147214Y193812D01*
X147279Y193875D01*
X147342Y193940D01*
X147402Y194009D01*
X147460Y194080D01*
X147513Y194153D01*
X147564Y194229D01*
X147611Y194307D01*
X147655Y194387D01*
X147695Y194469D01*
X147732Y194552D01*
X147765Y194637D01*
X147794Y194723D01*
X147820Y194811D01*
X147842Y194899D01*
X147859Y194988D01*
X147873Y195078D01*
X147883Y195169D01*
X147889Y195260D01*
X147891Y195351D01*
X147892Y195351D02*
X147892Y197439D01*
X138494Y200908D02*
X138494Y204041D01*
X138496Y204130D01*
X138502Y204218D01*
X138511Y204306D01*
X138524Y204394D01*
X138541Y204481D01*
X138561Y204567D01*
X138586Y204652D01*
X138613Y204737D01*
X138645Y204820D01*
X138679Y204901D01*
X138718Y204981D01*
X138759Y205059D01*
X138804Y205136D01*
X138852Y205210D01*
X138903Y205283D01*
X138957Y205353D01*
X139015Y205420D01*
X139075Y205486D01*
X139137Y205548D01*
X139203Y205608D01*
X139270Y205666D01*
X139340Y205720D01*
X139413Y205771D01*
X139487Y205819D01*
X139564Y205864D01*
X139642Y205905D01*
X139722Y205944D01*
X139803Y205978D01*
X139886Y206010D01*
X139971Y206037D01*
X140056Y206062D01*
X140142Y206082D01*
X140229Y206099D01*
X140317Y206112D01*
X140405Y206121D01*
X140493Y206127D01*
X140582Y206129D01*
X141626Y206129D01*
X141715Y206127D01*
X141803Y206121D01*
X141891Y206112D01*
X141979Y206099D01*
X142066Y206082D01*
X142152Y206062D01*
X142237Y206037D01*
X142322Y206010D01*
X142405Y205978D01*
X142486Y205944D01*
X142566Y205905D01*
X142644Y205864D01*
X142721Y205819D01*
X142795Y205771D01*
X142868Y205720D01*
X142938Y205666D01*
X143005Y205608D01*
X143071Y205548D01*
X143133Y205486D01*
X143193Y205420D01*
X143251Y205353D01*
X143305Y205283D01*
X143356Y205210D01*
X143404Y205136D01*
X143449Y205059D01*
X143490Y204981D01*
X143529Y204901D01*
X143563Y204820D01*
X143595Y204737D01*
X143622Y204652D01*
X143647Y204567D01*
X143667Y204481D01*
X143684Y204394D01*
X143697Y204306D01*
X143706Y204218D01*
X143712Y204130D01*
X143714Y204041D01*
X143715Y204041D02*
X143715Y200908D01*
X147892Y200908D01*
X147892Y206129D01*
D10*
X-64440Y178905D02*
X-84569Y178905D01*
D13*
X-78200Y129970D02*
X-78200Y127882D01*
X-78198Y127793D01*
X-78192Y127705D01*
X-78183Y127617D01*
X-78170Y127529D01*
X-78153Y127442D01*
X-78133Y127356D01*
X-78108Y127271D01*
X-78081Y127186D01*
X-78049Y127103D01*
X-78015Y127022D01*
X-77976Y126942D01*
X-77935Y126864D01*
X-77890Y126787D01*
X-77842Y126713D01*
X-77791Y126640D01*
X-77737Y126570D01*
X-77679Y126503D01*
X-77619Y126437D01*
X-77557Y126375D01*
X-77491Y126315D01*
X-77424Y126257D01*
X-77354Y126203D01*
X-77281Y126152D01*
X-77207Y126104D01*
X-77130Y126059D01*
X-77052Y126018D01*
X-76972Y125979D01*
X-76891Y125945D01*
X-76808Y125913D01*
X-76723Y125886D01*
X-76638Y125861D01*
X-76552Y125841D01*
X-76465Y125824D01*
X-76377Y125811D01*
X-76289Y125802D01*
X-76201Y125796D01*
X-76112Y125794D01*
X-70891Y125794D01*
X-70891Y125793D02*
X-70800Y125795D01*
X-70709Y125801D01*
X-70618Y125811D01*
X-70528Y125825D01*
X-70439Y125843D01*
X-70350Y125864D01*
X-70263Y125890D01*
X-70177Y125919D01*
X-70092Y125952D01*
X-70008Y125989D01*
X-69926Y126029D01*
X-69847Y126073D01*
X-69769Y126120D01*
X-69693Y126171D01*
X-69619Y126225D01*
X-69548Y126282D01*
X-69480Y126342D01*
X-69414Y126405D01*
X-69351Y126471D01*
X-69291Y126539D01*
X-69234Y126610D01*
X-69180Y126684D01*
X-69129Y126760D01*
X-69082Y126837D01*
X-69038Y126917D01*
X-68998Y126999D01*
X-68961Y127083D01*
X-68928Y127167D01*
X-68899Y127254D01*
X-68873Y127341D01*
X-68852Y127430D01*
X-68834Y127519D01*
X-68820Y127609D01*
X-68810Y127700D01*
X-68804Y127791D01*
X-68802Y127882D01*
X-68802Y129970D01*
X-68802Y133439D02*
X-69847Y133439D01*
X-68802Y133439D02*
X-68802Y138660D01*
X-78200Y136050D01*
D10*
X15621Y239649D02*
X28829Y239649D01*
X15621Y239649D02*
X15621Y211201D01*
X28829Y211201D01*
X28829Y239649D01*
D14*
X32258Y225425D03*
X12192Y234823D03*
X12192Y216027D03*
D13*
X-1836Y219481D02*
X-6013Y219481D01*
X-1836Y219481D02*
X-1735Y219483D01*
X-1634Y219489D01*
X-1533Y219499D01*
X-1433Y219512D01*
X-1333Y219530D01*
X-1234Y219551D01*
X-1136Y219577D01*
X-1039Y219606D01*
X-943Y219638D01*
X-849Y219675D01*
X-756Y219715D01*
X-664Y219759D01*
X-575Y219806D01*
X-487Y219857D01*
X-401Y219911D01*
X-318Y219968D01*
X-236Y220028D01*
X-158Y220092D01*
X-81Y220158D01*
X-8Y220228D01*
X63Y220300D01*
X131Y220375D01*
X196Y220453D01*
X258Y220533D01*
X317Y220615D01*
X373Y220700D01*
X425Y220786D01*
X474Y220875D01*
X520Y220966D01*
X561Y221058D01*
X600Y221152D01*
X634Y221247D01*
X665Y221343D01*
X692Y221441D01*
X716Y221539D01*
X735Y221639D01*
X751Y221739D01*
X763Y221839D01*
X771Y221940D01*
X775Y222041D01*
X775Y222143D01*
X771Y222244D01*
X763Y222345D01*
X751Y222445D01*
X735Y222545D01*
X716Y222645D01*
X692Y222743D01*
X665Y222841D01*
X634Y222937D01*
X600Y223032D01*
X561Y223126D01*
X520Y223218D01*
X474Y223309D01*
X425Y223397D01*
X373Y223484D01*
X317Y223569D01*
X258Y223651D01*
X196Y223731D01*
X131Y223809D01*
X63Y223884D01*
X-8Y223956D01*
X-81Y224026D01*
X-158Y224092D01*
X-236Y224156D01*
X-318Y224216D01*
X-401Y224273D01*
X-487Y224327D01*
X-575Y224378D01*
X-664Y224425D01*
X-756Y224469D01*
X-849Y224509D01*
X-943Y224546D01*
X-1039Y224578D01*
X-1136Y224607D01*
X-1234Y224633D01*
X-1333Y224654D01*
X-1433Y224672D01*
X-1533Y224685D01*
X-1634Y224695D01*
X-1735Y224701D01*
X-1836Y224703D01*
X-6013Y224703D01*
X-6114Y224701D01*
X-6215Y224695D01*
X-6316Y224685D01*
X-6416Y224672D01*
X-6516Y224654D01*
X-6615Y224633D01*
X-6713Y224607D01*
X-6810Y224578D01*
X-6906Y224546D01*
X-7000Y224509D01*
X-7093Y224469D01*
X-7185Y224425D01*
X-7274Y224378D01*
X-7362Y224327D01*
X-7448Y224273D01*
X-7531Y224216D01*
X-7613Y224156D01*
X-7691Y224092D01*
X-7768Y224026D01*
X-7841Y223956D01*
X-7912Y223884D01*
X-7980Y223809D01*
X-8045Y223731D01*
X-8107Y223651D01*
X-8166Y223569D01*
X-8222Y223484D01*
X-8274Y223398D01*
X-8323Y223309D01*
X-8369Y223218D01*
X-8410Y223126D01*
X-8449Y223032D01*
X-8483Y222937D01*
X-8514Y222841D01*
X-8541Y222743D01*
X-8565Y222645D01*
X-8584Y222545D01*
X-8600Y222445D01*
X-8612Y222345D01*
X-8620Y222244D01*
X-8624Y222143D01*
X-8624Y222041D01*
X-8620Y221940D01*
X-8612Y221839D01*
X-8600Y221739D01*
X-8584Y221639D01*
X-8565Y221539D01*
X-8541Y221441D01*
X-8514Y221343D01*
X-8483Y221247D01*
X-8449Y221152D01*
X-8410Y221058D01*
X-8369Y220966D01*
X-8323Y220875D01*
X-8274Y220787D01*
X-8222Y220700D01*
X-8166Y220615D01*
X-8107Y220533D01*
X-8045Y220453D01*
X-7980Y220375D01*
X-7912Y220300D01*
X-7841Y220228D01*
X-7768Y220158D01*
X-7691Y220092D01*
X-7613Y220028D01*
X-7531Y219968D01*
X-7448Y219911D01*
X-7362Y219857D01*
X-7274Y219806D01*
X-7185Y219759D01*
X-7093Y219715D01*
X-7000Y219675D01*
X-6906Y219638D01*
X-6810Y219606D01*
X-6713Y219577D01*
X-6615Y219551D01*
X-6516Y219530D01*
X-6416Y219512D01*
X-6316Y219499D01*
X-6215Y219489D01*
X-6114Y219483D01*
X-6013Y219481D01*
X-6535Y223658D02*
X-8623Y225747D01*
X-6535Y228413D02*
X775Y230502D01*
X-6535Y228413D02*
X-6535Y233634D01*
X-4446Y232068D02*
X-8623Y232068D01*
D10*
X77534Y238062D02*
X90742Y238062D01*
X77534Y238062D02*
X77534Y209614D01*
X90742Y209614D01*
X90742Y238062D01*
D14*
X94171Y223838D03*
X74105Y233236D03*
X74105Y214440D03*
D13*
X106611Y220391D02*
X110788Y220391D01*
X110788Y220390D02*
X110889Y220392D01*
X110990Y220398D01*
X111091Y220408D01*
X111191Y220421D01*
X111291Y220439D01*
X111390Y220460D01*
X111488Y220486D01*
X111585Y220515D01*
X111681Y220547D01*
X111775Y220584D01*
X111868Y220624D01*
X111960Y220668D01*
X112049Y220715D01*
X112137Y220766D01*
X112223Y220820D01*
X112306Y220877D01*
X112388Y220937D01*
X112466Y221001D01*
X112543Y221067D01*
X112616Y221137D01*
X112687Y221209D01*
X112755Y221284D01*
X112820Y221362D01*
X112882Y221442D01*
X112941Y221524D01*
X112997Y221609D01*
X113049Y221695D01*
X113098Y221784D01*
X113144Y221875D01*
X113185Y221967D01*
X113224Y222061D01*
X113258Y222156D01*
X113289Y222252D01*
X113316Y222350D01*
X113340Y222448D01*
X113359Y222548D01*
X113375Y222648D01*
X113387Y222748D01*
X113395Y222849D01*
X113399Y222950D01*
X113399Y223052D01*
X113395Y223153D01*
X113387Y223254D01*
X113375Y223354D01*
X113359Y223454D01*
X113340Y223554D01*
X113316Y223652D01*
X113289Y223750D01*
X113258Y223846D01*
X113224Y223941D01*
X113185Y224035D01*
X113144Y224127D01*
X113098Y224218D01*
X113049Y224306D01*
X112997Y224393D01*
X112941Y224478D01*
X112882Y224560D01*
X112820Y224640D01*
X112755Y224718D01*
X112687Y224793D01*
X112616Y224865D01*
X112543Y224935D01*
X112466Y225001D01*
X112388Y225065D01*
X112306Y225125D01*
X112223Y225182D01*
X112137Y225236D01*
X112049Y225287D01*
X111960Y225334D01*
X111868Y225378D01*
X111775Y225418D01*
X111681Y225455D01*
X111585Y225487D01*
X111488Y225516D01*
X111390Y225542D01*
X111291Y225563D01*
X111191Y225581D01*
X111091Y225594D01*
X110990Y225604D01*
X110889Y225610D01*
X110788Y225612D01*
X106611Y225612D01*
X106510Y225610D01*
X106409Y225604D01*
X106308Y225594D01*
X106208Y225581D01*
X106108Y225563D01*
X106009Y225542D01*
X105911Y225516D01*
X105814Y225487D01*
X105718Y225455D01*
X105624Y225418D01*
X105531Y225378D01*
X105439Y225334D01*
X105350Y225287D01*
X105262Y225236D01*
X105176Y225182D01*
X105093Y225125D01*
X105011Y225065D01*
X104933Y225001D01*
X104856Y224935D01*
X104783Y224865D01*
X104712Y224793D01*
X104644Y224718D01*
X104579Y224640D01*
X104517Y224560D01*
X104458Y224478D01*
X104402Y224393D01*
X104350Y224307D01*
X104301Y224218D01*
X104255Y224127D01*
X104214Y224035D01*
X104175Y223941D01*
X104141Y223846D01*
X104110Y223750D01*
X104083Y223652D01*
X104059Y223554D01*
X104040Y223454D01*
X104024Y223354D01*
X104012Y223254D01*
X104004Y223153D01*
X104000Y223052D01*
X104000Y222950D01*
X104004Y222849D01*
X104012Y222748D01*
X104024Y222648D01*
X104040Y222548D01*
X104059Y222448D01*
X104083Y222350D01*
X104110Y222252D01*
X104141Y222156D01*
X104175Y222061D01*
X104214Y221967D01*
X104255Y221875D01*
X104301Y221784D01*
X104350Y221696D01*
X104402Y221609D01*
X104458Y221524D01*
X104517Y221442D01*
X104579Y221362D01*
X104644Y221284D01*
X104712Y221209D01*
X104783Y221137D01*
X104856Y221067D01*
X104933Y221001D01*
X105011Y220937D01*
X105093Y220877D01*
X105176Y220820D01*
X105262Y220766D01*
X105350Y220715D01*
X105439Y220668D01*
X105531Y220624D01*
X105624Y220584D01*
X105718Y220547D01*
X105814Y220515D01*
X105911Y220486D01*
X106009Y220460D01*
X106108Y220439D01*
X106208Y220421D01*
X106308Y220408D01*
X106409Y220398D01*
X106510Y220392D01*
X106611Y220390D01*
X106089Y224568D02*
X104000Y226656D01*
X112354Y229323D02*
X113398Y229323D01*
X113398Y234544D01*
X104000Y231933D01*
D10*
X38418Y121920D02*
X33438Y121920D01*
X-35243Y121920D02*
X-35243Y126900D01*
X-35243Y195580D02*
X-30263Y195580D01*
X38418Y195580D02*
X38418Y190600D01*
X38418Y126900D02*
X38418Y121920D01*
X-30263Y121920D02*
X-35243Y121920D01*
X-35243Y190600D02*
X-35243Y195580D01*
X33438Y195580D02*
X38418Y195580D01*
D13*
X44470Y197084D02*
X44470Y201063D01*
X44470Y197084D02*
X42149Y194099D01*
X44470Y197084D02*
X46791Y194099D01*
X44470Y197084D02*
X40822Y198410D01*
X44470Y197084D02*
X48118Y198410D01*
X33792Y118491D02*
X33792Y109869D01*
X33791Y109869D02*
X33789Y109755D01*
X33783Y109640D01*
X33773Y109526D01*
X33759Y109413D01*
X33742Y109299D01*
X33720Y109187D01*
X33695Y109075D01*
X33665Y108965D01*
X33632Y108855D01*
X33595Y108747D01*
X33555Y108640D01*
X33510Y108534D01*
X33463Y108430D01*
X33411Y108328D01*
X33356Y108228D01*
X33298Y108129D01*
X33236Y108033D01*
X33171Y107938D01*
X33103Y107847D01*
X33031Y107757D01*
X32957Y107670D01*
X32880Y107586D01*
X32799Y107504D01*
X32716Y107425D01*
X32631Y107349D01*
X32542Y107276D01*
X32452Y107207D01*
X32359Y107140D01*
X32263Y107077D01*
X32166Y107017D01*
X32066Y106960D01*
X31965Y106907D01*
X31862Y106857D01*
X31757Y106811D01*
X31651Y106768D01*
X31543Y106730D01*
X31434Y106695D01*
X31324Y106664D01*
X31213Y106636D01*
X31101Y106613D01*
X30988Y106593D01*
X30875Y106577D01*
X30761Y106565D01*
X30647Y106557D01*
X30532Y106553D01*
X30418Y106553D01*
X30303Y106557D01*
X30189Y106565D01*
X30075Y106577D01*
X29962Y106593D01*
X29849Y106613D01*
X29737Y106636D01*
X29626Y106664D01*
X29516Y106695D01*
X29407Y106730D01*
X29299Y106768D01*
X29193Y106811D01*
X29088Y106857D01*
X28985Y106907D01*
X28884Y106960D01*
X28784Y107017D01*
X28687Y107077D01*
X28591Y107140D01*
X28498Y107207D01*
X28408Y107276D01*
X28319Y107349D01*
X28234Y107425D01*
X28151Y107504D01*
X28070Y107586D01*
X27993Y107670D01*
X27919Y107757D01*
X27847Y107847D01*
X27779Y107938D01*
X27714Y108033D01*
X27652Y108129D01*
X27594Y108228D01*
X27539Y108328D01*
X27487Y108430D01*
X27440Y108534D01*
X27395Y108640D01*
X27355Y108747D01*
X27318Y108855D01*
X27285Y108965D01*
X27255Y109075D01*
X27230Y109187D01*
X27208Y109299D01*
X27191Y109413D01*
X27177Y109526D01*
X27167Y109640D01*
X27161Y109755D01*
X27159Y109869D01*
X27159Y118491D01*
X21981Y115838D02*
X18664Y118491D01*
X18664Y106553D01*
X15348Y106553D02*
X21981Y106553D01*
M02*
