G04 EAGLE Gerber RS-274X export*
G75*
%MOMM*%
%FSLAX34Y34*%
%LPD*%
%INSolderpaste Bottom*%
%IPPOS*%
%AMOC8*
5,1,8,0,0,1.08239X$1,22.5*%
G01*
%ADD10R,1.399997X0.400000*%
%ADD11R,0.700000X0.900000*%
%ADD12R,0.900000X0.700000*%
%ADD13R,1.100000X1.000000*%
%ADD14R,1.500000X1.300000*%
%ADD15R,1.400000X1.000000*%
%ADD16R,0.550000X0.300000*%
%ADD17R,0.300000X0.550000*%

G36*
X-13635Y173849D02*
X-13635Y173849D01*
X-13632Y173848D01*
X-13589Y173868D01*
X-13546Y173886D01*
X-13545Y173888D01*
X-13543Y173889D01*
X-13510Y173974D01*
X-13510Y186198D01*
X-13511Y186200D01*
X-13510Y186202D01*
X-13530Y186245D01*
X-13549Y186289D01*
X-13551Y186289D01*
X-13552Y186291D01*
X-13637Y186324D01*
X-25861Y186324D01*
X-25863Y186323D01*
X-25865Y186324D01*
X-25908Y186304D01*
X-25951Y186286D01*
X-25952Y186284D01*
X-25954Y186283D01*
X-25987Y186198D01*
X-25987Y173974D01*
X-25986Y173972D01*
X-25987Y173970D01*
X-25967Y173927D01*
X-25948Y173883D01*
X-25946Y173883D01*
X-25945Y173881D01*
X-25861Y173848D01*
X-13637Y173848D01*
X-13635Y173849D01*
G37*
G36*
X14814Y173849D02*
X14814Y173849D01*
X14816Y173848D01*
X14859Y173868D01*
X14902Y173886D01*
X14903Y173888D01*
X14905Y173889D01*
X14938Y173974D01*
X14938Y186198D01*
X14937Y186200D01*
X14938Y186202D01*
X14918Y186245D01*
X14899Y186289D01*
X14897Y186289D01*
X14896Y186291D01*
X14812Y186324D01*
X2588Y186324D01*
X2586Y186323D01*
X2583Y186324D01*
X2540Y186304D01*
X2497Y186286D01*
X2496Y186284D01*
X2494Y186283D01*
X2461Y186198D01*
X2461Y173974D01*
X2462Y173972D01*
X2461Y173970D01*
X2481Y173927D01*
X2500Y173883D01*
X2502Y173883D01*
X2503Y173881D01*
X2588Y173848D01*
X14812Y173848D01*
X14814Y173849D01*
G37*
G36*
X590Y173849D02*
X590Y173849D01*
X592Y173848D01*
X635Y173868D01*
X678Y173886D01*
X679Y173888D01*
X681Y173889D01*
X714Y173974D01*
X714Y186198D01*
X713Y186200D01*
X714Y186202D01*
X694Y186245D01*
X675Y186289D01*
X673Y186289D01*
X672Y186291D01*
X588Y186324D01*
X-11637Y186324D01*
X-11639Y186323D01*
X-11641Y186324D01*
X-11684Y186304D01*
X-11727Y186286D01*
X-11728Y186284D01*
X-11730Y186283D01*
X-11763Y186198D01*
X-11763Y173974D01*
X-11762Y173972D01*
X-11763Y173970D01*
X-11743Y173927D01*
X-11724Y173883D01*
X-11722Y173883D01*
X-11721Y173881D01*
X-11637Y173848D01*
X588Y173848D01*
X590Y173849D01*
G37*
G36*
X29038Y173849D02*
X29038Y173849D01*
X29040Y173848D01*
X29083Y173868D01*
X29126Y173886D01*
X29127Y173888D01*
X29129Y173889D01*
X29162Y173974D01*
X29162Y186198D01*
X29161Y186200D01*
X29162Y186202D01*
X29142Y186245D01*
X29123Y186289D01*
X29121Y186289D01*
X29120Y186291D01*
X29036Y186324D01*
X16812Y186324D01*
X16810Y186323D01*
X16807Y186324D01*
X16764Y186304D01*
X16721Y186286D01*
X16720Y186284D01*
X16718Y186283D01*
X16685Y186198D01*
X16685Y173974D01*
X16686Y173972D01*
X16685Y173970D01*
X16705Y173927D01*
X16724Y173883D01*
X16726Y173883D01*
X16727Y173881D01*
X16812Y173848D01*
X29036Y173848D01*
X29038Y173849D01*
G37*
G36*
X14814Y159625D02*
X14814Y159625D01*
X14816Y159624D01*
X14859Y159644D01*
X14902Y159662D01*
X14903Y159664D01*
X14905Y159665D01*
X14938Y159750D01*
X14938Y171974D01*
X14937Y171976D01*
X14938Y171978D01*
X14918Y172021D01*
X14899Y172065D01*
X14897Y172065D01*
X14896Y172067D01*
X14812Y172100D01*
X2588Y172100D01*
X2586Y172099D01*
X2583Y172100D01*
X2540Y172080D01*
X2497Y172062D01*
X2496Y172060D01*
X2494Y172059D01*
X2461Y171974D01*
X2461Y159750D01*
X2462Y159748D01*
X2461Y159746D01*
X2481Y159703D01*
X2500Y159659D01*
X2502Y159659D01*
X2503Y159657D01*
X2588Y159624D01*
X14812Y159624D01*
X14814Y159625D01*
G37*
G36*
X-13635Y159625D02*
X-13635Y159625D01*
X-13632Y159624D01*
X-13589Y159644D01*
X-13546Y159662D01*
X-13545Y159664D01*
X-13543Y159665D01*
X-13510Y159750D01*
X-13510Y171974D01*
X-13511Y171976D01*
X-13510Y171978D01*
X-13530Y172021D01*
X-13549Y172065D01*
X-13551Y172065D01*
X-13552Y172067D01*
X-13637Y172100D01*
X-25861Y172100D01*
X-25863Y172099D01*
X-25865Y172100D01*
X-25908Y172080D01*
X-25951Y172062D01*
X-25952Y172060D01*
X-25954Y172059D01*
X-25987Y171974D01*
X-25987Y159750D01*
X-25986Y159748D01*
X-25987Y159746D01*
X-25967Y159703D01*
X-25948Y159659D01*
X-25946Y159659D01*
X-25945Y159657D01*
X-25861Y159624D01*
X-13637Y159624D01*
X-13635Y159625D01*
G37*
G36*
X590Y159625D02*
X590Y159625D01*
X592Y159624D01*
X635Y159644D01*
X678Y159662D01*
X679Y159664D01*
X681Y159665D01*
X714Y159750D01*
X714Y171974D01*
X713Y171976D01*
X714Y171978D01*
X694Y172021D01*
X675Y172065D01*
X673Y172065D01*
X672Y172067D01*
X588Y172100D01*
X-11637Y172100D01*
X-11639Y172099D01*
X-11641Y172100D01*
X-11684Y172080D01*
X-11727Y172062D01*
X-11728Y172060D01*
X-11730Y172059D01*
X-11763Y171974D01*
X-11763Y159750D01*
X-11762Y159748D01*
X-11763Y159746D01*
X-11743Y159703D01*
X-11724Y159659D01*
X-11722Y159659D01*
X-11721Y159657D01*
X-11637Y159624D01*
X588Y159624D01*
X590Y159625D01*
G37*
G36*
X29038Y159625D02*
X29038Y159625D01*
X29040Y159624D01*
X29083Y159644D01*
X29126Y159662D01*
X29127Y159664D01*
X29129Y159665D01*
X29162Y159750D01*
X29162Y171974D01*
X29161Y171976D01*
X29162Y171978D01*
X29142Y172021D01*
X29123Y172065D01*
X29121Y172065D01*
X29120Y172067D01*
X29036Y172100D01*
X16812Y172100D01*
X16810Y172099D01*
X16807Y172100D01*
X16764Y172080D01*
X16721Y172062D01*
X16720Y172060D01*
X16718Y172059D01*
X16685Y171974D01*
X16685Y159750D01*
X16686Y159748D01*
X16685Y159746D01*
X16705Y159703D01*
X16724Y159659D01*
X16726Y159659D01*
X16727Y159657D01*
X16812Y159624D01*
X29036Y159624D01*
X29038Y159625D01*
G37*
G36*
X-13635Y145401D02*
X-13635Y145401D01*
X-13632Y145400D01*
X-13589Y145420D01*
X-13546Y145438D01*
X-13545Y145440D01*
X-13543Y145441D01*
X-13510Y145526D01*
X-13510Y157750D01*
X-13511Y157752D01*
X-13510Y157754D01*
X-13530Y157797D01*
X-13549Y157841D01*
X-13551Y157841D01*
X-13552Y157843D01*
X-13637Y157876D01*
X-25861Y157876D01*
X-25863Y157875D01*
X-25865Y157876D01*
X-25908Y157856D01*
X-25951Y157838D01*
X-25952Y157836D01*
X-25954Y157835D01*
X-25987Y157750D01*
X-25987Y145526D01*
X-25986Y145524D01*
X-25987Y145522D01*
X-25967Y145479D01*
X-25948Y145435D01*
X-25946Y145435D01*
X-25945Y145433D01*
X-25861Y145400D01*
X-13637Y145400D01*
X-13635Y145401D01*
G37*
G36*
X14814Y145401D02*
X14814Y145401D01*
X14816Y145400D01*
X14859Y145420D01*
X14902Y145438D01*
X14903Y145440D01*
X14905Y145441D01*
X14938Y145526D01*
X14938Y157750D01*
X14937Y157752D01*
X14938Y157754D01*
X14918Y157797D01*
X14899Y157841D01*
X14897Y157841D01*
X14896Y157843D01*
X14812Y157876D01*
X2588Y157876D01*
X2586Y157875D01*
X2583Y157876D01*
X2540Y157856D01*
X2497Y157838D01*
X2496Y157836D01*
X2494Y157835D01*
X2461Y157750D01*
X2461Y145526D01*
X2462Y145524D01*
X2461Y145522D01*
X2481Y145479D01*
X2500Y145435D01*
X2502Y145435D01*
X2503Y145433D01*
X2588Y145400D01*
X14812Y145400D01*
X14814Y145401D01*
G37*
G36*
X590Y145401D02*
X590Y145401D01*
X592Y145400D01*
X635Y145420D01*
X678Y145438D01*
X679Y145440D01*
X681Y145441D01*
X714Y145526D01*
X714Y157750D01*
X713Y157752D01*
X714Y157754D01*
X694Y157797D01*
X675Y157841D01*
X673Y157841D01*
X672Y157843D01*
X588Y157876D01*
X-11637Y157876D01*
X-11639Y157875D01*
X-11641Y157876D01*
X-11684Y157856D01*
X-11727Y157838D01*
X-11728Y157836D01*
X-11730Y157835D01*
X-11763Y157750D01*
X-11763Y145526D01*
X-11762Y145524D01*
X-11763Y145522D01*
X-11743Y145479D01*
X-11724Y145435D01*
X-11722Y145435D01*
X-11721Y145433D01*
X-11637Y145400D01*
X588Y145400D01*
X590Y145401D01*
G37*
G36*
X29038Y145401D02*
X29038Y145401D01*
X29040Y145400D01*
X29083Y145420D01*
X29126Y145438D01*
X29127Y145440D01*
X29129Y145441D01*
X29162Y145526D01*
X29162Y157750D01*
X29161Y157752D01*
X29162Y157754D01*
X29142Y157797D01*
X29123Y157841D01*
X29121Y157841D01*
X29120Y157843D01*
X29036Y157876D01*
X16812Y157876D01*
X16810Y157875D01*
X16807Y157876D01*
X16764Y157856D01*
X16721Y157838D01*
X16720Y157836D01*
X16718Y157835D01*
X16685Y157750D01*
X16685Y145526D01*
X16686Y145524D01*
X16685Y145522D01*
X16705Y145479D01*
X16724Y145435D01*
X16726Y145435D01*
X16727Y145433D01*
X16812Y145400D01*
X29036Y145400D01*
X29038Y145401D01*
G37*
G36*
X590Y131177D02*
X590Y131177D01*
X592Y131176D01*
X635Y131196D01*
X678Y131214D01*
X679Y131216D01*
X681Y131217D01*
X714Y131302D01*
X714Y143526D01*
X713Y143528D01*
X714Y143530D01*
X694Y143573D01*
X675Y143617D01*
X673Y143617D01*
X672Y143619D01*
X588Y143652D01*
X-11637Y143652D01*
X-11639Y143651D01*
X-11641Y143652D01*
X-11684Y143632D01*
X-11727Y143614D01*
X-11728Y143612D01*
X-11730Y143611D01*
X-11763Y143526D01*
X-11763Y131302D01*
X-11762Y131300D01*
X-11763Y131298D01*
X-11743Y131255D01*
X-11724Y131211D01*
X-11722Y131211D01*
X-11721Y131209D01*
X-11637Y131176D01*
X588Y131176D01*
X590Y131177D01*
G37*
G36*
X14814Y131177D02*
X14814Y131177D01*
X14816Y131176D01*
X14859Y131196D01*
X14902Y131214D01*
X14903Y131216D01*
X14905Y131217D01*
X14938Y131302D01*
X14938Y143526D01*
X14937Y143528D01*
X14938Y143530D01*
X14918Y143573D01*
X14899Y143617D01*
X14897Y143617D01*
X14896Y143619D01*
X14812Y143652D01*
X2588Y143652D01*
X2586Y143651D01*
X2583Y143652D01*
X2540Y143632D01*
X2497Y143614D01*
X2496Y143612D01*
X2494Y143611D01*
X2461Y143526D01*
X2461Y131302D01*
X2462Y131300D01*
X2461Y131298D01*
X2481Y131255D01*
X2500Y131211D01*
X2502Y131211D01*
X2503Y131209D01*
X2588Y131176D01*
X14812Y131176D01*
X14814Y131177D01*
G37*
G36*
X29038Y131177D02*
X29038Y131177D01*
X29040Y131176D01*
X29083Y131196D01*
X29126Y131214D01*
X29127Y131216D01*
X29129Y131217D01*
X29162Y131302D01*
X29162Y143526D01*
X29161Y143528D01*
X29162Y143530D01*
X29142Y143573D01*
X29123Y143617D01*
X29121Y143617D01*
X29120Y143619D01*
X29036Y143652D01*
X16812Y143652D01*
X16810Y143651D01*
X16807Y143652D01*
X16764Y143632D01*
X16721Y143614D01*
X16720Y143612D01*
X16718Y143611D01*
X16685Y143526D01*
X16685Y131302D01*
X16686Y131300D01*
X16685Y131298D01*
X16705Y131255D01*
X16724Y131211D01*
X16726Y131211D01*
X16727Y131209D01*
X16812Y131176D01*
X29036Y131176D01*
X29038Y131177D01*
G37*
G36*
X-13635Y131177D02*
X-13635Y131177D01*
X-13632Y131176D01*
X-13589Y131196D01*
X-13546Y131214D01*
X-13545Y131216D01*
X-13543Y131217D01*
X-13510Y131302D01*
X-13510Y143526D01*
X-13511Y143528D01*
X-13510Y143530D01*
X-13530Y143573D01*
X-13549Y143617D01*
X-13551Y143617D01*
X-13552Y143619D01*
X-13637Y143652D01*
X-25861Y143652D01*
X-25863Y143651D01*
X-25865Y143652D01*
X-25908Y143632D01*
X-25951Y143614D01*
X-25952Y143612D01*
X-25954Y143611D01*
X-25987Y143526D01*
X-25987Y131302D01*
X-25986Y131300D01*
X-25987Y131298D01*
X-25967Y131255D01*
X-25948Y131211D01*
X-25946Y131211D01*
X-25945Y131209D01*
X-25861Y131176D01*
X-13637Y131176D01*
X-13635Y131177D01*
G37*
D10*
X57150Y135638D03*
X57150Y147638D03*
X57150Y159637D03*
D11*
X47775Y212725D03*
X34775Y212725D03*
D12*
X60325Y201463D03*
X60325Y214463D03*
D11*
X-60475Y211138D03*
X-47475Y211138D03*
D13*
X-138113Y208988D03*
X-138113Y225988D03*
D12*
X92075Y160488D03*
X92075Y147488D03*
X77788Y133200D03*
X77788Y146200D03*
X57150Y187475D03*
X57150Y174475D03*
X66675Y187475D03*
X66675Y174475D03*
X-58738Y163663D03*
X-58738Y150663D03*
D14*
X79375Y190475D03*
X79375Y171475D03*
X93663Y190475D03*
X93663Y171475D03*
X-74613Y168250D03*
X-74613Y149250D03*
D15*
X33225Y225425D03*
X11225Y234925D03*
X11225Y215925D03*
X95138Y223838D03*
X73138Y233338D03*
X73138Y214338D03*
D16*
X35388Y186257D03*
X35388Y181256D03*
X35388Y176254D03*
X35388Y171253D03*
X35388Y166252D03*
X35388Y161251D03*
X35388Y156249D03*
X35388Y151248D03*
X35388Y146247D03*
X35388Y141246D03*
X35388Y136244D03*
X35388Y131243D03*
D17*
X29095Y124950D03*
X24094Y124950D03*
X19092Y124950D03*
X14091Y124950D03*
X9090Y124950D03*
X4089Y124950D03*
X-914Y124950D03*
X-5915Y124950D03*
X-10916Y124950D03*
X-15917Y124950D03*
X-20919Y124950D03*
X-25920Y124950D03*
D16*
X-32213Y131243D03*
X-32213Y136244D03*
X-32213Y141246D03*
X-32213Y146247D03*
X-32213Y151248D03*
X-32213Y156249D03*
X-32213Y161251D03*
X-32213Y166252D03*
X-32213Y171253D03*
X-32213Y176254D03*
X-32213Y181256D03*
X-32213Y186257D03*
D17*
X-25920Y192550D03*
X-20919Y192550D03*
X-15917Y192550D03*
X-10916Y192550D03*
X-5915Y192550D03*
X-914Y192550D03*
X4089Y192550D03*
X9090Y192550D03*
X14091Y192550D03*
X19092Y192550D03*
X24094Y192550D03*
X29095Y192550D03*
M02*
