G04 EAGLE Gerber RS-274X export*
G75*
%MOMM*%
%FSLAX34Y34*%
%LPD*%
%INSolderpaste Top*%
%IPPOS*%
%AMOC8*
5,1,8,0,0,1.08239X$1,22.5*%
G01*
%ADD10R,0.800000X0.800000*%
%ADD11R,0.700000X0.900000*%
%ADD12R,1.000000X1.100000*%
%ADD13R,1.000000X1.400000*%
%ADD14R,0.900000X0.700000*%


D10*
X-139700Y223400D03*
X-139700Y208400D03*
D11*
X20488Y214313D03*
X33488Y214313D03*
D12*
X34363Y173038D03*
X51363Y173038D03*
D13*
X49238Y198550D03*
X68238Y198550D03*
X58738Y220550D03*
X80988Y198550D03*
X99988Y198550D03*
X90488Y220550D03*
X-39713Y136413D03*
X-58713Y136413D03*
X-49213Y114413D03*
X-71463Y142763D03*
X-90463Y142763D03*
X-80963Y120763D03*
X42838Y144350D03*
X23838Y144350D03*
X33338Y122350D03*
X-104750Y211250D03*
X-85750Y211250D03*
X-95250Y233250D03*
X-65063Y209663D03*
X-46063Y209663D03*
X-55563Y231663D03*
X85700Y142763D03*
X66700Y142763D03*
X76200Y120763D03*
D11*
X64938Y182563D03*
X77938Y182563D03*
X-55713Y152400D03*
X-42713Y152400D03*
D14*
X-69850Y170013D03*
X-69850Y157013D03*
X7938Y136375D03*
X7938Y149375D03*
X-95250Y182413D03*
X-95250Y195413D03*
X-66675Y184000D03*
X-66675Y197000D03*
D11*
X69700Y157163D03*
X82700Y157163D03*
D14*
X76200Y236688D03*
X76200Y223688D03*
X103188Y236688D03*
X103188Y223688D03*
X-61913Y98275D03*
X-61913Y111275D03*
X-87313Y96688D03*
X-87313Y109688D03*
X12700Y107800D03*
X12700Y120800D03*
X-112713Y249388D03*
X-112713Y236388D03*
X-68263Y247800D03*
X-68263Y234800D03*
X93663Y106213D03*
X93663Y119213D03*
M02*
